<svg xmlns="http://www.w3.org/2000/svg" viewbox="0 0 88 88">
<path fill-rule="evenodd" d="
 M38.703815 16.000000
 L38.703815 16.000000
 L38.000000 16.138828
 L37.000000 16.373272
 L36.000000 16.646160
 L35.000000 16.958435
 L34.880966 17.000000
 L34.000000 17.312481
 L33.000000 17.708929
 L32.335331 18.000000
 L32.000000 18.149897
 L31.000000 18.638554
 L30.322224 19.000000
 L30.000000 19.176323
 L29.000000 19.767748
 L28.634880 20.000000
 L28.000000 20.416674
 L27.172762 21.000000
 L27.000000 21.126209
 L26.000000 21.904366
 L25.883966 22.000000
 L25.000000 22.759233
 L24.734858 23.000000
 L24.000000 23.698580
 L23.698580 24.000000
 L23.000000 24.734858
 L22.759233 25.000000
 L22.000000 25.883966
 L21.904366 26.000000
 L21.126209 27.000000
 L21.000000 27.172762
 L20.416674 28.000000
 L20.000000 28.634880
 L19.767748 29.000000
 L19.176323 30.000000
 L19.000000 30.322224
 L18.638554 31.000000
 L18.149897 32.000000
 L18.000000 32.335331
 L17.708929 33.000000
 L17.312481 34.000000
 L17.000000 34.880966
 L16.958435 35.000000
 L16.646160 36.000000
 L16.373272 37.000000
 L16.138828 38.000000
 L16.000000 38.703815
 L15.942048 39.000000
 L15.782147 40.000000
 L15.658370 41.000000
 L15.570275 42.000000
 L15.517548 43.000000
 L15.499992 44.000000
 L15.517548 45.000000
 L15.570278 46.000000
 L15.658373 47.000000
 L15.782151 48.000000
 L15.942052 49.000000
 L16.000000 49.296162
 L16.138834 50.000000
 L16.373280 51.000000
 L16.646170 52.000000
 L16.958439 53.000000
 L17.000000 53.119022
 L17.312492 54.000000
 L17.708941 55.000000
 L18.000000 55.664642
 L18.149908 56.000000
 L18.638567 57.000000
 L19.000000 57.677746
 L19.176340 58.000000
 L19.767767 59.000000
 L20.000000 59.365089
 L20.416695 60.000000
 L21.000000 60.827206
 L21.126232 61.000000
 L21.904388 62.000000
 L22.000000 62.116009
 L22.759258 63.000000
 L23.000000 63.265114
 L23.698608 64.000000
 L24.000000 64.301392
 L24.734890 65.000000
 L25.000000 65.240738
 L25.883997 66.000000
 L26.000000 66.095612
 L27.000000 66.873772
 L27.172783 67.000000
 L28.000000 67.583305
 L28.634924 68.000000
 L29.000000 68.232224
 L30.000000 68.823647
 L30.322277 69.000000
 L31.000000 69.361420
 L32.000000 69.850075
 L32.335392 70.000000
 L33.000000 70.291046
 L34.000000 70.687492
 L34.881046 71.000000
 L35.000000 71.041534
 L36.000000 71.353813
 L37.000000 71.626701
 L38.000000 71.861145
 L38.703957 72.000000
 L39.000000 72.057922
 L40.000000 72.217819
 L41.000000 72.341599
 L42.000000 72.429695
 L43.000000 72.482422
 L44.000000 72.499977
 L45.000000 72.482422
 L46.000000 72.429695
 L47.000000 72.341599
 L48.000000 72.217819
 L49.000000 72.057915
 L49.296013 72.000000
 L50.000000 71.861137
 L51.000000 71.626694
 L52.000000 71.353806
 L53.000000 71.041534
 L53.118942 71.000000
 L54.000000 70.687477
 L55.000000 70.291031
 L55.664577 70.000000
 L56.000000 69.850060
 L57.000000 69.361404
 L57.677692 69.000000
 L58.000000 68.823631
 L59.000000 68.232208
 L59.365047 68.000000
 L60.000000 67.583282
 L60.827187 67.000000
 L61.000000 66.873749
 L62.000000 66.095581
 L62.115971 66.000000
 L63.000000 65.240715
 L63.265079 65.000000
 L64.000000 64.301361
 L64.301361 64.000000
 L65.000000 63.265079
 L65.240715 63.000000
 L66.000000 62.115971
 L66.095581 62.000000
 L66.873749 61.000000
 L67.000000 60.827187
 L67.583282 60.000000
 L68.000000 59.365047
 L68.232208 59.000000
 L68.823631 58.000000
 L69.000000 57.677692
 L69.361404 57.000000
 L69.850060 56.000000
 L70.000000 55.664577
 L70.291031 55.000000
 L70.687477 54.000000
 L71.000000 53.118942
 L71.041534 53.000000
 L71.353806 52.000000
 L71.626694 51.000000
 L71.861137 50.000000
 L72.000000 49.296013
 L72.057915 49.000000
 L72.217819 48.000000
 L72.341599 47.000000
 L72.429695 46.000000
 L72.482422 45.000000
 L72.499977 44.000000
 L72.482422 43.000000
 L72.429695 42.000000
 L72.341599 41.000000
 L72.217819 40.000000
 L72.057922 39.000000
 L72.000000 38.703957
 L71.861145 38.000000
 L71.626701 37.000000
 L71.353813 36.000000
 L71.041534 35.000000
 L71.000000 34.881046
 L70.687492 34.000000
 L70.291046 33.000000
 L70.000000 32.335392
 L69.850075 32.000000
 L69.361420 31.000000
 L69.000000 30.322277
 L68.823647 30.000000
 L68.232224 29.000000
 L68.000000 28.634924
 L67.583305 28.000000
 L67.000000 27.172783
 L66.873772 27.000000
 L66.095612 26.000000
 L66.000000 25.883997
 L65.240738 25.000000
 L65.000000 24.734890
 L64.301392 24.000000
 L64.000000 23.698608
 L63.265114 23.000000
 L63.000000 22.759258
 L62.116009 22.000000
 L62.000000 21.904388
 L61.000000 21.126232
 L60.827206 21.000000
 L60.000000 20.416695
 L59.365089 20.000000
 L59.000000 19.767767
 L58.000000 19.176340
 L57.677746 19.000000
 L57.000000 18.638567
 L56.000000 18.149908
 L55.664642 18.000000
 L55.000000 17.708941
 L54.000000 17.312492
 L53.119022 17.000000
 L53.000000 16.958439
 L52.000000 16.646170
 L51.000000 16.373280
 L50.000000 16.138834
 L49.296162 16.000000
 L49.000000 15.942052
 L48.000000 15.782151
 L47.000000 15.658373
 L46.000000 15.570278
 L45.000000 15.517548
 L44.000000 15.499992
 L43.000000 15.517548
 L42.000000 15.570275
 L41.000000 15.658371
 L40.000000 15.782147
 Z
 M36.000000 6.851717
 L36.000000 6.851717
 L37.000000 6.650400
 L38.000000 6.476754
 L39.000000 6.330431
 L40.000000 6.211134
 L41.000000 6.118613
 L42.000000 6.052669
 L43.000000 6.013160
 L44.000000 6.000000
 L45.000000 6.013160
 L46.000000 6.052673
 L47.000000 6.118617
 L48.000000 6.211138
 L49.000000 6.330435
 L50.000000 6.476759
 L51.000000 6.650404
 L52.000000 6.851721
 L52.647739 7.000000
 L53.000000 7.081227
 L54.000000 7.339611
 L55.000000 7.627204
 L56.000000 7.944563
 L56.160564 8.000000
 L57.000000 8.293209
 L58.000000 8.673383
 L58.793922 9.000000
 L59.000000 9.086001
 L60.000000 9.533275
 L60.969841 10.000000
 L61.000000 10.014764
 L62.000000 10.534441
 L62.838692 11.000000
 L63.000000 11.091368
 L64.000000 11.689930
 L64.489563 12.000000
 L65.000000 12.330912
 L65.976898 13.000000
 L66.000000 13.016234
 L67.000000 13.752163
 L67.320892 14.000000
 L68.000000 14.539856
 L68.553108 15.000000
 L69.000000 15.383629
 L69.688171 16.000000
 L70.000000 16.288948
 L70.737617 17.000000
 L71.000000 17.262383
 L71.711052 18.000000
 L72.000000 18.311832
 L72.616364 19.000000
 L73.000000 19.446894
 L73.460136 20.000000
 L74.000000 20.679125
 L74.247826 21.000000
 L74.983757 22.000000
 L75.000000 22.023117
 L75.669083 23.000000
 L76.000000 23.510454
 L76.310051 24.000000
 L76.908615 25.000000
 L77.000000 25.161345
 L77.465546 26.000000
 L77.985222 27.000000
 L78.000000 27.030191
 L78.466713 28.000000
 L78.913986 29.000000
 L79.000000 29.206118
 L79.326599 30.000000
 L79.706764 31.000000
 L80.000000 31.839514
 L80.055412 32.000000
 L80.372772 33.000000
 L80.660370 34.000000
 L80.918755 35.000000
 L81.000000 35.352341
 L81.148262 36.000000
 L81.349579 37.000000
 L81.523224 38.000000
 L81.669540 39.000000
 L81.788841 40.000000
 L81.881355 41.000000
 L81.947304 42.000000
 L81.986809 43.000000
 L81.999969 44.000000
 L81.986809 45.000000
 L81.947296 46.000000
 L81.881355 47.000000
 L81.788834 48.000000
 L81.669540 49.000000
 L81.523216 50.000000
 L81.349571 51.000000
 L81.148254 52.000000
 L81.000000 52.647640
 L80.918747 53.000000
 L80.660362 54.000000
 L80.372765 55.000000
 L80.055397 56.000000
 L80.000000 56.160454
 L79.706757 57.000000
 L79.326584 58.000000
 L79.000000 58.793846
 L78.913963 59.000000
 L78.466698 60.000000
 L78.000000 60.969784
 L77.985207 61.000000
 L77.465523 62.000000
 L77.000000 62.838627
 L76.908592 63.000000
 L76.310036 64.000000
 L76.000000 64.489517
 L75.669060 65.000000
 L75.000000 65.976860
 L74.983742 66.000000
 L74.247810 67.000000
 L74.000000 67.320854
 L73.460114 68.000000
 L73.000000 68.553078
 L72.616341 69.000000
 L72.000000 69.688141
 L71.711021 70.000000
 L71.000000 70.737587
 L70.737587 71.000000
 L70.000000 71.711021
 L69.688141 72.000000
 L69.000000 72.616341
 L68.553078 73.000000
 L68.000000 73.460114
 L67.320854 74.000000
 L67.000000 74.247810
 L66.000000 74.983742
 L65.976860 75.000000
 L65.000000 75.669060
 L64.489517 76.000000
 L64.000000 76.310036
 L63.000000 76.908592
 L62.838627 77.000000
 L62.000000 77.465523
 L61.000000 77.985207
 L60.969784 78.000000
 L60.000000 78.466698
 L59.000000 78.913963
 L58.793846 79.000000
 L58.000000 79.326584
 L57.000000 79.706757
 L56.160454 80.000000
 L56.000000 80.055397
 L55.000000 80.372765
 L54.000000 80.660362
 L53.000000 80.918747
 L52.647640 81.000000
 L52.000000 81.148254
 L51.000000 81.349571
 L50.000000 81.523216
 L49.000000 81.669540
 L48.000000 81.788834
 L47.000000 81.881355
 L46.000000 81.947296
 L45.000000 81.986809
 L44.000000 81.999969
 L43.000000 81.986809
 L42.000000 81.947304
 L41.000000 81.881355
 L40.000000 81.788841
 L39.000000 81.669540
 L38.000000 81.523224
 L37.000000 81.349579
 L36.000000 81.148262
 L35.352341 81.000000
 L35.000000 80.918755
 L34.000000 80.660370
 L33.000000 80.372772
 L32.000000 80.055412
 L31.839514 80.000000
 L31.000000 79.706764
 L30.000000 79.326599
 L29.206118 79.000000
 L29.000000 78.913986
 L28.000000 78.466713
 L27.030191 78.000000
 L27.000000 77.985222
 L26.000000 77.465546
 L25.161345 77.000000
 L25.000000 76.908615
 L24.000000 76.310051
 L23.510454 76.000000
 L23.000000 75.669083
 L22.023117 75.000000
 L22.000000 74.983757
 L21.000000 74.247826
 L20.679125 74.000000
 L20.000000 73.460136
 L19.446894 73.000000
 L19.000000 72.616364
 L18.311832 72.000000
 L18.000000 71.711052
 L17.262383 71.000000
 L17.000000 70.737617
 L16.288948 70.000000
 L16.000000 69.688171
 L15.383629 69.000000
 L15.000000 68.553108
 L14.539856 68.000000
 L14.000000 67.320892
 L13.752163 67.000000
 L13.016234 66.000000
 L13.000000 65.976898
 L12.330912 65.000000
 L12.000000 64.489563
 L11.689930 64.000000
 L11.091368 63.000000
 L11.000000 62.838692
 L10.534441 62.000000
 L10.014764 61.000000
 L10.000000 60.969841
 L9.533275 60.000000
 L9.086001 59.000000
 L9.000000 58.793922
 L8.673383 58.000000
 L8.293209 57.000000
 L8.000000 56.160564
 L7.944563 56.000000
 L7.627204 55.000000
 L7.339611 54.000000
 L7.081227 53.000000
 L7.000000 52.647739
 L6.851721 52.000000
 L6.650404 51.000000
 L6.476759 50.000000
 L6.330435 49.000000
 L6.211138 48.000000
 L6.118617 47.000000
 L6.052672 46.000000
 L6.013160 45.000000
 L6.000000 44.000000
 L6.013160 43.000000
 L6.052669 42.000000
 L6.118613 41.000000
 L6.211134 40.000000
 L6.330431 39.000000
 L6.476754 38.000000
 L6.650400 37.000000
 L6.851717 36.000000
 L7.000000 35.352245
 L7.081224 35.000000
 L7.339603 34.000000
 L7.627195 33.000000
 L7.944551 32.000000
 L8.000000 31.839403
 L8.293198 31.000000
 L8.673368 30.000000
 L9.000000 29.206049
 L9.085990 29.000000
 L9.533260 28.000000
 L10.000000 27.030125
 L10.014748 27.000000
 L10.534424 26.000000
 L11.000000 25.161278
 L11.091351 25.000000
 L11.689913 24.000000
 L12.000000 23.510406
 L12.330890 23.000000
 L13.000000 22.023071
 L13.016212 22.000000
 L13.752151 21.000000
 L14.000000 20.679089
 L14.539832 20.000000
 L15.000000 19.446861
 L15.383605 19.000000
 L16.000000 18.311804
 L16.288923 18.000000
 L17.000000 17.262354
 L17.262354 17.000000
 L18.000000 16.288923
 L18.311804 16.000000
 L19.000000 15.383605
 L19.446861 15.000000
 L20.000000 14.539832
 L20.679089 14.000000
 L21.000000 13.752151
 L22.000000 13.016212
 L22.023071 13.000000
 L23.000000 12.330890
 L23.510406 12.000000
 L24.000000 11.689913
 L25.000000 11.091351
 L25.161278 11.000000
 L26.000000 10.534424
 L27.000000 10.014748
 L27.030125 10.000000
 L28.000000 9.533260
 L29.000000 9.085990
 L29.206049 9.000000
 L30.000000 8.673368
 L31.000000 8.293198
 L31.839403 8.000000
 L32.000000 7.944551
 L33.000000 7.627195
 L34.000000 7.339603
 L35.000000 7.081224
 Z
 " style="fill:red; stroke:none; stroke-width:0"></path>
<path fill-rule="evenodd" d="
 M38.000000 25.972301
 L38.000000 25.972301
 L39.000000 25.670099
 L40.000000 25.426111
 L41.000000 25.238457
 L42.000000 25.105583
 L43.000000 25.026335
 L44.000000 25.000000
 L45.000000 25.026337
 L46.000000 25.105587
 L47.000000 25.238462
 L48.000000 25.426117
 L49.000000 25.670109
 L50.000000 25.972311
 L50.077568 26.000000
 L51.000000 26.337349
 L52.000000 26.767206
 L52.473522 27.000000
 L53.000000 27.268143
 L54.000000 27.845600
 L54.240700 28.000000
 L55.000000 28.510773
 L55.655811 29.000000
 L56.000000 29.271809
 L56.842342 30.000000
 L57.000000 30.145769
 L57.854229 31.000000
 L58.000000 31.157658
 L58.728184 32.000000
 L59.000000 32.344200
 L59.489220 33.000000
 L60.000000 33.759315
 L60.154388 34.000000
 L60.731834 35.000000
 L61.000000 35.526516
 L61.232777 36.000000
 L61.662632 37.000000
 L62.000000 37.922485
 L62.027668 38.000000
 L62.329872 39.000000
 L62.573860 40.000000
 L62.761513 41.000000
 L62.894386 42.000000
 L62.973637 43.000000
 L62.999969 44.000000
 L62.973633 45.000000
 L62.894386 46.000000
 L62.761509 47.000000
 L62.573853 48.000000
 L62.329865 49.000000
 L62.027660 50.000000
 L62.000000 50.077488
 L61.662621 51.000000
 L61.232765 52.000000
 L61.000000 52.473461
 L60.731827 53.000000
 L60.154369 54.000000
 L60.000000 54.240654
 L59.489197 55.000000
 L59.000000 55.655769
 L58.728161 56.000000
 L58.000000 56.842312
 L57.854202 57.000000
 L57.000000 57.854202
 L56.842312 58.000000
 L56.000000 58.728161
 L55.655769 59.000000
 L55.000000 59.489197
 L54.240654 60.000000
 L54.000000 60.154369
 L53.000000 60.731827
 L52.473461 61.000000
 L52.000000 61.232765
 L51.000000 61.662621
 L50.077488 62.000000
 L50.000000 62.027660
 L49.000000 62.329865
 L48.000000 62.573853
 L47.000000 62.761509
 L46.000000 62.894386
 L45.000000 62.973633
 L44.000000 62.999969
 L43.000000 62.973637
 L42.000000 62.894386
 L41.000000 62.761513
 L40.000000 62.573860
 L39.000000 62.329872
 L38.000000 62.027668
 L37.922485 62.000000
 L37.000000 61.662632
 L36.000000 61.232777
 L35.526516 61.000000
 L35.000000 60.731834
 L34.000000 60.154388
 L33.759315 60.000000
 L33.000000 59.489220
 L32.344200 59.000000
 L32.000000 58.728184
 L31.157658 58.000000
 L31.000000 57.854229
 L30.145769 57.000000
 L30.000000 56.842342
 L29.271809 56.000000
 L29.000000 55.655811
 L28.510773 55.000000
 L28.000000 54.240700
 L27.845600 54.000000
 L27.268143 53.000000
 L27.000000 52.473522
 L26.767206 52.000000
 L26.337349 51.000000
 L26.000000 50.077568
 L25.972311 50.000000
 L25.670109 49.000000
 L25.426117 48.000000
 L25.238462 47.000000
 L25.105587 46.000000
 L25.026337 45.000000
 L25.000000 44.000000
 L25.026335 43.000000
 L25.105583 42.000000
 L25.238457 41.000000
 L25.426111 40.000000
 L25.670099 39.000000
 L25.972301 38.000000
 L26.000000 37.922405
 L26.337337 37.000000
 L26.767193 36.000000
 L27.000000 35.526455
 L27.268135 35.000000
 L27.845583 34.000000
 L28.000000 33.759274
 L28.510750 33.000000
 L29.000000 32.344162
 L29.271786 32.000000
 L30.000000 31.157625
 L30.145741 31.000000
 L31.000000 30.145741
 L31.157625 30.000000
 L32.000000 29.271786
 L32.344162 29.000000
 L33.000000 28.510750
 L33.759274 28.000000
 L34.000000 27.845583
 L35.000000 27.268135
 L35.526455 27.000000
 L36.000000 26.767193
 L37.000000 26.337337
 Z
 " style="fill:black; stroke:none; stroke-width:0"></path>
</svg>
