<svg xmlns="http://www.w3.org/2000/svg" viewbox="0 0 88 88">
<path fill-rule="evenodd" d="
 M38.402637 18.000000
 L38.402637 18.000000
 L38.000000 18.085590
 L37.000000 18.337870
 L36.000000 18.631912
 L35.000000 18.968876
 L34.917366 19.000000
 L34.000000 19.351917
 L33.000000 19.781580
 L32.538830 20.000000
 L32.000000 20.261412
 L31.000000 20.793926
 L30.643742 21.000000
 L30.000000 21.383757
 L29.049135 22.000000
 L29.000000 22.032969
 L28.000000 22.751614
 L27.677460 23.000000
 L27.000000 23.543720
 L26.466618 24.000000
 L26.000000 24.418158
 L25.387146 25.000000
 L25.000000 25.387146
 L24.418158 26.000000
 L24.000000 26.466618
 L23.543720 27.000000
 L23.000000 27.677460
 L22.751614 28.000000
 L22.032969 29.000000
 L22.000000 29.049135
 L21.383757 30.000000
 L21.000000 30.643742
 L20.793926 31.000000
 L20.261412 32.000000
 L20.000000 32.538830
 L19.781580 33.000000
 L19.351917 34.000000
 L19.000000 34.917366
 L18.968876 35.000000
 L18.631912 36.000000
 L18.337868 37.000000
 L18.085590 38.000000
 L18.000000 38.402637
 L17.874212 39.000000
 L17.702549 40.000000
 L17.569765 41.000000
 L17.475315 42.000000
 L17.418804 43.000000
 L17.399994 44.000000
 L17.418804 45.000000
 L17.475317 46.000000
 L17.569767 47.000000
 L17.702553 48.000000
 L17.874218 49.000000
 L18.000000 49.597336
 L18.085596 50.000000
 L18.337875 51.000000
 L18.631920 52.000000
 L18.968880 53.000000
 L19.000000 53.082623
 L19.351929 54.000000
 L19.781593 55.000000
 L20.000000 55.461143
 L20.261425 56.000000
 L20.793941 57.000000
 L21.000000 57.356228
 L21.383776 58.000000
 L22.000000 58.950836
 L22.032988 59.000000
 L22.751637 60.000000
 L23.000000 60.322514
 L23.543745 61.000000
 L24.000000 61.533352
 L24.418186 62.000000
 L25.000000 62.612823
 L25.387175 63.000000
 L26.000000 63.581814
 L26.466652 64.000000
 L27.000000 64.456253
 L27.677496 65.000000
 L28.000000 65.248360
 L29.000000 65.967003
 L29.049179 66.000000
 L30.000000 66.616226
 L30.643766 67.000000
 L31.000000 67.206055
 L32.000000 67.738564
 L32.538891 68.000000
 L33.000000 68.218391
 L34.000000 68.648056
 L34.917442 69.000000
 L35.000000 69.031097
 L36.000000 69.368057
 L37.000000 69.662102
 L38.000000 69.914383
 L38.402771 70.000000
 L39.000000 70.125755
 L40.000000 70.297424
 L41.000000 70.430206
 L42.000000 70.524658
 L43.000000 70.581169
 L44.000000 70.599976
 L45.000000 70.581169
 L46.000000 70.524658
 L47.000000 70.430206
 L48.000000 70.297417
 L49.000000 70.125755
 L49.597195 70.000000
 L50.000000 69.914375
 L51.000000 69.662094
 L52.000000 69.368050
 L53.000000 69.031090
 L53.082546 69.000000
 L54.000000 68.648041
 L55.000000 68.218376
 L55.461082 68.000000
 L56.000000 67.738548
 L57.000000 67.206039
 L57.356205 67.000000
 L58.000000 66.616203
 L58.950790 66.000000
 L59.000000 65.966980
 L60.000000 65.248337
 L60.322475 65.000000
 L61.000000 64.456223
 L61.533318 64.000000
 L62.000000 63.581783
 L62.612793 63.000000
 L63.000000 62.612793
 L63.581783 62.000000
 L64.000000 61.533318
 L64.456223 61.000000
 L65.000000 60.322475
 L65.248337 60.000000
 L65.966980 59.000000
 L66.000000 58.950790
 L66.616203 58.000000
 L67.000000 57.356205
 L67.206039 57.000000
 L67.738548 56.000000
 L68.000000 55.461082
 L68.218376 55.000000
 L68.648041 54.000000
 L69.000000 53.082546
 L69.031090 53.000000
 L69.368050 52.000000
 L69.662094 51.000000
 L69.914375 50.000000
 L70.000000 49.597195
 L70.125755 49.000000
 L70.297417 48.000000
 L70.430206 47.000000
 L70.524658 46.000000
 L70.581169 45.000000
 L70.599976 44.000000
 L70.581169 43.000000
 L70.524658 42.000000
 L70.430206 41.000000
 L70.297424 40.000000
 L70.125755 39.000000
 L70.000000 38.402771
 L69.914383 38.000000
 L69.662102 37.000000
 L69.368057 36.000000
 L69.031097 35.000000
 L69.000000 34.917442
 L68.648056 34.000000
 L68.218391 33.000000
 L68.000000 32.538891
 L67.738564 32.000000
 L67.206055 31.000000
 L67.000000 30.643766
 L66.616226 30.000000
 L66.000000 29.049179
 L65.967003 29.000000
 L65.248360 28.000000
 L65.000000 27.677496
 L64.456253 27.000000
 L64.000000 26.466652
 L63.581814 26.000000
 L63.000000 25.387175
 L62.612823 25.000000
 L62.000000 24.418186
 L61.533352 24.000000
 L61.000000 23.543745
 L60.322514 23.000000
 L60.000000 22.751637
 L59.000000 22.032988
 L58.950836 22.000000
 L58.000000 21.383776
 L57.356228 21.000000
 L57.000000 20.793941
 L56.000000 20.261427
 L55.461143 20.000000
 L55.000000 19.781593
 L54.000000 19.351929
 L53.082623 19.000000
 L53.000000 18.968880
 L52.000000 18.631920
 L51.000000 18.337875
 L50.000000 18.085596
 L49.597336 18.000000
 L49.000000 17.874218
 L48.000000 17.702553
 L47.000000 17.569767
 L46.000000 17.475317
 L45.000000 17.418804
 L44.000000 17.399994
 L43.000000 17.418804
 L42.000000 17.475315
 L41.000000 17.569765
 L40.000000 17.702549
 Z
 M36.000000 6.851717
 L36.000000 6.851717
 L37.000000 6.650400
 L38.000000 6.476754
 L39.000000 6.330431
 L40.000000 6.211134
 L41.000000 6.118613
 L42.000000 6.052669
 L43.000000 6.013160
 L44.000000 6.000000
 L45.000000 6.013160
 L46.000000 6.052673
 L47.000000 6.118617
 L48.000000 6.211138
 L49.000000 6.330435
 L50.000000 6.476759
 L51.000000 6.650404
 L52.000000 6.851721
 L52.647739 7.000000
 L53.000000 7.081227
 L54.000000 7.339611
 L55.000000 7.627204
 L56.000000 7.944563
 L56.160564 8.000000
 L57.000000 8.293209
 L58.000000 8.673383
 L58.793922 9.000000
 L59.000000 9.086001
 L60.000000 9.533275
 L60.969841 10.000000
 L61.000000 10.014764
 L62.000000 10.534441
 L62.838692 11.000000
 L63.000000 11.091368
 L64.000000 11.689930
 L64.489563 12.000000
 L65.000000 12.330912
 L65.976898 13.000000
 L66.000000 13.016234
 L67.000000 13.752163
 L67.320892 14.000000
 L68.000000 14.539856
 L68.553108 15.000000
 L69.000000 15.383629
 L69.688171 16.000000
 L70.000000 16.288948
 L70.737617 17.000000
 L71.000000 17.262383
 L71.711052 18.000000
 L72.000000 18.311832
 L72.616364 19.000000
 L73.000000 19.446894
 L73.460136 20.000000
 L74.000000 20.679125
 L74.247826 21.000000
 L74.983757 22.000000
 L75.000000 22.023117
 L75.669083 23.000000
 L76.000000 23.510454
 L76.310051 24.000000
 L76.908615 25.000000
 L77.000000 25.161345
 L77.465546 26.000000
 L77.985222 27.000000
 L78.000000 27.030191
 L78.466713 28.000000
 L78.913986 29.000000
 L79.000000 29.206118
 L79.326599 30.000000
 L79.706764 31.000000
 L80.000000 31.839514
 L80.055412 32.000000
 L80.372772 33.000000
 L80.660370 34.000000
 L80.918755 35.000000
 L81.000000 35.352341
 L81.148262 36.000000
 L81.349579 37.000000
 L81.523224 38.000000
 L81.669540 39.000000
 L81.788841 40.000000
 L81.881355 41.000000
 L81.947304 42.000000
 L81.986809 43.000000
 L81.999969 44.000000
 L81.986809 45.000000
 L81.947296 46.000000
 L81.881355 47.000000
 L81.788834 48.000000
 L81.669540 49.000000
 L81.523216 50.000000
 L81.349571 51.000000
 L81.148254 52.000000
 L81.000000 52.647640
 L80.918747 53.000000
 L80.660362 54.000000
 L80.372765 55.000000
 L80.055397 56.000000
 L80.000000 56.160454
 L79.706757 57.000000
 L79.326584 58.000000
 L79.000000 58.793846
 L78.913963 59.000000
 L78.466698 60.000000
 L78.000000 60.969784
 L77.985207 61.000000
 L77.465523 62.000000
 L77.000000 62.838627
 L76.908592 63.000000
 L76.310036 64.000000
 L76.000000 64.489517
 L75.669060 65.000000
 L75.000000 65.976860
 L74.983742 66.000000
 L74.247810 67.000000
 L74.000000 67.320854
 L73.460114 68.000000
 L73.000000 68.553078
 L72.616341 69.000000
 L72.000000 69.688141
 L71.711021 70.000000
 L71.000000 70.737587
 L70.737587 71.000000
 L70.000000 71.711021
 L69.688141 72.000000
 L69.000000 72.616341
 L68.553078 73.000000
 L68.000000 73.460114
 L67.320854 74.000000
 L67.000000 74.247810
 L66.000000 74.983742
 L65.976860 75.000000
 L65.000000 75.669060
 L64.489517 76.000000
 L64.000000 76.310036
 L63.000000 76.908592
 L62.838627 77.000000
 L62.000000 77.465523
 L61.000000 77.985207
 L60.969784 78.000000
 L60.000000 78.466698
 L59.000000 78.913963
 L58.793846 79.000000
 L58.000000 79.326584
 L57.000000 79.706757
 L56.160454 80.000000
 L56.000000 80.055397
 L55.000000 80.372765
 L54.000000 80.660362
 L53.000000 80.918747
 L52.647640 81.000000
 L52.000000 81.148254
 L51.000000 81.349571
 L50.000000 81.523216
 L49.000000 81.669540
 L48.000000 81.788834
 L47.000000 81.881355
 L46.000000 81.947296
 L45.000000 81.986809
 L44.000000 81.999969
 L43.000000 81.986809
 L42.000000 81.947304
 L41.000000 81.881355
 L40.000000 81.788841
 L39.000000 81.669540
 L38.000000 81.523224
 L37.000000 81.349579
 L36.000000 81.148262
 L35.352341 81.000000
 L35.000000 80.918755
 L34.000000 80.660370
 L33.000000 80.372772
 L32.000000 80.055412
 L31.839514 80.000000
 L31.000000 79.706764
 L30.000000 79.326599
 L29.206118 79.000000
 L29.000000 78.913986
 L28.000000 78.466713
 L27.030191 78.000000
 L27.000000 77.985222
 L26.000000 77.465546
 L25.161345 77.000000
 L25.000000 76.908615
 L24.000000 76.310051
 L23.510454 76.000000
 L23.000000 75.669083
 L22.023117 75.000000
 L22.000000 74.983757
 L21.000000 74.247826
 L20.679125 74.000000
 L20.000000 73.460136
 L19.446894 73.000000
 L19.000000 72.616364
 L18.311832 72.000000
 L18.000000 71.711052
 L17.262383 71.000000
 L17.000000 70.737617
 L16.288948 70.000000
 L16.000000 69.688171
 L15.383629 69.000000
 L15.000000 68.553108
 L14.539856 68.000000
 L14.000000 67.320892
 L13.752163 67.000000
 L13.016234 66.000000
 L13.000000 65.976898
 L12.330912 65.000000
 L12.000000 64.489563
 L11.689930 64.000000
 L11.091368 63.000000
 L11.000000 62.838692
 L10.534441 62.000000
 L10.014764 61.000000
 L10.000000 60.969841
 L9.533275 60.000000
 L9.086001 59.000000
 L9.000000 58.793922
 L8.673383 58.000000
 L8.293209 57.000000
 L8.000000 56.160564
 L7.944563 56.000000
 L7.627204 55.000000
 L7.339611 54.000000
 L7.081227 53.000000
 L7.000000 52.647739
 L6.851721 52.000000
 L6.650404 51.000000
 L6.476759 50.000000
 L6.330435 49.000000
 L6.211138 48.000000
 L6.118617 47.000000
 L6.052672 46.000000
 L6.013160 45.000000
 L6.000000 44.000000
 L6.013160 43.000000
 L6.052669 42.000000
 L6.118613 41.000000
 L6.211134 40.000000
 L6.330431 39.000000
 L6.476754 38.000000
 L6.650400 37.000000
 L6.851717 36.000000
 L7.000000 35.352245
 L7.081224 35.000000
 L7.339603 34.000000
 L7.627195 33.000000
 L7.944551 32.000000
 L8.000000 31.839403
 L8.293198 31.000000
 L8.673368 30.000000
 L9.000000 29.206049
 L9.085990 29.000000
 L9.533260 28.000000
 L10.000000 27.030125
 L10.014748 27.000000
 L10.534424 26.000000
 L11.000000 25.161278
 L11.091351 25.000000
 L11.689913 24.000000
 L12.000000 23.510406
 L12.330890 23.000000
 L13.000000 22.023071
 L13.016212 22.000000
 L13.752151 21.000000
 L14.000000 20.679089
 L14.539832 20.000000
 L15.000000 19.446861
 L15.383605 19.000000
 L16.000000 18.311804
 L16.288923 18.000000
 L17.000000 17.262354
 L17.262354 17.000000
 L18.000000 16.288923
 L18.311804 16.000000
 L19.000000 15.383605
 L19.446861 15.000000
 L20.000000 14.539832
 L20.679089 14.000000
 L21.000000 13.752151
 L22.000000 13.016212
 L22.023071 13.000000
 L23.000000 12.330890
 L23.510406 12.000000
 L24.000000 11.689913
 L25.000000 11.091351
 L25.161278 11.000000
 L26.000000 10.534424
 L27.000000 10.014748
 L27.030125 10.000000
 L28.000000 9.533260
 L29.000000 9.085990
 L29.206049 9.000000
 L30.000000 8.673368
 L31.000000 8.293198
 L31.839403 8.000000
 L32.000000 7.944551
 L33.000000 7.627195
 L34.000000 7.339603
 L35.000000 7.081224
 Z
 " style="fill:red; stroke:none; stroke-width:0"></path>
<path fill-rule="evenodd" d="
 M38.000000 25.972301
 L38.000000 25.972301
 L39.000000 25.670099
 L40.000000 25.426111
 L41.000000 25.238457
 L42.000000 25.105583
 L43.000000 25.026335
 L44.000000 25.000000
 L45.000000 25.026337
 L46.000000 25.105587
 L47.000000 25.238462
 L48.000000 25.426117
 L49.000000 25.670109
 L50.000000 25.972311
 L50.077568 26.000000
 L51.000000 26.337349
 L52.000000 26.767206
 L52.473522 27.000000
 L53.000000 27.268143
 L54.000000 27.845600
 L54.240700 28.000000
 L55.000000 28.510773
 L55.655811 29.000000
 L56.000000 29.271809
 L56.842342 30.000000
 L57.000000 30.145769
 L57.854229 31.000000
 L58.000000 31.157658
 L58.728184 32.000000
 L59.000000 32.344200
 L59.489220 33.000000
 L60.000000 33.759315
 L60.154388 34.000000
 L60.731834 35.000000
 L61.000000 35.526516
 L61.232777 36.000000
 L61.662632 37.000000
 L62.000000 37.922485
 L62.027668 38.000000
 L62.329872 39.000000
 L62.573860 40.000000
 L62.761513 41.000000
 L62.894386 42.000000
 L62.973637 43.000000
 L62.999969 44.000000
 L62.973633 45.000000
 L62.894386 46.000000
 L62.761509 47.000000
 L62.573853 48.000000
 L62.329865 49.000000
 L62.027660 50.000000
 L62.000000 50.077488
 L61.662621 51.000000
 L61.232765 52.000000
 L61.000000 52.473461
 L60.731827 53.000000
 L60.154369 54.000000
 L60.000000 54.240654
 L59.489197 55.000000
 L59.000000 55.655769
 L58.728161 56.000000
 L58.000000 56.842312
 L57.854202 57.000000
 L57.000000 57.854202
 L56.842312 58.000000
 L56.000000 58.728161
 L55.655769 59.000000
 L55.000000 59.489197
 L54.240654 60.000000
 L54.000000 60.154369
 L53.000000 60.731827
 L52.473461 61.000000
 L52.000000 61.232765
 L51.000000 61.662621
 L50.077488 62.000000
 L50.000000 62.027660
 L49.000000 62.329865
 L48.000000 62.573853
 L47.000000 62.761509
 L46.000000 62.894386
 L45.000000 62.973633
 L44.000000 62.999969
 L43.000000 62.973637
 L42.000000 62.894386
 L41.000000 62.761513
 L40.000000 62.573860
 L39.000000 62.329872
 L38.000000 62.027668
 L37.922485 62.000000
 L37.000000 61.662632
 L36.000000 61.232777
 L35.526516 61.000000
 L35.000000 60.731834
 L34.000000 60.154388
 L33.759315 60.000000
 L33.000000 59.489220
 L32.344200 59.000000
 L32.000000 58.728184
 L31.157658 58.000000
 L31.000000 57.854229
 L30.145769 57.000000
 L30.000000 56.842342
 L29.271809 56.000000
 L29.000000 55.655811
 L28.510773 55.000000
 L28.000000 54.240700
 L27.845600 54.000000
 L27.268143 53.000000
 L27.000000 52.473522
 L26.767206 52.000000
 L26.337349 51.000000
 L26.000000 50.077568
 L25.972311 50.000000
 L25.670109 49.000000
 L25.426117 48.000000
 L25.238462 47.000000
 L25.105587 46.000000
 L25.026337 45.000000
 L25.000000 44.000000
 L25.026335 43.000000
 L25.105583 42.000000
 L25.238457 41.000000
 L25.426111 40.000000
 L25.670099 39.000000
 L25.972301 38.000000
 L26.000000 37.922405
 L26.337337 37.000000
 L26.767193 36.000000
 L27.000000 35.526455
 L27.268135 35.000000
 L27.845583 34.000000
 L28.000000 33.759274
 L28.510750 33.000000
 L29.000000 32.344162
 L29.271786 32.000000
 L30.000000 31.157625
 L30.145741 31.000000
 L31.000000 30.145741
 L31.157625 30.000000
 L32.000000 29.271786
 L32.344162 29.000000
 L33.000000 28.510750
 L33.759274 28.000000
 L34.000000 27.845583
 L35.000000 27.268135
 L35.526455 27.000000
 L36.000000 26.767193
 L37.000000 26.337337
 Z
 " style="fill:black; stroke:none; stroke-width:0"></path>
</svg>
