<svg xmlns="http://www.w3.org/2000/svg" viewbox="0 0 88 88">
<path fill-rule="evenodd" d="
 M63.000000 72.807297
 L63.000000 72.807297
 L63.417282 73.000000
 L64.000000 74.000000
 L63.712761 75.000000
 L63.000000 75.712761
 L62.000000 76.000000
 L61.000000 75.417282
 L60.807297 75.000000
 L61.000000 74.704552
 L61.540184 74.000000
 L62.000000 73.540184
 Z
 M51.000000 72.807297
 L51.000000 72.807297
 L51.417282 73.000000
 L52.000000 74.000000
 L51.712761 75.000000
 L51.000000 75.712761
 L50.000000 76.000000
 L49.000000 75.417282
 L48.807297 75.000000
 L49.000000 74.704552
 L49.540184 74.000000
 L50.000000 73.540184
 Z
 M39.000000 72.807297
 L39.000000 72.807297
 L39.417282 73.000000
 L40.000000 74.000000
 L39.712761 75.000000
 L39.000000 75.712761
 L38.000000 76.000000
 L37.000000 75.417282
 L36.807297 75.000000
 L37.000000 74.704552
 L37.540184 74.000000
 L38.000000 73.540184
 Z
 M27.000000 72.807297
 L27.000000 72.807297
 L27.417284 73.000000
 L28.000000 74.000000
 L27.712761 75.000000
 L27.000000 75.712761
 L26.000000 76.000000
 L25.000000 75.417282
 L24.807299 75.000000
 L25.000000 74.704552
 L25.540186 74.000000
 L26.000000 73.540184
 Z
 M75.000000 60.807297
 L75.000000 60.807297
 L75.417282 61.000000
 L76.000000 62.000000
 L75.712761 63.000000
 L75.000000 63.712761
 L74.000000 64.000000
 L73.000000 63.417282
 L72.807297 63.000000
 L73.000000 62.704552
 L73.540184 62.000000
 L74.000000 61.540184
 Z
 M63.000000 60.807297
 L63.000000 60.807297
 L63.417282 61.000000
 L64.000000 62.000000
 L63.712761 63.000000
 L63.000000 63.712761
 L62.000000 64.000000
 L61.000000 63.417282
 L60.807297 63.000000
 L61.000000 62.704552
 L61.540184 62.000000
 L62.000000 61.540184
 Z
 M51.000000 60.807297
 L51.000000 60.807297
 L51.417282 61.000000
 L52.000000 62.000000
 L51.712761 63.000000
 L51.000000 63.712761
 L50.000000 64.000000
 L49.000000 63.417282
 L48.807297 63.000000
 L49.000000 62.704552
 L49.540184 62.000000
 L50.000000 61.540184
 Z
 M39.000000 60.807297
 L39.000000 60.807297
 L39.417282 61.000000
 L40.000000 62.000000
 L39.712761 63.000000
 L39.000000 63.712761
 L38.000000 64.000000
 L37.000000 63.417282
 L36.807297 63.000000
 L37.000000 62.704552
 L37.540184 62.000000
 L38.000000 61.540184
 Z
 M27.000000 60.807297
 L27.000000 60.807297
 L27.417284 61.000000
 L28.000000 62.000000
 L27.712761 63.000000
 L27.000000 63.712761
 L26.000000 64.000000
 L25.000000 63.417282
 L24.807299 63.000000
 L25.000000 62.704552
 L25.540186 62.000000
 L26.000000 61.540184
 Z
 M15.000000 60.807297
 L15.000000 60.807297
 L15.417283 61.000000
 L16.000000 62.000000
 L15.712762 63.000000
 L15.000000 63.712761
 L14.000000 64.000000
 L13.000000 63.417282
 L12.807298 63.000000
 L13.000000 62.704552
 L13.540186 62.000000
 L14.000000 61.540184
 Z
 M9.000000 60.807297
 L9.000000 60.807297
 L9.295450 61.000000
 L10.000000 61.540184
 L10.459814 62.000000
 L11.000000 62.704552
 L11.192702 63.000000
 L11.000000 63.417282
 L10.000000 64.000000
 L11.000000 64.287239
 L11.712762 65.000000
 L12.000000 66.000000
 L12.287238 65.000000
 L13.000000 64.287239
 L14.000000 64.000000
 L15.000000 64.287239
 L15.712762 65.000000
 L16.000000 66.000000
 L15.712762 67.000000
 L15.000000 67.712761
 L14.000000 68.000000
 L15.000000 68.287239
 L15.712762 69.000000
 L16.000000 70.000000
 L15.417283 71.000000
 L15.000000 71.192703
 L14.704550 71.000000
 L14.000000 70.427589
 L13.604289 70.000000
 L13.000000 69.268799
 L12.807298 69.000000
 L13.000000 68.582718
 L14.000000 68.000000
 L13.000000 67.712761
 L12.287238 67.000000
 L12.000000 66.000000
 L11.000000 66.601692
 L10.594501 66.000000
 L10.000000 65.070198
 L9.956078 65.000000
 L10.000000 64.000000
 L9.000000 63.360374
 L8.801072 63.000000
 L8.279433 62.000000
 Z
 M7.000000 56.287239
 L7.000000 56.287239
 L7.712762 57.000000
 L8.000000 58.000000
 L7.241274 59.000000
 L7.000000 59.194302
 L6.919147 59.000000
 L6.530419 58.000000
 Z
 M75.000000 48.807297
 L75.000000 48.807297
 L75.417282 49.000000
 L76.000000 50.000000
 L75.712761 51.000000
 L75.000000 51.712761
 L74.000000 52.000000
 L73.000000 51.417282
 L72.807297 51.000000
 L73.000000 50.704552
 L73.540184 50.000000
 L74.000000 49.540184
 Z
 M63.000000 48.807297
 L63.000000 48.807297
 L63.417282 49.000000
 L64.000000 50.000000
 L63.712761 51.000000
 L63.000000 51.712761
 L62.000000 52.000000
 L61.000000 51.417282
 L60.807297 51.000000
 L61.000000 50.704552
 L61.540184 50.000000
 L62.000000 49.540184
 Z
 M51.000000 48.807297
 L51.000000 48.807297
 L51.417282 49.000000
 L52.000000 50.000000
 L51.712761 51.000000
 L51.000000 51.712761
 L50.000000 52.000000
 L49.000000 51.417282
 L48.807297 51.000000
 L49.000000 50.704552
 L49.540184 50.000000
 L50.000000 49.540184
 Z
 M39.000000 48.807297
 L39.000000 48.807297
 L39.417282 49.000000
 L40.000000 50.000000
 L39.712761 51.000000
 L39.000000 51.712761
 L38.000000 52.000000
 L37.000000 51.417282
 L36.807297 51.000000
 L37.000000 50.704552
 L37.540184 50.000000
 L38.000000 49.540184
 Z
 M27.000000 48.807297
 L27.000000 48.807297
 L27.417284 49.000000
 L28.000000 50.000000
 L27.712761 51.000000
 L27.000000 51.712761
 L26.000000 52.000000
 L25.000000 51.417282
 L24.807299 51.000000
 L25.000000 50.704552
 L25.540186 50.000000
 L26.000000 49.540184
 Z
 M15.000000 48.807297
 L15.000000 48.807297
 L15.417283 49.000000
 L16.000000 50.000000
 L15.712762 51.000000
 L15.000000 51.712761
 L14.000000 52.000000
 L13.000000 51.417282
 L12.807298 51.000000
 L13.000000 50.704552
 L13.540186 50.000000
 L14.000000 49.540184
 Z
 M75.000000 36.807297
 L75.000000 36.807297
 L75.417282 37.000000
 L76.000000 38.000000
 L75.712761 39.000000
 L75.000000 39.712761
 L74.000000 40.000000
 L73.000000 39.417282
 L72.807297 39.000000
 L73.000000 38.704552
 L73.540184 38.000000
 L74.000000 37.540184
 Z
 M63.000000 36.807297
 L63.000000 36.807297
 L63.417282 37.000000
 L64.000000 38.000000
 L63.712761 39.000000
 L63.000000 39.712761
 L62.000000 40.000000
 L61.000000 39.417282
 L60.807297 39.000000
 L61.000000 38.704552
 L61.540184 38.000000
 L62.000000 37.540184
 Z
 M51.000000 36.807297
 L51.000000 36.807297
 L51.417282 37.000000
 L52.000000 38.000000
 L51.712761 39.000000
 L51.000000 39.712761
 L50.000000 40.000000
 L49.000000 39.417282
 L48.807297 39.000000
 L49.000000 38.704552
 L49.540184 38.000000
 L50.000000 37.540184
 Z
 M39.000000 36.807297
 L39.000000 36.807297
 L39.417282 37.000000
 L40.000000 38.000000
 L39.712761 39.000000
 L39.000000 39.712761
 L38.000000 40.000000
 L37.000000 39.417282
 L36.807297 39.000000
 L37.000000 38.704552
 L37.540184 38.000000
 L38.000000 37.540184
 Z
 M27.000000 36.807297
 L27.000000 36.807297
 L27.417284 37.000000
 L28.000000 38.000000
 L27.712761 39.000000
 L27.000000 39.712761
 L26.000000 40.000000
 L25.000000 39.417282
 L24.807299 39.000000
 L25.000000 38.704552
 L25.540186 38.000000
 L26.000000 37.540184
 Z
 M15.000000 36.807297
 L15.000000 36.807297
 L15.417283 37.000000
 L16.000000 38.000000
 L15.712762 39.000000
 L15.000000 39.712761
 L14.000000 40.000000
 L13.000000 39.417282
 L12.807298 39.000000
 L13.000000 38.704552
 L13.540186 38.000000
 L14.000000 37.540184
 Z
 M6.000000 32.000000
 L6.000000 32.000000
 L7.000000 32.287239
 L7.712762 33.000000
 L8.000000 34.000000
 L7.712762 35.000000
 L7.000000 35.712761
 L6.000000 36.000000
 L7.000000 36.287239
 L7.712762 37.000000
 L8.000000 38.000000
 L8.582717 37.000000
 L9.000000 36.807297
 L9.295450 37.000000
 L10.000000 37.540184
 L10.459814 38.000000
 L11.000000 38.704552
 L11.192702 39.000000
 L11.000000 39.417282
 L10.000000 40.000000
 L9.000000 39.712761
 L8.287238 39.000000
 L8.000000 38.000000
 L7.712762 39.000000
 L7.000000 39.712761
 L6.000000 40.000000
 L7.000000 40.287239
 L7.712762 41.000000
 L8.000000 42.000000
 L8.287238 41.000000
 L9.000000 40.287239
 L10.000000 40.000000
 L11.000000 40.287239
 L11.712762 41.000000
 L12.000000 42.000000
 L12.287238 41.000000
 L13.000000 40.287239
 L14.000000 40.000000
 L15.000000 40.287239
 L15.712762 41.000000
 L16.000000 42.000000
 L15.712762 43.000000
 L15.000000 43.712761
 L14.000000 44.000000
 L15.000000 44.287239
 L15.712762 45.000000
 L16.000000 46.000000
 L15.417283 47.000000
 L15.000000 47.192703
 L14.704550 47.000000
 L14.000000 46.459816
 L13.540186 46.000000
 L13.000000 45.295448
 L12.807298 45.000000
 L13.000000 44.582718
 L14.000000 44.000000
 L13.000000 43.712761
 L12.287238 43.000000
 L12.000000 42.000000
 L11.712762 43.000000
 L11.000000 43.712761
 L10.000000 44.000000
 L9.000000 43.712761
 L8.287238 43.000000
 L8.000000 42.000000
 L7.712762 43.000000
 L7.000000 43.712761
 L6.000000 44.000000
 L7.000000 44.287239
 L7.712762 45.000000
 L8.000000 46.000000
 L8.287238 45.000000
 L9.000000 44.287239
 L10.000000 44.000000
 L11.000000 44.582718
 L11.192702 45.000000
 L11.000000 45.295448
 L10.459814 46.000000
 L10.000000 46.459816
 L9.295450 47.000000
 L9.000000 47.192703
 L8.582717 47.000000
 L8.000000 46.000000
 L7.712762 47.000000
 L7.000000 47.712761
 L6.000000 48.000000
 L7.000000 48.287239
 L7.712762 49.000000
 L8.000000 50.000000
 L8.582717 49.000000
 L9.000000 48.807297
 L9.295450 49.000000
 L10.000000 49.540184
 L10.459814 50.000000
 L11.000000 50.704552
 L11.192702 51.000000
 L11.000000 51.417282
 L10.000000 52.000000
 L9.000000 51.712761
 L8.287238 51.000000
 L8.000000 50.000000
 L7.712762 51.000000
 L7.000000 51.712761
 L6.000000 52.000000
 L7.000000 52.287239
 L7.712762 53.000000
 L8.000000 54.000000
 L8.287238 53.000000
 L9.000000 52.287239
 L10.000000 52.000000
 L11.000000 52.287239
 L11.712762 53.000000
 L12.000000 54.000000
 L12.287238 53.000000
 L13.000000 52.287239
 L14.000000 52.000000
 L15.000000 52.287239
 L15.712762 53.000000
 L16.000000 54.000000
 L15.712762 55.000000
 L15.000000 55.712761
 L14.000000 56.000000
 L15.000000 56.287239
 L15.712762 57.000000
 L16.000000 58.000000
 L15.417283 59.000000
 L15.000000 59.192703
 L14.704550 59.000000
 L14.000000 58.459816
 L13.540186 58.000000
 L13.000000 57.295448
 L12.807298 57.000000
 L13.000000 56.582718
 L14.000000 56.000000
 L13.000000 55.712761
 L12.287238 55.000000
 L12.000000 54.000000
 L11.712762 55.000000
 L11.000000 55.712761
 L10.000000 56.000000
 L11.000000 56.582718
 L11.192702 57.000000
 L11.000000 57.295448
 L10.459814 58.000000
 L10.000000 58.459816
 L9.295450 59.000000
 L9.000000 59.192703
 L8.582717 59.000000
 L8.000000 58.000000
 L8.287238 57.000000
 L9.000000 56.287239
 L10.000000 56.000000
 L9.000000 55.712761
 L8.287238 55.000000
 L8.000000 54.000000
 L7.712762 55.000000
 L7.000000 55.712761
 L6.000000 56.000000
 L5.542475 55.000000
 L5.270326 54.000000
 L5.025668 53.000000
 L6.000000 52.000000
 L5.000000 51.614799
 L4.617354 51.000000
 L4.452631 50.000000
 L4.347003 49.000000
 L5.000000 48.287239
 L6.000000 48.000000
 L5.000000 47.712761
 L4.287238 47.000000
 L4.050033 46.000000
 L4.287238 45.000000
 L5.000000 44.287239
 L6.000000 44.000000
 L5.000000 43.712761
 L4.287238 43.000000
 L4.050033 42.000000
 L4.287238 41.000000
 L5.000000 40.287239
 L6.000000 40.000000
 L5.000000 39.712761
 L4.347003 39.000000
 L4.452631 38.000000
 L4.617354 37.000000
 L5.000000 36.385201
 L6.000000 36.000000
 L5.025668 35.000000
 L5.270326 34.000000
 Z
 M7.000000 28.805698
 L7.000000 28.805698
 L7.241274 29.000000
 L8.000000 30.000000
 L7.712762 31.000000
 L7.000000 31.712761
 L6.216818 31.000000
 L6.530419 30.000000
 Z
 M75.000000 24.807299
 L75.000000 24.807299
 L75.417282 25.000000
 L76.000000 26.000000
 L75.712761 27.000000
 L75.000000 27.712761
 L74.000000 28.000000
 L73.000000 27.417284
 L72.807297 27.000000
 L73.000000 26.704550
 L73.540184 26.000000
 L74.000000 25.540186
 Z
 M63.000000 24.807299
 L63.000000 24.807299
 L63.417282 25.000000
 L64.000000 26.000000
 L63.712761 27.000000
 L63.000000 27.712761
 L62.000000 28.000000
 L61.000000 27.417284
 L60.807297 27.000000
 L61.000000 26.704550
 L61.540184 26.000000
 L62.000000 25.540186
 Z
 M51.000000 24.807299
 L51.000000 24.807299
 L51.417282 25.000000
 L52.000000 26.000000
 L51.712761 27.000000
 L51.000000 27.712761
 L50.000000 28.000000
 L49.000000 27.417284
 L48.807297 27.000000
 L49.000000 26.704550
 L49.540184 26.000000
 L50.000000 25.540186
 Z
 M39.000000 24.807299
 L39.000000 24.807299
 L39.417282 25.000000
 L40.000000 26.000000
 L39.712761 27.000000
 L39.000000 27.712761
 L38.000000 28.000000
 L37.000000 27.417284
 L36.807297 27.000000
 L37.000000 26.704550
 L37.540184 26.000000
 L38.000000 25.540186
 Z
 M27.000000 24.807299
 L27.000000 24.807299
 L27.417284 25.000000
 L28.000000 26.000000
 L27.712761 27.000000
 L27.000000 27.712761
 L26.000000 28.000000
 L25.000000 27.417284
 L24.807299 27.000000
 L25.000000 26.704550
 L25.540186 26.000000
 L26.000000 25.540186
 Z
 M15.000000 24.807299
 L15.000000 24.807299
 L15.417283 25.000000
 L16.000000 26.000000
 L15.712762 27.000000
 L15.000000 27.712761
 L14.000000 28.000000
 L13.000000 27.417284
 L12.807298 27.000000
 L13.000000 26.704550
 L13.540186 26.000000
 L14.000000 25.540186
 Z
 M9.000000 24.807299
 L9.000000 24.807299
 L9.295450 25.000000
 L10.000000 25.540186
 L10.459814 26.000000
 L11.000000 26.704550
 L11.192702 27.000000
 L11.000000 27.417284
 L10.000000 28.000000
 L11.000000 28.287239
 L11.712762 29.000000
 L12.000000 30.000000
 L12.287238 29.000000
 L13.000000 28.287239
 L14.000000 28.000000
 L15.000000 28.287239
 L15.712762 29.000000
 L16.000000 30.000000
 L15.712762 31.000000
 L15.000000 31.712761
 L14.000000 32.000000
 L15.000000 32.287239
 L15.712762 33.000000
 L16.000000 34.000000
 L15.417283 35.000000
 L15.000000 35.192703
 L14.704550 35.000000
 L14.000000 34.459816
 L13.540186 34.000000
 L13.000000 33.295448
 L12.807298 33.000000
 L13.000000 32.582718
 L14.000000 32.000000
 L13.000000 31.712761
 L12.287238 31.000000
 L12.000000 30.000000
 L11.712762 31.000000
 L11.000000 31.712761
 L10.000000 32.000000
 L11.000000 32.582718
 L11.192702 33.000000
 L11.000000 33.295448
 L10.459814 34.000000
 L10.000000 34.459816
 L9.295450 35.000000
 L9.000000 35.192703
 L8.582717 35.000000
 L8.000000 34.000000
 L8.287238 33.000000
 L9.000000 32.287239
 L10.000000 32.000000
 L9.000000 31.712761
 L8.287238 31.000000
 L8.000000 30.000000
 L8.287238 29.000000
 L9.000000 28.287239
 L10.000000 28.000000
 L9.000000 27.712761
 L8.287238 27.000000
 L8.279433 26.000000
 Z
 M15.000000 16.452412
 L15.000000 16.452412
 L15.614798 17.000000
 L16.000000 18.000000
 L15.712762 19.000000
 L15.000000 19.712761
 L14.000000 20.000000
 L15.000000 20.287239
 L15.712762 21.000000
 L16.000000 22.000000
 L15.417283 23.000000
 L15.000000 23.192701
 L14.704550 23.000000
 L14.000000 22.459814
 L13.540186 22.000000
 L13.000000 21.295450
 L12.807298 21.000000
 L13.000000 20.582716
 L14.000000 20.000000
 L13.000000 19.426256
 L12.776085 19.000000
 L13.000000 18.723909
 L13.604289 18.000000
 L14.000000 17.545120
 Z
 M63.000000 12.807298
 L63.000000 12.807298
 L63.417282 13.000000
 L64.000000 14.000000
 L63.712761 15.000000
 L63.000000 15.712762
 L62.000000 16.000000
 L61.000000 15.417283
 L60.807297 15.000000
 L61.000000 14.704550
 L61.540184 14.000000
 L62.000000 13.540186
 Z
 M51.000000 12.807298
 L51.000000 12.807298
 L51.417282 13.000000
 L52.000000 14.000000
 L51.712761 15.000000
 L51.000000 15.712762
 L50.000000 16.000000
 L49.000000 15.417283
 L48.807297 15.000000
 L49.000000 14.704550
 L49.540184 14.000000
 L50.000000 13.540186
 Z
 M39.000000 12.807298
 L39.000000 12.807298
 L39.417282 13.000000
 L40.000000 14.000000
 L39.712761 15.000000
 L39.000000 15.712762
 L38.000000 16.000000
 L37.000000 15.417283
 L36.807297 15.000000
 L37.000000 14.704550
 L37.540184 14.000000
 L38.000000 13.540186
 Z
 M27.000000 12.807298
 L27.000000 12.807298
 L27.417284 13.000000
 L28.000000 14.000000
 L27.712761 15.000000
 L27.000000 15.712762
 L26.000000 16.000000
 L25.000000 15.417283
 L24.807299 15.000000
 L25.000000 14.704550
 L25.540186 14.000000
 L26.000000 13.540186
 Z
 M19.000000 12.776085
 L19.000000 12.776085
 L19.426256 13.000000
 L20.000000 14.000000
 L20.582716 13.000000
 L21.000000 12.807298
 L21.295450 13.000000
 L22.000000 13.540186
 L22.459814 14.000000
 L23.000000 14.704550
 L23.192701 15.000000
 L23.000000 15.417283
 L22.000000 16.000000
 L21.000000 15.712762
 L20.287239 15.000000
 L20.000000 14.000000
 L19.712761 15.000000
 L19.000000 15.712762
 L18.000000 16.000000
 L19.000000 16.287239
 L19.712761 17.000000
 L20.000000 18.000000
 L20.287239 17.000000
 L21.000000 16.287239
 L22.000000 16.000000
 L23.000000 16.287239
 L23.712761 17.000000
 L24.000000 18.000000
 L24.287239 17.000000
 L25.000000 16.287239
 L26.000000 16.000000
 L27.000000 16.287239
 L27.712761 17.000000
 L28.000000 18.000000
 L27.712761 19.000000
 L27.000000 19.712761
 L26.000000 20.000000
 L27.000000 20.287239
 L27.712761 21.000000
 L28.000000 22.000000
 L27.417284 23.000000
 L27.000000 23.192701
 L26.704550 23.000000
 L26.000000 22.459814
 L25.540186 22.000000
 L25.000000 21.295450
 L24.807299 21.000000
 L25.000000 20.582716
 L26.000000 20.000000
 L25.000000 19.712761
 L24.287239 19.000000
 L24.000000 18.000000
 L23.712761 19.000000
 L23.000000 19.712761
 L22.000000 20.000000
 L21.000000 19.712761
 L20.287239 19.000000
 L20.000000 18.000000
 L19.712761 19.000000
 L19.000000 19.712761
 L18.000000 20.000000
 L19.000000 20.287239
 L19.712761 21.000000
 L20.000000 22.000000
 L20.287239 21.000000
 L21.000000 20.287239
 L22.000000 20.000000
 L23.000000 20.582716
 L23.192701 21.000000
 L23.000000 21.295450
 L22.459814 22.000000
 L22.000000 22.459814
 L21.295450 23.000000
 L21.000000 23.192701
 L20.582716 23.000000
 L20.000000 22.000000
 L19.712761 23.000000
 L19.000000 23.712761
 L18.000000 24.000000
 L19.000000 24.287239
 L19.712761 25.000000
 L20.000000 26.000000
 L20.582716 25.000000
 L21.000000 24.807299
 L21.295450 25.000000
 L22.000000 25.540186
 L22.459814 26.000000
 L23.000000 26.704550
 L23.192701 27.000000
 L23.000000 27.417284
 L22.000000 28.000000
 L21.000000 27.712761
 L20.287239 27.000000
 L20.000000 26.000000
 L19.712761 27.000000
 L19.000000 27.712761
 L18.000000 28.000000
 L19.000000 28.287239
 L19.712761 29.000000
 L20.000000 30.000000
 L20.287239 29.000000
 L21.000000 28.287239
 L22.000000 28.000000
 L23.000000 28.287239
 L23.712761 29.000000
 L24.000000 30.000000
 L24.287239 29.000000
 L25.000000 28.287239
 L26.000000 28.000000
 L27.000000 28.287239
 L27.712761 29.000000
 L28.000000 30.000000
 L27.712761 31.000000
 L27.000000 31.712761
 L26.000000 32.000000
 L27.000000 32.287239
 L27.712761 33.000000
 L28.000000 34.000000
 L27.417284 35.000000
 L27.000000 35.192703
 L26.704550 35.000000
 L26.000000 34.459816
 L25.540186 34.000000
 L25.000000 33.295448
 L24.807299 33.000000
 L25.000000 32.582718
 L26.000000 32.000000
 L25.000000 31.712761
 L24.287239 31.000000
 L24.000000 30.000000
 L23.712761 31.000000
 L23.000000 31.712761
 L22.000000 32.000000
 L21.000000 31.712761
 L20.287239 31.000000
 L20.000000 30.000000
 L19.712761 31.000000
 L19.000000 31.712761
 L18.000000 32.000000
 L19.000000 32.287239
 L19.712761 33.000000
 L20.000000 34.000000
 L20.287239 33.000000
 L21.000000 32.287239
 L22.000000 32.000000
 L23.000000 32.582718
 L23.192701 33.000000
 L23.000000 33.295448
 L22.459814 34.000000
 L22.000000 34.459816
 L21.295450 35.000000
 L21.000000 35.192703
 L20.582716 35.000000
 L20.000000 34.000000
 L19.712761 35.000000
 L19.000000 35.712761
 L18.000000 36.000000
 L19.000000 36.287239
 L19.712761 37.000000
 L20.000000 38.000000
 L20.582716 37.000000
 L21.000000 36.807297
 L21.295450 37.000000
 L22.000000 37.540184
 L22.459814 38.000000
 L23.000000 38.704552
 L23.192701 39.000000
 L23.000000 39.417282
 L22.000000 40.000000
 L21.000000 39.712761
 L20.287239 39.000000
 L20.000000 38.000000
 L19.712761 39.000000
 L19.000000 39.712761
 L18.000000 40.000000
 L19.000000 40.287239
 L19.712761 41.000000
 L20.000000 42.000000
 L20.287239 41.000000
 L21.000000 40.287239
 L22.000000 40.000000
 L23.000000 40.287239
 L23.712761 41.000000
 L24.000000 42.000000
 L24.287239 41.000000
 L25.000000 40.287239
 L26.000000 40.000000
 L27.000000 40.287239
 L27.712761 41.000000
 L28.000000 42.000000
 L27.712761 43.000000
 L27.000000 43.712761
 L26.000000 44.000000
 L27.000000 44.287239
 L27.712761 45.000000
 L28.000000 46.000000
 L27.417284 47.000000
 L27.000000 47.192703
 L26.704550 47.000000
 L26.000000 46.459816
 L25.540186 46.000000
 L25.000000 45.295448
 L24.807299 45.000000
 L25.000000 44.582718
 L26.000000 44.000000
 L25.000000 43.712761
 L24.287239 43.000000
 L24.000000 42.000000
 L23.712761 43.000000
 L23.000000 43.712761
 L22.000000 44.000000
 L21.000000 43.712761
 L20.287239 43.000000
 L20.000000 42.000000
 L19.712761 43.000000
 L19.000000 43.712761
 L18.000000 44.000000
 L19.000000 44.287239
 L19.712761 45.000000
 L20.000000 46.000000
 L20.287239 45.000000
 L21.000000 44.287239
 L22.000000 44.000000
 L23.000000 44.582718
 L23.192701 45.000000
 L23.000000 45.295448
 L22.459814 46.000000
 L22.000000 46.459816
 L21.295450 47.000000
 L21.000000 47.192703
 L20.582716 47.000000
 L20.000000 46.000000
 L19.712761 47.000000
 L19.000000 47.712761
 L18.000000 48.000000
 L19.000000 48.287239
 L19.712761 49.000000
 L20.000000 50.000000
 L20.582716 49.000000
 L21.000000 48.807297
 L21.295450 49.000000
 L22.000000 49.540184
 L22.459814 50.000000
 L23.000000 50.704552
 L23.192701 51.000000
 L23.000000 51.417282
 L22.000000 52.000000
 L21.000000 51.712761
 L20.287239 51.000000
 L20.000000 50.000000
 L19.712761 51.000000
 L19.000000 51.712761
 L18.000000 52.000000
 L19.000000 52.287239
 L19.712761 53.000000
 L20.000000 54.000000
 L20.287239 53.000000
 L21.000000 52.287239
 L22.000000 52.000000
 L23.000000 52.287239
 L23.712761 53.000000
 L24.000000 54.000000
 L24.287239 53.000000
 L25.000000 52.287239
 L26.000000 52.000000
 L27.000000 52.287239
 L27.712761 53.000000
 L28.000000 54.000000
 L27.712761 55.000000
 L27.000000 55.712761
 L26.000000 56.000000
 L27.000000 56.287239
 L27.712761 57.000000
 L28.000000 58.000000
 L27.417284 59.000000
 L27.000000 59.192703
 L26.704550 59.000000
 L26.000000 58.459816
 L25.540186 58.000000
 L25.000000 57.295448
 L24.807299 57.000000
 L25.000000 56.582718
 L26.000000 56.000000
 L25.000000 55.712761
 L24.287239 55.000000
 L24.000000 54.000000
 L23.712761 55.000000
 L23.000000 55.712761
 L22.000000 56.000000
 L21.000000 55.712761
 L20.287239 55.000000
 L20.000000 54.000000
 L19.712761 55.000000
 L19.000000 55.712761
 L18.000000 56.000000
 L19.000000 56.287239
 L19.712761 57.000000
 L20.000000 58.000000
 L20.287239 57.000000
 L21.000000 56.287239
 L22.000000 56.000000
 L23.000000 56.582718
 L23.192701 57.000000
 L23.000000 57.295448
 L22.459814 58.000000
 L22.000000 58.459816
 L21.295450 59.000000
 L21.000000 59.192703
 L20.582716 59.000000
 L20.000000 58.000000
 L19.712761 59.000000
 L19.000000 59.712761
 L18.000000 60.000000
 L19.000000 60.287239
 L19.712761 61.000000
 L20.000000 62.000000
 L20.582716 61.000000
 L21.000000 60.807297
 L21.295450 61.000000
 L22.000000 61.540184
 L22.459814 62.000000
 L23.000000 62.704552
 L23.192701 63.000000
 L23.000000 63.417282
 L22.000000 64.000000
 L21.000000 63.712761
 L20.287239 63.000000
 L20.000000 62.000000
 L19.712761 63.000000
 L19.000000 63.712761
 L18.000000 64.000000
 L19.000000 64.287239
 L19.712761 65.000000
 L20.000000 66.000000
 L20.287239 65.000000
 L21.000000 64.287239
 L22.000000 64.000000
 L23.000000 64.287239
 L23.712761 65.000000
 L24.000000 66.000000
 L24.287239 65.000000
 L25.000000 64.287239
 L26.000000 64.000000
 L27.000000 64.287239
 L27.712761 65.000000
 L28.000000 66.000000
 L27.712761 67.000000
 L27.000000 67.712761
 L26.000000 68.000000
 L27.000000 68.287239
 L27.712761 69.000000
 L28.000000 70.000000
 L27.417284 71.000000
 L27.000000 71.192703
 L26.704550 71.000000
 L26.000000 70.459816
 L25.540186 70.000000
 L25.000000 69.295448
 L24.807299 69.000000
 L25.000000 68.582718
 L26.000000 68.000000
 L25.000000 67.712761
 L24.287239 67.000000
 L24.000000 66.000000
 L23.712761 67.000000
 L23.000000 67.712761
 L22.000000 68.000000
 L21.000000 67.712761
 L20.287239 67.000000
 L20.000000 66.000000
 L19.712761 67.000000
 L19.000000 67.712761
 L18.000000 68.000000
 L19.000000 68.287239
 L19.712761 69.000000
 L20.000000 70.000000
 L20.287239 69.000000
 L21.000000 68.287239
 L22.000000 68.000000
 L23.000000 68.582718
 L23.192701 69.000000
 L23.000000 69.295448
 L22.459814 70.000000
 L22.000000 70.459816
 L21.295450 71.000000
 L21.000000 71.192703
 L20.582716 71.000000
 L20.000000 70.000000
 L19.712761 71.000000
 L19.000000 71.712761
 L18.000000 72.000000
 L19.000000 72.287239
 L19.712761 73.000000
 L20.000000 74.000000
 L20.582716 73.000000
 L21.000000 72.807297
 L21.295450 73.000000
 L22.000000 73.540184
 L22.459814 74.000000
 L23.000000 74.704552
 L23.192701 75.000000
 L23.000000 75.417282
 L22.000000 76.000000
 L23.000000 76.287239
 L23.712761 77.000000
 L24.000000 78.000000
 L24.287239 77.000000
 L25.000000 76.287239
 L26.000000 76.000000
 L27.000000 76.287239
 L27.712761 77.000000
 L28.000000 78.000000
 L27.712761 79.000000
 L27.000000 79.712761
 L26.000000 79.720566
 L25.000000 79.198929
 L24.639624 79.000000
 L24.000000 78.000000
 L23.000000 78.043922
 L22.929800 78.000000
 L22.000000 77.405502
 L21.398308 77.000000
 L22.000000 76.000000
 L21.000000 75.712761
 L20.287239 75.000000
 L20.000000 74.000000
 L19.426256 75.000000
 L19.000000 75.223915
 L18.723909 75.000000
 L18.000000 74.395714
 L17.545120 74.000000
 L17.000000 73.510780
 L16.452412 73.000000
 L17.000000 72.385201
 L18.000000 72.000000
 L17.000000 71.712761
 L16.287239 71.000000
 L16.000000 70.000000
 L16.287239 69.000000
 L17.000000 68.287239
 L18.000000 68.000000
 L17.000000 67.712761
 L16.287239 67.000000
 L16.000000 66.000000
 L16.287239 65.000000
 L17.000000 64.287239
 L18.000000 64.000000
 L17.000000 63.712761
 L16.287239 63.000000
 L16.000000 62.000000
 L16.287239 61.000000
 L17.000000 60.287239
 L18.000000 60.000000
 L17.000000 59.712761
 L16.287239 59.000000
 L16.000000 58.000000
 L16.287239 57.000000
 L17.000000 56.287239
 L18.000000 56.000000
 L17.000000 55.712761
 L16.287239 55.000000
 L16.000000 54.000000
 L16.287239 53.000000
 L17.000000 52.287239
 L18.000000 52.000000
 L17.000000 51.712761
 L16.287239 51.000000
 L16.000000 50.000000
 L16.287239 49.000000
 L17.000000 48.287239
 L18.000000 48.000000
 L17.000000 47.712761
 L16.287239 47.000000
 L16.000000 46.000000
 L16.287239 45.000000
 L17.000000 44.287239
 L18.000000 44.000000
 L17.000000 43.712761
 L16.287239 43.000000
 L16.000000 42.000000
 L16.287239 41.000000
 L17.000000 40.287239
 L18.000000 40.000000
 L17.000000 39.712761
 L16.287239 39.000000
 L16.000000 38.000000
 L16.287239 37.000000
 L17.000000 36.287239
 L18.000000 36.000000
 L17.000000 35.712761
 L16.287239 35.000000
 L16.000000 34.000000
 L16.287239 33.000000
 L17.000000 32.287239
 L18.000000 32.000000
 L17.000000 31.712761
 L16.287239 31.000000
 L16.000000 30.000000
 L16.287239 29.000000
 L17.000000 28.287239
 L18.000000 28.000000
 L17.000000 27.712761
 L16.287239 27.000000
 L16.000000 26.000000
 L16.287239 25.000000
 L17.000000 24.287239
 L18.000000 24.000000
 L17.000000 23.712761
 L16.287239 23.000000
 L16.000000 22.000000
 L16.287239 21.000000
 L17.000000 20.287239
 L18.000000 20.000000
 L17.000000 19.712761
 L16.287239 19.000000
 L16.000000 18.000000
 L16.287239 17.000000
 L17.000000 16.287239
 L18.000000 16.000000
 L17.000000 15.614798
 L16.452412 15.000000
 L17.000000 14.489220
 L17.545120 14.000000
 L18.000000 13.604289
 Z
 M61.000000 8.582717
 L61.000000 8.582717
 L62.000000 8.279433
 L63.000000 8.801072
 L63.360374 9.000000
 L64.000000 10.000000
 L65.000000 9.956078
 L65.070198 10.000000
 L66.000000 10.594501
 L66.601692 11.000000
 L66.000000 12.000000
 L67.000000 12.287238
 L67.712761 13.000000
 L68.000000 14.000000
 L68.582718 13.000000
 L69.000000 12.807298
 L69.268799 13.000000
 L70.000000 13.604289
 L70.427589 14.000000
 L71.000000 14.704550
 L71.192703 15.000000
 L71.000000 15.417283
 L70.000000 16.000000
 L69.000000 15.712762
 L68.287239 15.000000
 L68.000000 14.000000
 L67.712761 15.000000
 L67.000000 15.712762
 L66.000000 16.000000
 L65.000000 15.712762
 L64.287239 15.000000
 L64.000000 14.000000
 L64.287239 13.000000
 L65.000000 12.287238
 L66.000000 12.000000
 L65.000000 11.712762
 L64.287239 11.000000
 L64.000000 10.000000
 L63.417282 11.000000
 L63.000000 11.192702
 L62.704552 11.000000
 L62.000000 10.459814
 L61.540184 10.000000
 L61.000000 9.295450
 Z
 M25.000000 8.806871
 L25.000000 8.806871
 L26.000000 8.279433
 L27.000000 8.287238
 L27.712761 9.000000
 L28.000000 10.000000
 L27.417284 11.000000
 L27.000000 11.192702
 L26.704550 11.000000
 L26.000000 10.459814
 L25.540186 10.000000
 L25.000000 9.295450
 Z
 M57.000000 6.216818
 L57.000000 6.216818
 L58.000000 6.530419
 L59.000000 6.919147
 L59.194302 7.000000
 L59.000000 7.241274
 L58.000000 8.000000
 L57.000000 7.712762
 Z
 M29.000000 6.919147
 L29.000000 6.919147
 L30.000000 6.530419
 L31.000000 6.216818
 L31.712761 7.000000
 L31.000000 7.712762
 L30.000000 8.000000
 L31.000000 8.287238
 L31.712761 9.000000
 L32.000000 10.000000
 L31.712761 11.000000
 L31.000000 11.712762
 L30.000000 12.000000
 L31.000000 12.287238
 L31.712761 13.000000
 L32.000000 14.000000
 L32.582718 13.000000
 L33.000000 12.807298
 L33.295448 13.000000
 L34.000000 13.540186
 L34.459816 14.000000
 L35.000000 14.704550
 L35.192703 15.000000
 L35.000000 15.417283
 L34.000000 16.000000
 L33.000000 15.712762
 L32.287239 15.000000
 L32.000000 14.000000
 L31.712761 15.000000
 L31.000000 15.712762
 L30.000000 16.000000
 L31.000000 16.287239
 L31.712761 17.000000
 L32.000000 18.000000
 L32.287239 17.000000
 L33.000000 16.287239
 L34.000000 16.000000
 L35.000000 16.287239
 L35.712761 17.000000
 L36.000000 18.000000
 L36.287239 17.000000
 L37.000000 16.287239
 L38.000000 16.000000
 L39.000000 16.287239
 L39.712761 17.000000
 L40.000000 18.000000
 L39.712761 19.000000
 L39.000000 19.712761
 L38.000000 20.000000
 L39.000000 20.287239
 L39.712761 21.000000
 L40.000000 22.000000
 L39.417282 23.000000
 L39.000000 23.192701
 L38.704552 23.000000
 L38.000000 22.459814
 L37.540184 22.000000
 L37.000000 21.295450
 L36.807297 21.000000
 L37.000000 20.582716
 L38.000000 20.000000
 L37.000000 19.712761
 L36.287239 19.000000
 L36.000000 18.000000
 L35.712761 19.000000
 L35.000000 19.712761
 L34.000000 20.000000
 L33.000000 19.712761
 L32.287239 19.000000
 L32.000000 18.000000
 L31.712761 19.000000
 L31.000000 19.712761
 L30.000000 20.000000
 L31.000000 20.287239
 L31.712761 21.000000
 L32.000000 22.000000
 L32.287239 21.000000
 L33.000000 20.287239
 L34.000000 20.000000
 L35.000000 20.582716
 L35.192703 21.000000
 L35.000000 21.295450
 L34.459816 22.000000
 L34.000000 22.459814
 L33.295448 23.000000
 L33.000000 23.192701
 L32.582718 23.000000
 L32.000000 22.000000
 L31.712761 23.000000
 L31.000000 23.712761
 L30.000000 24.000000
 L31.000000 24.287239
 L31.712761 25.000000
 L32.000000 26.000000
 L32.582718 25.000000
 L33.000000 24.807299
 L33.295448 25.000000
 L34.000000 25.540186
 L34.459816 26.000000
 L35.000000 26.704550
 L35.192703 27.000000
 L35.000000 27.417284
 L34.000000 28.000000
 L33.000000 27.712761
 L32.287239 27.000000
 L32.000000 26.000000
 L31.712761 27.000000
 L31.000000 27.712761
 L30.000000 28.000000
 L31.000000 28.287239
 L31.712761 29.000000
 L32.000000 30.000000
 L32.287239 29.000000
 L33.000000 28.287239
 L34.000000 28.000000
 L35.000000 28.287239
 L35.712761 29.000000
 L36.000000 30.000000
 L36.287239 29.000000
 L37.000000 28.287239
 L38.000000 28.000000
 L39.000000 28.287239
 L39.712761 29.000000
 L40.000000 30.000000
 L39.712761 31.000000
 L39.000000 31.712761
 L38.000000 32.000000
 L39.000000 32.287239
 L39.712761 33.000000
 L40.000000 34.000000
 L39.417282 35.000000
 L39.000000 35.192703
 L38.704552 35.000000
 L38.000000 34.459816
 L37.540184 34.000000
 L37.000000 33.295448
 L36.807297 33.000000
 L37.000000 32.582718
 L38.000000 32.000000
 L37.000000 31.712761
 L36.287239 31.000000
 L36.000000 30.000000
 L35.712761 31.000000
 L35.000000 31.712761
 L34.000000 32.000000
 L33.000000 31.712761
 L32.287239 31.000000
 L32.000000 30.000000
 L31.712761 31.000000
 L31.000000 31.712761
 L30.000000 32.000000
 L31.000000 32.287239
 L31.712761 33.000000
 L32.000000 34.000000
 L32.287239 33.000000
 L33.000000 32.287239
 L34.000000 32.000000
 L35.000000 32.582718
 L35.192703 33.000000
 L35.000000 33.295448
 L34.459816 34.000000
 L34.000000 34.459816
 L33.295448 35.000000
 L33.000000 35.192703
 L32.582718 35.000000
 L32.000000 34.000000
 L31.712761 35.000000
 L31.000000 35.712761
 L30.000000 36.000000
 L31.000000 36.287239
 L31.712761 37.000000
 L32.000000 38.000000
 L32.582718 37.000000
 L33.000000 36.807297
 L33.295448 37.000000
 L34.000000 37.540184
 L34.459816 38.000000
 L35.000000 38.704552
 L35.192703 39.000000
 L35.000000 39.417282
 L34.000000 40.000000
 L33.000000 39.712761
 L32.287239 39.000000
 L32.000000 38.000000
 L31.712761 39.000000
 L31.000000 39.712761
 L30.000000 40.000000
 L31.000000 40.287239
 L31.712761 41.000000
 L32.000000 42.000000
 L32.287239 41.000000
 L33.000000 40.287239
 L34.000000 40.000000
 L35.000000 40.287239
 L35.712761 41.000000
 L36.000000 42.000000
 L36.287239 41.000000
 L37.000000 40.287239
 L38.000000 40.000000
 L39.000000 40.287239
 L39.712761 41.000000
 L40.000000 42.000000
 L39.712761 43.000000
 L39.000000 43.712761
 L38.000000 44.000000
 L39.000000 44.287239
 L39.712761 45.000000
 L40.000000 46.000000
 L39.417282 47.000000
 L39.000000 47.192703
 L38.704552 47.000000
 L38.000000 46.459816
 L37.540184 46.000000
 L37.000000 45.295448
 L36.807297 45.000000
 L37.000000 44.582718
 L38.000000 44.000000
 L37.000000 43.712761
 L36.287239 43.000000
 L36.000000 42.000000
 L35.712761 43.000000
 L35.000000 43.712761
 L34.000000 44.000000
 L33.000000 43.712761
 L32.287239 43.000000
 L32.000000 42.000000
 L31.712761 43.000000
 L31.000000 43.712761
 L30.000000 44.000000
 L31.000000 44.287239
 L31.712761 45.000000
 L32.000000 46.000000
 L32.287239 45.000000
 L33.000000 44.287239
 L34.000000 44.000000
 L35.000000 44.582718
 L35.192703 45.000000
 L35.000000 45.295448
 L34.459816 46.000000
 L34.000000 46.459816
 L33.295448 47.000000
 L33.000000 47.192703
 L32.582718 47.000000
 L32.000000 46.000000
 L31.712761 47.000000
 L31.000000 47.712761
 L30.000000 48.000000
 L31.000000 48.287239
 L31.712761 49.000000
 L32.000000 50.000000
 L32.582718 49.000000
 L33.000000 48.807297
 L33.295448 49.000000
 L34.000000 49.540184
 L34.459816 50.000000
 L35.000000 50.704552
 L35.192703 51.000000
 L35.000000 51.417282
 L34.000000 52.000000
 L33.000000 51.712761
 L32.287239 51.000000
 L32.000000 50.000000
 L31.712761 51.000000
 L31.000000 51.712761
 L30.000000 52.000000
 L31.000000 52.287239
 L31.712761 53.000000
 L32.000000 54.000000
 L32.287239 53.000000
 L33.000000 52.287239
 L34.000000 52.000000
 L35.000000 52.287239
 L35.712761 53.000000
 L36.000000 54.000000
 L36.287239 53.000000
 L37.000000 52.287239
 L38.000000 52.000000
 L39.000000 52.287239
 L39.712761 53.000000
 L40.000000 54.000000
 L39.712761 55.000000
 L39.000000 55.712761
 L38.000000 56.000000
 L39.000000 56.287239
 L39.712761 57.000000
 L40.000000 58.000000
 L39.417282 59.000000
 L39.000000 59.192703
 L38.704552 59.000000
 L38.000000 58.459816
 L37.540184 58.000000
 L37.000000 57.295448
 L36.807297 57.000000
 L37.000000 56.582718
 L38.000000 56.000000
 L37.000000 55.712761
 L36.287239 55.000000
 L36.000000 54.000000
 L35.712761 55.000000
 L35.000000 55.712761
 L34.000000 56.000000
 L33.000000 55.712761
 L32.287239 55.000000
 L32.000000 54.000000
 L31.712761 55.000000
 L31.000000 55.712761
 L30.000000 56.000000
 L31.000000 56.287239
 L31.712761 57.000000
 L32.000000 58.000000
 L32.287239 57.000000
 L33.000000 56.287239
 L34.000000 56.000000
 L35.000000 56.582718
 L35.192703 57.000000
 L35.000000 57.295448
 L34.459816 58.000000
 L34.000000 58.459816
 L33.295448 59.000000
 L33.000000 59.192703
 L32.582718 59.000000
 L32.000000 58.000000
 L31.712761 59.000000
 L31.000000 59.712761
 L30.000000 60.000000
 L31.000000 60.287239
 L31.712761 61.000000
 L32.000000 62.000000
 L32.582718 61.000000
 L33.000000 60.807297
 L33.295448 61.000000
 L34.000000 61.540184
 L34.459816 62.000000
 L35.000000 62.704552
 L35.192703 63.000000
 L35.000000 63.417282
 L34.000000 64.000000
 L33.000000 63.712761
 L32.287239 63.000000
 L32.000000 62.000000
 L31.712761 63.000000
 L31.000000 63.712761
 L30.000000 64.000000
 L31.000000 64.287239
 L31.712761 65.000000
 L32.000000 66.000000
 L32.287239 65.000000
 L33.000000 64.287239
 L34.000000 64.000000
 L35.000000 64.287239
 L35.712761 65.000000
 L36.000000 66.000000
 L36.287239 65.000000
 L37.000000 64.287239
 L38.000000 64.000000
 L39.000000 64.287239
 L39.712761 65.000000
 L40.000000 66.000000
 L39.712761 67.000000
 L39.000000 67.712761
 L38.000000 68.000000
 L39.000000 68.287239
 L39.712761 69.000000
 L40.000000 70.000000
 L39.417282 71.000000
 L39.000000 71.192703
 L38.704552 71.000000
 L38.000000 70.459816
 L37.540184 70.000000
 L37.000000 69.295448
 L36.807297 69.000000
 L37.000000 68.582718
 L38.000000 68.000000
 L37.000000 67.712761
 L36.287239 67.000000
 L36.000000 66.000000
 L35.712761 67.000000
 L35.000000 67.712761
 L34.000000 68.000000
 L33.000000 67.712761
 L32.287239 67.000000
 L32.000000 66.000000
 L31.712761 67.000000
 L31.000000 67.712761
 L30.000000 68.000000
 L31.000000 68.287239
 L31.712761 69.000000
 L32.000000 70.000000
 L32.287239 69.000000
 L33.000000 68.287239
 L34.000000 68.000000
 L35.000000 68.582718
 L35.192703 69.000000
 L35.000000 69.295448
 L34.459816 70.000000
 L34.000000 70.459816
 L33.295448 71.000000
 L33.000000 71.192703
 L32.582718 71.000000
 L32.000000 70.000000
 L31.712761 71.000000
 L31.000000 71.712761
 L30.000000 72.000000
 L31.000000 72.287239
 L31.712761 73.000000
 L32.000000 74.000000
 L32.582718 73.000000
 L33.000000 72.807297
 L33.295448 73.000000
 L34.000000 73.540184
 L34.459816 74.000000
 L35.000000 74.704552
 L35.192703 75.000000
 L35.000000 75.417282
 L34.000000 76.000000
 L33.000000 75.712761
 L32.287239 75.000000
 L32.000000 74.000000
 L31.712761 75.000000
 L31.000000 75.712761
 L30.000000 76.000000
 L31.000000 76.287239
 L31.712761 77.000000
 L32.000000 78.000000
 L32.287239 77.000000
 L33.000000 76.287239
 L34.000000 76.000000
 L35.000000 76.287239
 L35.712761 77.000000
 L36.000000 78.000000
 L36.287239 77.000000
 L37.000000 76.287239
 L38.000000 76.000000
 L39.000000 76.287239
 L39.712761 77.000000
 L40.000000 78.000000
 L39.712761 79.000000
 L39.000000 79.712761
 L38.000000 80.000000
 L39.000000 80.287239
 L39.712761 81.000000
 L40.000000 82.000000
 L39.417282 83.000000
 L39.000000 83.192703
 L38.704552 83.000000
 L38.000000 82.459816
 L37.540184 82.000000
 L37.000000 81.295448
 L36.807297 81.000000
 L37.000000 80.582718
 L38.000000 80.000000
 L37.000000 79.712761
 L36.287239 79.000000
 L36.000000 78.000000
 L35.712761 79.000000
 L35.000000 79.712761
 L34.000000 80.000000
 L35.000000 80.582718
 L35.192703 81.000000
 L35.000000 81.295448
 L34.459816 82.000000
 L34.000000 82.459816
 L33.000000 82.457527
 L32.000000 82.000000
 L32.287239 81.000000
 L33.000000 80.287239
 L34.000000 80.000000
 L33.000000 79.712761
 L32.287239 79.000000
 L32.000000 78.000000
 L31.712761 79.000000
 L31.000000 79.712761
 L30.000000 80.000000
 L31.000000 80.287239
 L31.712761 81.000000
 L31.000000 81.783180
 L30.000000 81.469582
 L29.000000 81.080856
 L28.805698 81.000000
 L29.000000 80.758728
 L30.000000 80.000000
 L29.000000 79.712761
 L28.287239 79.000000
 L28.000000 78.000000
 L28.287239 77.000000
 L29.000000 76.287239
 L30.000000 76.000000
 L29.000000 75.712761
 L28.287239 75.000000
 L28.000000 74.000000
 L28.287239 73.000000
 L29.000000 72.287239
 L30.000000 72.000000
 L29.000000 71.712761
 L28.287239 71.000000
 L28.000000 70.000000
 L28.287239 69.000000
 L29.000000 68.287239
 L30.000000 68.000000
 L29.000000 67.712761
 L28.287239 67.000000
 L28.000000 66.000000
 L28.287239 65.000000
 L29.000000 64.287239
 L30.000000 64.000000
 L29.000000 63.712761
 L28.287239 63.000000
 L28.000000 62.000000
 L28.287239 61.000000
 L29.000000 60.287239
 L30.000000 60.000000
 L29.000000 59.712761
 L28.287239 59.000000
 L28.000000 58.000000
 L28.287239 57.000000
 L29.000000 56.287239
 L30.000000 56.000000
 L29.000000 55.712761
 L28.287239 55.000000
 L28.000000 54.000000
 L28.287239 53.000000
 L29.000000 52.287239
 L30.000000 52.000000
 L29.000000 51.712761
 L28.287239 51.000000
 L28.000000 50.000000
 L28.287239 49.000000
 L29.000000 48.287239
 L30.000000 48.000000
 L29.000000 47.712761
 L28.287239 47.000000
 L28.000000 46.000000
 L28.287239 45.000000
 L29.000000 44.287239
 L30.000000 44.000000
 L29.000000 43.712761
 L28.287239 43.000000
 L28.000000 42.000000
 L28.287239 41.000000
 L29.000000 40.287239
 L30.000000 40.000000
 L29.000000 39.712761
 L28.287239 39.000000
 L28.000000 38.000000
 L28.287239 37.000000
 L29.000000 36.287239
 L30.000000 36.000000
 L29.000000 35.712761
 L28.287239 35.000000
 L28.000000 34.000000
 L28.287239 33.000000
 L29.000000 32.287239
 L30.000000 32.000000
 L29.000000 31.712761
 L28.287239 31.000000
 L28.000000 30.000000
 L28.287239 29.000000
 L29.000000 28.287239
 L30.000000 28.000000
 L29.000000 27.712761
 L28.287239 27.000000
 L28.000000 26.000000
 L28.287239 25.000000
 L29.000000 24.287239
 L30.000000 24.000000
 L29.000000 23.712761
 L28.287239 23.000000
 L28.000000 22.000000
 L28.287239 21.000000
 L29.000000 20.287239
 L30.000000 20.000000
 L29.000000 19.712761
 L28.287239 19.000000
 L28.000000 18.000000
 L28.287239 17.000000
 L29.000000 16.287239
 L30.000000 16.000000
 L29.000000 15.712762
 L28.287239 15.000000
 L28.000000 14.000000
 L28.287239 13.000000
 L29.000000 12.287238
 L30.000000 12.000000
 L29.000000 11.712762
 L28.287239 11.000000
 L28.000000 10.000000
 L28.287239 9.000000
 L29.000000 8.287238
 L30.000000 8.000000
 L29.000000 7.241274
 Z
 M33.000000 5.542475
 L33.000000 5.542475
 L34.000000 5.270326
 L35.000000 5.025668
 L36.000000 6.000000
 L35.712761 7.000000
 L35.000000 7.712762
 L34.000000 8.000000
 L35.000000 8.582717
 L35.192703 9.000000
 L35.000000 9.295450
 L34.459816 10.000000
 L34.000000 10.459814
 L33.295448 11.000000
 L33.000000 11.192702
 L32.582718 11.000000
 L32.000000 10.000000
 L32.287239 9.000000
 L33.000000 8.287238
 L34.000000 8.000000
 L33.000000 7.712762
 L32.287239 7.000000
 Z
 M37.000000 4.617354
 L37.000000 4.617354
 L38.000000 4.452631
 L39.000000 4.347003
 L39.712761 5.000000
 L40.000000 6.000000
 L40.287239 5.000000
 L41.000000 4.287238
 L42.000000 4.050033
 L43.000000 4.287238
 L43.712761 5.000000
 L44.000000 6.000000
 L44.287239 5.000000
 L45.000000 4.287238
 L46.000000 4.050033
 L47.000000 4.287238
 L47.712761 5.000000
 L48.000000 6.000000
 L48.287239 5.000000
 L49.000000 4.347003
 L50.000000 4.452631
 L51.000000 4.617354
 L51.614799 5.000000
 L52.000000 6.000000
 L53.000000 5.025668
 L54.000000 5.270326
 L55.000000 5.542475
 L56.000000 6.000000
 L55.712761 7.000000
 L55.000000 7.712762
 L54.000000 8.000000
 L53.000000 7.712762
 L52.287239 7.000000
 L52.000000 6.000000
 L51.712761 7.000000
 L51.000000 7.712762
 L50.000000 8.000000
 L51.000000 8.287238
 L51.712761 9.000000
 L52.000000 10.000000
 L52.287239 9.000000
 L53.000000 8.287238
 L54.000000 8.000000
 L55.000000 8.287238
 L55.712761 9.000000
 L56.000000 10.000000
 L56.287239 9.000000
 L57.000000 8.287238
 L58.000000 8.000000
 L59.000000 8.582717
 L59.192703 9.000000
 L59.000000 9.295450
 L58.459816 10.000000
 L58.000000 10.459814
 L57.295448 11.000000
 L57.000000 11.192702
 L56.582718 11.000000
 L56.000000 10.000000
 L55.712761 11.000000
 L55.000000 11.712762
 L54.000000 12.000000
 L55.000000 12.287238
 L55.712761 13.000000
 L56.000000 14.000000
 L56.582718 13.000000
 L57.000000 12.807298
 L57.295448 13.000000
 L58.000000 13.540186
 L58.459816 14.000000
 L59.000000 14.704550
 L59.192703 15.000000
 L59.000000 15.417283
 L58.000000 16.000000
 L57.000000 15.712762
 L56.287239 15.000000
 L56.000000 14.000000
 L55.712761 15.000000
 L55.000000 15.712762
 L54.000000 16.000000
 L53.000000 15.712762
 L52.287239 15.000000
 L52.000000 14.000000
 L52.287239 13.000000
 L53.000000 12.287238
 L54.000000 12.000000
 L53.000000 11.712762
 L52.287239 11.000000
 L52.000000 10.000000
 L51.417282 11.000000
 L51.000000 11.192702
 L50.704552 11.000000
 L50.000000 10.459814
 L49.540184 10.000000
 L49.000000 9.295450
 L48.807297 9.000000
 L49.000000 8.582717
 L50.000000 8.000000
 L49.000000 7.712762
 L48.287239 7.000000
 L48.000000 6.000000
 L47.712761 7.000000
 L47.000000 7.712762
 L46.000000 8.000000
 L45.000000 7.712762
 L44.287239 7.000000
 L44.000000 6.000000
 L43.712761 7.000000
 L43.000000 7.712762
 L42.000000 8.000000
 L41.000000 7.712762
 L40.287239 7.000000
 L40.000000 6.000000
 L39.712761 7.000000
 L39.000000 7.712762
 L38.000000 8.000000
 L39.000000 8.287238
 L39.712761 9.000000
 L40.000000 10.000000
 L40.287239 9.000000
 L41.000000 8.287238
 L42.000000 8.000000
 L43.000000 8.287238
 L43.712761 9.000000
 L44.000000 10.000000
 L44.287239 9.000000
 L45.000000 8.287238
 L46.000000 8.000000
 L47.000000 8.582717
 L47.192703 9.000000
 L47.000000 9.295450
 L46.459816 10.000000
 L46.000000 10.459814
 L45.295448 11.000000
 L45.000000 11.192702
 L44.582718 11.000000
 L44.000000 10.000000
 L43.712761 11.000000
 L43.000000 11.712762
 L42.000000 12.000000
 L43.000000 12.287238
 L43.712761 13.000000
 L44.000000 14.000000
 L44.582718 13.000000
 L45.000000 12.807298
 L45.295448 13.000000
 L46.000000 13.540186
 L46.459816 14.000000
 L47.000000 14.704550
 L47.192703 15.000000
 L47.000000 15.417283
 L46.000000 16.000000
 L45.000000 15.712762
 L44.287239 15.000000
 L44.000000 14.000000
 L43.712761 15.000000
 L43.000000 15.712762
 L42.000000 16.000000
 L43.000000 16.287239
 L43.712761 17.000000
 L44.000000 18.000000
 L44.287239 17.000000
 L45.000000 16.287239
 L46.000000 16.000000
 L47.000000 16.287239
 L47.712761 17.000000
 L48.000000 18.000000
 L48.287239 17.000000
 L49.000000 16.287239
 L50.000000 16.000000
 L51.000000 16.287239
 L51.712761 17.000000
 L52.000000 18.000000
 L52.287239 17.000000
 L53.000000 16.287239
 L54.000000 16.000000
 L55.000000 16.287239
 L55.712761 17.000000
 L56.000000 18.000000
 L56.287239 17.000000
 L57.000000 16.287239
 L58.000000 16.000000
 L59.000000 16.287239
 L59.712761 17.000000
 L60.000000 18.000000
 L60.287239 17.000000
 L61.000000 16.287239
 L62.000000 16.000000
 L63.000000 16.287239
 L63.712761 17.000000
 L64.000000 18.000000
 L64.287239 17.000000
 L65.000000 16.287239
 L66.000000 16.000000
 L67.000000 16.287239
 L67.712761 17.000000
 L68.000000 18.000000
 L68.287239 17.000000
 L69.000000 16.287239
 L70.000000 16.000000
 L71.000000 16.287239
 L71.712761 17.000000
 L72.000000 18.000000
 L72.385201 17.000000
 L73.000000 16.452412
 L73.510780 17.000000
 L74.000000 17.545120
 L74.395714 18.000000
 L75.000000 18.723909
 L75.223915 19.000000
 L75.000000 19.426256
 L74.000000 20.000000
 L75.000000 20.287239
 L75.712761 21.000000
 L76.000000 22.000000
 L77.000000 21.398308
 L77.405502 22.000000
 L78.000000 22.929800
 L78.043922 23.000000
 L78.000000 24.000000
 L79.000000 24.639624
 L79.198929 25.000000
 L79.720566 26.000000
 L79.712761 27.000000
 L79.000000 27.712761
 L78.000000 28.000000
 L77.000000 27.712761
 L76.287239 27.000000
 L76.000000 26.000000
 L76.287239 25.000000
 L77.000000 24.287239
 L78.000000 24.000000
 L77.000000 23.712761
 L76.287239 23.000000
 L76.000000 22.000000
 L75.417282 23.000000
 L75.000000 23.192701
 L74.704552 23.000000
 L74.000000 22.459814
 L73.540184 22.000000
 L73.000000 21.295450
 L72.807297 21.000000
 L73.000000 20.582716
 L74.000000 20.000000
 L73.000000 19.712761
 L72.287239 19.000000
 L72.000000 18.000000
 L71.712761 19.000000
 L71.000000 19.712761
 L70.000000 20.000000
 L69.000000 19.712761
 L68.287239 19.000000
 L68.000000 18.000000
 L67.712761 19.000000
 L67.000000 19.712761
 L66.000000 20.000000
 L65.000000 19.712761
 L64.287239 19.000000
 L64.000000 18.000000
 L63.712761 19.000000
 L63.000000 19.712761
 L62.000000 20.000000
 L63.000000 20.287239
 L63.712761 21.000000
 L64.000000 22.000000
 L64.287239 21.000000
 L65.000000 20.287239
 L66.000000 20.000000
 L67.000000 20.287239
 L67.712761 21.000000
 L68.000000 22.000000
 L68.287239 21.000000
 L69.000000 20.287239
 L70.000000 20.000000
 L71.000000 20.582716
 L71.192703 21.000000
 L71.000000 21.295450
 L70.459816 22.000000
 L70.000000 22.459814
 L69.295448 23.000000
 L69.000000 23.192701
 L68.582718 23.000000
 L68.000000 22.000000
 L67.712761 23.000000
 L67.000000 23.712761
 L66.000000 24.000000
 L67.000000 24.287239
 L67.712761 25.000000
 L68.000000 26.000000
 L68.582718 25.000000
 L69.000000 24.807299
 L69.295448 25.000000
 L70.000000 25.540186
 L70.459816 26.000000
 L71.000000 26.704550
 L71.192703 27.000000
 L71.000000 27.417284
 L70.000000 28.000000
 L69.000000 27.712761
 L68.287239 27.000000
 L68.000000 26.000000
 L67.712761 27.000000
 L67.000000 27.712761
 L66.000000 28.000000
 L65.000000 27.712761
 L64.287239 27.000000
 L64.000000 26.000000
 L64.287239 25.000000
 L65.000000 24.287239
 L66.000000 24.000000
 L65.000000 23.712761
 L64.287239 23.000000
 L64.000000 22.000000
 L63.417282 23.000000
 L63.000000 23.192701
 L62.704552 23.000000
 L62.000000 22.459814
 L61.540184 22.000000
 L61.000000 21.295450
 L60.807297 21.000000
 L61.000000 20.582716
 L62.000000 20.000000
 L61.000000 19.712761
 L60.287239 19.000000
 L60.000000 18.000000
 L59.712761 19.000000
 L59.000000 19.712761
 L58.000000 20.000000
 L57.000000 19.712761
 L56.287239 19.000000
 L56.000000 18.000000
 L55.712761 19.000000
 L55.000000 19.712761
 L54.000000 20.000000
 L53.000000 19.712761
 L52.287239 19.000000
 L52.000000 18.000000
 L51.712761 19.000000
 L51.000000 19.712761
 L50.000000 20.000000
 L51.000000 20.287239
 L51.712761 21.000000
 L52.000000 22.000000
 L52.287239 21.000000
 L53.000000 20.287239
 L54.000000 20.000000
 L55.000000 20.287239
 L55.712761 21.000000
 L56.000000 22.000000
 L56.287239 21.000000
 L57.000000 20.287239
 L58.000000 20.000000
 L59.000000 20.582716
 L59.192703 21.000000
 L59.000000 21.295450
 L58.459816 22.000000
 L58.000000 22.459814
 L57.295448 23.000000
 L57.000000 23.192701
 L56.582718 23.000000
 L56.000000 22.000000
 L55.712761 23.000000
 L55.000000 23.712761
 L54.000000 24.000000
 L55.000000 24.287239
 L55.712761 25.000000
 L56.000000 26.000000
 L56.582718 25.000000
 L57.000000 24.807299
 L57.295448 25.000000
 L58.000000 25.540186
 L58.459816 26.000000
 L59.000000 26.704550
 L59.192703 27.000000
 L59.000000 27.417284
 L58.000000 28.000000
 L57.000000 27.712761
 L56.287239 27.000000
 L56.000000 26.000000
 L55.712761 27.000000
 L55.000000 27.712761
 L54.000000 28.000000
 L53.000000 27.712761
 L52.287239 27.000000
 L52.000000 26.000000
 L52.287239 25.000000
 L53.000000 24.287239
 L54.000000 24.000000
 L53.000000 23.712761
 L52.287239 23.000000
 L52.000000 22.000000
 L51.417282 23.000000
 L51.000000 23.192701
 L50.704552 23.000000
 L50.000000 22.459814
 L49.540184 22.000000
 L49.000000 21.295450
 L48.807297 21.000000
 L49.000000 20.582716
 L50.000000 20.000000
 L49.000000 19.712761
 L48.287239 19.000000
 L48.000000 18.000000
 L47.712761 19.000000
 L47.000000 19.712761
 L46.000000 20.000000
 L45.000000 19.712761
 L44.287239 19.000000
 L44.000000 18.000000
 L43.712761 19.000000
 L43.000000 19.712761
 L42.000000 20.000000
 L43.000000 20.287239
 L43.712761 21.000000
 L44.000000 22.000000
 L44.287239 21.000000
 L45.000000 20.287239
 L46.000000 20.000000
 L47.000000 20.582716
 L47.192703 21.000000
 L47.000000 21.295450
 L46.459816 22.000000
 L46.000000 22.459814
 L45.295448 23.000000
 L45.000000 23.192701
 L44.582718 23.000000
 L44.000000 22.000000
 L43.712761 23.000000
 L43.000000 23.712761
 L42.000000 24.000000
 L43.000000 24.287239
 L43.712761 25.000000
 L44.000000 26.000000
 L44.582718 25.000000
 L45.000000 24.807299
 L45.295448 25.000000
 L46.000000 25.540186
 L46.459816 26.000000
 L47.000000 26.704550
 L47.192703 27.000000
 L47.000000 27.417284
 L46.000000 28.000000
 L45.000000 27.712761
 L44.287239 27.000000
 L44.000000 26.000000
 L43.712761 27.000000
 L43.000000 27.712761
 L42.000000 28.000000
 L43.000000 28.287239
 L43.712761 29.000000
 L44.000000 30.000000
 L44.287239 29.000000
 L45.000000 28.287239
 L46.000000 28.000000
 L47.000000 28.287239
 L47.712761 29.000000
 L48.000000 30.000000
 L48.287239 29.000000
 L49.000000 28.287239
 L50.000000 28.000000
 L51.000000 28.287239
 L51.712761 29.000000
 L52.000000 30.000000
 L52.287239 29.000000
 L53.000000 28.287239
 L54.000000 28.000000
 L55.000000 28.287239
 L55.712761 29.000000
 L56.000000 30.000000
 L56.287239 29.000000
 L57.000000 28.287239
 L58.000000 28.000000
 L59.000000 28.287239
 L59.712761 29.000000
 L60.000000 30.000000
 L60.287239 29.000000
 L61.000000 28.287239
 L62.000000 28.000000
 L63.000000 28.287239
 L63.712761 29.000000
 L64.000000 30.000000
 L64.287239 29.000000
 L65.000000 28.287239
 L66.000000 28.000000
 L67.000000 28.287239
 L67.712761 29.000000
 L68.000000 30.000000
 L68.287239 29.000000
 L69.000000 28.287239
 L70.000000 28.000000
 L71.000000 28.287239
 L71.712761 29.000000
 L72.000000 30.000000
 L72.287239 29.000000
 L73.000000 28.287239
 L74.000000 28.000000
 L75.000000 28.287239
 L75.712761 29.000000
 L76.000000 30.000000
 L76.287239 29.000000
 L77.000000 28.287239
 L78.000000 28.000000
 L79.000000 28.287239
 L79.712761 29.000000
 L80.000000 30.000000
 L80.758728 29.000000
 L81.000000 28.805698
 L81.080856 29.000000
 L81.469582 30.000000
 L81.783180 31.000000
 L81.000000 31.712761
 L80.287239 31.000000
 L80.000000 30.000000
 L79.712761 31.000000
 L79.000000 31.712761
 L78.000000 32.000000
 L77.000000 31.712761
 L76.287239 31.000000
 L76.000000 30.000000
 L75.712761 31.000000
 L75.000000 31.712761
 L74.000000 32.000000
 L75.000000 32.287239
 L75.712761 33.000000
 L76.000000 34.000000
 L76.287239 33.000000
 L77.000000 32.287239
 L78.000000 32.000000
 L79.000000 32.287239
 L79.712761 33.000000
 L80.000000 34.000000
 L80.287239 33.000000
 L81.000000 32.287239
 L82.000000 32.000000
 L82.457527 33.000000
 L82.459816 34.000000
 L82.000000 34.459816
 L81.295448 35.000000
 L81.000000 35.192703
 L80.582718 35.000000
 L80.000000 34.000000
 L79.712761 35.000000
 L79.000000 35.712761
 L78.000000 36.000000
 L79.000000 36.287239
 L79.712761 37.000000
 L80.000000 38.000000
 L80.582718 37.000000
 L81.000000 36.807297
 L81.295448 37.000000
 L82.000000 37.540184
 L82.459816 38.000000
 L83.000000 38.704552
 L83.192703 39.000000
 L83.000000 39.417282
 L82.000000 40.000000
 L81.000000 39.712761
 L80.287239 39.000000
 L80.000000 38.000000
 L79.712761 39.000000
 L79.000000 39.712761
 L78.000000 40.000000
 L77.000000 39.712761
 L76.287239 39.000000
 L76.000000 38.000000
 L76.287239 37.000000
 L77.000000 36.287239
 L78.000000 36.000000
 L77.000000 35.712761
 L76.287239 35.000000
 L76.000000 34.000000
 L75.417282 35.000000
 L75.000000 35.192703
 L74.704552 35.000000
 L74.000000 34.459816
 L73.540184 34.000000
 L73.000000 33.295448
 L72.807297 33.000000
 L73.000000 32.582718
 L74.000000 32.000000
 L73.000000 31.712761
 L72.287239 31.000000
 L72.000000 30.000000
 L71.712761 31.000000
 L71.000000 31.712761
 L70.000000 32.000000
 L69.000000 31.712761
 L68.287239 31.000000
 L68.000000 30.000000
 L67.712761 31.000000
 L67.000000 31.712761
 L66.000000 32.000000
 L65.000000 31.712761
 L64.287239 31.000000
 L64.000000 30.000000
 L63.712761 31.000000
 L63.000000 31.712761
 L62.000000 32.000000
 L63.000000 32.287239
 L63.712761 33.000000
 L64.000000 34.000000
 L64.287239 33.000000
 L65.000000 32.287239
 L66.000000 32.000000
 L67.000000 32.287239
 L67.712761 33.000000
 L68.000000 34.000000
 L68.287239 33.000000
 L69.000000 32.287239
 L70.000000 32.000000
 L71.000000 32.582718
 L71.192703 33.000000
 L71.000000 33.295448
 L70.459816 34.000000
 L70.000000 34.459816
 L69.295448 35.000000
 L69.000000 35.192703
 L68.582718 35.000000
 L68.000000 34.000000
 L67.712761 35.000000
 L67.000000 35.712761
 L66.000000 36.000000
 L67.000000 36.287239
 L67.712761 37.000000
 L68.000000 38.000000
 L68.582718 37.000000
 L69.000000 36.807297
 L69.295448 37.000000
 L70.000000 37.540184
 L70.459816 38.000000
 L71.000000 38.704552
 L71.192703 39.000000
 L71.000000 39.417282
 L70.000000 40.000000
 L69.000000 39.712761
 L68.287239 39.000000
 L68.000000 38.000000
 L67.712761 39.000000
 L67.000000 39.712761
 L66.000000 40.000000
 L65.000000 39.712761
 L64.287239 39.000000
 L64.000000 38.000000
 L64.287239 37.000000
 L65.000000 36.287239
 L66.000000 36.000000
 L65.000000 35.712761
 L64.287239 35.000000
 L64.000000 34.000000
 L63.417282 35.000000
 L63.000000 35.192703
 L62.704552 35.000000
 L62.000000 34.459816
 L61.540184 34.000000
 L61.000000 33.295448
 L60.807297 33.000000
 L61.000000 32.582718
 L62.000000 32.000000
 L61.000000 31.712761
 L60.287239 31.000000
 L60.000000 30.000000
 L59.712761 31.000000
 L59.000000 31.712761
 L58.000000 32.000000
 L57.000000 31.712761
 L56.287239 31.000000
 L56.000000 30.000000
 L55.712761 31.000000
 L55.000000 31.712761
 L54.000000 32.000000
 L53.000000 31.712761
 L52.287239 31.000000
 L52.000000 30.000000
 L51.712761 31.000000
 L51.000000 31.712761
 L50.000000 32.000000
 L51.000000 32.287239
 L51.712761 33.000000
 L52.000000 34.000000
 L52.287239 33.000000
 L53.000000 32.287239
 L54.000000 32.000000
 L55.000000 32.287239
 L55.712761 33.000000
 L56.000000 34.000000
 L56.287239 33.000000
 L57.000000 32.287239
 L58.000000 32.000000
 L59.000000 32.582718
 L59.192703 33.000000
 L59.000000 33.295448
 L58.459816 34.000000
 L58.000000 34.459816
 L57.295448 35.000000
 L57.000000 35.192703
 L56.582718 35.000000
 L56.000000 34.000000
 L55.712761 35.000000
 L55.000000 35.712761
 L54.000000 36.000000
 L55.000000 36.287239
 L55.712761 37.000000
 L56.000000 38.000000
 L56.582718 37.000000
 L57.000000 36.807297
 L57.295448 37.000000
 L58.000000 37.540184
 L58.459816 38.000000
 L59.000000 38.704552
 L59.192703 39.000000
 L59.000000 39.417282
 L58.000000 40.000000
 L57.000000 39.712761
 L56.287239 39.000000
 L56.000000 38.000000
 L55.712761 39.000000
 L55.000000 39.712761
 L54.000000 40.000000
 L53.000000 39.712761
 L52.287239 39.000000
 L52.000000 38.000000
 L52.287239 37.000000
 L53.000000 36.287239
 L54.000000 36.000000
 L53.000000 35.712761
 L52.287239 35.000000
 L52.000000 34.000000
 L51.417282 35.000000
 L51.000000 35.192703
 L50.704552 35.000000
 L50.000000 34.459816
 L49.540184 34.000000
 L49.000000 33.295448
 L48.807297 33.000000
 L49.000000 32.582718
 L50.000000 32.000000
 L49.000000 31.712761
 L48.287239 31.000000
 L48.000000 30.000000
 L47.712761 31.000000
 L47.000000 31.712761
 L46.000000 32.000000
 L45.000000 31.712761
 L44.287239 31.000000
 L44.000000 30.000000
 L43.712761 31.000000
 L43.000000 31.712761
 L42.000000 32.000000
 L43.000000 32.287239
 L43.712761 33.000000
 L44.000000 34.000000
 L44.287239 33.000000
 L45.000000 32.287239
 L46.000000 32.000000
 L47.000000 32.582718
 L47.192703 33.000000
 L47.000000 33.295448
 L46.459816 34.000000
 L46.000000 34.459816
 L45.295448 35.000000
 L45.000000 35.192703
 L44.582718 35.000000
 L44.000000 34.000000
 L43.712761 35.000000
 L43.000000 35.712761
 L42.000000 36.000000
 L43.000000 36.287239
 L43.712761 37.000000
 L44.000000 38.000000
 L44.582718 37.000000
 L45.000000 36.807297
 L45.295448 37.000000
 L46.000000 37.540184
 L46.459816 38.000000
 L47.000000 38.704552
 L47.192703 39.000000
 L47.000000 39.417282
 L46.000000 40.000000
 L45.000000 39.712761
 L44.287239 39.000000
 L44.000000 38.000000
 L43.712761 39.000000
 L43.000000 39.712761
 L42.000000 40.000000
 L43.000000 40.287239
 L43.712761 41.000000
 L44.000000 42.000000
 L44.287239 41.000000
 L45.000000 40.287239
 L46.000000 40.000000
 L47.000000 40.287239
 L47.712761 41.000000
 L48.000000 42.000000
 L48.287239 41.000000
 L49.000000 40.287239
 L50.000000 40.000000
 L51.000000 40.287239
 L51.712761 41.000000
 L52.000000 42.000000
 L52.287239 41.000000
 L53.000000 40.287239
 L54.000000 40.000000
 L55.000000 40.287239
 L55.712761 41.000000
 L56.000000 42.000000
 L56.287239 41.000000
 L57.000000 40.287239
 L58.000000 40.000000
 L59.000000 40.287239
 L59.712761 41.000000
 L60.000000 42.000000
 L60.287239 41.000000
 L61.000000 40.287239
 L62.000000 40.000000
 L63.000000 40.287239
 L63.712761 41.000000
 L64.000000 42.000000
 L64.287239 41.000000
 L65.000000 40.287239
 L66.000000 40.000000
 L67.000000 40.287239
 L67.712761 41.000000
 L68.000000 42.000000
 L68.287239 41.000000
 L69.000000 40.287239
 L70.000000 40.000000
 L71.000000 40.287239
 L71.712761 41.000000
 L72.000000 42.000000
 L72.287239 41.000000
 L73.000000 40.287239
 L74.000000 40.000000
 L75.000000 40.287239
 L75.712761 41.000000
 L76.000000 42.000000
 L76.287239 41.000000
 L77.000000 40.287239
 L78.000000 40.000000
 L79.000000 40.287239
 L79.712761 41.000000
 L80.000000 42.000000
 L80.287239 41.000000
 L81.000000 40.287239
 L82.000000 40.000000
 L83.000000 40.287239
 L83.712761 41.000000
 L83.949966 42.000000
 L83.712761 43.000000
 L83.000000 43.712761
 L82.000000 44.000000
 L81.000000 43.712761
 L80.287239 43.000000
 L80.000000 42.000000
 L79.712761 43.000000
 L79.000000 43.712761
 L78.000000 44.000000
 L77.000000 43.712761
 L76.287239 43.000000
 L76.000000 42.000000
 L75.712761 43.000000
 L75.000000 43.712761
 L74.000000 44.000000
 L75.000000 44.287239
 L75.712761 45.000000
 L76.000000 46.000000
 L76.287239 45.000000
 L77.000000 44.287239
 L78.000000 44.000000
 L79.000000 44.287239
 L79.712761 45.000000
 L80.000000 46.000000
 L80.287239 45.000000
 L81.000000 44.287239
 L82.000000 44.000000
 L83.000000 44.582718
 L83.192703 45.000000
 L83.000000 45.295448
 L82.459816 46.000000
 L82.000000 46.459816
 L81.295448 47.000000
 L81.000000 47.192703
 L80.582718 47.000000
 L80.000000 46.000000
 L79.712761 47.000000
 L79.000000 47.712761
 L78.000000 48.000000
 L79.000000 48.287239
 L79.712761 49.000000
 L80.000000 50.000000
 L80.582718 49.000000
 L81.000000 48.807297
 L81.295448 49.000000
 L82.000000 49.540184
 L82.459816 50.000000
 L83.000000 50.704552
 L83.192703 51.000000
 L83.000000 51.417282
 L82.000000 52.000000
 L81.000000 51.712761
 L80.287239 51.000000
 L80.000000 50.000000
 L79.712761 51.000000
 L79.000000 51.712761
 L78.000000 52.000000
 L77.000000 51.712761
 L76.287239 51.000000
 L76.000000 50.000000
 L76.287239 49.000000
 L77.000000 48.287239
 L78.000000 48.000000
 L77.000000 47.712761
 L76.287239 47.000000
 L76.000000 46.000000
 L75.417282 47.000000
 L75.000000 47.192703
 L74.704552 47.000000
 L74.000000 46.459816
 L73.540184 46.000000
 L73.000000 45.295448
 L72.807297 45.000000
 L73.000000 44.582718
 L74.000000 44.000000
 L73.000000 43.712761
 L72.287239 43.000000
 L72.000000 42.000000
 L71.712761 43.000000
 L71.000000 43.712761
 L70.000000 44.000000
 L69.000000 43.712761
 L68.287239 43.000000
 L68.000000 42.000000
 L67.712761 43.000000
 L67.000000 43.712761
 L66.000000 44.000000
 L65.000000 43.712761
 L64.287239 43.000000
 L64.000000 42.000000
 L63.712761 43.000000
 L63.000000 43.712761
 L62.000000 44.000000
 L63.000000 44.287239
 L63.712761 45.000000
 L64.000000 46.000000
 L64.287239 45.000000
 L65.000000 44.287239
 L66.000000 44.000000
 L67.000000 44.287239
 L67.712761 45.000000
 L68.000000 46.000000
 L68.287239 45.000000
 L69.000000 44.287239
 L70.000000 44.000000
 L71.000000 44.582718
 L71.192703 45.000000
 L71.000000 45.295448
 L70.459816 46.000000
 L70.000000 46.459816
 L69.295448 47.000000
 L69.000000 47.192703
 L68.582718 47.000000
 L68.000000 46.000000
 L67.712761 47.000000
 L67.000000 47.712761
 L66.000000 48.000000
 L67.000000 48.287239
 L67.712761 49.000000
 L68.000000 50.000000
 L68.582718 49.000000
 L69.000000 48.807297
 L69.295448 49.000000
 L70.000000 49.540184
 L70.459816 50.000000
 L71.000000 50.704552
 L71.192703 51.000000
 L71.000000 51.417282
 L70.000000 52.000000
 L69.000000 51.712761
 L68.287239 51.000000
 L68.000000 50.000000
 L67.712761 51.000000
 L67.000000 51.712761
 L66.000000 52.000000
 L65.000000 51.712761
 L64.287239 51.000000
 L64.000000 50.000000
 L64.287239 49.000000
 L65.000000 48.287239
 L66.000000 48.000000
 L65.000000 47.712761
 L64.287239 47.000000
 L64.000000 46.000000
 L63.417282 47.000000
 L63.000000 47.192703
 L62.704552 47.000000
 L62.000000 46.459816
 L61.540184 46.000000
 L61.000000 45.295448
 L60.807297 45.000000
 L61.000000 44.582718
 L62.000000 44.000000
 L61.000000 43.712761
 L60.287239 43.000000
 L60.000000 42.000000
 L59.712761 43.000000
 L59.000000 43.712761
 L58.000000 44.000000
 L57.000000 43.712761
 L56.287239 43.000000
 L56.000000 42.000000
 L55.712761 43.000000
 L55.000000 43.712761
 L54.000000 44.000000
 L53.000000 43.712761
 L52.287239 43.000000
 L52.000000 42.000000
 L51.712761 43.000000
 L51.000000 43.712761
 L50.000000 44.000000
 L51.000000 44.287239
 L51.712761 45.000000
 L52.000000 46.000000
 L52.287239 45.000000
 L53.000000 44.287239
 L54.000000 44.000000
 L55.000000 44.287239
 L55.712761 45.000000
 L56.000000 46.000000
 L56.287239 45.000000
 L57.000000 44.287239
 L58.000000 44.000000
 L59.000000 44.582718
 L59.192703 45.000000
 L59.000000 45.295448
 L58.459816 46.000000
 L58.000000 46.459816
 L57.295448 47.000000
 L57.000000 47.192703
 L56.582718 47.000000
 L56.000000 46.000000
 L55.712761 47.000000
 L55.000000 47.712761
 L54.000000 48.000000
 L55.000000 48.287239
 L55.712761 49.000000
 L56.000000 50.000000
 L56.582718 49.000000
 L57.000000 48.807297
 L57.295448 49.000000
 L58.000000 49.540184
 L58.459816 50.000000
 L59.000000 50.704552
 L59.192703 51.000000
 L59.000000 51.417282
 L58.000000 52.000000
 L57.000000 51.712761
 L56.287239 51.000000
 L56.000000 50.000000
 L55.712761 51.000000
 L55.000000 51.712761
 L54.000000 52.000000
 L53.000000 51.712761
 L52.287239 51.000000
 L52.000000 50.000000
 L52.287239 49.000000
 L53.000000 48.287239
 L54.000000 48.000000
 L53.000000 47.712761
 L52.287239 47.000000
 L52.000000 46.000000
 L51.417282 47.000000
 L51.000000 47.192703
 L50.704552 47.000000
 L50.000000 46.459816
 L49.540184 46.000000
 L49.000000 45.295448
 L48.807297 45.000000
 L49.000000 44.582718
 L50.000000 44.000000
 L49.000000 43.712761
 L48.287239 43.000000
 L48.000000 42.000000
 L47.712761 43.000000
 L47.000000 43.712761
 L46.000000 44.000000
 L45.000000 43.712761
 L44.287239 43.000000
 L44.000000 42.000000
 L43.712761 43.000000
 L43.000000 43.712761
 L42.000000 44.000000
 L43.000000 44.287239
 L43.712761 45.000000
 L44.000000 46.000000
 L44.287239 45.000000
 L45.000000 44.287239
 L46.000000 44.000000
 L47.000000 44.582718
 L47.192703 45.000000
 L47.000000 45.295448
 L46.459816 46.000000
 L46.000000 46.459816
 L45.295448 47.000000
 L45.000000 47.192703
 L44.582718 47.000000
 L44.000000 46.000000
 L43.712761 47.000000
 L43.000000 47.712761
 L42.000000 48.000000
 L43.000000 48.287239
 L43.712761 49.000000
 L44.000000 50.000000
 L44.582718 49.000000
 L45.000000 48.807297
 L45.295448 49.000000
 L46.000000 49.540184
 L46.459816 50.000000
 L47.000000 50.704552
 L47.192703 51.000000
 L47.000000 51.417282
 L46.000000 52.000000
 L45.000000 51.712761
 L44.287239 51.000000
 L44.000000 50.000000
 L43.712761 51.000000
 L43.000000 51.712761
 L42.000000 52.000000
 L43.000000 52.287239
 L43.712761 53.000000
 L44.000000 54.000000
 L44.287239 53.000000
 L45.000000 52.287239
 L46.000000 52.000000
 L47.000000 52.287239
 L47.712761 53.000000
 L48.000000 54.000000
 L48.287239 53.000000
 L49.000000 52.287239
 L50.000000 52.000000
 L51.000000 52.287239
 L51.712761 53.000000
 L52.000000 54.000000
 L52.287239 53.000000
 L53.000000 52.287239
 L54.000000 52.000000
 L55.000000 52.287239
 L55.712761 53.000000
 L56.000000 54.000000
 L56.287239 53.000000
 L57.000000 52.287239
 L58.000000 52.000000
 L59.000000 52.287239
 L59.712761 53.000000
 L60.000000 54.000000
 L60.287239 53.000000
 L61.000000 52.287239
 L62.000000 52.000000
 L63.000000 52.287239
 L63.712761 53.000000
 L64.000000 54.000000
 L64.287239 53.000000
 L65.000000 52.287239
 L66.000000 52.000000
 L67.000000 52.287239
 L67.712761 53.000000
 L68.000000 54.000000
 L68.287239 53.000000
 L69.000000 52.287239
 L70.000000 52.000000
 L71.000000 52.287239
 L71.712761 53.000000
 L72.000000 54.000000
 L72.287239 53.000000
 L73.000000 52.287239
 L74.000000 52.000000
 L75.000000 52.287239
 L75.712761 53.000000
 L76.000000 54.000000
 L76.287239 53.000000
 L77.000000 52.287239
 L78.000000 52.000000
 L79.000000 52.287239
 L79.712761 53.000000
 L80.000000 54.000000
 L80.287239 53.000000
 L81.000000 52.287239
 L82.000000 52.000000
 L82.974335 53.000000
 L82.729675 54.000000
 L82.457527 55.000000
 L82.000000 56.000000
 L81.000000 55.712761
 L80.287239 55.000000
 L80.000000 54.000000
 L79.712761 55.000000
 L79.000000 55.712761
 L78.000000 56.000000
 L77.000000 55.712761
 L76.287239 55.000000
 L76.000000 54.000000
 L75.712761 55.000000
 L75.000000 55.712761
 L74.000000 56.000000
 L75.000000 56.287239
 L75.712761 57.000000
 L76.000000 58.000000
 L76.287239 57.000000
 L77.000000 56.287239
 L78.000000 56.000000
 L79.000000 56.287239
 L79.712761 57.000000
 L80.000000 58.000000
 L80.287239 57.000000
 L81.000000 56.287239
 L81.783180 57.000000
 L81.469582 58.000000
 L81.080856 59.000000
 L81.000000 59.095840
 L80.758728 59.000000
 L80.000000 58.000000
 L79.712761 59.000000
 L79.000000 59.712761
 L78.000000 60.000000
 L79.000000 60.287239
 L79.712761 61.000000
 L79.720566 62.000000
 L79.198929 63.000000
 L79.000000 63.360374
 L78.000000 64.000000
 L77.000000 63.712761
 L76.287239 63.000000
 L76.000000 62.000000
 L76.287239 61.000000
 L77.000000 60.287239
 L78.000000 60.000000
 L77.000000 59.712761
 L76.287239 59.000000
 L76.000000 58.000000
 L75.417282 59.000000
 L75.000000 59.192703
 L74.704552 59.000000
 L74.000000 58.459816
 L73.540184 58.000000
 L73.000000 57.295448
 L72.807297 57.000000
 L73.000000 56.582718
 L74.000000 56.000000
 L73.000000 55.712761
 L72.287239 55.000000
 L72.000000 54.000000
 L71.712761 55.000000
 L71.000000 55.712761
 L70.000000 56.000000
 L69.000000 55.712761
 L68.287239 55.000000
 L68.000000 54.000000
 L67.712761 55.000000
 L67.000000 55.712761
 L66.000000 56.000000
 L65.000000 55.712761
 L64.287239 55.000000
 L64.000000 54.000000
 L63.712761 55.000000
 L63.000000 55.712761
 L62.000000 56.000000
 L63.000000 56.287239
 L63.712761 57.000000
 L64.000000 58.000000
 L64.287239 57.000000
 L65.000000 56.287239
 L66.000000 56.000000
 L67.000000 56.287239
 L67.712761 57.000000
 L68.000000 58.000000
 L68.287239 57.000000
 L69.000000 56.287239
 L70.000000 56.000000
 L71.000000 56.582718
 L71.192703 57.000000
 L71.000000 57.295448
 L70.459816 58.000000
 L70.000000 58.459816
 L69.295448 59.000000
 L69.000000 59.192703
 L68.582718 59.000000
 L68.000000 58.000000
 L67.712761 59.000000
 L67.000000 59.712761
 L66.000000 60.000000
 L67.000000 60.287239
 L67.712761 61.000000
 L68.000000 62.000000
 L68.582718 61.000000
 L69.000000 60.807297
 L69.295448 61.000000
 L70.000000 61.540184
 L70.459816 62.000000
 L71.000000 62.704552
 L71.192703 63.000000
 L71.000000 63.417282
 L70.000000 64.000000
 L69.000000 63.712761
 L68.287239 63.000000
 L68.000000 62.000000
 L67.712761 63.000000
 L67.000000 63.712761
 L66.000000 64.000000
 L65.000000 63.712761
 L64.287239 63.000000
 L64.000000 62.000000
 L64.287239 61.000000
 L65.000000 60.287239
 L66.000000 60.000000
 L65.000000 59.712761
 L64.287239 59.000000
 L64.000000 58.000000
 L63.417282 59.000000
 L63.000000 59.192703
 L62.704552 59.000000
 L62.000000 58.459816
 L61.540184 58.000000
 L61.000000 57.295448
 L60.807297 57.000000
 L61.000000 56.582718
 L62.000000 56.000000
 L61.000000 55.712761
 L60.287239 55.000000
 L60.000000 54.000000
 L59.712761 55.000000
 L59.000000 55.712761
 L58.000000 56.000000
 L57.000000 55.712761
 L56.287239 55.000000
 L56.000000 54.000000
 L55.712761 55.000000
 L55.000000 55.712761
 L54.000000 56.000000
 L53.000000 55.712761
 L52.287239 55.000000
 L52.000000 54.000000
 L51.712761 55.000000
 L51.000000 55.712761
 L50.000000 56.000000
 L51.000000 56.287239
 L51.712761 57.000000
 L52.000000 58.000000
 L52.287239 57.000000
 L53.000000 56.287239
 L54.000000 56.000000
 L55.000000 56.287239
 L55.712761 57.000000
 L56.000000 58.000000
 L56.287239 57.000000
 L57.000000 56.287239
 L58.000000 56.000000
 L59.000000 56.582718
 L59.192703 57.000000
 L59.000000 57.295448
 L58.459816 58.000000
 L58.000000 58.459816
 L57.295448 59.000000
 L57.000000 59.192703
 L56.582718 59.000000
 L56.000000 58.000000
 L55.712761 59.000000
 L55.000000 59.712761
 L54.000000 60.000000
 L55.000000 60.287239
 L55.712761 61.000000
 L56.000000 62.000000
 L56.582718 61.000000
 L57.000000 60.807297
 L57.295448 61.000000
 L58.000000 61.540184
 L58.459816 62.000000
 L59.000000 62.704552
 L59.192703 63.000000
 L59.000000 63.417282
 L58.000000 64.000000
 L57.000000 63.712761
 L56.287239 63.000000
 L56.000000 62.000000
 L55.712761 63.000000
 L55.000000 63.712761
 L54.000000 64.000000
 L53.000000 63.712761
 L52.287239 63.000000
 L52.000000 62.000000
 L52.287239 61.000000
 L53.000000 60.287239
 L54.000000 60.000000
 L53.000000 59.712761
 L52.287239 59.000000
 L52.000000 58.000000
 L51.417282 59.000000
 L51.000000 59.192703
 L50.704552 59.000000
 L50.000000 58.459816
 L49.540184 58.000000
 L49.000000 57.295448
 L48.807297 57.000000
 L49.000000 56.582718
 L50.000000 56.000000
 L49.000000 55.712761
 L48.287239 55.000000
 L48.000000 54.000000
 L47.712761 55.000000
 L47.000000 55.712761
 L46.000000 56.000000
 L45.000000 55.712761
 L44.287239 55.000000
 L44.000000 54.000000
 L43.712761 55.000000
 L43.000000 55.712761
 L42.000000 56.000000
 L43.000000 56.287239
 L43.712761 57.000000
 L44.000000 58.000000
 L44.287239 57.000000
 L45.000000 56.287239
 L46.000000 56.000000
 L47.000000 56.582718
 L47.192703 57.000000
 L47.000000 57.295448
 L46.459816 58.000000
 L46.000000 58.459816
 L45.295448 59.000000
 L45.000000 59.192703
 L44.582718 59.000000
 L44.000000 58.000000
 L43.712761 59.000000
 L43.000000 59.712761
 L42.000000 60.000000
 L43.000000 60.287239
 L43.712761 61.000000
 L44.000000 62.000000
 L44.582718 61.000000
 L45.000000 60.807297
 L45.295448 61.000000
 L46.000000 61.540184
 L46.459816 62.000000
 L47.000000 62.704552
 L47.192703 63.000000
 L47.000000 63.417282
 L46.000000 64.000000
 L45.000000 63.712761
 L44.287239 63.000000
 L44.000000 62.000000
 L43.712761 63.000000
 L43.000000 63.712761
 L42.000000 64.000000
 L43.000000 64.287239
 L43.712761 65.000000
 L44.000000 66.000000
 L44.287239 65.000000
 L45.000000 64.287239
 L46.000000 64.000000
 L47.000000 64.287239
 L47.712761 65.000000
 L48.000000 66.000000
 L48.287239 65.000000
 L49.000000 64.287239
 L50.000000 64.000000
 L51.000000 64.287239
 L51.712761 65.000000
 L52.000000 66.000000
 L52.287239 65.000000
 L53.000000 64.287239
 L54.000000 64.000000
 L55.000000 64.287239
 L55.712761 65.000000
 L56.000000 66.000000
 L56.287239 65.000000
 L57.000000 64.287239
 L58.000000 64.000000
 L59.000000 64.287239
 L59.712761 65.000000
 L60.000000 66.000000
 L60.287239 65.000000
 L61.000000 64.287239
 L62.000000 64.000000
 L63.000000 64.287239
 L63.712761 65.000000
 L64.000000 66.000000
 L64.287239 65.000000
 L65.000000 64.287239
 L66.000000 64.000000
 L67.000000 64.287239
 L67.712761 65.000000
 L68.000000 66.000000
 L68.287239 65.000000
 L69.000000 64.287239
 L70.000000 64.000000
 L71.000000 64.287239
 L71.712761 65.000000
 L72.000000 66.000000
 L72.287239 65.000000
 L73.000000 64.287239
 L74.000000 64.000000
 L75.000000 64.287239
 L75.712761 65.000000
 L76.000000 66.000000
 L76.287239 65.000000
 L77.000000 64.287239
 L78.000000 64.000000
 L78.043922 65.000000
 L78.000000 65.070198
 L77.405502 66.000000
 L77.000000 66.601692
 L76.000000 66.000000
 L75.712761 67.000000
 L75.000000 67.712761
 L74.000000 68.000000
 L75.000000 68.573746
 L75.223915 69.000000
 L75.000000 69.276093
 L74.395714 70.000000
 L74.000000 70.427589
 L73.572411 70.000000
 L73.000000 69.295448
 L72.807297 69.000000
 L73.000000 68.582718
 L74.000000 68.000000
 L73.000000 67.712761
 L72.287239 67.000000
 L72.000000 66.000000
 L71.712761 67.000000
 L71.000000 67.712761
 L70.000000 68.000000
 L69.000000 67.712761
 L68.287239 67.000000
 L68.000000 66.000000
 L67.712761 67.000000
 L67.000000 67.712761
 L66.000000 68.000000
 L65.000000 67.712761
 L64.287239 67.000000
 L64.000000 66.000000
 L63.712761 67.000000
 L63.000000 67.712761
 L62.000000 68.000000
 L63.000000 68.287239
 L63.712761 69.000000
 L64.000000 70.000000
 L64.287239 69.000000
 L65.000000 68.287239
 L66.000000 68.000000
 L67.000000 68.287239
 L67.712761 69.000000
 L68.000000 70.000000
 L68.287239 69.000000
 L69.000000 68.287239
 L70.000000 68.000000
 L71.000000 68.582718
 L71.192703 69.000000
 L71.000000 69.295448
 L70.459816 70.000000
 L70.000000 70.459816
 L69.295448 71.000000
 L69.000000 71.192703
 L68.582718 71.000000
 L68.000000 70.000000
 L67.712761 71.000000
 L67.000000 71.712761
 L66.000000 72.000000
 L67.000000 72.287239
 L67.712761 73.000000
 L68.000000 74.000000
 L68.582718 73.000000
 L69.000000 72.807297
 L69.295448 73.000000
 L70.000000 73.572411
 L70.427589 74.000000
 L70.000000 74.395714
 L69.276093 75.000000
 L69.000000 75.223915
 L68.573746 75.000000
 L68.000000 74.000000
 L67.712761 75.000000
 L67.000000 75.712761
 L66.000000 76.000000
 L65.000000 75.712761
 L64.287239 75.000000
 L64.000000 74.000000
 L64.287239 73.000000
 L65.000000 72.287239
 L66.000000 72.000000
 L65.000000 71.712761
 L64.287239 71.000000
 L64.000000 70.000000
 L63.417282 71.000000
 L63.000000 71.192703
 L62.704552 71.000000
 L62.000000 70.459816
 L61.540184 70.000000
 L61.000000 69.295448
 L60.807297 69.000000
 L61.000000 68.582718
 L62.000000 68.000000
 L61.000000 67.712761
 L60.287239 67.000000
 L60.000000 66.000000
 L59.712761 67.000000
 L59.000000 67.712761
 L58.000000 68.000000
 L57.000000 67.712761
 L56.287239 67.000000
 L56.000000 66.000000
 L55.712761 67.000000
 L55.000000 67.712761
 L54.000000 68.000000
 L53.000000 67.712761
 L52.287239 67.000000
 L52.000000 66.000000
 L51.712761 67.000000
 L51.000000 67.712761
 L50.000000 68.000000
 L51.000000 68.287239
 L51.712761 69.000000
 L52.000000 70.000000
 L52.287239 69.000000
 L53.000000 68.287239
 L54.000000 68.000000
 L55.000000 68.287239
 L55.712761 69.000000
 L56.000000 70.000000
 L56.287239 69.000000
 L57.000000 68.287239
 L58.000000 68.000000
 L59.000000 68.582718
 L59.192703 69.000000
 L59.000000 69.295448
 L58.459816 70.000000
 L58.000000 70.459816
 L57.295448 71.000000
 L57.000000 71.192703
 L56.582718 71.000000
 L56.000000 70.000000
 L55.712761 71.000000
 L55.000000 71.712761
 L54.000000 72.000000
 L55.000000 72.287239
 L55.712761 73.000000
 L56.000000 74.000000
 L56.582718 73.000000
 L57.000000 72.807297
 L57.295448 73.000000
 L58.000000 73.540184
 L58.459816 74.000000
 L59.000000 74.704552
 L59.192703 75.000000
 L59.000000 75.417282
 L58.000000 76.000000
 L57.000000 75.712761
 L56.287239 75.000000
 L56.000000 74.000000
 L55.712761 75.000000
 L55.000000 75.712761
 L54.000000 76.000000
 L53.000000 75.712761
 L52.287239 75.000000
 L52.000000 74.000000
 L52.287239 73.000000
 L53.000000 72.287239
 L54.000000 72.000000
 L53.000000 71.712761
 L52.287239 71.000000
 L52.000000 70.000000
 L51.417282 71.000000
 L51.000000 71.192703
 L50.704552 71.000000
 L50.000000 70.459816
 L49.540184 70.000000
 L49.000000 69.295448
 L48.807297 69.000000
 L49.000000 68.582718
 L50.000000 68.000000
 L49.000000 67.712761
 L48.287239 67.000000
 L48.000000 66.000000
 L47.712761 67.000000
 L47.000000 67.712761
 L46.000000 68.000000
 L45.000000 67.712761
 L44.287239 67.000000
 L44.000000 66.000000
 L43.712761 67.000000
 L43.000000 67.712761
 L42.000000 68.000000
 L43.000000 68.287239
 L43.712761 69.000000
 L44.000000 70.000000
 L44.287239 69.000000
 L45.000000 68.287239
 L46.000000 68.000000
 L47.000000 68.582718
 L47.192703 69.000000
 L47.000000 69.295448
 L46.459816 70.000000
 L46.000000 70.459816
 L45.295448 71.000000
 L45.000000 71.192703
 L44.582718 71.000000
 L44.000000 70.000000
 L43.712761 71.000000
 L43.000000 71.712761
 L42.000000 72.000000
 L43.000000 72.287239
 L43.712761 73.000000
 L44.000000 74.000000
 L44.582718 73.000000
 L45.000000 72.807297
 L45.295448 73.000000
 L46.000000 73.540184
 L46.459816 74.000000
 L47.000000 74.704552
 L47.192703 75.000000
 L47.000000 75.417282
 L46.000000 76.000000
 L45.000000 75.712761
 L44.287239 75.000000
 L44.000000 74.000000
 L43.712761 75.000000
 L43.000000 75.712761
 L42.000000 76.000000
 L43.000000 76.287239
 L43.712761 77.000000
 L44.000000 78.000000
 L44.287239 77.000000
 L45.000000 76.287239
 L46.000000 76.000000
 L47.000000 76.287239
 L47.712761 77.000000
 L48.000000 78.000000
 L48.287239 77.000000
 L49.000000 76.287239
 L50.000000 76.000000
 L51.000000 76.287239
 L51.712761 77.000000
 L52.000000 78.000000
 L52.287239 77.000000
 L53.000000 76.287239
 L54.000000 76.000000
 L55.000000 76.287239
 L55.712761 77.000000
 L56.000000 78.000000
 L56.287239 77.000000
 L57.000000 76.287239
 L58.000000 76.000000
 L59.000000 76.287239
 L59.712761 77.000000
 L60.000000 78.000000
 L60.287239 77.000000
 L61.000000 76.287239
 L62.000000 76.000000
 L63.000000 76.287239
 L63.712761 77.000000
 L64.000000 78.000000
 L64.287239 77.000000
 L65.000000 76.287239
 L66.000000 76.000000
 L66.601692 77.000000
 L66.000000 77.405502
 L65.070198 78.000000
 L65.000000 78.043922
 L64.000000 78.000000
 L63.360374 79.000000
 L63.000000 79.198929
 L62.000000 79.720566
 L61.000000 79.712761
 L60.287239 79.000000
 L60.000000 78.000000
 L59.712761 79.000000
 L59.000000 79.712761
 L58.000000 80.000000
 L59.000000 80.758728
 L59.095840 81.000000
 L59.000000 81.080856
 L58.000000 81.469582
 L57.000000 81.783180
 L56.287239 81.000000
 L57.000000 80.287239
 L58.000000 80.000000
 L57.000000 79.712761
 L56.287239 79.000000
 L56.000000 78.000000
 L55.712761 79.000000
 L55.000000 79.712761
 L54.000000 80.000000
 L53.000000 79.712761
 L52.287239 79.000000
 L52.000000 78.000000
 L51.712761 79.000000
 L51.000000 79.712761
 L50.000000 80.000000
 L51.000000 80.287239
 L51.712761 81.000000
 L52.000000 82.000000
 L52.287239 81.000000
 L53.000000 80.287239
 L54.000000 80.000000
 L55.000000 80.287239
 L55.712761 81.000000
 L56.000000 82.000000
 L55.000000 82.457527
 L54.000000 82.729675
 L53.000000 82.974335
 L52.000000 82.000000
 L51.417282 83.000000
 L51.000000 83.192703
 L50.704552 83.000000
 L50.000000 82.459816
 L49.540184 82.000000
 L49.000000 81.295448
 L48.807297 81.000000
 L49.000000 80.582718
 L50.000000 80.000000
 L49.000000 79.712761
 L48.287239 79.000000
 L48.000000 78.000000
 L47.712761 79.000000
 L47.000000 79.712761
 L46.000000 80.000000
 L45.000000 79.712761
 L44.287239 79.000000
 L44.000000 78.000000
 L43.712761 79.000000
 L43.000000 79.712761
 L42.000000 80.000000
 L43.000000 80.287239
 L43.712761 81.000000
 L44.000000 82.000000
 L44.287239 81.000000
 L45.000000 80.287239
 L46.000000 80.000000
 L47.000000 80.582718
 L47.192703 81.000000
 L47.000000 81.295448
 L46.459816 82.000000
 L46.000000 82.459816
 L45.295448 83.000000
 L45.000000 83.192703
 L44.582718 83.000000
 L44.000000 82.000000
 L43.712761 83.000000
 L43.000000 83.712761
 L42.000000 83.949966
 L41.000000 83.712761
 L40.287239 83.000000
 L40.000000 82.000000
 L40.287239 81.000000
 L41.000000 80.287239
 L42.000000 80.000000
 L41.000000 79.712761
 L40.287239 79.000000
 L40.000000 78.000000
 L40.287239 77.000000
 L41.000000 76.287239
 L42.000000 76.000000
 L41.000000 75.712761
 L40.287239 75.000000
 L40.000000 74.000000
 L40.287239 73.000000
 L41.000000 72.287239
 L42.000000 72.000000
 L41.000000 71.712761
 L40.287239 71.000000
 L40.000000 70.000000
 L40.287239 69.000000
 L41.000000 68.287239
 L42.000000 68.000000
 L41.000000 67.712761
 L40.287239 67.000000
 L40.000000 66.000000
 L40.287239 65.000000
 L41.000000 64.287239
 L42.000000 64.000000
 L41.000000 63.712761
 L40.287239 63.000000
 L40.000000 62.000000
 L40.287239 61.000000
 L41.000000 60.287239
 L42.000000 60.000000
 L41.000000 59.712761
 L40.287239 59.000000
 L40.000000 58.000000
 L40.287239 57.000000
 L41.000000 56.287239
 L42.000000 56.000000
 L41.000000 55.712761
 L40.287239 55.000000
 L40.000000 54.000000
 L40.287239 53.000000
 L41.000000 52.287239
 L42.000000 52.000000
 L41.000000 51.712761
 L40.287239 51.000000
 L40.000000 50.000000
 L40.287239 49.000000
 L41.000000 48.287239
 L42.000000 48.000000
 L41.000000 47.712761
 L40.287239 47.000000
 L40.000000 46.000000
 L40.287239 45.000000
 L41.000000 44.287239
 L42.000000 44.000000
 L41.000000 43.712761
 L40.287239 43.000000
 L40.000000 42.000000
 L40.287239 41.000000
 L41.000000 40.287239
 L42.000000 40.000000
 L41.000000 39.712761
 L40.287239 39.000000
 L40.000000 38.000000
 L40.287239 37.000000
 L41.000000 36.287239
 L42.000000 36.000000
 L41.000000 35.712761
 L40.287239 35.000000
 L40.000000 34.000000
 L40.287239 33.000000
 L41.000000 32.287239
 L42.000000 32.000000
 L41.000000 31.712761
 L40.287239 31.000000
 L40.000000 30.000000
 L40.287239 29.000000
 L41.000000 28.287239
 L42.000000 28.000000
 L41.000000 27.712761
 L40.287239 27.000000
 L40.000000 26.000000
 L40.287239 25.000000
 L41.000000 24.287239
 L42.000000 24.000000
 L41.000000 23.712761
 L40.287239 23.000000
 L40.000000 22.000000
 L40.287239 21.000000
 L41.000000 20.287239
 L42.000000 20.000000
 L41.000000 19.712761
 L40.287239 19.000000
 L40.000000 18.000000
 L40.287239 17.000000
 L41.000000 16.287239
 L42.000000 16.000000
 L41.000000 15.712762
 L40.287239 15.000000
 L40.000000 14.000000
 L40.287239 13.000000
 L41.000000 12.287238
 L42.000000 12.000000
 L41.000000 11.712762
 L40.287239 11.000000
 L40.000000 10.000000
 L39.417282 11.000000
 L39.000000 11.192702
 L38.704552 11.000000
 L38.000000 10.459814
 L37.540184 10.000000
 L37.000000 9.295450
 L36.807297 9.000000
 L37.000000 8.582717
 L38.000000 8.000000
 L37.000000 7.712762
 L36.287239 7.000000
 L36.000000 6.000000
 Z
 " style="fill:black; stroke:none; stroke-width:0"></path>
</svg>
