<svg xmlns="http://www.w3.org/2000/svg" viewbox="0 0 88 88">
  <path d="M36.000000 30.835978
 L36.000000 30.835978
 L37.000000 30.461792
 L38.000000 30.202391
 L39.000000 30.050152
 L40.000000 30.000000
 L41.000000 30.050152
 L42.000000 30.202391
 L43.000000 30.461792
 L44.000000 30.835978
 L44.338299 31.000000
 L45.000000 31.343098
 L46.000000 32.000000
 L47.000000 32.862446
 L47.137554 33.000000
 L48.000000 34.000000
 L48.656902 35.000000
 L49.000000 35.661701
 L49.164024 36.000000
 L49.538208 37.000000
 L49.797607 38.000000
 L49.949848 39.000000
 L50.000000 40.000000
 L49.949848 41.000000
 L49.797607 42.000000
 L49.538208 43.000000
 L49.164024 44.000000
 L49.000000 44.338299
 L48.656902 45.000000
 L48.000000 46.000000
 L47.137554 47.000000
 L47.000000 47.137554
 L46.000000 48.000000
 L45.000000 48.656902
 L44.338299 49.000000
 L44.000000 49.164024
 L43.000000 49.538208
 L42.000000 49.797607
 L41.000000 49.949848
 L40.000000 50.000000
 L39.000000 49.949848
 L38.000000 49.797607
 L37.000000 49.538208
 L36.000000 49.164024
 L35.661701 49.000000
 L35.000000 48.656902
 L34.000000 48.000000
 L33.000000 47.137554
 L32.862446 47.000000
 L32.000000 46.000000
 L31.343098 45.000000
 L31.000000 44.338299
 L30.835978 44.000000
 L30.461792 43.000000
 L30.202391 42.000000
 L30.050152 41.000000
 L30.000000 40.000000
 L30.050152 39.000000
 L30.202391 38.000000
 L30.461792 37.000000
 L30.835978 36.000000
 L31.000000 35.661701
 L31.343098 35.000000
 L32.000000 34.000000
 L32.862446 33.000000
 L33.000000 32.862446
 L34.000000 32.000000
 L35.000000 31.343098
  Z" style="fill:black; stroke:none; stroke-width:0"></path>\n</svg>