<svg xmlns="http://www.w3.org/2000/svg" viewbox="0 0 88 88">
  <path d="M36.000000 30.835978 L36.000000 30.835978L37.000000 30.461792L38.000000 30.202391L39.000000 30.050152L40.000000 30.000000L41.000000 30.050152L42.000000 30.202391L43.000000 30.461792L44.000000 30.835978L44.338299 31.000000L45.000000 31.343098L46.000000 32.000000L47.000000 32.862446L47.137554 33.000000L48.000000 34.000000L48.656902 35.000000L49.000000 35.661701L49.164024 36.000000L49.538208 37.000000L49.797607 38.000000L49.949848 39.000000L50.000000 40.000000L49.949848 41.000000L49.797607 42.000000L49.538208 43.000000L49.164024 44.000000L49.000000 44.338299L48.656902 45.000000L48.000000 46.000000L47.137554 47.000000L47.000000 47.137554L46.000000 48.000000L45.000000 48.656902L44.338299 49.000000L44.000000 49.164024L43.000000 49.538208L42.000000 49.797607L41.000000 49.949848L40.000000 50.000000L39.000000 49.949848L38.000000 49.797607L37.000000 49.538208L36.000000 49.164024L35.661701 49.000000L35.000000 48.656902L34.000000 48.000000L33.000000 47.137554L32.862446 47.000000L32.000000 46.000000L31.343098 45.000000L31.000000 44.338299L30.835978 44.000000L30.461792 43.000000L30.202391 42.000000L30.050152 41.000000L30.000000 40.000000L30.050152 39.000000L30.202391 38.000000L30.461792 37.000000L30.835978 36.000000L31.000000 35.661701L31.343098 35.000000L32.000000 34.000000L32.862446 33.000000L33.000000 32.862446L34.000000 32.000000L35.000000 31.343098 Z" style="fill:black; stroke:none; stroke-width:0"></path>\n</svg>