<svg xmlns="http://www.w3.org/2000/svg" viewbox="0 0 88 88">
<path fill-rule="evenodd" d="
 M61.000000 76.000000
 L61.000000 76.000000
 L62.000000 76.554436
 L62.554440 76.000000
 Z
 M54.000000 76.000000
 L54.000000 76.000000
 L55.000000 76.554436
 L55.554440 76.000000
 Z
 M47.000000 76.000000
 L47.000000 76.000000
 L48.000000 76.554436
 L48.554440 76.000000
 Z
 M33.000000 76.000000
 L33.000000 76.000000
 L34.000000 76.554436
 L34.554440 76.000000
 Z
 M26.000000 76.000000
 L26.000000 76.000000
 L27.000000 76.554436
 L27.554440 76.000000
 Z
 M54.000000 69.000000
 L54.000000 69.000000
 L55.000000 69.554436
 L55.554440 69.000000
 Z
 M33.000000 69.000000
 L33.000000 69.000000
 L34.000000 69.554436
 L34.554440 69.000000
 Z
 M72.000000 66.835976
 L72.000000 66.835976
 L73.000000 66.461792
 L74.000000 66.202393
 L75.000000 66.050148
 L76.000000 66.000000
 L76.701729 67.000000
 L76.000000 68.000000
 L75.000000 69.000000
 L74.395714 70.000000
 L74.000000 70.454880
 L73.510780 71.000000
 L73.000000 71.547585
 L72.563599 72.000000
 L72.000000 72.563599
 L71.547585 73.000000
 L71.000000 73.510780
 L70.454880 74.000000
 L70.000000 74.395714
 L69.000000 75.000000
 L68.000000 76.000000
 L67.000000 76.701729
 L66.000000 76.000000
 L66.050148 75.000000
 L66.202393 74.000000
 L66.461792 73.000000
 L66.835976 72.000000
 L67.000000 71.661705
 L67.343102 71.000000
 L68.000000 70.000000
 L69.000000 69.554436
 L69.554436 69.000000
 L70.000000 68.000000
 L71.000000 67.343102
 Z
 M50.000000 66.835976
 L50.000000 66.835976
 L51.000000 66.461792
 L52.000000 66.202393
 L53.000000 66.050148
 L54.000000 66.000000
 L55.000000 66.086327
 L56.000000 66.202393
 L57.000000 66.461792
 L58.000000 66.835976
 L58.338299 67.000000
 L59.000000 67.343102
 L60.000000 68.000000
 L61.000000 69.000000
 L62.000000 70.000000
 L62.656902 71.000000
 L63.000000 71.661705
 L63.164024 72.000000
 L63.538208 73.000000
 L63.797607 74.000000
 L63.949848 75.000000
 L64.000000 76.000000
 L63.949848 77.000000
 L63.797607 78.000000
 L63.284859 79.000000
 L63.000000 79.198929
 L62.000000 79.720566
 L61.429913 80.000000
 L61.000000 80.207329
 L60.000000 80.660110
 L59.194302 81.000000
 L59.000000 81.080856
 L58.000000 81.469582
 L57.000000 81.828362
 L56.480980 82.000000
 L56.000000 82.157417
 L55.000000 82.000000
 L54.000000 82.729675
 L53.000000 82.974335
 L52.882622 83.000000
 L52.000000 83.191757
 L51.000000 83.382645
 L50.000000 83.547371
 L49.000000 83.629044
 L48.554440 83.000000
 L48.000000 82.000000
 L47.000000 83.000000
 L46.000000 82.000000
 L45.343098 81.000000
 L45.000000 80.338295
 L44.835976 80.000000
 L44.461792 79.000000
 L44.202393 78.000000
 L44.050152 77.000000
 L44.000000 76.000000
 L44.050152 75.000000
 L44.202393 74.000000
 L44.461792 73.000000
 L44.835976 72.000000
 L45.000000 71.661705
 L45.343098 71.000000
 L46.000000 70.000000
 L47.000000 69.000000
 L48.000000 69.554436
 L48.554440 69.000000
 L48.000000 68.000000
 L49.000000 67.343102
 Z
 M28.000000 66.835976
 L28.000000 66.835976
 L29.000000 66.461792
 L30.000000 66.202393
 L31.000000 66.050148
 L32.000000 66.000000
 L33.000000 66.050148
 L34.000000 66.272820
 L35.000000 66.461792
 L36.000000 66.835976
 L36.338299 67.000000
 L37.000000 67.343102
 L38.000000 68.000000
 L39.000000 68.862442
 L39.137554 69.000000
 L40.000000 70.000000
 L40.656902 71.000000
 L41.000000 71.661705
 L41.164024 72.000000
 L41.538208 73.000000
 L41.727184 74.000000
 L41.000000 75.000000
 L40.000000 76.000000
 L41.000000 76.554436
 L41.913673 77.000000
 L41.797607 78.000000
 L41.538208 79.000000
 L41.164024 80.000000
 L41.000000 80.338295
 L40.656902 81.000000
 L40.000000 82.000000
 L39.137554 83.000000
 L39.000000 83.137558
 L38.000000 83.547371
 L37.000000 83.382645
 L36.000000 83.191757
 L35.117378 83.000000
 L35.000000 82.974335
 L34.000000 82.000000
 L33.000000 82.457527
 L32.000000 82.157417
 L31.519022 82.000000
 L31.000000 81.828362
 L30.000000 81.469582
 L29.000000 81.080856
 L28.805698 81.000000
 L28.000000 80.660110
 L27.000000 80.207329
 L26.570087 80.000000
 L26.000000 79.720566
 L25.000000 79.198929
 L24.639624 79.000000
 L24.000000 78.640182
 L23.000000 78.043922
 L22.929800 78.000000
 L22.053362 77.000000
 L22.000000 76.000000
 L22.050152 75.000000
 L22.202391 74.000000
 L22.461792 73.000000
 L22.835978 72.000000
 L23.000000 71.661705
 L23.343098 71.000000
 L24.000000 70.000000
 L24.862444 69.000000
 L25.000000 68.862442
 L26.000000 68.000000
 L27.000000 68.000000
 L26.000000 69.000000
 L27.000000 69.554436
 L27.554440 69.000000
 L27.000000 68.000000
 Z
 M12.000000 66.250710
 L12.000000 66.250710
 L13.000000 66.461792
 L14.000000 66.835976
 L14.338298 67.000000
 L15.000000 67.343102
 L16.000000 68.000000
 L17.000000 68.862442
 L17.137556 69.000000
 L18.000000 70.000000
 L18.656902 71.000000
 L19.000000 71.661705
 L19.164022 72.000000
 L19.538208 73.000000
 L19.797609 74.000000
 L19.778587 75.000000
 L19.000000 75.223915
 L18.723909 75.000000
 L18.000000 74.395714
 L17.545120 74.000000
 L17.000000 73.510780
 L16.452412 73.000000
 L16.000000 72.563599
 L15.436400 72.000000
 L15.000000 71.547585
 L14.489220 71.000000
 L14.000000 70.454880
 L13.604289 70.000000
 L13.554440 69.000000
 L13.000000 68.000000
 L12.000000 68.000000
 Z
 M75.000000 62.000000
 L75.000000 62.000000
 L76.000000 62.554440
 L76.554436 62.000000
 Z
 M54.000000 62.000000
 L54.000000 62.000000
 L55.000000 62.554440
 L55.554440 62.000000
 Z
 M33.000000 62.000000
 L33.000000 62.000000
 L34.000000 62.554440
 L34.554440 62.000000
 Z
 M12.000000 62.000000
 L12.000000 62.000000
 L13.000000 62.561405
 L13.554440 62.000000
 Z
 M75.000000 55.000000
 L75.000000 55.000000
 L76.000000 55.554440
 L76.554436 55.000000
 Z
 M68.000000 55.000000
 L68.000000 55.000000
 L69.000000 55.554440
 L69.554436 55.000000
 Z
 M61.000000 55.000000
 L61.000000 55.000000
 L62.000000 55.554440
 L62.554440 55.000000
 Z
 M54.000000 55.000000
 L54.000000 55.000000
 L55.000000 55.554440
 L55.554440 55.000000
 Z
 M47.000000 55.000000
 L47.000000 55.000000
 L48.000000 55.554440
 L48.554440 55.000000
 Z
 M33.000000 55.000000
 L33.000000 55.000000
 L34.000000 55.554440
 L34.554440 55.000000
 Z
 M26.000000 55.000000
 L26.000000 55.000000
 L27.000000 55.554440
 L27.554440 55.000000
 Z
 M12.000000 55.000000
 L12.000000 55.000000
 L13.000000 55.554440
 L13.554440 55.000000
 Z
 M75.000000 48.000000
 L75.000000 48.000000
 L76.000000 48.554440
 L76.554436 48.000000
 Z
 M54.000000 48.000000
 L54.000000 48.000000
 L55.000000 48.554440
 L55.554440 48.000000
 Z
 M47.000000 48.000000
 L47.000000 48.000000
 L48.000000 48.554440
 L48.554440 48.000000
 Z
 M33.000000 48.000000
 L33.000000 48.000000
 L34.000000 48.554440
 L34.554440 48.000000
 Z
 M26.000000 48.000000
 L26.000000 48.000000
 L27.000000 48.554440
 L27.554440 48.000000
 Z
 M12.000000 48.000000
 L12.000000 48.000000
 L13.000000 48.554440
 L13.554440 48.000000
 Z
 M5.000000 48.000000
 L5.000000 48.000000
 L6.000000 48.554440
 L6.554439 48.000000
 Z
 M72.000000 44.835976
 L72.000000 44.835976
 L73.000000 44.461792
 L74.000000 44.202393
 L75.000000 44.050152
 L76.000000 44.000000
 L77.000000 44.050152
 L78.000000 44.202393
 L79.000000 44.461792
 L80.000000 44.835976
 L80.338295 45.000000
 L81.000000 45.343098
 L82.000000 46.000000
 L83.000000 47.000000
 L82.000000 48.000000
 L83.000000 48.554440
 L83.629044 49.000000
 L83.547371 50.000000
 L83.382645 51.000000
 L83.191757 52.000000
 L83.000000 52.882622
 L82.974335 53.000000
 L82.729675 54.000000
 L82.000000 55.000000
 L82.157417 56.000000
 L82.000000 56.480980
 L81.828362 57.000000
 L81.469582 58.000000
 L81.080856 59.000000
 L81.000000 59.194302
 L80.660110 60.000000
 L80.207329 61.000000
 L80.000000 61.429913
 L79.720566 62.000000
 L79.198929 63.000000
 L79.000000 63.284859
 L78.000000 63.797607
 L77.000000 63.949848
 L76.000000 64.000000
 L75.000000 63.949848
 L74.000000 63.797607
 L73.000000 63.538208
 L72.000000 63.164024
 L71.661705 63.000000
 L71.000000 62.656902
 L70.000000 62.000000
 L69.000000 61.000000
 L68.000000 60.000000
 L67.343102 59.000000
 L67.000000 58.338299
 L66.835976 58.000000
 L66.461792 57.000000
 L66.202393 56.000000
 L66.086327 55.000000
 L66.000000 54.000000
 L66.050148 53.000000
 L66.202393 52.000000
 L66.461792 51.000000
 L66.835976 50.000000
 L67.000000 49.661701
 L67.343102 49.000000
 L68.000000 48.000000
 L69.000000 48.554440
 L69.554436 48.000000
 L69.000000 47.000000
 L70.000000 46.000000
 L71.000000 45.343098
 Z
 M50.000000 44.835976
 L50.000000 44.835976
 L51.000000 44.461792
 L52.000000 44.202393
 L53.000000 44.050152
 L54.000000 44.000000
 L55.000000 44.053818
 L56.000000 44.202393
 L57.000000 44.461792
 L58.000000 44.835976
 L58.338299 45.000000
 L59.000000 45.343098
 L60.000000 46.000000
 L61.000000 46.862446
 L61.137554 47.000000
 L61.000000 48.000000
 L62.000000 48.554440
 L62.641006 49.000000
 L63.000000 49.661701
 L63.164024 50.000000
 L63.538208 51.000000
 L63.797607 52.000000
 L63.949848 53.000000
 L64.000000 54.000000
 L63.913673 55.000000
 L63.797607 56.000000
 L63.538208 57.000000
 L63.164024 58.000000
 L63.000000 58.338299
 L62.656902 59.000000
 L62.000000 60.000000
 L61.137554 61.000000
 L61.000000 61.137554
 L60.000000 62.000000
 L59.000000 62.656902
 L58.338299 63.000000
 L58.000000 63.164024
 L57.000000 63.538208
 L56.000000 63.797607
 L55.000000 63.913673
 L54.000000 64.000000
 L53.000000 63.949848
 L52.000000 63.797607
 L51.000000 63.538208
 L50.000000 63.164024
 L49.661701 63.000000
 L49.000000 62.641006
 L48.554440 62.000000
 L48.000000 61.000000
 L47.000000 61.137554
 L46.862446 61.000000
 L46.000000 60.000000
 L45.343098 59.000000
 L45.000000 58.338299
 L44.835976 58.000000
 L44.461792 57.000000
 L44.202393 56.000000
 L44.053818 55.000000
 L44.000000 54.000000
 L44.050152 53.000000
 L44.202393 52.000000
 L44.461792 51.000000
 L44.835976 50.000000
 L45.000000 49.661701
 L45.343098 49.000000
 L46.000000 48.000000
 L46.862446 47.000000
 L47.000000 46.862446
 L48.000000 46.000000
 L49.000000 45.343098
 Z
 M28.000000 44.835976
 L28.000000 44.835976
 L29.000000 44.461792
 L30.000000 44.202393
 L31.000000 44.050152
 L32.000000 44.000000
 L33.000000 44.050152
 L34.000000 44.202393
 L35.000000 44.461792
 L36.000000 44.835976
 L36.338299 45.000000
 L37.000000 45.343098
 L38.000000 46.000000
 L39.000000 46.862446
 L39.137554 47.000000
 L40.000000 48.000000
 L40.656902 49.000000
 L41.000000 49.661701
 L41.164024 50.000000
 L41.538208 51.000000
 L41.797607 52.000000
 L41.913673 53.000000
 L42.000000 54.000000
 L41.000000 54.000000
 L40.000000 55.000000
 L41.000000 55.554440
 L41.727184 56.000000
 L41.538208 57.000000
 L41.164024 58.000000
 L41.000000 58.338299
 L40.656902 59.000000
 L40.000000 60.000000
 L39.137554 61.000000
 L39.000000 61.137554
 L38.000000 62.000000
 L37.000000 62.656902
 L36.338299 63.000000
 L36.000000 63.164024
 L35.000000 63.538208
 L34.000000 63.727184
 L33.000000 63.949848
 L32.000000 64.000000
 L31.000000 63.949848
 L30.000000 63.797607
 L29.000000 63.538208
 L28.000000 63.164024
 L27.661703 63.000000
 L27.554440 62.000000
 L27.000000 61.000000
 L26.000000 62.000000
 L25.000000 61.137554
 L24.862444 61.000000
 L24.000000 60.000000
 L23.343098 59.000000
 L23.000000 58.338299
 L22.835978 58.000000
 L22.461792 57.000000
 L22.202391 56.000000
 L22.050152 55.000000
 L22.000000 54.000000
 L22.050152 53.000000
 L22.202391 52.000000
 L22.461792 51.000000
 L22.835978 50.000000
 L23.000000 49.661701
 L23.343098 49.000000
 L24.000000 48.000000
 L24.862444 47.000000
 L25.000000 46.862446
 L26.000000 46.000000
 L27.000000 45.358994
 Z
 M6.000000 44.835976
 L6.000000 44.835976
 L7.000000 44.461792
 L8.000000 44.202393
 L9.000000 44.050152
 L10.000000 44.000000
 L11.000000 44.050152
 L12.000000 44.202393
 L13.000000 44.461792
 L14.000000 44.835976
 L14.338298 45.000000
 L15.000000 45.343098
 L16.000000 46.000000
 L17.000000 46.862446
 L17.137556 47.000000
 L18.000000 48.000000
 L18.656902 49.000000
 L19.000000 49.661701
 L19.164022 50.000000
 L19.538208 51.000000
 L19.797609 52.000000
 L19.949848 53.000000
 L20.000000 54.000000
 L19.000000 55.000000
 L19.797609 56.000000
 L19.538208 57.000000
 L19.164022 58.000000
 L19.000000 58.338299
 L18.656902 59.000000
 L18.000000 60.000000
 L17.137556 61.000000
 L17.000000 61.137554
 L16.000000 62.000000
 L15.000000 62.656902
 L14.338298 63.000000
 L14.000000 63.164024
 L13.000000 63.538208
 L12.000000 63.797607
 L11.000000 63.949848
 L10.000000 64.000000
 L9.000000 63.360374
 L8.801072 63.000000
 L8.279433 62.000000
 L8.000000 61.429913
 L7.792670 61.000000
 L7.339887 60.000000
 L7.000000 59.194302
 L6.919147 59.000000
 L6.530419 58.000000
 L6.171640 57.000000
 L6.000000 56.480980
 L5.842585 56.000000
 L6.000000 55.813805
 L6.554439 55.000000
 L6.000000 54.000000
 L5.045208 53.000000
 L5.000000 52.882622
 L4.808241 52.000000
 L4.617354 51.000000
 L4.452631 50.000000
 L4.313772 49.000000
 L5.000000 48.000000
 L4.129174 47.000000
 L4.081120 46.000000
 L5.000000 45.343098
 Z
 M75.000000 34.000000
 L75.000000 34.000000
 L76.000000 34.554440
 L76.554436 34.000000
 Z
 M68.000000 34.000000
 L68.000000 34.000000
 L69.000000 34.554440
 L69.554436 34.000000
 Z
 M61.000000 34.000000
 L61.000000 34.000000
 L62.000000 34.554440
 L62.554440 34.000000
 Z
 M54.000000 34.000000
 L54.000000 34.000000
 L55.000000 34.554440
 L55.554440 34.000000
 Z
 M47.000000 34.000000
 L47.000000 34.000000
 L48.000000 34.554440
 L48.554440 34.000000
 Z
 M33.000000 34.000000
 L33.000000 34.000000
 L34.000000 34.554440
 L34.554440 34.000000
 Z
 M26.000000 34.000000
 L26.000000 34.000000
 L27.000000 34.554440
 L27.554440 34.000000
 Z
 M12.000000 34.000000
 L12.000000 34.000000
 L13.000000 34.554440
 L13.554440 34.000000
 Z
 M75.000000 27.000000
 L75.000000 27.000000
 L76.000000 27.554440
 L76.554436 27.000000
 Z
 M68.000000 27.000000
 L68.000000 27.000000
 L69.000000 27.554440
 L69.554436 27.000000
 Z
 M54.000000 27.000000
 L54.000000 27.000000
 L55.000000 27.554440
 L55.554440 27.000000
 Z
 M47.000000 27.000000
 L47.000000 27.000000
 L48.000000 27.554440
 L48.554440 27.000000
 Z
 M33.000000 27.000000
 L33.000000 27.000000
 L34.000000 27.554440
 L34.554440 27.000000
 Z
 M26.000000 27.000000
 L26.000000 27.000000
 L27.000000 27.554440
 L27.554440 27.000000
 Z
 M12.000000 27.000000
 L12.000000 27.000000
 L13.000000 27.554440
 L13.554440 27.000000
 Z
 M72.000000 22.835978
 L72.000000 22.835978
 L73.000000 22.461792
 L74.000000 22.202391
 L75.000000 22.050152
 L76.000000 22.000000
 L77.000000 22.053362
 L78.000000 22.929800
 L78.043922 23.000000
 L78.640182 24.000000
 L79.000000 24.639624
 L79.198929 25.000000
 L79.720566 26.000000
 L80.000000 26.570087
 L80.207329 27.000000
 L80.660110 28.000000
 L81.000000 28.805698
 L81.080856 29.000000
 L81.469582 30.000000
 L81.828362 31.000000
 L82.000000 31.519022
 L82.157417 32.000000
 L82.457527 33.000000
 L82.000000 34.000000
 L82.974335 35.000000
 L83.000000 35.117378
 L83.191757 36.000000
 L83.382645 37.000000
 L83.547371 38.000000
 L83.137558 39.000000
 L83.000000 39.137554
 L82.000000 40.000000
 L81.000000 40.656902
 L80.338295 41.000000
 L80.000000 41.164024
 L79.000000 41.538208
 L78.000000 41.797607
 L77.000000 41.913673
 L76.554436 41.000000
 L76.000000 40.000000
 L75.000000 41.000000
 L74.000000 41.727184
 L73.000000 41.538208
 L72.000000 41.164024
 L71.661705 41.000000
 L71.000000 40.656902
 L70.000000 40.000000
 L69.000000 39.137554
 L68.862442 39.000000
 L68.000000 38.000000
 L67.343102 37.000000
 L67.000000 36.338299
 L66.835976 36.000000
 L66.461792 35.000000
 L66.272820 34.000000
 L66.050148 33.000000
 L66.000000 32.000000
 L66.050148 31.000000
 L66.202393 30.000000
 L66.461792 29.000000
 L66.835976 28.000000
 L67.000000 27.661703
 L68.000000 27.000000
 L68.000000 26.000000
 L68.862442 25.000000
 L69.000000 24.862444
 L70.000000 24.000000
 L71.000000 23.343098
 Z
 M50.000000 22.835978
 L50.000000 22.835978
 L51.000000 22.461792
 L52.000000 22.202391
 L53.000000 22.050152
 L54.000000 22.000000
 L55.000000 22.050152
 L56.000000 22.202391
 L57.000000 22.461792
 L58.000000 22.835978
 L58.338299 23.000000
 L59.000000 23.343098
 L60.000000 24.000000
 L61.000000 24.862444
 L61.137554 25.000000
 L62.000000 26.000000
 L61.000000 27.000000
 L62.000000 27.554440
 L63.000000 27.661703
 L63.164024 28.000000
 L63.538208 29.000000
 L63.797607 30.000000
 L63.949848 31.000000
 L64.000000 32.000000
 L63.949848 33.000000
 L63.727184 34.000000
 L63.538208 35.000000
 L63.164024 36.000000
 L63.000000 36.338299
 L62.656902 37.000000
 L62.000000 38.000000
 L61.137554 39.000000
 L61.000000 39.137554
 L60.000000 40.000000
 L59.000000 40.656902
 L58.338299 41.000000
 L58.000000 41.164024
 L57.000000 41.538208
 L56.000000 41.727184
 L55.554440 41.000000
 L55.000000 40.000000
 L54.000000 41.000000
 L54.000000 42.000000
 L53.000000 41.913673
 L52.000000 41.797607
 L51.000000 41.538208
 L50.000000 41.164024
 L49.661701 41.000000
 L49.000000 40.656902
 L48.000000 40.000000
 L47.000000 39.137554
 L46.862446 39.000000
 L46.000000 38.000000
 L45.343098 37.000000
 L45.000000 36.338299
 L44.835976 36.000000
 L44.461792 35.000000
 L44.202393 34.000000
 L44.050152 33.000000
 L44.000000 32.000000
 L44.050152 31.000000
 L44.202393 30.000000
 L44.461792 29.000000
 L44.835976 28.000000
 L45.000000 27.661703
 L45.358994 27.000000
 L46.000000 26.000000
 L46.862446 25.000000
 L47.000000 24.862444
 L48.000000 24.000000
 L49.000000 23.343098
 Z
 M28.000000 22.835978
 L28.000000 22.835978
 L29.000000 22.461792
 L30.000000 22.202391
 L31.000000 22.050152
 L32.000000 22.000000
 L33.000000 22.050152
 L34.000000 22.202391
 L35.000000 22.461792
 L36.000000 22.835978
 L36.338299 23.000000
 L37.000000 23.343098
 L38.000000 24.000000
 L39.000000 24.862444
 L39.137554 25.000000
 L40.000000 26.000000
 L40.000000 27.000000
 L41.000000 27.812943
 L41.164024 28.000000
 L41.538208 29.000000
 L41.797607 30.000000
 L41.946182 31.000000
 L42.000000 32.000000
 L41.000000 33.000000
 L40.000000 34.000000
 L41.000000 34.561405
 L41.538208 35.000000
 L41.164024 36.000000
 L41.000000 36.338299
 L40.656902 37.000000
 L40.000000 38.000000
 L39.137554 39.000000
 L39.000000 39.137554
 L38.000000 40.000000
 L37.000000 40.656902
 L36.338299 41.000000
 L36.000000 41.164024
 L35.000000 41.538208
 L34.561405 41.000000
 L34.000000 40.000000
 L33.000000 41.000000
 L32.000000 42.000000
 L31.000000 41.946182
 L30.000000 41.797607
 L29.000000 41.538208
 L28.000000 41.164024
 L27.812943 41.000000
 L27.000000 40.000000
 L26.000000 40.000000
 L25.000000 39.137554
 L24.862444 39.000000
 L24.000000 38.000000
 L23.343098 37.000000
 L23.000000 36.338299
 L22.835978 36.000000
 L22.461792 35.000000
 L22.202391 34.000000
 L22.050152 33.000000
 L22.000000 32.000000
 L22.050152 31.000000
 L22.202391 30.000000
 L22.461792 29.000000
 L22.835978 28.000000
 L23.000000 27.661703
 L23.343098 27.000000
 L24.000000 26.000000
 L24.862444 25.000000
 L25.000000 24.862444
 L26.000000 24.000000
 L27.000000 23.343098
 Z
 M10.000000 22.929800
 L10.000000 22.929800
 L11.000000 22.053362
 L12.000000 22.202391
 L13.000000 22.461792
 L14.000000 22.835978
 L14.338298 23.000000
 L15.000000 23.343098
 L16.000000 24.000000
 L17.000000 24.862444
 L17.137556 25.000000
 L18.000000 26.000000
 L18.641005 27.000000
 L19.000000 27.661703
 L19.164022 28.000000
 L19.538208 29.000000
 L19.797609 30.000000
 L19.949848 31.000000
 L20.000000 32.000000
 L19.938215 33.000000
 L19.000000 34.000000
 L19.538208 35.000000
 L19.164022 36.000000
 L19.000000 36.338299
 L18.656902 37.000000
 L18.000000 38.000000
 L17.137556 39.000000
 L17.000000 39.137554
 L16.000000 40.000000
 L15.000000 40.656902
 L14.338298 41.000000
 L14.000000 41.164024
 L13.812943 41.000000
 L13.000000 40.000000
 L12.000000 41.000000
 L11.000000 41.913673
 L10.000000 42.000000
 L9.000000 41.949848
 L8.000000 41.797607
 L7.000000 41.538208
 L6.561403 41.000000
 L6.000000 40.000000
 L5.000000 40.656902
 L4.260609 40.000000
 L4.313772 39.000000
 L4.452631 38.000000
 L4.617354 37.000000
 L4.808241 36.000000
 L5.000000 35.117378
 L5.045208 35.000000
 L6.000000 34.554440
 L6.554439 34.000000
 L6.000000 33.000000
 L5.842585 32.000000
 L6.000000 31.519022
 L6.171640 31.000000
 L6.530419 30.000000
 L6.919147 29.000000
 L7.000000 28.805698
 L7.339887 28.000000
 L7.792670 27.000000
 L8.000000 26.570087
 L8.279433 26.000000
 L8.801072 25.000000
 L9.000000 24.639624
 L9.359819 24.000000
 Z
 M18.000000 13.604289
 L18.000000 13.604289
 L19.000000 13.000000
 L19.164022 14.000000
 L19.000000 14.338298
 L18.656902 15.000000
 L18.000000 16.000000
 L17.137556 17.000000
 L17.000000 17.137556
 L16.000000 18.000000
 L15.000000 18.656902
 L14.338298 19.000000
 L14.000000 19.164022
 L13.000000 19.000000
 L13.604289 18.000000
 L14.000000 17.545120
 L14.489220 17.000000
 L15.000000 16.452412
 L15.436400 16.000000
 L16.000000 15.436400
 L16.452412 15.000000
 L17.000000 14.489220
 Z
 M61.000000 13.000000
 L61.000000 13.000000
 L62.000000 13.554440
 L62.561405 13.000000
 Z
 M54.000000 13.000000
 L54.000000 13.000000
 L55.000000 13.554440
 L55.554440 13.000000
 Z
 M47.000000 13.000000
 L47.000000 13.000000
 L48.000000 13.554440
 L48.554440 13.000000
 Z
 M33.000000 13.000000
 L33.000000 13.000000
 L34.000000 13.554440
 L34.554440 13.000000
 Z
 M26.000000 13.000000
 L26.000000 13.000000
 L27.000000 13.554440
 L27.554440 13.000000
 Z
 M67.000000 11.274878
 L67.000000 11.274878
 L68.000000 12.000000
 L68.000000 13.000000
 L69.000000 13.554440
 L70.000000 13.604289
 L70.454880 14.000000
 L71.000000 14.489220
 L71.547585 15.000000
 L72.000000 15.436400
 L72.563599 16.000000
 L73.000000 16.452412
 L73.510780 17.000000
 L74.000000 17.545120
 L74.395714 18.000000
 L75.000000 18.723909
 L75.223915 19.000000
 L75.000000 19.778587
 L74.000000 19.797609
 L73.000000 19.538208
 L72.000000 19.164022
 L71.661705 19.000000
 L71.000000 18.656902
 L70.000000 18.000000
 L69.000000 17.137556
 L68.862442 17.000000
 L68.000000 16.000000
 L67.343102 15.000000
 L67.000000 14.338298
 L66.835976 14.000000
 L66.461792 13.000000
 Z
 M46.000000 4.081120
 L46.000000 4.081120
 L47.000000 4.129174
 L48.000000 5.000000
 L47.000000 6.000000
 L48.000000 6.554439
 L48.554440 6.000000
 L48.000000 5.000000
 L49.000000 4.313772
 L50.000000 4.452631
 L51.000000 4.617354
 L52.000000 4.808241
 L52.882622 5.000000
 L53.000000 5.045208
 L54.000000 6.000000
 L55.000000 6.554439
 L55.813805 6.000000
 L56.000000 5.842585
 L56.480980 6.000000
 L57.000000 6.171640
 L58.000000 6.530419
 L59.000000 6.919147
 L59.194302 7.000000
 L60.000000 7.339887
 L61.000000 7.792670
 L61.429913 8.000000
 L62.000000 8.279433
 L63.000000 8.801072
 L63.360374 9.000000
 L64.000000 10.000000
 L63.949848 11.000000
 L63.797607 12.000000
 L63.538208 13.000000
 L63.164024 14.000000
 L63.000000 14.338298
 L62.656902 15.000000
 L62.000000 16.000000
 L61.137554 17.000000
 L61.000000 17.137556
 L60.000000 18.000000
 L59.000000 18.656902
 L58.338299 19.000000
 L58.000000 19.164022
 L57.000000 19.538208
 L56.000000 19.797609
 L55.000000 19.000000
 L54.000000 20.000000
 L53.000000 19.949848
 L52.000000 19.797609
 L51.000000 19.538208
 L50.000000 19.164022
 L49.661701 19.000000
 L49.000000 18.656902
 L48.000000 18.000000
 L47.000000 17.137556
 L46.862446 17.000000
 L46.000000 16.000000
 L45.343098 15.000000
 L45.000000 14.338298
 L44.835976 14.000000
 L44.461792 13.000000
 L44.202393 12.000000
 L44.050152 11.000000
 L44.000000 10.000000
 L44.050152 9.000000
 L44.202393 8.000000
 L44.461792 7.000000
 L44.835976 6.000000
 L45.000000 5.661702
 Z
 M36.000000 4.808241
 L36.000000 4.808241
 L37.000000 4.617354
 L38.000000 4.452631
 L39.000000 4.313772
 L40.000000 4.260609
 L40.656902 5.000000
 L40.000000 6.000000
 L41.000000 6.561403
 L41.538208 7.000000
 L41.797607 8.000000
 L41.949848 9.000000
 L42.000000 10.000000
 L41.913673 11.000000
 L41.000000 12.000000
 L40.000000 13.000000
 L41.000000 13.812943
 L41.164024 14.000000
 L41.000000 14.338298
 L40.656902 15.000000
 L40.000000 16.000000
 L39.137554 17.000000
 L39.000000 17.137556
 L38.000000 18.000000
 L37.000000 18.656902
 L36.338299 19.000000
 L36.000000 19.164022
 L35.000000 19.538208
 L34.000000 19.000000
 L33.000000 19.938215
 L32.000000 20.000000
 L31.000000 19.949848
 L30.000000 19.797609
 L29.000000 19.538208
 L28.000000 19.164022
 L27.661703 19.000000
 L27.000000 18.641005
 L26.000000 18.000000
 L25.000000 17.137556
 L24.862444 17.000000
 L24.000000 16.000000
 L23.343098 15.000000
 L23.000000 14.338298
 L22.835978 14.000000
 L22.461792 13.000000
 L22.202391 12.000000
 L22.053362 11.000000
 L22.929800 10.000000
 L23.000000 9.956078
 L24.000000 9.359819
 L24.639624 9.000000
 L25.000000 8.801072
 L26.000000 8.279433
 L26.570087 8.000000
 L27.000000 7.792670
 L28.000000 7.339887
 L28.805698 7.000000
 L29.000000 6.919147
 L30.000000 6.530419
 L31.000000 6.171640
 L31.519022 6.000000
 L32.000000 5.842585
 L33.000000 6.000000
 L34.000000 6.554439
 L34.554440 6.000000
 L35.000000 5.045208
 Z
 " style="fill:black; stroke:none; stroke-width:0"></path>
</svg>
