<svg xmlns="http://www.w3.org/2000/svg" viewbox="0 0 88 88">
   <line x1="35.661701" y1="31.000000" x2="36.000000" y2="30.835978" style="fill:none; stroke:black; stroke-width:1" />
         <line x1="36.000000" y1="30.835978" x2="37.000000" y2="30.461792" style="fill:none; stroke:black; stroke-width:1" />
         <line x1="37.000000" y1="30.461792" x2="38.000000" y2="30.202391" style="fill:none; stroke:black; stroke-width:1" />
         <line x1="38.000000" y1="30.202391" x2="39.000000" y2="30.050152" style="fill:none; stroke:black; stroke-width:1" />
         <line x1="39.000000" y1="30.050152" x2="40.000000" y2="30.000000" style="fill:none; stroke:black; stroke-width:1" />
         <line x1="40.000000" y1="30.000000" x2="41.000000" y2="30.050152" style="fill:none; stroke:black; stroke-width:1" />
         <line x1="41.000000" y1="30.050152" x2="42.000000" y2="30.202391" style="fill:none; stroke:black; stroke-width:1" />
         <line x1="42.000000" y1="30.202391" x2="43.000000" y2="30.461792" style="fill:none; stroke:black; stroke-width:1" />
         <line x1="43.000000" y1="30.461792" x2="44.000000" y2="30.835978" style="fill:none; stroke:black; stroke-width:1" />
         <line x1="44.000000" y1="30.835978" x2="44.338299" y2="31.000000" style="fill:none; stroke:black; stroke-width:1" />
         <line x1="34.000000" y1="32.000000" x2="35.000000" y2="31.343098" style="fill:none; stroke:black; stroke-width:1" />
         <line x1="35.000000" y1="31.343098" x2="35.661701" y2="31.000000" style="fill:none; stroke:black; stroke-width:1" />
         <line x1="44.338299" y1="31.000000" x2="45.000000" y2="31.343098" style="fill:none; stroke:black; stroke-width:1" />
         <line x1="45.000000" y1="31.343098" x2="46.000000" y2="32.000000" style="fill:none; stroke:black; stroke-width:1" />
         <line x1="32.862446" y1="33.000000" x2="33.000000" y2="32.862446" style="fill:none; stroke:black; stroke-width:1" />
         <line x1="33.000000" y1="32.862446" x2="34.000000" y2="32.000000" style="fill:none; stroke:black; stroke-width:1" />
         <line x1="46.000000" y1="32.000000" x2="47.000000" y2="32.862446" style="fill:none; stroke:black; stroke-width:1" />
         <line x1="47.000000" y1="32.862446" x2="47.137554" y2="33.000000" style="fill:none; stroke:black; stroke-width:1" />
         <line x1="32.000000" y1="34.000000" x2="32.862446" y2="33.000000" style="fill:none; stroke:black; stroke-width:1" />
         <line x1="47.137554" y1="33.000000" x2="48.000000" y2="34.000000" style="fill:none; stroke:black; stroke-width:1" />
         <line x1="31.343098" y1="35.000000" x2="32.000000" y2="34.000000" style="fill:none; stroke:black; stroke-width:1" />
         <line x1="48.000000" y1="34.000000" x2="48.656902" y2="35.000000" style="fill:none; stroke:black; stroke-width:1" />
         <line x1="30.835978" y1="36.000000" x2="31.000000" y2="35.661701" style="fill:none; stroke:black; stroke-width:1" />
         <line x1="31.000000" y1="35.661701" x2="31.343098" y2="35.000000" style="fill:none; stroke:black; stroke-width:1" />
         <line x1="48.656902" y1="35.000000" x2="49.000000" y2="35.661701" style="fill:none; stroke:black; stroke-width:1" />
         <line x1="49.000000" y1="35.661701" x2="49.164024" y2="36.000000" style="fill:none; stroke:black; stroke-width:1" />
         <line x1="30.461792" y1="37.000000" x2="30.835978" y2="36.000000" style="fill:none; stroke:black; stroke-width:1" />
         <line x1="49.164024" y1="36.000000" x2="49.538208" y2="37.000000" style="fill:none; stroke:black; stroke-width:1" />
         <line x1="30.202391" y1="38.000000" x2="30.461792" y2="37.000000" style="fill:none; stroke:black; stroke-width:1" />
         <line x1="49.538208" y1="37.000000" x2="49.797607" y2="38.000000" style="fill:none; stroke:black; stroke-width:1" />
         <line x1="30.050152" y1="39.000000" x2="30.202391" y2="38.000000" style="fill:none; stroke:black; stroke-width:1" />
         <line x1="49.797607" y1="38.000000" x2="49.949848" y2="39.000000" style="fill:none; stroke:black; stroke-width:1" />
         <line x1="30.000000" y1="40.000000" x2="30.050152" y2="39.000000" style="fill:none; stroke:black; stroke-width:1" />
         <line x1="49.949848" y1="39.000000" x2="50.000000" y2="40.000000" style="fill:none; stroke:black; stroke-width:1" />
         <line x1="30.050152" y1="41.000000" x2="30.000000" y2="40.000000" style="fill:none; stroke:black; stroke-width:1" />
         <line x1="50.000000" y1="40.000000" x2="49.949848" y2="41.000000" style="fill:none; stroke:black; stroke-width:1" />
         <line x1="30.202391" y1="42.000000" x2="30.050152" y2="41.000000" style="fill:none; stroke:black; stroke-width:1" />
         <line x1="49.949848" y1="41.000000" x2="49.797607" y2="42.000000" style="fill:none; stroke:black; stroke-width:1" />
         <line x1="30.461792" y1="43.000000" x2="30.202391" y2="42.000000" style="fill:none; stroke:black; stroke-width:1" />
         <line x1="49.797607" y1="42.000000" x2="49.538208" y2="43.000000" style="fill:none; stroke:black; stroke-width:1" />
         <line x1="30.835978" y1="44.000000" x2="30.461792" y2="43.000000" style="fill:none; stroke:black; stroke-width:1" />
         <line x1="49.538208" y1="43.000000" x2="49.164024" y2="44.000000" style="fill:none; stroke:black; stroke-width:1" />
         <line x1="31.000000" y1="44.338299" x2="30.835978" y2="44.000000" style="fill:none; stroke:black; stroke-width:1" />
         <line x1="31.343098" y1="45.000000" x2="31.000000" y2="44.338299" style="fill:none; stroke:black; stroke-width:1" />
         <line x1="49.000000" y1="44.338299" x2="48.656902" y2="45.000000" style="fill:none; stroke:black; stroke-width:1" />
         <line x1="49.164024" y1="44.000000" x2="49.000000" y2="44.338299" style="fill:none; stroke:black; stroke-width:1" />
         <line x1="32.000000" y1="46.000000" x2="31.343098" y2="45.000000" style="fill:none; stroke:black; stroke-width:1" />
         <line x1="48.656902" y1="45.000000" x2="48.000000" y2="46.000000" style="fill:none; stroke:black; stroke-width:1" />
         <line x1="32.862446" y1="47.000000" x2="32.000000" y2="46.000000" style="fill:none; stroke:black; stroke-width:1" />
         <line x1="48.000000" y1="46.000000" x2="47.137554" y2="47.000000" style="fill:none; stroke:black; stroke-width:1" />
         <line x1="33.000000" y1="47.137554" x2="32.862446" y2="47.000000" style="fill:none; stroke:black; stroke-width:1" />
         <line x1="34.000000" y1="48.000000" x2="33.000000" y2="47.137554" style="fill:none; stroke:black; stroke-width:1" />
         <line x1="47.000000" y1="47.137554" x2="46.000000" y2="48.000000" style="fill:none; stroke:black; stroke-width:1" />
         <line x1="47.137554" y1="47.000000" x2="47.000000" y2="47.137554" style="fill:none; stroke:black; stroke-width:1" />
         <line x1="35.000000" y1="48.656902" x2="34.000000" y2="48.000000" style="fill:none; stroke:black; stroke-width:1" />
         <line x1="35.661701" y1="49.000000" x2="35.000000" y2="48.656902" style="fill:none; stroke:black; stroke-width:1" />
         <line x1="45.000000" y1="48.656902" x2="44.338299" y2="49.000000" style="fill:none; stroke:black; stroke-width:1" />
         <line x1="46.000000" y1="48.000000" x2="45.000000" y2="48.656902" style="fill:none; stroke:black; stroke-width:1" />
         <line x1="36.000000" y1="49.164024" x2="35.661701" y2="49.000000" style="fill:none; stroke:black; stroke-width:1" />
         <line x1="37.000000" y1="49.538208" x2="36.000000" y2="49.164024" style="fill:none; stroke:black; stroke-width:1" />
         <line x1="38.000000" y1="49.797607" x2="37.000000" y2="49.538208" style="fill:none; stroke:black; stroke-width:1" />
         <line x1="39.000000" y1="49.949848" x2="38.000000" y2="49.797607" style="fill:none; stroke:black; stroke-width:1" />
         <line x1="40.000000" y1="50.000000" x2="39.000000" y2="49.949848" style="fill:none; stroke:black; stroke-width:1" />
         <line x1="41.000000" y1="49.949848" x2="40.000000" y2="50.000000" style="fill:none; stroke:black; stroke-width:1" />
         <line x1="42.000000" y1="49.797607" x2="41.000000" y2="49.949848" style="fill:none; stroke:black; stroke-width:1" />
         <line x1="43.000000" y1="49.538208" x2="42.000000" y2="49.797607" style="fill:none; stroke:black; stroke-width:1" />
         <line x1="44.000000" y1="49.164024" x2="43.000000" y2="49.538208" style="fill:none; stroke:black; stroke-width:1" />
         <line x1="44.338299" y1="49.000000" x2="44.000000" y2="49.164024" style="fill:none; stroke:black; stroke-width:1" />
        </svg>