<svg xmlns="http://www.w3.org/2000/svg" viewbox="0 0 88 88">
<path fill-rule="evenodd" d="
 M51.000000 81.760437
 L51.000000 81.760437
 L52.000000 82.000000
 L51.614799 83.000000
 L51.000000 83.382645
 L50.000000 83.297768
 L49.760441 83.000000
 L50.000000 82.718903
 Z
 M35.000000 81.760437
 L35.000000 81.760437
 L36.000000 82.000000
 L35.000000 82.883614
 Z
 M58.000000 80.544823
 L58.000000 80.544823
 L59.000000 80.878738
 L59.194302 81.000000
 L59.000000 81.080856
 L58.000000 81.442520
 Z
 M53.000000 80.586067
 L53.000000 80.586067
 L54.000000 80.544823
 L54.619141 81.000000
 L55.000000 81.380859
 L55.455177 82.000000
 L55.000000 82.430595
 L54.000000 82.729675
 L53.000000 82.974335
 L52.000000 82.000000
 Z
 M42.000000 80.544823
 L42.000000 80.544823
 L43.000000 80.586067
 L43.619427 81.000000
 L44.000000 82.000000
 L45.000000 81.760437
 L45.281097 82.000000
 L46.000000 82.718903
 L46.239559 83.000000
 L46.000000 83.791550
 L45.000000 83.712761
 L44.287239 83.000000
 L44.000000 82.000000
 L43.712761 83.000000
 L43.000000 83.712761
 L42.000000 83.949966
 L41.000000 83.712761
 L40.287239 83.000000
 L40.544823 82.000000
 L41.000000 81.380859
 Z
 M37.000000 80.586067
 L37.000000 80.586067
 L38.000000 80.544823
 L38.619141 81.000000
 L39.000000 81.380859
 L39.455177 82.000000
 L39.712761 83.000000
 L39.000000 83.653000
 L38.000000 83.547371
 L37.000000 83.382645
 L36.385201 83.000000
 L36.000000 82.000000
 Z
 M66.000000 72.544823
 L66.000000 72.544823
 L67.000000 72.287239
 L67.712761 73.000000
 L68.000000 74.000000
 L68.287239 73.000000
 L69.000000 72.287239
 L70.000000 72.544823
 L70.619141 73.000000
 L70.454880 74.000000
 L70.000000 74.395714
 L69.276093 75.000000
 L69.000000 75.223915
 L68.573746 75.000000
 L68.000000 74.000000
 L67.712761 75.000000
 L67.000000 75.712761
 L66.000000 76.000000
 L66.458199 77.000000
 L66.000000 77.276337
 L65.760437 77.000000
 L66.000000 76.000000
 L65.000000 75.619423
 L64.586067 75.000000
 L64.544823 74.000000
 L65.000000 73.380859
 Z
 M58.000000 72.544823
 L58.000000 72.544823
 L59.000000 72.287239
 L59.712761 73.000000
 L60.000000 74.000000
 L60.287239 73.000000
 L61.000000 72.287239
 L62.000000 72.544823
 L62.619141 73.000000
 L63.000000 73.380859
 L63.455177 74.000000
 L63.413937 75.000000
 L63.000000 75.619423
 L62.000000 76.000000
 L61.000000 75.712761
 L60.287239 75.000000
 L60.000000 74.000000
 L59.712761 75.000000
 L59.000000 75.712761
 L58.000000 76.000000
 L59.000000 76.287239
 L59.712761 77.000000
 L60.000000 78.000000
 L60.287239 77.000000
 L61.000000 76.287239
 L62.000000 76.000000
 L62.239559 77.000000
 L62.000000 77.281097
 L61.281097 78.000000
 L61.000000 78.239563
 L60.000000 78.000000
 L59.619427 79.000000
 L59.000000 79.413933
 L58.000000 79.455177
 L57.380859 79.000000
 L57.000000 78.619141
 L56.544823 78.000000
 L56.287239 77.000000
 L57.000000 76.287239
 L58.000000 76.000000
 L57.000000 75.712761
 L56.287239 75.000000
 L56.544823 74.000000
 L57.000000 73.380859
 Z
 M50.000000 72.544823
 L50.000000 72.544823
 L51.000000 72.287239
 L51.712761 73.000000
 L52.000000 74.000000
 L52.287239 73.000000
 L53.000000 72.287239
 L54.000000 72.544823
 L54.619141 73.000000
 L55.000000 73.380859
 L55.455177 74.000000
 L55.712761 75.000000
 L55.000000 75.712761
 L54.000000 76.000000
 L53.000000 75.712761
 L52.287239 75.000000
 L52.000000 74.000000
 L51.712761 75.000000
 L51.000000 75.712761
 L50.000000 76.000000
 L51.000000 76.287239
 L51.712761 77.000000
 L52.000000 78.000000
 L52.287239 77.000000
 L53.000000 76.287239
 L54.000000 76.000000
 L55.000000 76.287239
 L55.712761 77.000000
 L55.455177 78.000000
 L55.000000 78.619141
 L54.619141 79.000000
 L54.000000 79.455177
 L53.000000 79.413933
 L52.380573 79.000000
 L52.000000 78.000000
 L51.000000 78.239563
 L50.718903 78.000000
 L50.000000 77.281097
 L49.760441 77.000000
 L50.000000 76.000000
 L49.000000 75.619423
 L48.586063 75.000000
 L48.544823 74.000000
 L49.000000 73.380859
 Z
 M42.000000 72.544823
 L42.000000 72.544823
 L43.000000 72.287239
 L43.712761 73.000000
 L44.000000 74.000000
 L44.287239 73.000000
 L45.000000 72.287239
 L46.000000 72.544823
 L46.619141 73.000000
 L47.000000 73.380859
 L47.455177 74.000000
 L47.413937 75.000000
 L47.000000 75.619423
 L46.000000 76.000000
 L45.000000 75.712761
 L44.287239 75.000000
 L44.000000 74.000000
 L43.712761 75.000000
 L43.000000 75.712761
 L42.000000 76.000000
 L43.000000 76.287239
 L43.712761 77.000000
 L44.000000 78.000000
 L44.287239 77.000000
 L45.000000 76.287239
 L46.000000 76.000000
 L46.239559 77.000000
 L46.000000 77.281097
 L45.281097 78.000000
 L45.000000 78.239563
 L44.000000 78.000000
 L43.619427 79.000000
 L43.000000 79.413933
 L42.000000 79.455177
 L41.380859 79.000000
 L41.000000 78.619141
 L40.544823 78.000000
 L40.287239 77.000000
 L41.000000 76.287239
 L42.000000 76.000000
 L41.000000 75.712761
 L40.287239 75.000000
 L40.544823 74.000000
 L41.000000 73.380859
 Z
 M34.000000 72.544823
 L34.000000 72.544823
 L35.000000 72.287239
 L35.712761 73.000000
 L36.000000 74.000000
 L36.287239 73.000000
 L37.000000 72.287239
 L38.000000 72.544823
 L38.619141 73.000000
 L39.000000 73.380859
 L39.455177 74.000000
 L39.712761 75.000000
 L39.000000 75.712761
 L38.000000 76.000000
 L37.000000 75.712761
 L36.287239 75.000000
 L36.000000 74.000000
 L35.712761 75.000000
 L35.000000 75.712761
 L34.000000 76.000000
 L35.000000 76.287239
 L35.712761 77.000000
 L36.000000 78.000000
 L36.287239 77.000000
 L37.000000 76.287239
 L38.000000 76.000000
 L39.000000 76.287239
 L39.712761 77.000000
 L39.455177 78.000000
 L39.000000 78.619141
 L38.619141 79.000000
 L38.000000 79.455177
 L37.000000 79.413933
 L36.380573 79.000000
 L36.000000 78.000000
 L35.000000 78.239563
 L34.718903 78.000000
 L34.000000 77.281097
 L33.760441 77.000000
 L34.000000 76.000000
 L33.000000 75.619423
 L32.586063 75.000000
 L32.544823 74.000000
 L33.000000 73.380859
 Z
 M26.000000 72.544823
 L26.000000 72.544823
 L27.000000 72.287239
 L27.712761 73.000000
 L28.000000 74.000000
 L28.287239 73.000000
 L29.000000 72.287239
 L30.000000 72.544823
 L30.619143 73.000000
 L31.000000 73.380859
 L31.455175 74.000000
 L31.413935 75.000000
 L31.000000 75.619423
 L30.000000 76.000000
 L29.000000 75.712761
 L28.287239 75.000000
 L28.000000 74.000000
 L27.712761 75.000000
 L27.000000 75.712761
 L26.000000 76.000000
 L27.000000 76.287239
 L27.712761 77.000000
 L28.000000 78.000000
 L28.287239 77.000000
 L29.000000 76.287239
 L30.000000 76.000000
 L30.239561 77.000000
 L30.000000 77.281097
 L29.281099 78.000000
 L29.000000 78.239563
 L28.000000 78.000000
 L27.619427 79.000000
 L27.000000 79.413933
 L26.000000 79.455177
 L25.380857 79.000000
 L25.000000 78.619141
 L24.544825 78.000000
 L24.287239 77.000000
 L25.000000 76.287239
 L26.000000 76.000000
 L25.000000 75.712761
 L24.287239 75.000000
 L24.544825 74.000000
 L25.000000 73.380859
 Z
 M18.000000 72.544823
 L18.000000 72.544823
 L19.000000 72.287239
 L19.712761 73.000000
 L20.000000 74.000000
 L20.287239 73.000000
 L21.000000 72.287239
 L22.000000 72.544823
 L22.619143 73.000000
 L23.000000 73.380859
 L23.455175 74.000000
 L23.712761 75.000000
 L23.000000 75.712761
 L22.000000 76.000000
 L23.000000 76.287239
 L23.712761 77.000000
 L23.073614 78.000000
 L23.000000 78.043922
 L22.929800 78.000000
 L22.000000 77.405502
 L21.398308 77.000000
 L22.000000 76.000000
 L21.000000 75.712761
 L20.287239 75.000000
 L20.000000 74.000000
 L19.426256 75.000000
 L19.000000 75.223915
 L18.723909 75.000000
 L18.000000 74.395714
 L17.545120 74.000000
 Z
 M67.000000 65.760437
 L67.000000 65.760437
 L68.000000 66.000000
 L67.712761 67.000000
 L67.000000 67.712761
 L66.000000 68.000000
 L67.000000 68.287239
 L67.712761 69.000000
 L68.000000 70.000000
 L67.712761 71.000000
 L67.000000 71.712761
 L66.000000 71.455177
 L65.380859 71.000000
 L65.000000 70.619141
 L64.544823 70.000000
 L64.586067 69.000000
 L65.000000 68.380577
 L66.000000 68.000000
 L65.760437 67.000000
 L66.000000 66.718903
 Z
 M51.000000 65.760437
 L51.000000 65.760437
 L52.000000 66.000000
 L51.712761 67.000000
 L51.000000 67.712761
 L50.000000 68.000000
 L51.000000 68.287239
 L51.712761 69.000000
 L52.000000 70.000000
 L51.712761 71.000000
 L51.000000 71.712761
 L50.000000 71.455177
 L49.380859 71.000000
 L49.000000 70.619141
 L48.544823 70.000000
 L48.586063 69.000000
 L49.000000 68.380577
 L50.000000 68.000000
 L49.760441 67.000000
 L50.000000 66.718903
 Z
 M35.000000 65.760437
 L35.000000 65.760437
 L36.000000 66.000000
 L35.712761 67.000000
 L35.000000 67.712761
 L34.000000 68.000000
 L35.000000 68.287239
 L35.712761 69.000000
 L36.000000 70.000000
 L35.712761 71.000000
 L35.000000 71.712761
 L34.000000 71.455177
 L33.380859 71.000000
 L33.000000 70.619141
 L32.544823 70.000000
 L32.586063 69.000000
 L33.000000 68.380577
 L34.000000 68.000000
 L33.760441 67.000000
 L34.000000 66.718903
 Z
 M19.000000 65.760437
 L19.000000 65.760437
 L20.000000 66.000000
 L19.712761 67.000000
 L19.000000 67.712761
 L18.000000 68.000000
 L19.000000 68.287239
 L19.712761 69.000000
 L20.000000 70.000000
 L19.712761 71.000000
 L19.000000 71.712761
 L18.000000 71.455177
 L17.380857 71.000000
 L17.000000 70.619141
 L16.544825 70.000000
 L16.586065 69.000000
 L17.000000 68.380577
 L18.000000 68.000000
 L17.760439 67.000000
 L18.000000 66.718903
 Z
 M74.000000 64.544823
 L74.000000 64.544823
 L75.000000 64.586067
 L75.619423 65.000000
 L76.000000 66.000000
 L77.000000 65.760437
 L77.276337 66.000000
 L77.000000 66.458199
 L76.000000 66.000000
 L75.712761 67.000000
 L75.000000 67.712761
 L74.000000 68.000000
 L75.000000 68.573746
 L75.223915 69.000000
 L75.000000 69.276093
 L74.395714 70.000000
 L74.000000 70.454880
 L73.000000 70.619141
 L72.544823 70.000000
 L72.287239 69.000000
 L73.000000 68.287239
 L74.000000 68.000000
 L73.000000 67.712761
 L72.287239 67.000000
 L72.544823 66.000000
 L73.000000 65.380859
 Z
 M69.000000 64.586067
 L69.000000 64.586067
 L70.000000 64.544823
 L70.619141 65.000000
 L71.000000 65.380859
 L71.455177 66.000000
 L71.712761 67.000000
 L71.000000 67.712761
 L70.000000 68.000000
 L71.000000 68.287239
 L71.712761 69.000000
 L71.455177 70.000000
 L71.000000 70.619141
 L70.619141 71.000000
 L70.000000 71.455177
 L69.000000 71.712761
 L68.287239 71.000000
 L68.000000 70.000000
 L68.287239 69.000000
 L69.000000 68.287239
 L70.000000 68.000000
 L69.000000 67.712761
 L68.287239 67.000000
 L68.000000 66.000000
 Z
 M58.000000 64.544823
 L58.000000 64.544823
 L59.000000 64.586067
 L59.619427 65.000000
 L60.000000 66.000000
 L61.000000 65.760437
 L61.281097 66.000000
 L62.000000 66.718903
 L62.239559 67.000000
 L62.000000 68.000000
 L61.000000 67.712761
 L60.287239 67.000000
 L60.000000 66.000000
 L59.712761 67.000000
 L59.000000 67.712761
 L58.000000 68.000000
 L59.000000 68.287239
 L59.712761 69.000000
 L60.000000 70.000000
 L60.287239 69.000000
 L61.000000 68.287239
 L62.000000 68.000000
 L63.000000 68.380577
 L63.413937 69.000000
 L63.455177 70.000000
 L63.000000 70.619141
 L62.619141 71.000000
 L62.000000 71.455177
 L61.000000 71.712761
 L60.287239 71.000000
 L60.000000 70.000000
 L59.712761 71.000000
 L59.000000 71.712761
 L58.000000 71.455177
 L57.380859 71.000000
 L57.000000 70.619141
 L56.544823 70.000000
 L56.287239 69.000000
 L57.000000 68.287239
 L58.000000 68.000000
 L57.000000 67.712761
 L56.287239 67.000000
 L56.544823 66.000000
 L57.000000 65.380859
 Z
 M53.000000 64.586067
 L53.000000 64.586067
 L54.000000 64.544823
 L54.619141 65.000000
 L55.000000 65.380859
 L55.455177 66.000000
 L55.712761 67.000000
 L55.000000 67.712761
 L54.000000 68.000000
 L55.000000 68.287239
 L55.712761 69.000000
 L55.455177 70.000000
 L55.000000 70.619141
 L54.619141 71.000000
 L54.000000 71.455177
 L53.000000 71.712761
 L52.287239 71.000000
 L52.000000 70.000000
 L52.287239 69.000000
 L53.000000 68.287239
 L54.000000 68.000000
 L53.000000 67.712761
 L52.287239 67.000000
 L52.000000 66.000000
 Z
 M42.000000 64.544823
 L42.000000 64.544823
 L43.000000 64.586067
 L43.619427 65.000000
 L44.000000 66.000000
 L45.000000 65.760437
 L45.281097 66.000000
 L46.000000 66.718903
 L46.239559 67.000000
 L46.000000 68.000000
 L45.000000 67.712761
 L44.287239 67.000000
 L44.000000 66.000000
 L43.712761 67.000000
 L43.000000 67.712761
 L42.000000 68.000000
 L43.000000 68.287239
 L43.712761 69.000000
 L44.000000 70.000000
 L44.287239 69.000000
 L45.000000 68.287239
 L46.000000 68.000000
 L47.000000 68.380577
 L47.413937 69.000000
 L47.455177 70.000000
 L47.000000 70.619141
 L46.619141 71.000000
 L46.000000 71.455177
 L45.000000 71.712761
 L44.287239 71.000000
 L44.000000 70.000000
 L43.712761 71.000000
 L43.000000 71.712761
 L42.000000 71.455177
 L41.380859 71.000000
 L41.000000 70.619141
 L40.544823 70.000000
 L40.287239 69.000000
 L41.000000 68.287239
 L42.000000 68.000000
 L41.000000 67.712761
 L40.287239 67.000000
 L40.544823 66.000000
 L41.000000 65.380859
 Z
 M37.000000 64.586067
 L37.000000 64.586067
 L38.000000 64.544823
 L38.619141 65.000000
 L39.000000 65.380859
 L39.455177 66.000000
 L39.712761 67.000000
 L39.000000 67.712761
 L38.000000 68.000000
 L39.000000 68.287239
 L39.712761 69.000000
 L39.455177 70.000000
 L39.000000 70.619141
 L38.619141 71.000000
 L38.000000 71.455177
 L37.000000 71.712761
 L36.287239 71.000000
 L36.000000 70.000000
 L36.287239 69.000000
 L37.000000 68.287239
 L38.000000 68.000000
 L37.000000 67.712761
 L36.287239 67.000000
 L36.000000 66.000000
 Z
 M26.000000 64.544823
 L26.000000 64.544823
 L27.000000 64.586067
 L27.619427 65.000000
 L28.000000 66.000000
 L29.000000 65.760437
 L29.281099 66.000000
 L30.000000 66.718903
 L30.239561 67.000000
 L30.000000 68.000000
 L29.000000 67.712761
 L28.287239 67.000000
 L28.000000 66.000000
 L27.712761 67.000000
 L27.000000 67.712761
 L26.000000 68.000000
 L27.000000 68.287239
 L27.712761 69.000000
 L28.000000 70.000000
 L28.287239 69.000000
 L29.000000 68.287239
 L30.000000 68.000000
 L31.000000 68.380577
 L31.413935 69.000000
 L31.455175 70.000000
 L31.000000 70.619141
 L30.619143 71.000000
 L30.000000 71.455177
 L29.000000 71.712761
 L28.287239 71.000000
 L28.000000 70.000000
 L27.712761 71.000000
 L27.000000 71.712761
 L26.000000 71.455177
 L25.380857 71.000000
 L25.000000 70.619141
 L24.544825 70.000000
 L24.287239 69.000000
 L25.000000 68.287239
 L26.000000 68.000000
 L25.000000 67.712761
 L24.287239 67.000000
 L24.544825 66.000000
 L25.000000 65.380859
 Z
 M21.000000 64.586067
 L21.000000 64.586067
 L22.000000 64.544823
 L22.619143 65.000000
 L23.000000 65.380859
 L23.455175 66.000000
 L23.712761 67.000000
 L23.000000 67.712761
 L22.000000 68.000000
 L23.000000 68.287239
 L23.712761 69.000000
 L23.455175 70.000000
 L23.000000 70.619141
 L22.619143 71.000000
 L22.000000 71.455177
 L21.000000 71.712761
 L20.287239 71.000000
 L20.000000 70.000000
 L20.287239 69.000000
 L21.000000 68.287239
 L22.000000 68.000000
 L21.000000 67.712761
 L20.287239 67.000000
 L20.000000 66.000000
 Z
 M10.000000 64.926384
 L10.000000 64.926384
 L11.000000 64.586067
 L11.619426 65.000000
 L12.000000 66.000000
 L13.000000 65.760437
 L13.281098 66.000000
 L14.000000 66.718903
 L14.239561 67.000000
 L14.000000 68.000000
 L15.000000 68.380577
 L15.413935 69.000000
 L15.455176 70.000000
 L15.000000 70.619141
 L14.000000 70.454880
 L13.604289 70.000000
 L13.000000 69.276093
 L12.776085 69.000000
 L13.000000 68.573746
 L14.000000 68.000000
 L13.000000 67.712761
 L12.287238 67.000000
 L12.000000 66.000000
 L11.000000 66.601692
 L10.594501 66.000000
 L10.000000 65.070198
 Z
 M81.000000 57.380859
 L81.000000 57.380859
 L81.442520 58.000000
 L81.080856 59.000000
 L81.000000 59.194302
 L80.878738 59.000000
 Z
 M7.000000 57.380859
 L7.000000 57.380859
 L7.455176 58.000000
 L7.241274 59.000000
 L7.000000 59.194302
 L6.919147 59.000000
 Z
 M74.000000 56.544823
 L74.000000 56.544823
 L75.000000 56.287239
 L75.712761 57.000000
 L76.000000 58.000000
 L76.287239 57.000000
 L77.000000 56.287239
 L78.000000 56.544823
 L78.619141 57.000000
 L79.000000 57.380859
 L79.455177 58.000000
 L79.413933 59.000000
 L79.000000 59.619427
 L78.000000 60.000000
 L77.000000 59.712761
 L76.287239 59.000000
 L76.000000 58.000000
 L75.712761 59.000000
 L75.000000 59.712761
 L74.000000 60.000000
 L75.000000 60.287239
 L75.712761 61.000000
 L76.000000 62.000000
 L76.287239 61.000000
 L77.000000 60.287239
 L78.000000 60.000000
 L78.239563 61.000000
 L78.000000 61.281097
 L77.281097 62.000000
 L77.000000 62.239559
 L76.000000 62.000000
 L75.619423 63.000000
 L75.000000 63.413937
 L74.000000 63.455177
 L73.380859 63.000000
 L73.000000 62.619141
 L72.544823 62.000000
 L72.287239 61.000000
 L73.000000 60.287239
 L74.000000 60.000000
 L73.000000 59.712761
 L72.287239 59.000000
 L72.544823 58.000000
 L73.000000 57.380859
 Z
 M66.000000 56.544823
 L66.000000 56.544823
 L67.000000 56.287239
 L67.712761 57.000000
 L68.000000 58.000000
 L68.287239 57.000000
 L69.000000 56.287239
 L70.000000 56.544823
 L70.619141 57.000000
 L71.000000 57.380859
 L71.455177 58.000000
 L71.712761 59.000000
 L71.000000 59.712761
 L70.000000 60.000000
 L69.000000 59.712761
 L68.287239 59.000000
 L68.000000 58.000000
 L67.712761 59.000000
 L67.000000 59.712761
 L66.000000 60.000000
 L67.000000 60.287239
 L67.712761 61.000000
 L68.000000 62.000000
 L68.287239 61.000000
 L69.000000 60.287239
 L70.000000 60.000000
 L71.000000 60.287239
 L71.712761 61.000000
 L71.455177 62.000000
 L71.000000 62.619141
 L70.619141 63.000000
 L70.000000 63.455177
 L69.000000 63.413937
 L68.380577 63.000000
 L68.000000 62.000000
 L67.000000 62.239559
 L66.718903 62.000000
 L66.000000 61.281097
 L65.760437 61.000000
 L66.000000 60.000000
 L65.000000 59.619427
 L64.586067 59.000000
 L64.544823 58.000000
 L65.000000 57.380859
 Z
 M58.000000 56.544823
 L58.000000 56.544823
 L59.000000 56.287239
 L59.712761 57.000000
 L60.000000 58.000000
 L60.287239 57.000000
 L61.000000 56.287239
 L62.000000 56.544823
 L62.619141 57.000000
 L63.000000 57.380859
 L63.455177 58.000000
 L63.413937 59.000000
 L63.000000 59.619427
 L62.000000 60.000000
 L61.000000 59.712761
 L60.287239 59.000000
 L60.000000 58.000000
 L59.712761 59.000000
 L59.000000 59.712761
 L58.000000 60.000000
 L59.000000 60.287239
 L59.712761 61.000000
 L60.000000 62.000000
 L60.287239 61.000000
 L61.000000 60.287239
 L62.000000 60.000000
 L62.239559 61.000000
 L62.000000 61.281097
 L61.281097 62.000000
 L61.000000 62.239559
 L60.000000 62.000000
 L59.619427 63.000000
 L59.000000 63.413937
 L58.000000 63.455177
 L57.380859 63.000000
 L57.000000 62.619141
 L56.544823 62.000000
 L56.287239 61.000000
 L57.000000 60.287239
 L58.000000 60.000000
 L57.000000 59.712761
 L56.287239 59.000000
 L56.544823 58.000000
 L57.000000 57.380859
 Z
 M50.000000 56.544823
 L50.000000 56.544823
 L51.000000 56.287239
 L51.712761 57.000000
 L52.000000 58.000000
 L52.287239 57.000000
 L53.000000 56.287239
 L54.000000 56.544823
 L54.619141 57.000000
 L55.000000 57.380859
 L55.455177 58.000000
 L55.712761 59.000000
 L55.000000 59.712761
 L54.000000 60.000000
 L53.000000 59.712761
 L52.287239 59.000000
 L52.000000 58.000000
 L51.712761 59.000000
 L51.000000 59.712761
 L50.000000 60.000000
 L51.000000 60.287239
 L51.712761 61.000000
 L52.000000 62.000000
 L52.287239 61.000000
 L53.000000 60.287239
 L54.000000 60.000000
 L55.000000 60.287239
 L55.712761 61.000000
 L55.455177 62.000000
 L55.000000 62.619141
 L54.619141 63.000000
 L54.000000 63.455177
 L53.000000 63.413937
 L52.380573 63.000000
 L52.000000 62.000000
 L51.000000 62.239559
 L50.718903 62.000000
 L50.000000 61.281097
 L49.760441 61.000000
 L50.000000 60.000000
 L49.000000 59.619427
 L48.586063 59.000000
 L48.544823 58.000000
 L49.000000 57.380859
 Z
 M42.000000 56.544823
 L42.000000 56.544823
 L43.000000 56.287239
 L43.712761 57.000000
 L44.000000 58.000000
 L44.287239 57.000000
 L45.000000 56.287239
 L46.000000 56.544823
 L46.619141 57.000000
 L47.000000 57.380859
 L47.455177 58.000000
 L47.413937 59.000000
 L47.000000 59.619427
 L46.000000 60.000000
 L45.000000 59.712761
 L44.287239 59.000000
 L44.000000 58.000000
 L43.712761 59.000000
 L43.000000 59.712761
 L42.000000 60.000000
 L43.000000 60.287239
 L43.712761 61.000000
 L44.000000 62.000000
 L44.287239 61.000000
 L45.000000 60.287239
 L46.000000 60.000000
 L46.239559 61.000000
 L46.000000 61.281097
 L45.281097 62.000000
 L45.000000 62.239559
 L44.000000 62.000000
 L43.619427 63.000000
 L43.000000 63.413937
 L42.000000 63.455177
 L41.380859 63.000000
 L41.000000 62.619141
 L40.544823 62.000000
 L40.287239 61.000000
 L41.000000 60.287239
 L42.000000 60.000000
 L41.000000 59.712761
 L40.287239 59.000000
 L40.544823 58.000000
 L41.000000 57.380859
 Z
 M34.000000 56.544823
 L34.000000 56.544823
 L35.000000 56.287239
 L35.712761 57.000000
 L36.000000 58.000000
 L36.287239 57.000000
 L37.000000 56.287239
 L38.000000 56.544823
 L38.619141 57.000000
 L39.000000 57.380859
 L39.455177 58.000000
 L39.712761 59.000000
 L39.000000 59.712761
 L38.000000 60.000000
 L37.000000 59.712761
 L36.287239 59.000000
 L36.000000 58.000000
 L35.712761 59.000000
 L35.000000 59.712761
 L34.000000 60.000000
 L35.000000 60.287239
 L35.712761 61.000000
 L36.000000 62.000000
 L36.287239 61.000000
 L37.000000 60.287239
 L38.000000 60.000000
 L39.000000 60.287239
 L39.712761 61.000000
 L39.455177 62.000000
 L39.000000 62.619141
 L38.619141 63.000000
 L38.000000 63.455177
 L37.000000 63.413937
 L36.380573 63.000000
 L36.000000 62.000000
 L35.000000 62.239559
 L34.718903 62.000000
 L34.000000 61.281097
 L33.760441 61.000000
 L34.000000 60.000000
 L33.000000 59.619427
 L32.586063 59.000000
 L32.544823 58.000000
 L33.000000 57.380859
 Z
 M26.000000 56.544823
 L26.000000 56.544823
 L27.000000 56.287239
 L27.712761 57.000000
 L28.000000 58.000000
 L28.287239 57.000000
 L29.000000 56.287239
 L30.000000 56.544823
 L30.619143 57.000000
 L31.000000 57.380859
 L31.455175 58.000000
 L31.413935 59.000000
 L31.000000 59.619427
 L30.000000 60.000000
 L29.000000 59.712761
 L28.287239 59.000000
 L28.000000 58.000000
 L27.712761 59.000000
 L27.000000 59.712761
 L26.000000 60.000000
 L27.000000 60.287239
 L27.712761 61.000000
 L28.000000 62.000000
 L28.287239 61.000000
 L29.000000 60.287239
 L30.000000 60.000000
 L30.239561 61.000000
 L30.000000 61.281097
 L29.281099 62.000000
 L29.000000 62.239559
 L28.000000 62.000000
 L27.619427 63.000000
 L27.000000 63.413937
 L26.000000 63.455177
 L25.380857 63.000000
 L25.000000 62.619141
 L24.544825 62.000000
 L24.287239 61.000000
 L25.000000 60.287239
 L26.000000 60.000000
 L25.000000 59.712761
 L24.287239 59.000000
 L24.544825 58.000000
 L25.000000 57.380859
 Z
 M18.000000 56.544823
 L18.000000 56.544823
 L19.000000 56.287239
 L19.712761 57.000000
 L20.000000 58.000000
 L20.287239 57.000000
 L21.000000 56.287239
 L22.000000 56.544823
 L22.619143 57.000000
 L23.000000 57.380859
 L23.455175 58.000000
 L23.712761 59.000000
 L23.000000 59.712761
 L22.000000 60.000000
 L21.000000 59.712761
 L20.287239 59.000000
 L20.000000 58.000000
 L19.712761 59.000000
 L19.000000 59.712761
 L18.000000 60.000000
 L19.000000 60.287239
 L19.712761 61.000000
 L20.000000 62.000000
 L20.287239 61.000000
 L21.000000 60.287239
 L22.000000 60.000000
 L23.000000 60.287239
 L23.712761 61.000000
 L23.455175 62.000000
 L23.000000 62.619141
 L22.619143 63.000000
 L22.000000 63.455177
 L21.000000 63.413937
 L20.380573 63.000000
 L20.000000 62.000000
 L19.000000 62.239559
 L18.718901 62.000000
 L18.000000 61.281097
 L17.760439 61.000000
 L18.000000 60.000000
 L17.000000 59.619427
 L16.586065 59.000000
 L16.544825 58.000000
 L17.000000 57.380859
 Z
 M10.000000 56.544823
 L10.000000 56.544823
 L11.000000 56.287239
 L11.712762 57.000000
 L12.000000 58.000000
 L12.287238 57.000000
 L13.000000 56.287239
 L14.000000 56.544823
 L14.619143 57.000000
 L15.000000 57.380859
 L15.455176 58.000000
 L15.413935 59.000000
 L15.000000 59.619427
 L14.000000 60.000000
 L13.000000 59.712761
 L12.287238 59.000000
 L12.000000 58.000000
 L11.712762 59.000000
 L11.000000 59.712761
 L10.000000 60.000000
 L11.000000 60.287239
 L11.712762 61.000000
 L12.000000 62.000000
 L12.287238 61.000000
 L13.000000 60.287239
 L14.000000 60.000000
 L14.239561 61.000000
 L14.000000 61.281097
 L13.281098 62.000000
 L13.000000 62.239559
 L12.000000 62.000000
 L11.619426 63.000000
 L11.000000 63.413937
 L10.000000 63.455177
 L9.380857 63.000000
 L9.000000 62.619141
 L8.544824 62.000000
 L8.287238 61.000000
 L9.000000 60.287239
 L10.000000 60.000000
 L9.000000 59.712761
 L8.287238 59.000000
 L8.544824 58.000000
 L9.000000 57.380859
 Z
 M83.000000 49.760441
 L83.000000 49.760441
 L83.297768 50.000000
 L83.382645 51.000000
 L83.000000 51.614799
 L82.000000 52.000000
 L82.974335 53.000000
 L82.729675 54.000000
 L82.430595 55.000000
 L82.000000 55.455177
 L81.380859 55.000000
 L81.000000 54.619141
 L80.544823 54.000000
 L80.586067 53.000000
 L81.000000 52.380573
 L82.000000 52.000000
 L81.760437 51.000000
 L82.000000 50.718903
 Z
 M67.000000 49.760441
 L67.000000 49.760441
 L68.000000 50.000000
 L67.712761 51.000000
 L67.000000 51.712761
 L66.000000 52.000000
 L67.000000 52.287239
 L67.712761 53.000000
 L68.000000 54.000000
 L67.712761 55.000000
 L67.000000 55.712761
 L66.000000 55.455177
 L65.380859 55.000000
 L65.000000 54.619141
 L64.544823 54.000000
 L64.586067 53.000000
 L65.000000 52.380573
 L66.000000 52.000000
 L65.760437 51.000000
 L66.000000 50.718903
 Z
 M51.000000 49.760441
 L51.000000 49.760441
 L52.000000 50.000000
 L51.712761 51.000000
 L51.000000 51.712761
 L50.000000 52.000000
 L51.000000 52.287239
 L51.712761 53.000000
 L52.000000 54.000000
 L51.712761 55.000000
 L51.000000 55.712761
 L50.000000 55.455177
 L49.380859 55.000000
 L49.000000 54.619141
 L48.544823 54.000000
 L48.586063 53.000000
 L49.000000 52.380573
 L50.000000 52.000000
 L49.760441 51.000000
 L50.000000 50.718903
 Z
 M35.000000 49.760441
 L35.000000 49.760441
 L36.000000 50.000000
 L35.712761 51.000000
 L35.000000 51.712761
 L34.000000 52.000000
 L35.000000 52.287239
 L35.712761 53.000000
 L36.000000 54.000000
 L35.712761 55.000000
 L35.000000 55.712761
 L34.000000 55.455177
 L33.380859 55.000000
 L33.000000 54.619141
 L32.544823 54.000000
 L32.586063 53.000000
 L33.000000 52.380573
 L34.000000 52.000000
 L33.760441 51.000000
 L34.000000 50.718903
 Z
 M19.000000 49.760441
 L19.000000 49.760441
 L20.000000 50.000000
 L19.712761 51.000000
 L19.000000 51.712761
 L18.000000 52.000000
 L19.000000 52.287239
 L19.712761 53.000000
 L20.000000 54.000000
 L19.712761 55.000000
 L19.000000 55.712761
 L18.000000 55.455177
 L17.380857 55.000000
 L17.000000 54.619141
 L16.544825 54.000000
 L16.586065 53.000000
 L17.000000 52.380573
 L18.000000 52.000000
 L17.760439 51.000000
 L18.000000 50.718903
 Z
 M74.000000 48.544823
 L74.000000 48.544823
 L75.000000 48.586063
 L75.619423 49.000000
 L76.000000 50.000000
 L77.000000 49.760441
 L77.281097 50.000000
 L78.000000 50.718903
 L78.239563 51.000000
 L78.000000 52.000000
 L77.000000 51.712761
 L76.287239 51.000000
 L76.000000 50.000000
 L75.712761 51.000000
 L75.000000 51.712761
 L74.000000 52.000000
 L75.000000 52.287239
 L75.712761 53.000000
 L76.000000 54.000000
 L76.287239 53.000000
 L77.000000 52.287239
 L78.000000 52.000000
 L79.000000 52.380573
 L79.413933 53.000000
 L79.455177 54.000000
 L79.000000 54.619141
 L78.619141 55.000000
 L78.000000 55.455177
 L77.000000 55.712761
 L76.287239 55.000000
 L76.000000 54.000000
 L75.712761 55.000000
 L75.000000 55.712761
 L74.000000 55.455177
 L73.380859 55.000000
 L73.000000 54.619141
 L72.544823 54.000000
 L72.287239 53.000000
 L73.000000 52.287239
 L74.000000 52.000000
 L73.000000 51.712761
 L72.287239 51.000000
 L72.544823 50.000000
 L73.000000 49.380859
 Z
 M69.000000 48.586063
 L69.000000 48.586063
 L70.000000 48.544823
 L70.619141 49.000000
 L71.000000 49.380859
 L71.455177 50.000000
 L71.712761 51.000000
 L71.000000 51.712761
 L70.000000 52.000000
 L71.000000 52.287239
 L71.712761 53.000000
 L71.455177 54.000000
 L71.000000 54.619141
 L70.619141 55.000000
 L70.000000 55.455177
 L69.000000 55.712761
 L68.287239 55.000000
 L68.000000 54.000000
 L68.287239 53.000000
 L69.000000 52.287239
 L70.000000 52.000000
 L69.000000 51.712761
 L68.287239 51.000000
 L68.000000 50.000000
 Z
 M58.000000 48.544823
 L58.000000 48.544823
 L59.000000 48.586063
 L59.619427 49.000000
 L60.000000 50.000000
 L61.000000 49.760441
 L61.281097 50.000000
 L62.000000 50.718903
 L62.239559 51.000000
 L62.000000 52.000000
 L61.000000 51.712761
 L60.287239 51.000000
 L60.000000 50.000000
 L59.712761 51.000000
 L59.000000 51.712761
 L58.000000 52.000000
 L59.000000 52.287239
 L59.712761 53.000000
 L60.000000 54.000000
 L60.287239 53.000000
 L61.000000 52.287239
 L62.000000 52.000000
 L63.000000 52.380573
 L63.413937 53.000000
 L63.455177 54.000000
 L63.000000 54.619141
 L62.619141 55.000000
 L62.000000 55.455177
 L61.000000 55.712761
 L60.287239 55.000000
 L60.000000 54.000000
 L59.712761 55.000000
 L59.000000 55.712761
 L58.000000 55.455177
 L57.380859 55.000000
 L57.000000 54.619141
 L56.544823 54.000000
 L56.287239 53.000000
 L57.000000 52.287239
 L58.000000 52.000000
 L57.000000 51.712761
 L56.287239 51.000000
 L56.544823 50.000000
 L57.000000 49.380859
 Z
 M53.000000 48.586063
 L53.000000 48.586063
 L54.000000 48.544823
 L54.619141 49.000000
 L55.000000 49.380859
 L55.455177 50.000000
 L55.712761 51.000000
 L55.000000 51.712761
 L54.000000 52.000000
 L55.000000 52.287239
 L55.712761 53.000000
 L55.455177 54.000000
 L55.000000 54.619141
 L54.619141 55.000000
 L54.000000 55.455177
 L53.000000 55.712761
 L52.287239 55.000000
 L52.000000 54.000000
 L52.287239 53.000000
 L53.000000 52.287239
 L54.000000 52.000000
 L53.000000 51.712761
 L52.287239 51.000000
 L52.000000 50.000000
 Z
 M42.000000 48.544823
 L42.000000 48.544823
 L43.000000 48.586063
 L43.619427 49.000000
 L44.000000 50.000000
 L45.000000 49.760441
 L45.281097 50.000000
 L46.000000 50.718903
 L46.239559 51.000000
 L46.000000 52.000000
 L45.000000 51.712761
 L44.287239 51.000000
 L44.000000 50.000000
 L43.712761 51.000000
 L43.000000 51.712761
 L42.000000 52.000000
 L43.000000 52.287239
 L43.712761 53.000000
 L44.000000 54.000000
 L44.287239 53.000000
 L45.000000 52.287239
 L46.000000 52.000000
 L47.000000 52.380573
 L47.413937 53.000000
 L47.455177 54.000000
 L47.000000 54.619141
 L46.619141 55.000000
 L46.000000 55.455177
 L45.000000 55.712761
 L44.287239 55.000000
 L44.000000 54.000000
 L43.712761 55.000000
 L43.000000 55.712761
 L42.000000 55.455177
 L41.380859 55.000000
 L41.000000 54.619141
 L40.544823 54.000000
 L40.287239 53.000000
 L41.000000 52.287239
 L42.000000 52.000000
 L41.000000 51.712761
 L40.287239 51.000000
 L40.544823 50.000000
 L41.000000 49.380859
 Z
 M37.000000 48.586063
 L37.000000 48.586063
 L38.000000 48.544823
 L38.619141 49.000000
 L39.000000 49.380859
 L39.455177 50.000000
 L39.712761 51.000000
 L39.000000 51.712761
 L38.000000 52.000000
 L39.000000 52.287239
 L39.712761 53.000000
 L39.455177 54.000000
 L39.000000 54.619141
 L38.619141 55.000000
 L38.000000 55.455177
 L37.000000 55.712761
 L36.287239 55.000000
 L36.000000 54.000000
 L36.287239 53.000000
 L37.000000 52.287239
 L38.000000 52.000000
 L37.000000 51.712761
 L36.287239 51.000000
 L36.000000 50.000000
 Z
 M26.000000 48.544823
 L26.000000 48.544823
 L27.000000 48.586063
 L27.619427 49.000000
 L28.000000 50.000000
 L29.000000 49.760441
 L29.281099 50.000000
 L30.000000 50.718903
 L30.239561 51.000000
 L30.000000 52.000000
 L29.000000 51.712761
 L28.287239 51.000000
 L28.000000 50.000000
 L27.712761 51.000000
 L27.000000 51.712761
 L26.000000 52.000000
 L27.000000 52.287239
 L27.712761 53.000000
 L28.000000 54.000000
 L28.287239 53.000000
 L29.000000 52.287239
 L30.000000 52.000000
 L31.000000 52.380573
 L31.413935 53.000000
 L31.455175 54.000000
 L31.000000 54.619141
 L30.619143 55.000000
 L30.000000 55.455177
 L29.000000 55.712761
 L28.287239 55.000000
 L28.000000 54.000000
 L27.712761 55.000000
 L27.000000 55.712761
 L26.000000 55.455177
 L25.380857 55.000000
 L25.000000 54.619141
 L24.544825 54.000000
 L24.287239 53.000000
 L25.000000 52.287239
 L26.000000 52.000000
 L25.000000 51.712761
 L24.287239 51.000000
 L24.544825 50.000000
 L25.000000 49.380859
 Z
 M21.000000 48.586063
 L21.000000 48.586063
 L22.000000 48.544823
 L22.619143 49.000000
 L23.000000 49.380859
 L23.455175 50.000000
 L23.712761 51.000000
 L23.000000 51.712761
 L22.000000 52.000000
 L23.000000 52.287239
 L23.712761 53.000000
 L23.455175 54.000000
 L23.000000 54.619141
 L22.619143 55.000000
 L22.000000 55.455177
 L21.000000 55.712761
 L20.287239 55.000000
 L20.000000 54.000000
 L20.287239 53.000000
 L21.000000 52.287239
 L22.000000 52.000000
 L21.000000 51.712761
 L20.287239 51.000000
 L20.000000 50.000000
 Z
 M10.000000 48.544823
 L10.000000 48.544823
 L11.000000 48.586063
 L11.619426 49.000000
 L12.000000 50.000000
 L13.000000 49.760441
 L13.281098 50.000000
 L14.000000 50.718903
 L14.239561 51.000000
 L14.000000 52.000000
 L13.000000 51.712761
 L12.287238 51.000000
 L12.000000 50.000000
 L11.712762 51.000000
 L11.000000 51.712761
 L10.000000 52.000000
 L11.000000 52.287239
 L11.712762 53.000000
 L12.000000 54.000000
 L12.287238 53.000000
 L13.000000 52.287239
 L14.000000 52.000000
 L15.000000 52.380573
 L15.413935 53.000000
 L15.455176 54.000000
 L15.000000 54.619141
 L14.619143 55.000000
 L14.000000 55.455177
 L13.000000 55.712761
 L12.287238 55.000000
 L12.000000 54.000000
 L11.712762 55.000000
 L11.000000 55.712761
 L10.000000 55.455177
 L9.380857 55.000000
 L9.000000 54.619141
 L8.544824 54.000000
 L8.287238 53.000000
 L9.000000 52.287239
 L10.000000 52.000000
 L9.000000 51.712761
 L8.287238 51.000000
 L8.544824 50.000000
 L9.000000 49.380859
 Z
 M5.000000 48.586063
 L5.000000 48.586063
 L6.000000 48.544823
 L6.619142 49.000000
 L7.000000 49.380859
 L7.455176 50.000000
 L7.712762 51.000000
 L7.000000 51.712761
 L6.000000 52.000000
 L7.000000 52.287239
 L7.712762 53.000000
 L7.455176 54.000000
 L7.000000 54.619141
 L6.619142 55.000000
 L6.000000 55.455177
 L5.569401 55.000000
 L5.270326 54.000000
 L5.025668 53.000000
 L6.000000 52.000000
 L5.000000 51.614799
 L4.617354 51.000000
 L4.452631 50.000000
 Z
 M82.000000 40.544823
 L82.000000 40.544823
 L83.000000 40.287239
 L83.712761 41.000000
 L83.949966 42.000000
 L83.712761 43.000000
 L83.000000 43.712761
 L82.000000 44.000000
 L83.000000 44.287239
 L83.712761 45.000000
 L83.791550 46.000000
 L83.000000 46.239559
 L82.718903 46.000000
 L82.000000 45.281097
 L81.760437 45.000000
 L82.000000 44.000000
 L81.000000 43.619427
 L80.586067 43.000000
 L80.544823 42.000000
 L81.000000 41.380859
 Z
 M74.000000 40.544823
 L74.000000 40.544823
 L75.000000 40.287239
 L75.712761 41.000000
 L76.000000 42.000000
 L76.287239 41.000000
 L77.000000 40.287239
 L78.000000 40.544823
 L78.619141 41.000000
 L79.000000 41.380859
 L79.455177 42.000000
 L79.413933 43.000000
 L79.000000 43.619427
 L78.000000 44.000000
 L77.000000 43.712761
 L76.287239 43.000000
 L76.000000 42.000000
 L75.712761 43.000000
 L75.000000 43.712761
 L74.000000 44.000000
 L75.000000 44.287239
 L75.712761 45.000000
 L76.000000 46.000000
 L76.287239 45.000000
 L77.000000 44.287239
 L78.000000 44.000000
 L78.239563 45.000000
 L78.000000 45.281097
 L77.281097 46.000000
 L77.000000 46.239559
 L76.000000 46.000000
 L75.619423 47.000000
 L75.000000 47.413937
 L74.000000 47.455177
 L73.380859 47.000000
 L73.000000 46.619141
 L72.544823 46.000000
 L72.287239 45.000000
 L73.000000 44.287239
 L74.000000 44.000000
 L73.000000 43.712761
 L72.287239 43.000000
 L72.544823 42.000000
 L73.000000 41.380859
 Z
 M66.000000 40.544823
 L66.000000 40.544823
 L67.000000 40.287239
 L67.712761 41.000000
 L68.000000 42.000000
 L68.287239 41.000000
 L69.000000 40.287239
 L70.000000 40.544823
 L70.619141 41.000000
 L71.000000 41.380859
 L71.455177 42.000000
 L71.712761 43.000000
 L71.000000 43.712761
 L70.000000 44.000000
 L69.000000 43.712761
 L68.287239 43.000000
 L68.000000 42.000000
 L67.712761 43.000000
 L67.000000 43.712761
 L66.000000 44.000000
 L67.000000 44.287239
 L67.712761 45.000000
 L68.000000 46.000000
 L68.287239 45.000000
 L69.000000 44.287239
 L70.000000 44.000000
 L71.000000 44.287239
 L71.712761 45.000000
 L71.455177 46.000000
 L71.000000 46.619141
 L70.619141 47.000000
 L70.000000 47.455177
 L69.000000 47.413937
 L68.380577 47.000000
 L68.000000 46.000000
 L67.000000 46.239559
 L66.718903 46.000000
 L66.000000 45.281097
 L65.760437 45.000000
 L66.000000 44.000000
 L65.000000 43.619427
 L64.586067 43.000000
 L64.544823 42.000000
 L65.000000 41.380859
 Z
 M58.000000 40.544823
 L58.000000 40.544823
 L59.000000 40.287239
 L59.712761 41.000000
 L60.000000 42.000000
 L60.287239 41.000000
 L61.000000 40.287239
 L62.000000 40.544823
 L62.619141 41.000000
 L63.000000 41.380859
 L63.455177 42.000000
 L63.413937 43.000000
 L63.000000 43.619427
 L62.000000 44.000000
 L61.000000 43.712761
 L60.287239 43.000000
 L60.000000 42.000000
 L59.712761 43.000000
 L59.000000 43.712761
 L58.000000 44.000000
 L59.000000 44.287239
 L59.712761 45.000000
 L60.000000 46.000000
 L60.287239 45.000000
 L61.000000 44.287239
 L62.000000 44.000000
 L62.239559 45.000000
 L62.000000 45.281097
 L61.281097 46.000000
 L61.000000 46.239559
 L60.000000 46.000000
 L59.619427 47.000000
 L59.000000 47.413937
 L58.000000 47.455177
 L57.380859 47.000000
 L57.000000 46.619141
 L56.544823 46.000000
 L56.287239 45.000000
 L57.000000 44.287239
 L58.000000 44.000000
 L57.000000 43.712761
 L56.287239 43.000000
 L56.544823 42.000000
 L57.000000 41.380859
 Z
 M50.000000 40.544823
 L50.000000 40.544823
 L51.000000 40.287239
 L51.712761 41.000000
 L52.000000 42.000000
 L52.287239 41.000000
 L53.000000 40.287239
 L54.000000 40.544823
 L54.619141 41.000000
 L55.000000 41.380859
 L55.455177 42.000000
 L55.712761 43.000000
 L55.000000 43.712761
 L54.000000 44.000000
 L53.000000 43.712761
 L52.287239 43.000000
 L52.000000 42.000000
 L51.712761 43.000000
 L51.000000 43.712761
 L50.000000 44.000000
 L51.000000 44.287239
 L51.712761 45.000000
 L52.000000 46.000000
 L52.287239 45.000000
 L53.000000 44.287239
 L54.000000 44.000000
 L55.000000 44.287239
 L55.712761 45.000000
 L55.455177 46.000000
 L55.000000 46.619141
 L54.619141 47.000000
 L54.000000 47.455177
 L53.000000 47.413937
 L52.380573 47.000000
 L52.000000 46.000000
 L51.000000 46.239559
 L50.718903 46.000000
 L50.000000 45.281097
 L49.760441 45.000000
 L50.000000 44.000000
 L49.000000 43.619427
 L48.586063 43.000000
 L48.544823 42.000000
 L49.000000 41.380859
 Z
 M42.000000 40.544823
 L42.000000 40.544823
 L43.000000 40.287239
 L43.712761 41.000000
 L44.000000 42.000000
 L44.287239 41.000000
 L45.000000 40.287239
 L46.000000 40.544823
 L46.619141 41.000000
 L47.000000 41.380859
 L47.455177 42.000000
 L47.413937 43.000000
 L47.000000 43.619427
 L46.000000 44.000000
 L45.000000 43.712761
 L44.287239 43.000000
 L44.000000 42.000000
 L43.712761 43.000000
 L43.000000 43.712761
 L42.000000 44.000000
 L43.000000 44.287239
 L43.712761 45.000000
 L44.000000 46.000000
 L44.287239 45.000000
 L45.000000 44.287239
 L46.000000 44.000000
 L46.239559 45.000000
 L46.000000 45.281097
 L45.281097 46.000000
 L45.000000 46.239559
 L44.000000 46.000000
 L43.619427 47.000000
 L43.000000 47.413937
 L42.000000 47.455177
 L41.380859 47.000000
 L41.000000 46.619141
 L40.544823 46.000000
 L40.287239 45.000000
 L41.000000 44.287239
 L42.000000 44.000000
 L41.000000 43.712761
 L40.287239 43.000000
 L40.544823 42.000000
 L41.000000 41.380859
 Z
 M34.000000 40.544823
 L34.000000 40.544823
 L35.000000 40.287239
 L35.712761 41.000000
 L36.000000 42.000000
 L36.287239 41.000000
 L37.000000 40.287239
 L38.000000 40.544823
 L38.619141 41.000000
 L39.000000 41.380859
 L39.455177 42.000000
 L39.712761 43.000000
 L39.000000 43.712761
 L38.000000 44.000000
 L37.000000 43.712761
 L36.287239 43.000000
 L36.000000 42.000000
 L35.712761 43.000000
 L35.000000 43.712761
 L34.000000 44.000000
 L35.000000 44.287239
 L35.712761 45.000000
 L36.000000 46.000000
 L36.287239 45.000000
 L37.000000 44.287239
 L38.000000 44.000000
 L39.000000 44.287239
 L39.712761 45.000000
 L39.455177 46.000000
 L39.000000 46.619141
 L38.619141 47.000000
 L38.000000 47.455177
 L37.000000 47.413937
 L36.380573 47.000000
 L36.000000 46.000000
 L35.000000 46.239559
 L34.718903 46.000000
 L34.000000 45.281097
 L33.760441 45.000000
 L34.000000 44.000000
 L33.000000 43.619427
 L32.586063 43.000000
 L32.544823 42.000000
 L33.000000 41.380859
 Z
 M26.000000 40.544823
 L26.000000 40.544823
 L27.000000 40.287239
 L27.712761 41.000000
 L28.000000 42.000000
 L28.287239 41.000000
 L29.000000 40.287239
 L30.000000 40.544823
 L30.619143 41.000000
 L31.000000 41.380859
 L31.455175 42.000000
 L31.413935 43.000000
 L31.000000 43.619427
 L30.000000 44.000000
 L29.000000 43.712761
 L28.287239 43.000000
 L28.000000 42.000000
 L27.712761 43.000000
 L27.000000 43.712761
 L26.000000 44.000000
 L27.000000 44.287239
 L27.712761 45.000000
 L28.000000 46.000000
 L28.287239 45.000000
 L29.000000 44.287239
 L30.000000 44.000000
 L30.239561 45.000000
 L30.000000 45.281097
 L29.281099 46.000000
 L29.000000 46.239559
 L28.000000 46.000000
 L27.619427 47.000000
 L27.000000 47.413937
 L26.000000 47.455177
 L25.380857 47.000000
 L25.000000 46.619141
 L24.544825 46.000000
 L24.287239 45.000000
 L25.000000 44.287239
 L26.000000 44.000000
 L25.000000 43.712761
 L24.287239 43.000000
 L24.544825 42.000000
 L25.000000 41.380859
 Z
 M18.000000 40.544823
 L18.000000 40.544823
 L19.000000 40.287239
 L19.712761 41.000000
 L20.000000 42.000000
 L20.287239 41.000000
 L21.000000 40.287239
 L22.000000 40.544823
 L22.619143 41.000000
 L23.000000 41.380859
 L23.455175 42.000000
 L23.712761 43.000000
 L23.000000 43.712761
 L22.000000 44.000000
 L21.000000 43.712761
 L20.287239 43.000000
 L20.000000 42.000000
 L19.712761 43.000000
 L19.000000 43.712761
 L18.000000 44.000000
 L19.000000 44.287239
 L19.712761 45.000000
 L20.000000 46.000000
 L20.287239 45.000000
 L21.000000 44.287239
 L22.000000 44.000000
 L23.000000 44.287239
 L23.712761 45.000000
 L23.455175 46.000000
 L23.000000 46.619141
 L22.619143 47.000000
 L22.000000 47.455177
 L21.000000 47.413937
 L20.380573 47.000000
 L20.000000 46.000000
 L19.000000 46.239559
 L18.718901 46.000000
 L18.000000 45.281097
 L17.760439 45.000000
 L18.000000 44.000000
 L17.000000 43.619427
 L16.586065 43.000000
 L16.544825 42.000000
 L17.000000 41.380859
 Z
 M10.000000 40.544823
 L10.000000 40.544823
 L11.000000 40.287239
 L11.712762 41.000000
 L12.000000 42.000000
 L12.287238 41.000000
 L13.000000 40.287239
 L14.000000 40.544823
 L14.619143 41.000000
 L15.000000 41.380859
 L15.455176 42.000000
 L15.413935 43.000000
 L15.000000 43.619427
 L14.000000 44.000000
 L13.000000 43.712761
 L12.287238 43.000000
 L12.000000 42.000000
 L11.712762 43.000000
 L11.000000 43.712761
 L10.000000 44.000000
 L11.000000 44.287239
 L11.712762 45.000000
 L12.000000 46.000000
 L12.287238 45.000000
 L13.000000 44.287239
 L14.000000 44.000000
 L14.239561 45.000000
 L14.000000 45.281097
 L13.281098 46.000000
 L13.000000 46.239559
 L12.000000 46.000000
 L11.619426 47.000000
 L11.000000 47.413937
 L10.000000 47.455177
 L9.380857 47.000000
 L9.000000 46.619141
 L8.544824 46.000000
 L8.287238 45.000000
 L9.000000 44.287239
 L10.000000 44.000000
 L9.000000 43.712761
 L8.287238 43.000000
 L8.544824 42.000000
 L9.000000 41.380859
 Z
 M5.000000 40.287239
 L5.000000 40.287239
 L6.000000 40.544823
 L6.619142 41.000000
 L7.000000 41.380859
 L7.455176 42.000000
 L7.712762 43.000000
 L7.000000 43.712761
 L6.000000 44.000000
 L7.000000 44.287239
 L7.712762 45.000000
 L7.455176 46.000000
 L7.000000 46.619141
 L6.619142 47.000000
 L6.000000 47.455177
 L5.000000 47.413937
 L4.380574 47.000000
 L4.050033 46.000000
 L4.287238 45.000000
 L5.000000 44.287239
 L6.000000 44.000000
 L5.000000 43.712761
 L4.287238 43.000000
 L4.050033 42.000000
 Z
 M82.000000 34.718903
 L82.000000 34.718903
 L82.883614 35.000000
 L82.000000 36.000000
 L83.000000 36.385201
 L83.382645 37.000000
 L83.547371 38.000000
 L83.653000 39.000000
 L83.000000 39.712761
 L82.000000 39.455177
 L81.380859 39.000000
 L81.000000 38.619141
 L80.544823 38.000000
 L80.586067 37.000000
 L81.000000 36.380573
 L82.000000 36.000000
 Z
 M67.000000 33.760441
 L67.000000 33.760441
 L68.000000 34.000000
 L67.712761 35.000000
 L67.000000 35.712761
 L66.000000 36.000000
 L67.000000 36.287239
 L67.712761 37.000000
 L68.000000 38.000000
 L67.712761 39.000000
 L67.000000 39.712761
 L66.000000 39.455177
 L65.380859 39.000000
 L65.000000 38.619141
 L64.544823 38.000000
 L64.586067 37.000000
 L65.000000 36.380573
 L66.000000 36.000000
 L65.760437 35.000000
 L66.000000 34.718903
 Z
 M51.000000 33.760441
 L51.000000 33.760441
 L52.000000 34.000000
 L51.712761 35.000000
 L51.000000 35.712761
 L50.000000 36.000000
 L51.000000 36.287239
 L51.712761 37.000000
 L52.000000 38.000000
 L51.712761 39.000000
 L51.000000 39.712761
 L50.000000 39.455177
 L49.380859 39.000000
 L49.000000 38.619141
 L48.544823 38.000000
 L48.586063 37.000000
 L49.000000 36.380573
 L50.000000 36.000000
 L49.760441 35.000000
 L50.000000 34.718903
 Z
 M35.000000 33.760441
 L35.000000 33.760441
 L36.000000 34.000000
 L35.712761 35.000000
 L35.000000 35.712761
 L34.000000 36.000000
 L35.000000 36.287239
 L35.712761 37.000000
 L36.000000 38.000000
 L35.712761 39.000000
 L35.000000 39.712761
 L34.000000 39.455177
 L33.380859 39.000000
 L33.000000 38.619141
 L32.544823 38.000000
 L32.586063 37.000000
 L33.000000 36.380573
 L34.000000 36.000000
 L33.760441 35.000000
 L34.000000 34.718903
 Z
 M19.000000 33.760441
 L19.000000 33.760441
 L20.000000 34.000000
 L19.712761 35.000000
 L19.000000 35.712761
 L18.000000 36.000000
 L19.000000 36.287239
 L19.712761 37.000000
 L20.000000 38.000000
 L19.712761 39.000000
 L19.000000 39.712761
 L18.000000 39.455177
 L17.380857 39.000000
 L17.000000 38.619141
 L16.544825 38.000000
 L16.586065 37.000000
 L17.000000 36.380573
 L18.000000 36.000000
 L17.760439 35.000000
 L18.000000 34.718903
 Z
 M74.000000 32.544823
 L74.000000 32.544823
 L75.000000 32.586063
 L75.619423 33.000000
 L76.000000 34.000000
 L77.000000 33.760441
 L77.281097 34.000000
 L78.000000 34.718903
 L78.239563 35.000000
 L78.000000 36.000000
 L77.000000 35.712761
 L76.287239 35.000000
 L76.000000 34.000000
 L75.712761 35.000000
 L75.000000 35.712761
 L74.000000 36.000000
 L75.000000 36.287239
 L75.712761 37.000000
 L76.000000 38.000000
 L76.287239 37.000000
 L77.000000 36.287239
 L78.000000 36.000000
 L79.000000 36.380573
 L79.413933 37.000000
 L79.455177 38.000000
 L79.000000 38.619141
 L78.619141 39.000000
 L78.000000 39.455177
 L77.000000 39.712761
 L76.287239 39.000000
 L76.000000 38.000000
 L75.712761 39.000000
 L75.000000 39.712761
 L74.000000 39.455177
 L73.380859 39.000000
 L73.000000 38.619141
 L72.544823 38.000000
 L72.287239 37.000000
 L73.000000 36.287239
 L74.000000 36.000000
 L73.000000 35.712761
 L72.287239 35.000000
 L72.544823 34.000000
 L73.000000 33.380859
 Z
 M69.000000 32.586063
 L69.000000 32.586063
 L70.000000 32.544823
 L70.619141 33.000000
 L71.000000 33.380859
 L71.455177 34.000000
 L71.712761 35.000000
 L71.000000 35.712761
 L70.000000 36.000000
 L71.000000 36.287239
 L71.712761 37.000000
 L71.455177 38.000000
 L71.000000 38.619141
 L70.619141 39.000000
 L70.000000 39.455177
 L69.000000 39.712761
 L68.287239 39.000000
 L68.000000 38.000000
 L68.287239 37.000000
 L69.000000 36.287239
 L70.000000 36.000000
 L69.000000 35.712761
 L68.287239 35.000000
 L68.000000 34.000000
 Z
 M58.000000 32.544823
 L58.000000 32.544823
 L59.000000 32.586063
 L59.619427 33.000000
 L60.000000 34.000000
 L61.000000 33.760441
 L61.281097 34.000000
 L62.000000 34.718903
 L62.239559 35.000000
 L62.000000 36.000000
 L61.000000 35.712761
 L60.287239 35.000000
 L60.000000 34.000000
 L59.712761 35.000000
 L59.000000 35.712761
 L58.000000 36.000000
 L59.000000 36.287239
 L59.712761 37.000000
 L60.000000 38.000000
 L60.287239 37.000000
 L61.000000 36.287239
 L62.000000 36.000000
 L63.000000 36.380573
 L63.413937 37.000000
 L63.455177 38.000000
 L63.000000 38.619141
 L62.619141 39.000000
 L62.000000 39.455177
 L61.000000 39.712761
 L60.287239 39.000000
 L60.000000 38.000000
 L59.712761 39.000000
 L59.000000 39.712761
 L58.000000 39.455177
 L57.380859 39.000000
 L57.000000 38.619141
 L56.544823 38.000000
 L56.287239 37.000000
 L57.000000 36.287239
 L58.000000 36.000000
 L57.000000 35.712761
 L56.287239 35.000000
 L56.544823 34.000000
 L57.000000 33.380859
 Z
 M53.000000 32.586063
 L53.000000 32.586063
 L54.000000 32.544823
 L54.619141 33.000000
 L55.000000 33.380859
 L55.455177 34.000000
 L55.712761 35.000000
 L55.000000 35.712761
 L54.000000 36.000000
 L55.000000 36.287239
 L55.712761 37.000000
 L55.455177 38.000000
 L55.000000 38.619141
 L54.619141 39.000000
 L54.000000 39.455177
 L53.000000 39.712761
 L52.287239 39.000000
 L52.000000 38.000000
 L52.287239 37.000000
 L53.000000 36.287239
 L54.000000 36.000000
 L53.000000 35.712761
 L52.287239 35.000000
 L52.000000 34.000000
 Z
 M42.000000 32.544823
 L42.000000 32.544823
 L43.000000 32.586063
 L43.619427 33.000000
 L44.000000 34.000000
 L45.000000 33.760441
 L45.281097 34.000000
 L46.000000 34.718903
 L46.239559 35.000000
 L46.000000 36.000000
 L45.000000 35.712761
 L44.287239 35.000000
 L44.000000 34.000000
 L43.712761 35.000000
 L43.000000 35.712761
 L42.000000 36.000000
 L43.000000 36.287239
 L43.712761 37.000000
 L44.000000 38.000000
 L44.287239 37.000000
 L45.000000 36.287239
 L46.000000 36.000000
 L47.000000 36.380573
 L47.413937 37.000000
 L47.455177 38.000000
 L47.000000 38.619141
 L46.619141 39.000000
 L46.000000 39.455177
 L45.000000 39.712761
 L44.287239 39.000000
 L44.000000 38.000000
 L43.712761 39.000000
 L43.000000 39.712761
 L42.000000 39.455177
 L41.380859 39.000000
 L41.000000 38.619141
 L40.544823 38.000000
 L40.287239 37.000000
 L41.000000 36.287239
 L42.000000 36.000000
 L41.000000 35.712761
 L40.287239 35.000000
 L40.544823 34.000000
 L41.000000 33.380859
 Z
 M37.000000 32.586063
 L37.000000 32.586063
 L38.000000 32.544823
 L38.619141 33.000000
 L39.000000 33.380859
 L39.455177 34.000000
 L39.712761 35.000000
 L39.000000 35.712761
 L38.000000 36.000000
 L39.000000 36.287239
 L39.712761 37.000000
 L39.455177 38.000000
 L39.000000 38.619141
 L38.619141 39.000000
 L38.000000 39.455177
 L37.000000 39.712761
 L36.287239 39.000000
 L36.000000 38.000000
 L36.287239 37.000000
 L37.000000 36.287239
 L38.000000 36.000000
 L37.000000 35.712761
 L36.287239 35.000000
 L36.000000 34.000000
 Z
 M26.000000 32.544823
 L26.000000 32.544823
 L27.000000 32.586063
 L27.619427 33.000000
 L28.000000 34.000000
 L29.000000 33.760441
 L29.281099 34.000000
 L30.000000 34.718903
 L30.239561 35.000000
 L30.000000 36.000000
 L29.000000 35.712761
 L28.287239 35.000000
 L28.000000 34.000000
 L27.712761 35.000000
 L27.000000 35.712761
 L26.000000 36.000000
 L27.000000 36.287239
 L27.712761 37.000000
 L28.000000 38.000000
 L28.287239 37.000000
 L29.000000 36.287239
 L30.000000 36.000000
 L31.000000 36.380573
 L31.413935 37.000000
 L31.455175 38.000000
 L31.000000 38.619141
 L30.619143 39.000000
 L30.000000 39.455177
 L29.000000 39.712761
 L28.287239 39.000000
 L28.000000 38.000000
 L27.712761 39.000000
 L27.000000 39.712761
 L26.000000 39.455177
 L25.380857 39.000000
 L25.000000 38.619141
 L24.544825 38.000000
 L24.287239 37.000000
 L25.000000 36.287239
 L26.000000 36.000000
 L25.000000 35.712761
 L24.287239 35.000000
 L24.544825 34.000000
 L25.000000 33.380859
 Z
 M21.000000 32.586063
 L21.000000 32.586063
 L22.000000 32.544823
 L22.619143 33.000000
 L23.000000 33.380859
 L23.455175 34.000000
 L23.712761 35.000000
 L23.000000 35.712761
 L22.000000 36.000000
 L23.000000 36.287239
 L23.712761 37.000000
 L23.455175 38.000000
 L23.000000 38.619141
 L22.619143 39.000000
 L22.000000 39.455177
 L21.000000 39.712761
 L20.287239 39.000000
 L20.000000 38.000000
 L20.287239 37.000000
 L21.000000 36.287239
 L22.000000 36.000000
 L21.000000 35.712761
 L20.287239 35.000000
 L20.000000 34.000000
 Z
 M10.000000 32.544823
 L10.000000 32.544823
 L11.000000 32.586063
 L11.619426 33.000000
 L12.000000 34.000000
 L13.000000 33.760441
 L13.281098 34.000000
 L14.000000 34.718903
 L14.239561 35.000000
 L14.000000 36.000000
 L13.000000 35.712761
 L12.287238 35.000000
 L12.000000 34.000000
 L11.712762 35.000000
 L11.000000 35.712761
 L10.000000 36.000000
 L11.000000 36.287239
 L11.712762 37.000000
 L12.000000 38.000000
 L12.287238 37.000000
 L13.000000 36.287239
 L14.000000 36.000000
 L15.000000 36.380573
 L15.413935 37.000000
 L15.455176 38.000000
 L15.000000 38.619141
 L14.619143 39.000000
 L14.000000 39.455177
 L13.000000 39.712761
 L12.287238 39.000000
 L12.000000 38.000000
 L11.712762 39.000000
 L11.000000 39.712761
 L10.000000 39.455177
 L9.380857 39.000000
 L9.000000 38.619141
 L8.544824 38.000000
 L8.287238 37.000000
 L9.000000 36.287239
 L10.000000 36.000000
 L9.000000 35.712761
 L8.287238 35.000000
 L8.544824 34.000000
 L9.000000 33.380859
 Z
 M6.000000 32.544823
 L6.000000 32.544823
 L6.619142 33.000000
 L7.000000 33.380859
 L7.455176 34.000000
 L7.712762 35.000000
 L7.000000 35.712761
 L6.000000 36.000000
 L7.000000 36.287239
 L7.712762 37.000000
 L7.455176 38.000000
 L7.000000 38.619141
 L6.619142 39.000000
 L6.000000 39.455177
 L5.000000 39.712761
 L4.347003 39.000000
 L4.452631 38.000000
 L4.617354 37.000000
 L5.000000 36.385201
 L6.000000 36.000000
 L5.025668 35.000000
 L5.270326 34.000000
 Z
 M7.000000 28.805698
 L7.000000 28.805698
 L7.241274 29.000000
 L7.455176 30.000000
 L7.000000 30.619143
 L6.557477 30.000000
 Z
 M74.000000 24.544825
 L74.000000 24.544825
 L75.000000 24.287239
 L75.712761 25.000000
 L76.000000 26.000000
 L76.287239 25.000000
 L77.000000 24.287239
 L78.000000 24.544825
 L78.619141 25.000000
 L79.000000 25.380857
 L79.455177 26.000000
 L79.413933 27.000000
 L79.000000 27.619427
 L78.000000 28.000000
 L77.000000 27.712761
 L76.287239 27.000000
 L76.000000 26.000000
 L75.712761 27.000000
 L75.000000 27.712761
 L74.000000 28.000000
 L75.000000 28.287239
 L75.712761 29.000000
 L76.000000 30.000000
 L76.287239 29.000000
 L77.000000 28.287239
 L78.000000 28.000000
 L78.239563 29.000000
 L78.000000 29.281099
 L77.281097 30.000000
 L77.000000 30.239561
 L76.000000 30.000000
 L75.619423 31.000000
 L75.000000 31.413935
 L74.000000 31.455175
 L73.380859 31.000000
 L73.000000 30.619143
 L72.544823 30.000000
 L72.287239 29.000000
 L73.000000 28.287239
 L74.000000 28.000000
 L73.000000 27.712761
 L72.287239 27.000000
 L72.544823 26.000000
 L73.000000 25.380857
 Z
 M66.000000 24.544825
 L66.000000 24.544825
 L67.000000 24.287239
 L67.712761 25.000000
 L68.000000 26.000000
 L68.287239 25.000000
 L69.000000 24.287239
 L70.000000 24.544825
 L70.619141 25.000000
 L71.000000 25.380857
 L71.455177 26.000000
 L71.712761 27.000000
 L71.000000 27.712761
 L70.000000 28.000000
 L69.000000 27.712761
 L68.287239 27.000000
 L68.000000 26.000000
 L67.712761 27.000000
 L67.000000 27.712761
 L66.000000 28.000000
 L67.000000 28.287239
 L67.712761 29.000000
 L68.000000 30.000000
 L68.287239 29.000000
 L69.000000 28.287239
 L70.000000 28.000000
 L71.000000 28.287239
 L71.712761 29.000000
 L71.455177 30.000000
 L71.000000 30.619143
 L70.619141 31.000000
 L70.000000 31.455175
 L69.000000 31.413935
 L68.380577 31.000000
 L68.000000 30.000000
 L67.000000 30.239561
 L66.718903 30.000000
 L66.000000 29.281099
 L65.760437 29.000000
 L66.000000 28.000000
 L65.000000 27.619427
 L64.586067 27.000000
 L64.544823 26.000000
 L65.000000 25.380857
 Z
 M58.000000 24.544825
 L58.000000 24.544825
 L59.000000 24.287239
 L59.712761 25.000000
 L60.000000 26.000000
 L60.287239 25.000000
 L61.000000 24.287239
 L62.000000 24.544825
 L62.619141 25.000000
 L63.000000 25.380857
 L63.455177 26.000000
 L63.413937 27.000000
 L63.000000 27.619427
 L62.000000 28.000000
 L61.000000 27.712761
 L60.287239 27.000000
 L60.000000 26.000000
 L59.712761 27.000000
 L59.000000 27.712761
 L58.000000 28.000000
 L59.000000 28.287239
 L59.712761 29.000000
 L60.000000 30.000000
 L60.287239 29.000000
 L61.000000 28.287239
 L62.000000 28.000000
 L62.239559 29.000000
 L62.000000 29.281099
 L61.281097 30.000000
 L61.000000 30.239561
 L60.000000 30.000000
 L59.619427 31.000000
 L59.000000 31.413935
 L58.000000 31.455175
 L57.380859 31.000000
 L57.000000 30.619143
 L56.544823 30.000000
 L56.287239 29.000000
 L57.000000 28.287239
 L58.000000 28.000000
 L57.000000 27.712761
 L56.287239 27.000000
 L56.544823 26.000000
 L57.000000 25.380857
 Z
 M50.000000 24.544825
 L50.000000 24.544825
 L51.000000 24.287239
 L51.712761 25.000000
 L52.000000 26.000000
 L52.287239 25.000000
 L53.000000 24.287239
 L54.000000 24.544825
 L54.619141 25.000000
 L55.000000 25.380857
 L55.455177 26.000000
 L55.712761 27.000000
 L55.000000 27.712761
 L54.000000 28.000000
 L53.000000 27.712761
 L52.287239 27.000000
 L52.000000 26.000000
 L51.712761 27.000000
 L51.000000 27.712761
 L50.000000 28.000000
 L51.000000 28.287239
 L51.712761 29.000000
 L52.000000 30.000000
 L52.287239 29.000000
 L53.000000 28.287239
 L54.000000 28.000000
 L55.000000 28.287239
 L55.712761 29.000000
 L55.455177 30.000000
 L55.000000 30.619143
 L54.619141 31.000000
 L54.000000 31.455175
 L53.000000 31.413935
 L52.380573 31.000000
 L52.000000 30.000000
 L51.000000 30.239561
 L50.718903 30.000000
 L50.000000 29.281099
 L49.760441 29.000000
 L50.000000 28.000000
 L49.000000 27.619427
 L48.586063 27.000000
 L48.544823 26.000000
 L49.000000 25.380857
 Z
 M42.000000 24.544825
 L42.000000 24.544825
 L43.000000 24.287239
 L43.712761 25.000000
 L44.000000 26.000000
 L44.287239 25.000000
 L45.000000 24.287239
 L46.000000 24.544825
 L46.619141 25.000000
 L47.000000 25.380857
 L47.455177 26.000000
 L47.413937 27.000000
 L47.000000 27.619427
 L46.000000 28.000000
 L45.000000 27.712761
 L44.287239 27.000000
 L44.000000 26.000000
 L43.712761 27.000000
 L43.000000 27.712761
 L42.000000 28.000000
 L43.000000 28.287239
 L43.712761 29.000000
 L44.000000 30.000000
 L44.287239 29.000000
 L45.000000 28.287239
 L46.000000 28.000000
 L46.239559 29.000000
 L46.000000 29.281099
 L45.281097 30.000000
 L45.000000 30.239561
 L44.000000 30.000000
 L43.619427 31.000000
 L43.000000 31.413935
 L42.000000 31.455175
 L41.380859 31.000000
 L41.000000 30.619143
 L40.544823 30.000000
 L40.287239 29.000000
 L41.000000 28.287239
 L42.000000 28.000000
 L41.000000 27.712761
 L40.287239 27.000000
 L40.544823 26.000000
 L41.000000 25.380857
 Z
 M34.000000 24.544825
 L34.000000 24.544825
 L35.000000 24.287239
 L35.712761 25.000000
 L36.000000 26.000000
 L36.287239 25.000000
 L37.000000 24.287239
 L38.000000 24.544825
 L38.619141 25.000000
 L39.000000 25.380857
 L39.455177 26.000000
 L39.712761 27.000000
 L39.000000 27.712761
 L38.000000 28.000000
 L37.000000 27.712761
 L36.287239 27.000000
 L36.000000 26.000000
 L35.712761 27.000000
 L35.000000 27.712761
 L34.000000 28.000000
 L35.000000 28.287239
 L35.712761 29.000000
 L36.000000 30.000000
 L36.287239 29.000000
 L37.000000 28.287239
 L38.000000 28.000000
 L39.000000 28.287239
 L39.712761 29.000000
 L39.455177 30.000000
 L39.000000 30.619143
 L38.619141 31.000000
 L38.000000 31.455175
 L37.000000 31.413935
 L36.380573 31.000000
 L36.000000 30.000000
 L35.000000 30.239561
 L34.718903 30.000000
 L34.000000 29.281099
 L33.760441 29.000000
 L34.000000 28.000000
 L33.000000 27.619427
 L32.586063 27.000000
 L32.544823 26.000000
 L33.000000 25.380857
 Z
 M26.000000 24.544825
 L26.000000 24.544825
 L27.000000 24.287239
 L27.712761 25.000000
 L28.000000 26.000000
 L28.287239 25.000000
 L29.000000 24.287239
 L30.000000 24.544825
 L30.619143 25.000000
 L31.000000 25.380857
 L31.455175 26.000000
 L31.413935 27.000000
 L31.000000 27.619427
 L30.000000 28.000000
 L29.000000 27.712761
 L28.287239 27.000000
 L28.000000 26.000000
 L27.712761 27.000000
 L27.000000 27.712761
 L26.000000 28.000000
 L27.000000 28.287239
 L27.712761 29.000000
 L28.000000 30.000000
 L28.287239 29.000000
 L29.000000 28.287239
 L30.000000 28.000000
 L30.239561 29.000000
 L30.000000 29.281099
 L29.281099 30.000000
 L29.000000 30.239561
 L28.000000 30.000000
 L27.619427 31.000000
 L27.000000 31.413935
 L26.000000 31.455175
 L25.380857 31.000000
 L25.000000 30.619143
 L24.544825 30.000000
 L24.287239 29.000000
 L25.000000 28.287239
 L26.000000 28.000000
 L25.000000 27.712761
 L24.287239 27.000000
 L24.544825 26.000000
 L25.000000 25.380857
 Z
 M18.000000 24.544825
 L18.000000 24.544825
 L19.000000 24.287239
 L19.712761 25.000000
 L20.000000 26.000000
 L20.287239 25.000000
 L21.000000 24.287239
 L22.000000 24.544825
 L22.619143 25.000000
 L23.000000 25.380857
 L23.455175 26.000000
 L23.712761 27.000000
 L23.000000 27.712761
 L22.000000 28.000000
 L21.000000 27.712761
 L20.287239 27.000000
 L20.000000 26.000000
 L19.712761 27.000000
 L19.000000 27.712761
 L18.000000 28.000000
 L19.000000 28.287239
 L19.712761 29.000000
 L20.000000 30.000000
 L20.287239 29.000000
 L21.000000 28.287239
 L22.000000 28.000000
 L23.000000 28.287239
 L23.712761 29.000000
 L23.455175 30.000000
 L23.000000 30.619143
 L22.619143 31.000000
 L22.000000 31.455175
 L21.000000 31.413935
 L20.380573 31.000000
 L20.000000 30.000000
 L19.000000 30.239561
 L18.718901 30.000000
 L18.000000 29.281099
 L17.760439 29.000000
 L18.000000 28.000000
 L17.000000 27.619427
 L16.586065 27.000000
 L16.544825 26.000000
 L17.000000 25.380857
 Z
 M10.000000 24.544825
 L10.000000 24.544825
 L11.000000 24.287239
 L11.712762 25.000000
 L12.000000 26.000000
 L12.287238 25.000000
 L13.000000 24.287239
 L14.000000 24.544825
 L14.619143 25.000000
 L15.000000 25.380857
 L15.455176 26.000000
 L15.413935 27.000000
 L15.000000 27.619427
 L14.000000 28.000000
 L13.000000 27.712761
 L12.287238 27.000000
 L12.000000 26.000000
 L11.712762 27.000000
 L11.000000 27.712761
 L10.000000 28.000000
 L11.000000 28.287239
 L11.712762 29.000000
 L12.000000 30.000000
 L12.287238 29.000000
 L13.000000 28.287239
 L14.000000 28.000000
 L14.239561 29.000000
 L14.000000 29.281099
 L13.281098 30.000000
 L13.000000 30.239561
 L12.000000 30.000000
 L11.619426 31.000000
 L11.000000 31.413935
 L10.000000 31.455175
 L9.380857 31.000000
 L9.000000 30.619143
 L8.544824 30.000000
 L8.287238 29.000000
 L9.000000 28.287239
 L10.000000 28.000000
 L9.000000 27.712761
 L8.287238 27.000000
 L8.544824 26.000000
 L9.000000 25.380857
 Z
 M11.000000 21.398308
 L11.000000 21.398308
 L12.000000 22.000000
 L11.712762 23.000000
 L11.000000 23.712761
 L10.000000 23.073614
 L9.956078 23.000000
 L10.000000 22.929800
 Z
 M13.000000 18.723909
 L13.000000 18.723909
 L14.000000 18.718901
 L14.239561 19.000000
 L14.000000 20.000000
 L15.000000 20.380573
 L15.413935 21.000000
 L15.455176 22.000000
 L15.000000 22.619143
 L14.619143 23.000000
 L14.000000 23.455175
 L13.000000 23.712761
 L12.287238 23.000000
 L12.000000 22.000000
 L12.287238 21.000000
 L13.000000 20.287239
 L14.000000 20.000000
 L13.000000 19.426256
 Z
 M73.000000 17.380857
 L73.000000 17.380857
 L74.000000 17.545120
 L74.395714 18.000000
 L75.000000 18.723909
 L75.223915 19.000000
 L75.000000 19.426256
 L74.000000 20.000000
 L75.000000 20.287239
 L75.712761 21.000000
 L76.000000 22.000000
 L77.000000 21.398308
 L77.405502 22.000000
 L78.000000 22.929800
 L78.043922 23.000000
 L78.000000 23.073614
 L77.000000 23.712761
 L76.287239 23.000000
 L76.000000 22.000000
 L75.712761 23.000000
 L75.000000 23.712761
 L74.000000 23.455175
 L73.380859 23.000000
 L73.000000 22.619143
 L72.544823 22.000000
 L72.287239 21.000000
 L73.000000 20.287239
 L74.000000 20.000000
 L73.000000 19.712761
 L72.287239 19.000000
 Z
 M67.000000 17.760439
 L67.000000 17.760439
 L68.000000 18.000000
 L67.712761 19.000000
 L67.000000 19.712761
 L66.000000 20.000000
 L67.000000 20.287239
 L67.712761 21.000000
 L68.000000 22.000000
 L67.712761 23.000000
 L67.000000 23.712761
 L66.000000 23.455175
 L65.380859 23.000000
 L65.000000 22.619143
 L64.544823 22.000000
 L64.586067 21.000000
 L65.000000 20.380573
 L66.000000 20.000000
 L65.760437 19.000000
 L66.000000 18.718901
 Z
 M51.000000 17.760439
 L51.000000 17.760439
 L52.000000 18.000000
 L51.712761 19.000000
 L51.000000 19.712761
 L50.000000 20.000000
 L51.000000 20.287239
 L51.712761 21.000000
 L52.000000 22.000000
 L51.712761 23.000000
 L51.000000 23.712761
 L50.000000 23.455175
 L49.380859 23.000000
 L49.000000 22.619143
 L48.544823 22.000000
 L48.586063 21.000000
 L49.000000 20.380573
 L50.000000 20.000000
 L49.760441 19.000000
 L50.000000 18.718901
 Z
 M35.000000 17.760439
 L35.000000 17.760439
 L36.000000 18.000000
 L35.712761 19.000000
 L35.000000 19.712761
 L34.000000 20.000000
 L35.000000 20.287239
 L35.712761 21.000000
 L36.000000 22.000000
 L35.712761 23.000000
 L35.000000 23.712761
 L34.000000 23.455175
 L33.380859 23.000000
 L33.000000 22.619143
 L32.544823 22.000000
 L32.586063 21.000000
 L33.000000 20.380573
 L34.000000 20.000000
 L33.760441 19.000000
 L34.000000 18.718901
 Z
 M19.000000 17.760439
 L19.000000 17.760439
 L20.000000 18.000000
 L19.712761 19.000000
 L19.000000 19.712761
 L18.000000 20.000000
 L19.000000 20.287239
 L19.712761 21.000000
 L20.000000 22.000000
 L19.712761 23.000000
 L19.000000 23.712761
 L18.000000 23.455175
 L17.380857 23.000000
 L17.000000 22.619143
 L16.544825 22.000000
 L16.586065 21.000000
 L17.000000 20.380573
 L18.000000 20.000000
 L17.760439 19.000000
 L18.000000 18.718901
 Z
 M69.000000 16.586065
 L69.000000 16.586065
 L70.000000 16.544825
 L70.619141 17.000000
 L71.000000 17.380857
 L71.455177 18.000000
 L71.712761 19.000000
 L71.000000 19.712761
 L70.000000 20.000000
 L71.000000 20.287239
 L71.712761 21.000000
 L71.455177 22.000000
 L71.000000 22.619143
 L70.619141 23.000000
 L70.000000 23.455175
 L69.000000 23.712761
 L68.287239 23.000000
 L68.000000 22.000000
 L68.287239 21.000000
 L69.000000 20.287239
 L70.000000 20.000000
 L69.000000 19.712761
 L68.287239 19.000000
 L68.000000 18.000000
 Z
 M58.000000 16.544825
 L58.000000 16.544825
 L59.000000 16.586065
 L59.619427 17.000000
 L60.000000 18.000000
 L61.000000 17.760439
 L61.281097 18.000000
 L62.000000 18.718901
 L62.239559 19.000000
 L62.000000 20.000000
 L61.000000 19.712761
 L60.287239 19.000000
 L60.000000 18.000000
 L59.712761 19.000000
 L59.000000 19.712761
 L58.000000 20.000000
 L59.000000 20.287239
 L59.712761 21.000000
 L60.000000 22.000000
 L60.287239 21.000000
 L61.000000 20.287239
 L62.000000 20.000000
 L63.000000 20.380573
 L63.413937 21.000000
 L63.455177 22.000000
 L63.000000 22.619143
 L62.619141 23.000000
 L62.000000 23.455175
 L61.000000 23.712761
 L60.287239 23.000000
 L60.000000 22.000000
 L59.712761 23.000000
 L59.000000 23.712761
 L58.000000 23.455175
 L57.380859 23.000000
 L57.000000 22.619143
 L56.544823 22.000000
 L56.287239 21.000000
 L57.000000 20.287239
 L58.000000 20.000000
 L57.000000 19.712761
 L56.287239 19.000000
 L56.544823 18.000000
 L57.000000 17.380857
 Z
 M53.000000 16.586065
 L53.000000 16.586065
 L54.000000 16.544825
 L54.619141 17.000000
 L55.000000 17.380857
 L55.455177 18.000000
 L55.712761 19.000000
 L55.000000 19.712761
 L54.000000 20.000000
 L55.000000 20.287239
 L55.712761 21.000000
 L55.455177 22.000000
 L55.000000 22.619143
 L54.619141 23.000000
 L54.000000 23.455175
 L53.000000 23.712761
 L52.287239 23.000000
 L52.000000 22.000000
 L52.287239 21.000000
 L53.000000 20.287239
 L54.000000 20.000000
 L53.000000 19.712761
 L52.287239 19.000000
 L52.000000 18.000000
 Z
 M42.000000 16.544825
 L42.000000 16.544825
 L43.000000 16.586065
 L43.619427 17.000000
 L44.000000 18.000000
 L45.000000 17.760439
 L45.281097 18.000000
 L46.000000 18.718901
 L46.239559 19.000000
 L46.000000 20.000000
 L45.000000 19.712761
 L44.287239 19.000000
 L44.000000 18.000000
 L43.712761 19.000000
 L43.000000 19.712761
 L42.000000 20.000000
 L43.000000 20.287239
 L43.712761 21.000000
 L44.000000 22.000000
 L44.287239 21.000000
 L45.000000 20.287239
 L46.000000 20.000000
 L47.000000 20.380573
 L47.413937 21.000000
 L47.455177 22.000000
 L47.000000 22.619143
 L46.619141 23.000000
 L46.000000 23.455175
 L45.000000 23.712761
 L44.287239 23.000000
 L44.000000 22.000000
 L43.712761 23.000000
 L43.000000 23.712761
 L42.000000 23.455175
 L41.380859 23.000000
 L41.000000 22.619143
 L40.544823 22.000000
 L40.287239 21.000000
 L41.000000 20.287239
 L42.000000 20.000000
 L41.000000 19.712761
 L40.287239 19.000000
 L40.544823 18.000000
 L41.000000 17.380857
 Z
 M37.000000 16.586065
 L37.000000 16.586065
 L38.000000 16.544825
 L38.619141 17.000000
 L39.000000 17.380857
 L39.455177 18.000000
 L39.712761 19.000000
 L39.000000 19.712761
 L38.000000 20.000000
 L39.000000 20.287239
 L39.712761 21.000000
 L39.455177 22.000000
 L39.000000 22.619143
 L38.619141 23.000000
 L38.000000 23.455175
 L37.000000 23.712761
 L36.287239 23.000000
 L36.000000 22.000000
 L36.287239 21.000000
 L37.000000 20.287239
 L38.000000 20.000000
 L37.000000 19.712761
 L36.287239 19.000000
 L36.000000 18.000000
 Z
 M26.000000 16.544825
 L26.000000 16.544825
 L27.000000 16.586065
 L27.619427 17.000000
 L28.000000 18.000000
 L29.000000 17.760439
 L29.281099 18.000000
 L30.000000 18.718901
 L30.239561 19.000000
 L30.000000 20.000000
 L29.000000 19.712761
 L28.287239 19.000000
 L28.000000 18.000000
 L27.712761 19.000000
 L27.000000 19.712761
 L26.000000 20.000000
 L27.000000 20.287239
 L27.712761 21.000000
 L28.000000 22.000000
 L28.287239 21.000000
 L29.000000 20.287239
 L30.000000 20.000000
 L31.000000 20.380573
 L31.413935 21.000000
 L31.455175 22.000000
 L31.000000 22.619143
 L30.619143 23.000000
 L30.000000 23.455175
 L29.000000 23.712761
 L28.287239 23.000000
 L28.000000 22.000000
 L27.712761 23.000000
 L27.000000 23.712761
 L26.000000 23.455175
 L25.380857 23.000000
 L25.000000 22.619143
 L24.544825 22.000000
 L24.287239 21.000000
 L25.000000 20.287239
 L26.000000 20.000000
 L25.000000 19.712761
 L24.287239 19.000000
 L24.544825 18.000000
 L25.000000 17.380857
 Z
 M21.000000 16.586065
 L21.000000 16.586065
 L22.000000 16.544825
 L22.619143 17.000000
 L23.000000 17.380857
 L23.455175 18.000000
 L23.712761 19.000000
 L23.000000 19.712761
 L22.000000 20.000000
 L23.000000 20.287239
 L23.712761 21.000000
 L23.455175 22.000000
 L23.000000 22.619143
 L22.619143 23.000000
 L22.000000 23.455175
 L21.000000 23.712761
 L20.287239 23.000000
 L20.000000 22.000000
 L20.287239 21.000000
 L21.000000 20.287239
 L22.000000 20.000000
 L21.000000 19.712761
 L20.287239 19.000000
 L20.000000 18.000000
 Z
 M19.000000 12.776085
 L19.000000 12.776085
 L19.426256 13.000000
 L20.000000 14.000000
 L19.000000 14.239561
 L18.718901 14.000000
 Z
 M65.000000 9.956078
 L65.000000 9.956078
 L65.070198 10.000000
 L66.000000 10.594501
 L66.601692 11.000000
 L66.000000 12.000000
 L67.000000 12.287238
 L67.712761 13.000000
 L68.000000 14.000000
 L68.573746 13.000000
 L69.000000 12.776085
 L69.276093 13.000000
 L70.000000 13.604289
 L70.454880 14.000000
 L70.619141 15.000000
 L70.000000 15.455176
 L69.000000 15.413935
 L68.380577 15.000000
 L68.000000 14.000000
 L67.000000 14.239561
 L66.718903 14.000000
 L66.000000 13.281098
 L65.760437 13.000000
 L66.000000 12.000000
 L65.000000 11.619426
 L64.586067 11.000000
 Z
 M23.000000 9.956078
 L23.000000 9.956078
 L23.073614 10.000000
 L23.712761 11.000000
 L23.000000 11.712762
 L22.000000 12.000000
 L23.000000 12.287238
 L23.712761 13.000000
 L23.455175 14.000000
 L23.000000 14.619143
 L22.619143 15.000000
 L22.000000 15.455176
 L21.000000 15.413935
 L20.380573 15.000000
 L20.000000 14.000000
 L20.287239 13.000000
 L21.000000 12.287238
 L22.000000 12.000000
 L21.398308 11.000000
 L22.000000 10.594501
 Z
 M58.000000 8.544824
 L58.000000 8.544824
 L59.000000 8.287238
 L59.712761 9.000000
 L60.000000 10.000000
 L60.287239 9.000000
 L61.000000 8.287238
 L62.000000 8.544824
 L62.619141 9.000000
 L63.000000 9.380857
 L63.455177 10.000000
 L63.413937 11.000000
 L63.000000 11.619426
 L62.000000 12.000000
 L61.000000 11.712762
 L60.287239 11.000000
 L60.000000 10.000000
 L59.712761 11.000000
 L59.000000 11.712762
 L58.000000 12.000000
 L59.000000 12.287238
 L59.712761 13.000000
 L60.000000 14.000000
 L60.287239 13.000000
 L61.000000 12.287238
 L62.000000 12.000000
 L62.239559 13.000000
 L62.000000 13.281098
 L61.281097 14.000000
 L61.000000 14.239561
 L60.000000 14.000000
 L59.619427 15.000000
 L59.000000 15.413935
 L58.000000 15.455176
 L57.380859 15.000000
 L57.000000 14.619143
 L56.544823 14.000000
 L56.287239 13.000000
 L57.000000 12.287238
 L58.000000 12.000000
 L57.000000 11.712762
 L56.287239 11.000000
 L56.544823 10.000000
 L57.000000 9.380857
 Z
 M50.000000 8.544824
 L50.000000 8.544824
 L51.000000 8.287238
 L51.712761 9.000000
 L52.000000 10.000000
 L52.287239 9.000000
 L53.000000 8.287238
 L54.000000 8.544824
 L54.619141 9.000000
 L55.000000 9.380857
 L55.455177 10.000000
 L55.712761 11.000000
 L55.000000 11.712762
 L54.000000 12.000000
 L53.000000 11.712762
 L52.287239 11.000000
 L52.000000 10.000000
 L51.712761 11.000000
 L51.000000 11.712762
 L50.000000 12.000000
 L51.000000 12.287238
 L51.712761 13.000000
 L52.000000 14.000000
 L52.287239 13.000000
 L53.000000 12.287238
 L54.000000 12.000000
 L55.000000 12.287238
 L55.712761 13.000000
 L55.455177 14.000000
 L55.000000 14.619143
 L54.619141 15.000000
 L54.000000 15.455176
 L53.000000 15.413935
 L52.380573 15.000000
 L52.000000 14.000000
 L51.000000 14.239561
 L50.718903 14.000000
 L50.000000 13.281098
 L49.760441 13.000000
 L50.000000 12.000000
 L49.000000 11.619426
 L48.586063 11.000000
 L48.544823 10.000000
 L49.000000 9.380857
 Z
 M42.000000 8.544824
 L42.000000 8.544824
 L43.000000 8.287238
 L43.712761 9.000000
 L44.000000 10.000000
 L44.287239 9.000000
 L45.000000 8.287238
 L46.000000 8.544824
 L46.619141 9.000000
 L47.000000 9.380857
 L47.455177 10.000000
 L47.413937 11.000000
 L47.000000 11.619426
 L46.000000 12.000000
 L45.000000 11.712762
 L44.287239 11.000000
 L44.000000 10.000000
 L43.712761 11.000000
 L43.000000 11.712762
 L42.000000 12.000000
 L43.000000 12.287238
 L43.712761 13.000000
 L44.000000 14.000000
 L44.287239 13.000000
 L45.000000 12.287238
 L46.000000 12.000000
 L46.239559 13.000000
 L46.000000 13.281098
 L45.281097 14.000000
 L45.000000 14.239561
 L44.000000 14.000000
 L43.619427 15.000000
 L43.000000 15.413935
 L42.000000 15.455176
 L41.380859 15.000000
 L41.000000 14.619143
 L40.544823 14.000000
 L40.287239 13.000000
 L41.000000 12.287238
 L42.000000 12.000000
 L41.000000 11.712762
 L40.287239 11.000000
 L40.544823 10.000000
 L41.000000 9.380857
 Z
 M34.000000 8.544824
 L34.000000 8.544824
 L35.000000 8.287238
 L35.712761 9.000000
 L36.000000 10.000000
 L36.287239 9.000000
 L37.000000 8.287238
 L38.000000 8.544824
 L38.619141 9.000000
 L39.000000 9.380857
 L39.455177 10.000000
 L39.712761 11.000000
 L39.000000 11.712762
 L38.000000 12.000000
 L37.000000 11.712762
 L36.287239 11.000000
 L36.000000 10.000000
 L35.712761 11.000000
 L35.000000 11.712762
 L34.000000 12.000000
 L35.000000 12.287238
 L35.712761 13.000000
 L36.000000 14.000000
 L36.287239 13.000000
 L37.000000 12.287238
 L38.000000 12.000000
 L39.000000 12.287238
 L39.712761 13.000000
 L39.455177 14.000000
 L39.000000 14.619143
 L38.619141 15.000000
 L38.000000 15.455176
 L37.000000 15.413935
 L36.380573 15.000000
 L36.000000 14.000000
 L35.000000 14.239561
 L34.718903 14.000000
 L34.000000 13.281098
 L33.760441 13.000000
 L34.000000 12.000000
 L33.000000 11.619426
 L32.586063 11.000000
 L32.544823 10.000000
 L33.000000 9.380857
 Z
 M26.000000 8.544824
 L26.000000 8.544824
 L27.000000 8.287238
 L27.712761 9.000000
 L28.000000 10.000000
 L28.287239 9.000000
 L29.000000 8.287238
 L30.000000 8.544824
 L30.619143 9.000000
 L31.000000 9.380857
 L31.455175 10.000000
 L31.413935 11.000000
 L31.000000 11.619426
 L30.000000 12.000000
 L29.000000 11.712762
 L28.287239 11.000000
 L28.000000 10.000000
 L27.712761 11.000000
 L27.000000 11.712762
 L26.000000 12.000000
 L27.000000 12.287238
 L27.712761 13.000000
 L28.000000 14.000000
 L28.287239 13.000000
 L29.000000 12.287238
 L30.000000 12.000000
 L30.239561 13.000000
 L30.000000 13.281098
 L29.281099 14.000000
 L29.000000 14.239561
 L28.000000 14.000000
 L27.619427 15.000000
 L27.000000 15.413935
 L26.000000 15.455176
 L25.380857 15.000000
 L25.000000 14.619143
 L24.544825 14.000000
 L24.287239 13.000000
 L25.000000 12.287238
 L26.000000 12.000000
 L25.000000 11.712762
 L24.287239 11.000000
 L24.544825 10.000000
 L25.000000 9.380857
 Z
 M58.000000 6.557477
 L58.000000 6.557477
 L59.000000 6.919147
 L59.194302 7.000000
 L59.000000 7.241274
 L58.000000 7.455176
 Z
 M29.000000 6.919147
 L29.000000 6.919147
 L30.000000 6.557477
 L30.619143 7.000000
 L30.000000 7.455176
 L29.000000 7.241274
 Z
 M33.000000 5.569401
 L33.000000 5.569401
 L34.000000 5.270326
 L35.000000 5.025668
 L36.000000 6.000000
 L35.712761 7.000000
 L35.000000 7.712762
 L34.000000 7.455176
 L33.380859 7.000000
 L33.000000 6.619142
 Z
 M49.000000 4.447564
 L49.000000 4.447564
 L50.000000 4.452631
 L51.000000 4.617354
 L51.614799 5.000000
 L52.000000 6.000000
 L53.000000 5.025668
 L54.000000 5.270326
 L55.000000 5.569401
 L55.455177 6.000000
 L55.000000 6.619142
 L54.619141 7.000000
 L54.000000 7.455176
 L53.000000 7.712762
 L52.287239 7.000000
 L52.000000 6.000000
 L51.712761 7.000000
 L51.000000 7.712762
 L50.000000 7.455176
 L49.380859 7.000000
 L49.000000 6.619142
 L48.544823 6.000000
 Z
 M41.000000 4.287238
 L41.000000 4.287238
 L42.000000 4.050033
 L43.000000 4.287238
 L43.712761 5.000000
 L44.000000 6.000000
 L44.287239 5.000000
 L45.000000 4.287238
 L46.000000 4.050033
 L47.000000 4.380574
 L47.413937 5.000000
 L47.455177 6.000000
 L47.000000 6.619142
 L46.619141 7.000000
 L46.000000 7.455176
 L45.000000 7.712762
 L44.287239 7.000000
 L44.000000 6.000000
 L43.712761 7.000000
 L43.000000 7.712762
 L42.000000 7.455176
 L41.380859 7.000000
 L41.000000 6.619142
 L40.544823 6.000000
 Z
 M37.000000 4.617354
 L37.000000 4.617354
 L38.000000 4.452631
 L39.000000 4.347003
 L39.712761 5.000000
 L39.455177 6.000000
 L39.000000 6.619142
 L38.619141 7.000000
 L38.000000 7.455176
 L37.000000 7.712762
 L36.287239 7.000000
 L36.000000 6.000000
 Z
 " style="fill:black; stroke:none; stroke-width:0"></path>
</svg>
