<svg xmlns="http://www.w3.org/2000/svg" viewbox="0 0 88 88">
  <path d="M34.000000 20.921379
 L34.000000 20.921379
 L35.000000 20.635452
 L36.000000 20.404331
 L37.000000 20.226383
 L38.000000 20.100275
 L39.000000 20.025017
 L40.000000 20.000000
 L41.000000 20.025017
 L42.000000 20.100275
 L43.000000 20.226383
 L44.000000 20.404331
 L45.000000 20.635452
 L46.000000 20.921379
 L46.232208 21.000000
 L47.000000 21.265659
 L48.000000 21.670647
 L48.329353 22.000000
 L48.734341 23.000000
 L49.000000 23.767794
 L49.078621 24.000000
 L49.364548 25.000000
 L49.595669 26.000000
 L49.773617 27.000000
 L49.899727 28.000000
 L49.974983 29.000000
 L50.000000 30.000000
 L49.974983 31.000000
 L49.899727 32.000000
 L49.773617 33.000000
 L49.595669 34.000000
 L49.364548 35.000000
 L49.078621 36.000000
 L49.000000 36.232208
 L48.734341 37.000000
 L48.329353 38.000000
 L48.000000 38.708099
 L47.859867 39.000000
 L47.318962 40.000000
 L47.000000 40.527084
 L46.701363 41.000000
 L46.000000 42.000000
 L45.196537 43.000000
 L45.000000 43.225113
 L44.279453 44.000000
 L44.000000 44.279453
 L43.225113 45.000000
 L43.000000 45.196537
 L42.000000 46.000000
 L41.000000 46.701363
 L40.527084 47.000000
 L40.000000 47.318962
 L39.000000 47.859867
 L38.708099 48.000000
 L38.000000 48.329353
 L37.000000 48.734341
 L36.232208 49.000000
 L36.000000 49.078621
 L35.000000 49.364548
 L34.000000 49.595669
 L33.000000 49.773617
 L32.000000 49.899727
 L31.000000 49.974983
 L30.000000 50.000000
 L29.000000 49.974983
 L28.000000 49.899727
 L27.000000 49.773617
 L26.000000 49.595669
 L25.000000 49.364548
 L24.000000 49.078621
 L23.767794 49.000000
 L23.000000 48.734341
 L22.000000 48.329353
 L21.670647 48.000000
 L21.265659 47.000000
 L21.000000 46.232208
 L20.921379 46.000000
 L20.635452 45.000000
 L20.404331 44.000000
 L20.226383 43.000000
 L20.100275 42.000000
 L20.025017 41.000000
 L20.000000 40.000000
 L20.025017 39.000000
 L20.100275 38.000000
 L20.226383 37.000000
 L20.404331 36.000000
 L20.635452 35.000000
 L20.921379 34.000000
 L21.000000 33.767792
 L21.265659 33.000000
 L21.670647 32.000000
 L22.000000 31.291901
 L22.140135 31.000000
 L22.681038 30.000000
 L23.000000 29.472916
 L23.298637 29.000000
 L24.000000 28.000000
 L24.803463 27.000000
 L25.000000 26.774889
 L25.720545 26.000000
 L26.000000 25.720545
 L26.774889 25.000000
 L27.000000 24.803463
 L28.000000 24.000000
 L29.000000 23.298637
 L29.472916 23.000000
 L30.000000 22.681038
 L31.000000 22.140135
 L31.291901 22.000000
 L32.000000 21.670647
 L33.000000 21.265659
  Z" style="fill:black; stroke:none; stroke-width:0"></path>\n</svg>