<svg xmlns="http://www.w3.org/2000/svg" viewbox="0 0 88 88">
  <path d="M34.000000 20.921379 L34.000000 20.921379L35.000000 20.635452L36.000000 20.404331L37.000000 20.226383L38.000000 20.100275L39.000000 20.025017L40.000000 20.000000L41.000000 20.025017L42.000000 20.100275L43.000000 20.226383L44.000000 20.404331L45.000000 20.635452L46.000000 20.921379L46.232208 21.000000L47.000000 21.265659L48.000000 21.670647L48.329353 22.000000L48.734341 23.000000L49.000000 23.767794L49.078621 24.000000L49.364548 25.000000L49.595669 26.000000L49.773617 27.000000L49.899727 28.000000L49.974983 29.000000L50.000000 30.000000L49.974983 31.000000L49.899727 32.000000L49.773617 33.000000L49.595669 34.000000L49.364548 35.000000L49.078621 36.000000L49.000000 36.232208L48.734341 37.000000L48.329353 38.000000L48.000000 38.708099L47.859867 39.000000L47.318962 40.000000L47.000000 40.527084L46.701363 41.000000L46.000000 42.000000L45.196537 43.000000L45.000000 43.225113L44.279453 44.000000L44.000000 44.279453L43.225113 45.000000L43.000000 45.196537L42.000000 46.000000L41.000000 46.701363L40.527084 47.000000L40.000000 47.318962L39.000000 47.859867L38.708099 48.000000L38.000000 48.329353L37.000000 48.734341L36.232208 49.000000L36.000000 49.078621L35.000000 49.364548L34.000000 49.595669L33.000000 49.773617L32.000000 49.899727L31.000000 49.974983L30.000000 50.000000L29.000000 49.974983L28.000000 49.899727L27.000000 49.773617L26.000000 49.595669L25.000000 49.364548L24.000000 49.078621L23.767794 49.000000L23.000000 48.734341L22.000000 48.329353L21.670647 48.000000L21.265659 47.000000L21.000000 46.232208L20.921379 46.000000L20.635452 45.000000L20.404331 44.000000L20.226383 43.000000L20.100275 42.000000L20.025017 41.000000L20.000000 40.000000L20.025017 39.000000L20.100275 38.000000L20.226383 37.000000L20.404331 36.000000L20.635452 35.000000L20.921379 34.000000L21.000000 33.767792L21.265659 33.000000L21.670647 32.000000L22.000000 31.291901L22.140135 31.000000L22.681038 30.000000L23.000000 29.472916L23.298637 29.000000L24.000000 28.000000L24.803463 27.000000L25.000000 26.774889L25.720545 26.000000L26.000000 25.720545L26.774889 25.000000L27.000000 24.803463L28.000000 24.000000L29.000000 23.298637L29.472916 23.000000L30.000000 22.681038L31.000000 22.140135L31.291901 22.000000L32.000000 21.670647L33.000000 21.265659 Z" style="fill:black; stroke:none; stroke-width:0"></path>\n</svg>