<svg xmlns="http://www.w3.org/2000/svg" viewbox="0 0 88 88">
   <line x1="24.633545" y1="16.000000" x2="25.000000" y2="15.858322" style="fill:none; stroke:black; stroke-width:1" />
         <line x1="25.000000" y1="15.858322" x2="26.000000" y2="15.543776" style="fill:none; stroke:black; stroke-width:1" />
         <line x1="26.000000" y1="15.543776" x2="27.000000" y2="15.303357" style="fill:none; stroke:black; stroke-width:1" />
         <line x1="27.000000" y1="15.303357" x2="28.000000" y2="15.134004" style="fill:none; stroke:black; stroke-width:1" />
         <line x1="28.000000" y1="15.134004" x2="29.000000" y2="15.033376" style="fill:none; stroke:black; stroke-width:1" />
         <line x1="29.000000" y1="15.033376" x2="30.000000" y2="15.000000" style="fill:none; stroke:black; stroke-width:1" />
         <line x1="30.000000" y1="15.000000" x2="31.000000" y2="15.033376" style="fill:none; stroke:black; stroke-width:1" />
         <line x1="31.000000" y1="15.033376" x2="32.000000" y2="15.134004" style="fill:none; stroke:black; stroke-width:1" />
         <line x1="32.000000" y1="15.134004" x2="33.000000" y2="15.303357" style="fill:none; stroke:black; stroke-width:1" />
         <line x1="33.000000" y1="15.303357" x2="34.000000" y2="15.543776" style="fill:none; stroke:black; stroke-width:1" />
         <line x1="34.000000" y1="15.543776" x2="35.000000" y2="15.858322" style="fill:none; stroke:black; stroke-width:1" />
         <line x1="35.000000" y1="15.858322" x2="35.366455" y2="16.000000" style="fill:none; stroke:black; stroke-width:1" />
         <line x1="54.633545" y1="16.000000" x2="55.000000" y2="15.858322" style="fill:none; stroke:black; stroke-width:1" />
         <line x1="55.000000" y1="15.858322" x2="56.000000" y2="15.543776" style="fill:none; stroke:black; stroke-width:1" />
         <line x1="56.000000" y1="15.543776" x2="57.000000" y2="15.303357" style="fill:none; stroke:black; stroke-width:1" />
         <line x1="57.000000" y1="15.303357" x2="58.000000" y2="15.134004" style="fill:none; stroke:black; stroke-width:1" />
         <line x1="58.000000" y1="15.134004" x2="59.000000" y2="15.033376" style="fill:none; stroke:black; stroke-width:1" />
         <line x1="59.000000" y1="15.033376" x2="60.000000" y2="15.000000" style="fill:none; stroke:black; stroke-width:1" />
         <line x1="60.000000" y1="15.000000" x2="61.000000" y2="15.033376" style="fill:none; stroke:black; stroke-width:1" />
         <line x1="61.000000" y1="15.033376" x2="62.000000" y2="15.134004" style="fill:none; stroke:black; stroke-width:1" />
         <line x1="62.000000" y1="15.134004" x2="63.000000" y2="15.303357" style="fill:none; stroke:black; stroke-width:1" />
         <line x1="63.000000" y1="15.303357" x2="64.000000" y2="15.543776" style="fill:none; stroke:black; stroke-width:1" />
         <line x1="64.000000" y1="15.543776" x2="65.000000" y2="15.858322" style="fill:none; stroke:black; stroke-width:1" />
         <line x1="65.000000" y1="15.858322" x2="65.366455" y2="16.000000" style="fill:none; stroke:black; stroke-width:1" />
         <line x1="22.529188" y1="17.000000" x2="23.000000" y2="16.735058" style="fill:none; stroke:black; stroke-width:1" />
         <line x1="23.000000" y1="16.735058" x2="24.000000" y2="16.253408" style="fill:none; stroke:black; stroke-width:1" />
         <line x1="24.000000" y1="16.253408" x2="24.633545" y2="16.000000" style="fill:none; stroke:black; stroke-width:1" />
         <line x1="35.366455" y1="16.000000" x2="36.000000" y2="16.253408" style="fill:none; stroke:black; stroke-width:1" />
         <line x1="36.000000" y1="16.253408" x2="37.000000" y2="16.735058" style="fill:none; stroke:black; stroke-width:1" />
         <line x1="37.000000" y1="16.735058" x2="37.470810" y2="17.000000" style="fill:none; stroke:black; stroke-width:1" />
         <line x1="52.529190" y1="17.000000" x2="53.000000" y2="16.735058" style="fill:none; stroke:black; stroke-width:1" />
         <line x1="53.000000" y1="16.735058" x2="54.000000" y2="16.253408" style="fill:none; stroke:black; stroke-width:1" />
         <line x1="54.000000" y1="16.253408" x2="54.633545" y2="16.000000" style="fill:none; stroke:black; stroke-width:1" />
         <line x1="65.366455" y1="16.000000" x2="66.000000" y2="16.253408" style="fill:none; stroke:black; stroke-width:1" />
         <line x1="66.000000" y1="16.253408" x2="67.000000" y2="16.735058" style="fill:none; stroke:black; stroke-width:1" />
         <line x1="67.000000" y1="16.735058" x2="67.470810" y2="17.000000" style="fill:none; stroke:black; stroke-width:1" />
         <line x1="21.000000" y1="18.000000" x2="22.000000" y2="17.313890" style="fill:none; stroke:black; stroke-width:1" />
         <line x1="22.000000" y1="17.313890" x2="22.529188" y2="17.000000" style="fill:none; stroke:black; stroke-width:1" />
         <line x1="37.470810" y1="17.000000" x2="38.000000" y2="17.313890" style="fill:none; stroke:black; stroke-width:1" />
         <line x1="38.000000" y1="17.313890" x2="39.000000" y2="18.000000" style="fill:none; stroke:black; stroke-width:1" />
         <line x1="51.000000" y1="18.000000" x2="52.000000" y2="17.313890" style="fill:none; stroke:black; stroke-width:1" />
         <line x1="52.000000" y1="17.313890" x2="52.529190" y2="17.000000" style="fill:none; stroke:black; stroke-width:1" />
         <line x1="67.470810" y1="17.000000" x2="68.000000" y2="17.313890" style="fill:none; stroke:black; stroke-width:1" />
         <line x1="68.000000" y1="17.313890" x2="69.000000" y2="18.000000" style="fill:none; stroke:black; stroke-width:1" />
         <line x1="19.805975" y1="19.000000" x2="20.000000" y2="18.822474" style="fill:none; stroke:black; stroke-width:1" />
         <line x1="20.000000" y1="18.822474" x2="21.000000" y2="18.000000" style="fill:none; stroke:black; stroke-width:1" />
         <line x1="39.000000" y1="18.000000" x2="40.000000" y2="18.822474" style="fill:none; stroke:black; stroke-width:1" />
         <line x1="40.000000" y1="18.822474" x2="40.194023" y2="19.000000" style="fill:none; stroke:black; stroke-width:1" />
         <line x1="49.805977" y1="19.000000" x2="50.000000" y2="18.822474" style="fill:none; stroke:black; stroke-width:1" />
         <line x1="50.000000" y1="18.822474" x2="51.000000" y2="18.000000" style="fill:none; stroke:black; stroke-width:1" />
         <line x1="69.000000" y1="18.000000" x2="70.000000" y2="18.822474" style="fill:none; stroke:black; stroke-width:1" />
         <line x1="70.000000" y1="18.822474" x2="70.194023" y2="19.000000" style="fill:none; stroke:black; stroke-width:1" />
         <line x1="18.822474" y1="20.000000" x2="19.000000" y2="19.805975" style="fill:none; stroke:black; stroke-width:1" />
         <line x1="19.000000" y1="19.805975" x2="19.805975" y2="19.000000" style="fill:none; stroke:black; stroke-width:1" />
         <line x1="40.194023" y1="19.000000" x2="41.000000" y2="19.805975" style="fill:none; stroke:black; stroke-width:1" />
         <line x1="41.000000" y1="19.805975" x2="41.177525" y2="20.000000" style="fill:none; stroke:black; stroke-width:1" />
         <line x1="48.822475" y1="20.000000" x2="49.000000" y2="19.805975" style="fill:none; stroke:black; stroke-width:1" />
         <line x1="49.000000" y1="19.805975" x2="49.805977" y2="19.000000" style="fill:none; stroke:black; stroke-width:1" />
         <line x1="70.194023" y1="19.000000" x2="71.000000" y2="19.805975" style="fill:none; stroke:black; stroke-width:1" />
         <line x1="71.000000" y1="19.805975" x2="71.177528" y2="20.000000" style="fill:none; stroke:black; stroke-width:1" />
         <line x1="18.000000" y1="21.000000" x2="18.822474" y2="20.000000" style="fill:none; stroke:black; stroke-width:1" />
         <line x1="41.177525" y1="20.000000" x2="42.000000" y2="21.000000" style="fill:none; stroke:black; stroke-width:1" />
         <line x1="48.000000" y1="21.000000" x2="48.822475" y2="20.000000" style="fill:none; stroke:black; stroke-width:1" />
         <line x1="71.177528" y1="20.000000" x2="72.000000" y2="21.000000" style="fill:none; stroke:black; stroke-width:1" />
         <line x1="17.313890" y1="22.000000" x2="18.000000" y2="21.000000" style="fill:none; stroke:black; stroke-width:1" />
         <line x1="42.000000" y1="21.000000" x2="42.686108" y2="22.000000" style="fill:none; stroke:black; stroke-width:1" />
         <line x1="47.313892" y1="22.000000" x2="48.000000" y2="21.000000" style="fill:none; stroke:black; stroke-width:1" />
         <line x1="72.000000" y1="21.000000" x2="72.686111" y2="22.000000" style="fill:none; stroke:black; stroke-width:1" />
         <line x1="16.735058" y1="23.000000" x2="17.000000" y2="22.529188" style="fill:none; stroke:black; stroke-width:1" />
         <line x1="17.000000" y1="22.529188" x2="17.313890" y2="22.000000" style="fill:none; stroke:black; stroke-width:1" />
         <line x1="42.686108" y1="22.000000" x2="43.000000" y2="22.529188" style="fill:none; stroke:black; stroke-width:1" />
         <line x1="43.000000" y1="22.529188" x2="43.264942" y2="23.000000" style="fill:none; stroke:black; stroke-width:1" />
         <line x1="46.735058" y1="23.000000" x2="47.000000" y2="22.529188" style="fill:none; stroke:black; stroke-width:1" />
         <line x1="47.000000" y1="22.529188" x2="47.313892" y2="22.000000" style="fill:none; stroke:black; stroke-width:1" />
         <line x1="72.686111" y1="22.000000" x2="73.000000" y2="22.529188" style="fill:none; stroke:black; stroke-width:1" />
         <line x1="73.000000" y1="22.529188" x2="73.264946" y2="23.000000" style="fill:none; stroke:black; stroke-width:1" />
         <line x1="16.253408" y1="24.000000" x2="16.735058" y2="23.000000" style="fill:none; stroke:black; stroke-width:1" />
         <line x1="43.264942" y1="23.000000" x2="43.746590" y2="24.000000" style="fill:none; stroke:black; stroke-width:1" />
         <line x1="46.253410" y1="24.000000" x2="46.735058" y2="23.000000" style="fill:none; stroke:black; stroke-width:1" />
         <line x1="73.264946" y1="23.000000" x2="73.746590" y2="24.000000" style="fill:none; stroke:black; stroke-width:1" />
         <line x1="15.858322" y1="25.000000" x2="16.000000" y2="24.633545" style="fill:none; stroke:black; stroke-width:1" />
         <line x1="16.000000" y1="24.633545" x2="16.253408" y2="24.000000" style="fill:none; stroke:black; stroke-width:1" />
         <line x1="43.746590" y1="24.000000" x2="44.000000" y2="24.633545" style="fill:none; stroke:black; stroke-width:1" />
         <line x1="44.000000" y1="24.633545" x2="44.141678" y2="25.000000" style="fill:none; stroke:black; stroke-width:1" />
         <line x1="45.858322" y1="25.000000" x2="46.000000" y2="24.633545" style="fill:none; stroke:black; stroke-width:1" />
         <line x1="46.000000" y1="24.633545" x2="46.253410" y2="24.000000" style="fill:none; stroke:black; stroke-width:1" />
         <line x1="73.746590" y1="24.000000" x2="74.000000" y2="24.633545" style="fill:none; stroke:black; stroke-width:1" />
         <line x1="74.000000" y1="24.633545" x2="74.141678" y2="25.000000" style="fill:none; stroke:black; stroke-width:1" />
         <line x1="15.543776" y1="26.000000" x2="15.858322" y2="25.000000" style="fill:none; stroke:black; stroke-width:1" />
         <line x1="44.141678" y1="25.000000" x2="44.456226" y2="26.000000" style="fill:none; stroke:black; stroke-width:1" />
         <line x1="45.543774" y1="26.000000" x2="45.858322" y2="25.000000" style="fill:none; stroke:black; stroke-width:1" />
         <line x1="74.141678" y1="25.000000" x2="74.456223" y2="26.000000" style="fill:none; stroke:black; stroke-width:1" />
         <line x1="15.303357" y1="27.000000" x2="15.543776" y2="26.000000" style="fill:none; stroke:black; stroke-width:1" />
         <line x1="44.456226" y1="26.000000" x2="44.696644" y2="27.000000" style="fill:none; stroke:black; stroke-width:1" />
         <line x1="45.303356" y1="27.000000" x2="45.543774" y2="26.000000" style="fill:none; stroke:black; stroke-width:1" />
         <line x1="74.456223" y1="26.000000" x2="74.696640" y2="27.000000" style="fill:none; stroke:black; stroke-width:1" />
         <line x1="15.134004" y1="28.000000" x2="15.303357" y2="27.000000" style="fill:none; stroke:black; stroke-width:1" />
         <line x1="44.696644" y1="27.000000" x2="44.865997" y2="28.000000" style="fill:none; stroke:black; stroke-width:1" />
         <line x1="45.134003" y1="28.000000" x2="45.303356" y2="27.000000" style="fill:none; stroke:black; stroke-width:1" />
         <line x1="74.696640" y1="27.000000" x2="74.865997" y2="28.000000" style="fill:none; stroke:black; stroke-width:1" />
         <line x1="15.033376" y1="29.000000" x2="15.134004" y2="28.000000" style="fill:none; stroke:black; stroke-width:1" />
         <line x1="44.865997" y1="28.000000" x2="44.966625" y2="29.000000" style="fill:none; stroke:black; stroke-width:1" />
         <line x1="45.033375" y1="29.000000" x2="45.134003" y2="28.000000" style="fill:none; stroke:black; stroke-width:1" />
         <line x1="74.865997" y1="28.000000" x2="74.966621" y2="29.000000" style="fill:none; stroke:black; stroke-width:1" />
         <line x1="15.000000" y1="30.000000" x2="15.033376" y2="29.000000" style="fill:none; stroke:black; stroke-width:1" />
         <line x1="44.966625" y1="29.000000" x2="45.000000" y2="30.000000" style="fill:none; stroke:black; stroke-width:1" />
         <line x1="45.000000" y1="30.000000" x2="45.033375" y2="29.000000" style="fill:none; stroke:black; stroke-width:1" />
         <line x1="74.966621" y1="29.000000" x2="75.000000" y2="30.000000" style="fill:none; stroke:black; stroke-width:1" />
         <line x1="15.033376" y1="31.000000" x2="15.000000" y2="30.000000" style="fill:none; stroke:black; stroke-width:1" />
         <line x1="45.000000" y1="30.000000" x2="44.966625" y2="31.000000" style="fill:none; stroke:black; stroke-width:1" />
         <line x1="45.033375" y1="31.000000" x2="45.000000" y2="30.000000" style="fill:none; stroke:black; stroke-width:1" />
         <line x1="75.000000" y1="30.000000" x2="74.966621" y2="31.000000" style="fill:none; stroke:black; stroke-width:1" />
         <line x1="15.134004" y1="32.000000" x2="15.033376" y2="31.000000" style="fill:none; stroke:black; stroke-width:1" />
         <line x1="44.966625" y1="31.000000" x2="44.865997" y2="32.000000" style="fill:none; stroke:black; stroke-width:1" />
         <line x1="45.134003" y1="32.000000" x2="45.033375" y2="31.000000" style="fill:none; stroke:black; stroke-width:1" />
         <line x1="74.966621" y1="31.000000" x2="74.865997" y2="32.000000" style="fill:none; stroke:black; stroke-width:1" />
         <line x1="15.303357" y1="33.000000" x2="15.134004" y2="32.000000" style="fill:none; stroke:black; stroke-width:1" />
         <line x1="44.865997" y1="32.000000" x2="44.696644" y2="33.000000" style="fill:none; stroke:black; stroke-width:1" />
         <line x1="45.303356" y1="33.000000" x2="45.134003" y2="32.000000" style="fill:none; stroke:black; stroke-width:1" />
         <line x1="74.865997" y1="32.000000" x2="74.696640" y2="33.000000" style="fill:none; stroke:black; stroke-width:1" />
         <line x1="15.543776" y1="34.000000" x2="15.303357" y2="33.000000" style="fill:none; stroke:black; stroke-width:1" />
         <line x1="44.696644" y1="33.000000" x2="44.456226" y2="34.000000" style="fill:none; stroke:black; stroke-width:1" />
         <line x1="45.543774" y1="34.000000" x2="45.303356" y2="33.000000" style="fill:none; stroke:black; stroke-width:1" />
         <line x1="74.696640" y1="33.000000" x2="74.456223" y2="34.000000" style="fill:none; stroke:black; stroke-width:1" />
         <line x1="15.858322" y1="35.000000" x2="15.543776" y2="34.000000" style="fill:none; stroke:black; stroke-width:1" />
         <line x1="44.456226" y1="34.000000" x2="44.141678" y2="35.000000" style="fill:none; stroke:black; stroke-width:1" />
         <line x1="45.858322" y1="35.000000" x2="45.543774" y2="34.000000" style="fill:none; stroke:black; stroke-width:1" />
         <line x1="74.456223" y1="34.000000" x2="74.141678" y2="35.000000" style="fill:none; stroke:black; stroke-width:1" />
         <line x1="16.000000" y1="35.366455" x2="15.858322" y2="35.000000" style="fill:none; stroke:black; stroke-width:1" />
         <line x1="16.253408" y1="36.000000" x2="16.000000" y2="35.366455" style="fill:none; stroke:black; stroke-width:1" />
         <line x1="44.000000" y1="35.366455" x2="43.746590" y2="36.000000" style="fill:none; stroke:black; stroke-width:1" />
         <line x1="44.141678" y1="35.000000" x2="44.000000" y2="35.366455" style="fill:none; stroke:black; stroke-width:1" />
         <line x1="46.000000" y1="35.366455" x2="45.858322" y2="35.000000" style="fill:none; stroke:black; stroke-width:1" />
         <line x1="46.253410" y1="36.000000" x2="46.000000" y2="35.366455" style="fill:none; stroke:black; stroke-width:1" />
         <line x1="74.000000" y1="35.366455" x2="73.746590" y2="36.000000" style="fill:none; stroke:black; stroke-width:1" />
         <line x1="74.141678" y1="35.000000" x2="74.000000" y2="35.366455" style="fill:none; stroke:black; stroke-width:1" />
         <line x1="16.735058" y1="37.000000" x2="16.253408" y2="36.000000" style="fill:none; stroke:black; stroke-width:1" />
         <line x1="43.746590" y1="36.000000" x2="43.264942" y2="37.000000" style="fill:none; stroke:black; stroke-width:1" />
         <line x1="46.735058" y1="37.000000" x2="46.253410" y2="36.000000" style="fill:none; stroke:black; stroke-width:1" />
         <line x1="73.746590" y1="36.000000" x2="73.264946" y2="37.000000" style="fill:none; stroke:black; stroke-width:1" />
         <line x1="17.000000" y1="37.470810" x2="16.735058" y2="37.000000" style="fill:none; stroke:black; stroke-width:1" />
         <line x1="17.313890" y1="38.000000" x2="17.000000" y2="37.470810" style="fill:none; stroke:black; stroke-width:1" />
         <line x1="43.000000" y1="37.470810" x2="42.686108" y2="38.000000" style="fill:none; stroke:black; stroke-width:1" />
         <line x1="43.264942" y1="37.000000" x2="43.000000" y2="37.470810" style="fill:none; stroke:black; stroke-width:1" />
         <line x1="47.000000" y1="37.470810" x2="46.735058" y2="37.000000" style="fill:none; stroke:black; stroke-width:1" />
         <line x1="47.313892" y1="38.000000" x2="47.000000" y2="37.470810" style="fill:none; stroke:black; stroke-width:1" />
         <line x1="73.000000" y1="37.470810" x2="72.686111" y2="38.000000" style="fill:none; stroke:black; stroke-width:1" />
         <line x1="73.264946" y1="37.000000" x2="73.000000" y2="37.470810" style="fill:none; stroke:black; stroke-width:1" />
         <line x1="18.000000" y1="39.000000" x2="17.313890" y2="38.000000" style="fill:none; stroke:black; stroke-width:1" />
         <line x1="42.686108" y1="38.000000" x2="42.000000" y2="39.000000" style="fill:none; stroke:black; stroke-width:1" />
         <line x1="48.000000" y1="39.000000" x2="47.313892" y2="38.000000" style="fill:none; stroke:black; stroke-width:1" />
         <line x1="72.686111" y1="38.000000" x2="72.000000" y2="39.000000" style="fill:none; stroke:black; stroke-width:1" />
         <line x1="18.822474" y1="40.000000" x2="18.000000" y2="39.000000" style="fill:none; stroke:black; stroke-width:1" />
         <line x1="42.000000" y1="39.000000" x2="41.177525" y2="40.000000" style="fill:none; stroke:black; stroke-width:1" />
         <line x1="48.822475" y1="40.000000" x2="48.000000" y2="39.000000" style="fill:none; stroke:black; stroke-width:1" />
         <line x1="72.000000" y1="39.000000" x2="71.177528" y2="40.000000" style="fill:none; stroke:black; stroke-width:1" />
         <line x1="19.000000" y1="40.194023" x2="18.822474" y2="40.000000" style="fill:none; stroke:black; stroke-width:1" />
         <line x1="19.805975" y1="41.000000" x2="19.000000" y2="40.194023" style="fill:none; stroke:black; stroke-width:1" />
         <line x1="41.000000" y1="40.194023" x2="40.194023" y2="41.000000" style="fill:none; stroke:black; stroke-width:1" />
         <line x1="41.177525" y1="40.000000" x2="41.000000" y2="40.194023" style="fill:none; stroke:black; stroke-width:1" />
         <line x1="49.000000" y1="40.194023" x2="48.822475" y2="40.000000" style="fill:none; stroke:black; stroke-width:1" />
         <line x1="49.805977" y1="41.000000" x2="49.000000" y2="40.194023" style="fill:none; stroke:black; stroke-width:1" />
         <line x1="71.000000" y1="40.194023" x2="70.194023" y2="41.000000" style="fill:none; stroke:black; stroke-width:1" />
         <line x1="71.177528" y1="40.000000" x2="71.000000" y2="40.194023" style="fill:none; stroke:black; stroke-width:1" />
         <line x1="20.000000" y1="41.177525" x2="19.805975" y2="41.000000" style="fill:none; stroke:black; stroke-width:1" />
         <line x1="21.000000" y1="42.000000" x2="20.000000" y2="41.177525" style="fill:none; stroke:black; stroke-width:1" />
         <line x1="40.000000" y1="41.177525" x2="39.000000" y2="42.000000" style="fill:none; stroke:black; stroke-width:1" />
         <line x1="40.194023" y1="41.000000" x2="40.000000" y2="41.177525" style="fill:none; stroke:black; stroke-width:1" />
         <line x1="50.000000" y1="41.177525" x2="49.805977" y2="41.000000" style="fill:none; stroke:black; stroke-width:1" />
         <line x1="51.000000" y1="42.000000" x2="50.000000" y2="41.177525" style="fill:none; stroke:black; stroke-width:1" />
         <line x1="70.000000" y1="41.177525" x2="69.000000" y2="42.000000" style="fill:none; stroke:black; stroke-width:1" />
         <line x1="70.194023" y1="41.000000" x2="70.000000" y2="41.177525" style="fill:none; stroke:black; stroke-width:1" />
         <line x1="22.000000" y1="42.686108" x2="21.000000" y2="42.000000" style="fill:none; stroke:black; stroke-width:1" />
         <line x1="22.529188" y1="43.000000" x2="22.000000" y2="42.686108" style="fill:none; stroke:black; stroke-width:1" />
         <line x1="38.000000" y1="42.686108" x2="37.470810" y2="43.000000" style="fill:none; stroke:black; stroke-width:1" />
         <line x1="39.000000" y1="42.000000" x2="38.000000" y2="42.686108" style="fill:none; stroke:black; stroke-width:1" />
         <line x1="52.000000" y1="42.686108" x2="51.000000" y2="42.000000" style="fill:none; stroke:black; stroke-width:1" />
         <line x1="52.529190" y1="43.000000" x2="52.000000" y2="42.686108" style="fill:none; stroke:black; stroke-width:1" />
         <line x1="68.000000" y1="42.686108" x2="67.470810" y2="43.000000" style="fill:none; stroke:black; stroke-width:1" />
         <line x1="69.000000" y1="42.000000" x2="68.000000" y2="42.686108" style="fill:none; stroke:black; stroke-width:1" />
         <line x1="23.000000" y1="43.264942" x2="22.529188" y2="43.000000" style="fill:none; stroke:black; stroke-width:1" />
         <line x1="24.000000" y1="43.746590" x2="23.000000" y2="43.264942" style="fill:none; stroke:black; stroke-width:1" />
         <line x1="24.633545" y1="44.000000" x2="24.000000" y2="43.746590" style="fill:none; stroke:black; stroke-width:1" />
         <line x1="36.000000" y1="43.746590" x2="35.366455" y2="44.000000" style="fill:none; stroke:black; stroke-width:1" />
         <line x1="37.000000" y1="43.264942" x2="36.000000" y2="43.746590" style="fill:none; stroke:black; stroke-width:1" />
         <line x1="37.470810" y1="43.000000" x2="37.000000" y2="43.264942" style="fill:none; stroke:black; stroke-width:1" />
         <line x1="53.000000" y1="43.264942" x2="52.529190" y2="43.000000" style="fill:none; stroke:black; stroke-width:1" />
         <line x1="54.000000" y1="43.746590" x2="53.000000" y2="43.264942" style="fill:none; stroke:black; stroke-width:1" />
         <line x1="54.633545" y1="44.000000" x2="54.000000" y2="43.746590" style="fill:none; stroke:black; stroke-width:1" />
         <line x1="66.000000" y1="43.746590" x2="65.366455" y2="44.000000" style="fill:none; stroke:black; stroke-width:1" />
         <line x1="67.000000" y1="43.264942" x2="66.000000" y2="43.746590" style="fill:none; stroke:black; stroke-width:1" />
         <line x1="67.470810" y1="43.000000" x2="67.000000" y2="43.264942" style="fill:none; stroke:black; stroke-width:1" />
         <line x1="25.000000" y1="44.141678" x2="24.633545" y2="44.000000" style="fill:none; stroke:black; stroke-width:1" />
         <line x1="26.000000" y1="44.456226" x2="25.000000" y2="44.141678" style="fill:none; stroke:black; stroke-width:1" />
         <line x1="27.000000" y1="44.696644" x2="26.000000" y2="44.456226" style="fill:none; stroke:black; stroke-width:1" />
         <line x1="28.000000" y1="44.865997" x2="27.000000" y2="44.696644" style="fill:none; stroke:black; stroke-width:1" />
         <line x1="29.000000" y1="44.966625" x2="28.000000" y2="44.865997" style="fill:none; stroke:black; stroke-width:1" />
         <line x1="30.000000" y1="45.000000" x2="29.000000" y2="44.966625" style="fill:none; stroke:black; stroke-width:1" />
         <line x1="31.000000" y1="44.966625" x2="30.000000" y2="45.000000" style="fill:none; stroke:black; stroke-width:1" />
         <line x1="32.000000" y1="44.865997" x2="31.000000" y2="44.966625" style="fill:none; stroke:black; stroke-width:1" />
         <line x1="33.000000" y1="44.696644" x2="32.000000" y2="44.865997" style="fill:none; stroke:black; stroke-width:1" />
         <line x1="34.000000" y1="44.456226" x2="33.000000" y2="44.696644" style="fill:none; stroke:black; stroke-width:1" />
         <line x1="35.000000" y1="44.141678" x2="34.000000" y2="44.456226" style="fill:none; stroke:black; stroke-width:1" />
         <line x1="35.366455" y1="44.000000" x2="35.000000" y2="44.141678" style="fill:none; stroke:black; stroke-width:1" />
         <line x1="55.000000" y1="44.141678" x2="54.633545" y2="44.000000" style="fill:none; stroke:black; stroke-width:1" />
         <line x1="56.000000" y1="44.456226" x2="55.000000" y2="44.141678" style="fill:none; stroke:black; stroke-width:1" />
         <line x1="57.000000" y1="44.696644" x2="56.000000" y2="44.456226" style="fill:none; stroke:black; stroke-width:1" />
         <line x1="58.000000" y1="44.865997" x2="57.000000" y2="44.696644" style="fill:none; stroke:black; stroke-width:1" />
         <line x1="59.000000" y1="44.966625" x2="58.000000" y2="44.865997" style="fill:none; stroke:black; stroke-width:1" />
         <line x1="60.000000" y1="45.000000" x2="59.000000" y2="44.966625" style="fill:none; stroke:black; stroke-width:1" />
         <line x1="61.000000" y1="44.966625" x2="60.000000" y2="45.000000" style="fill:none; stroke:black; stroke-width:1" />
         <line x1="62.000000" y1="44.865997" x2="61.000000" y2="44.966625" style="fill:none; stroke:black; stroke-width:1" />
         <line x1="63.000000" y1="44.696644" x2="62.000000" y2="44.865997" style="fill:none; stroke:black; stroke-width:1" />
         <line x1="64.000000" y1="44.456226" x2="63.000000" y2="44.696644" style="fill:none; stroke:black; stroke-width:1" />
         <line x1="65.000000" y1="44.141678" x2="64.000000" y2="44.456226" style="fill:none; stroke:black; stroke-width:1" />
         <line x1="65.366455" y1="44.000000" x2="65.000000" y2="44.141678" style="fill:none; stroke:black; stroke-width:1" />
        </svg>