<svg xmlns="http://www.w3.org/2000/svg" viewbox="0 0 88 88">
<path fill-rule="evenodd" d="
 M42.000000 51.000000
 L42.000000 51.000000
 L42.686108 52.000000
 L43.000000 52.529190
 L43.264942 53.000000
 L43.746590 54.000000
 L44.000000 54.633545
 L44.141678 55.000000
 L44.456226 56.000000
 L44.696644 57.000000
 L44.865997 58.000000
 L44.966625 59.000000
 L45.000000 60.000000
 L45.033375 59.000000
 L45.134003 58.000000
 L45.303356 57.000000
 L45.543774 56.000000
 L45.858322 55.000000
 L46.000000 54.633545
 L46.253410 54.000000
 L46.735058 53.000000
 L47.000000 52.529190
 L47.313892 52.000000
 L48.000000 51.000000
 L47.000000 50.881458
 L46.539459 51.000000
 L46.000000 51.131981
 L45.000000 51.213200
 L44.000000 51.131981
 L43.460541 51.000000
 Z"
 style="fill:black; stroke:none; stroke-width:0"></path>
<path fill-rule="evenodd" d="
 M37.470810 43.000000
 L37.470810 43.000000
 L37.000000 43.264942
 L36.000000 43.746590
 L35.366455 44.000000
 L35.000000 44.141678
 L34.000000 44.456226
 L33.000000 44.696644
 L32.000000 44.865997
 L31.000000 44.966625
 L30.000000 45.000000
 L31.000000 45.033375
 L32.000000 45.134003
 L33.000000 45.303356
 L34.000000 45.543774
 L35.000000 45.858322
 L35.366455 46.000000
 L36.000000 46.253410
 L37.000000 46.735058
 L37.470810 47.000000
 L38.000000 47.313892
 L39.000000 48.000000
 L39.118542 47.000000
 L39.000000 46.539459
 L38.868019 46.000000
 L38.786800 45.000000
 L38.868019 44.000000
 L39.000000 43.460541
 L39.118542 43.000000
 L39.000000 42.000000
 Z"
 style="fill:black; stroke:none; stroke-width:0"></path>
<path fill-rule="evenodd" d="
 M25.000000 15.858322
 L25.000000 15.858322
 L26.000000 15.543776
 L27.000000 15.303357
 L28.000000 15.134004
 L29.000000 15.033376
 L30.000000 15.000000
 L31.000000 15.033376
 L32.000000 15.134004
 L33.000000 15.303357
 L34.000000 15.543776
 L35.000000 15.858322
 L35.366455 16.000000
 L36.000000 16.253408
 L37.000000 16.735058
 L37.470810 17.000000
 L38.000000 17.313890
 L39.000000 18.000000
 L40.000000 18.822474
 L40.194023 19.000000
 L41.000000 19.805975
 L41.177525 20.000000
 L42.000000 21.000000
 L42.686108 22.000000
 L43.000000 22.529188
 L43.264942 23.000000
 L43.746590 24.000000
 L44.000000 24.633545
 L44.141678 25.000000
 L44.456226 26.000000
 L44.696644 27.000000
 L44.865997 28.000000
 L44.966625 29.000000
 L45.000000 30.000000
 L44.966625 31.000000
 L44.865997 32.000000
 L44.696644 33.000000
 L44.456226 34.000000
 L44.141678 35.000000
 L44.000000 35.366455
 L43.746590 36.000000
 L43.264942 37.000000
 L43.000000 37.470810
 L42.686108 38.000000
 L42.000000 39.000000
 L43.000000 39.118542
 L43.460541 39.000000
 L44.000000 38.868019
 L45.000000 38.786800
 L46.000000 38.868019
 L46.539459 39.000000
 L47.000000 39.118542
 L48.000000 39.000000
 L47.313892 38.000000
 L47.000000 37.470810
 L46.735058 37.000000
 L46.253410 36.000000
 L46.000000 35.366455
 L45.858322 35.000000
 L45.543774 34.000000
 L45.303356 33.000000
 L45.134003 32.000000
 L45.033375 31.000000
 L45.000000 30.000000
 L45.033375 29.000000
 L45.134003 28.000000
 L45.303356 27.000000
 L45.543774 26.000000
 L45.858322 25.000000
 L46.000000 24.633545
 L46.253410 24.000000
 L46.735058 23.000000
 L47.000000 22.529188
 L47.313892 22.000000
 L48.000000 21.000000
 L48.822475 20.000000
 L49.000000 19.805975
 L49.805977 19.000000
 L50.000000 18.822474
 L51.000000 18.000000
 L52.000000 17.313890
 L52.529190 17.000000
 L53.000000 16.735058
 L54.000000 16.253408
 L54.633545 16.000000
 L55.000000 15.858322
 L56.000000 15.543776
 L57.000000 15.303357
 L58.000000 15.134004
 L59.000000 15.033376
 L60.000000 15.000000
 L61.000000 15.033376
 L62.000000 15.134004
 L63.000000 15.303357
 L64.000000 15.543776
 L65.000000 15.858322
 L65.366455 16.000000
 L66.000000 16.253408
 L67.000000 16.735058
 L67.470810 17.000000
 L68.000000 17.313890
 L69.000000 18.000000
 L70.000000 18.822474
 L70.194023 19.000000
 L71.000000 19.805975
 L71.177528 20.000000
 L72.000000 21.000000
 L72.686111 22.000000
 L73.000000 22.529188
 L73.264946 23.000000
 L73.746590 24.000000
 L74.000000 24.633545
 L74.141678 25.000000
 L74.456223 26.000000
 L74.696640 27.000000
 L74.865997 28.000000
 L74.966621 29.000000
 L75.000000 30.000000
 L74.966621 31.000000
 L74.865997 32.000000
 L74.696640 33.000000
 L74.456223 34.000000
 L74.141678 35.000000
 L74.000000 35.366455
 L73.746590 36.000000
 L73.264946 37.000000
 L73.000000 37.470810
 L72.686111 38.000000
 L72.000000 39.000000
 L71.177528 40.000000
 L71.000000 40.194023
 L70.194023 41.000000
 L70.000000 41.177525
 L69.000000 42.000000
 L68.000000 42.686108
 L67.470810 43.000000
 L67.000000 43.264942
 L66.000000 43.746590
 L65.366455 44.000000
 L65.000000 44.141678
 L64.000000 44.456226
 L63.000000 44.696644
 L62.000000 44.865997
 L61.000000 44.966625
 L60.000000 45.000000
 L59.000000 44.966625
 L58.000000 44.865997
 L57.000000 44.696644
 L56.000000 44.456226
 L55.000000 44.141678
 L54.633545 44.000000
 L54.000000 43.746590
 L53.000000 43.264942
 L52.529190 43.000000
 L52.000000 42.686108
 L51.000000 42.000000
 L50.881458 43.000000
 L51.000000 43.460541
 L51.131981 44.000000
 L51.213200 45.000000
 L51.131981 46.000000
 L51.000000 46.539459
 L50.881458 47.000000
 L51.000000 48.000000
 L52.000000 47.313892
 L52.529190 47.000000
 L53.000000 46.735058
 L54.000000 46.253410
 L54.633545 46.000000
 L55.000000 45.858322
 L56.000000 45.543774
 L57.000000 45.303356
 L58.000000 45.134003
 L59.000000 45.033375
 L60.000000 45.000000
 L61.000000 45.033375
 L62.000000 45.134003
 L63.000000 45.303356
 L64.000000 45.543774
 L65.000000 45.858322
 L65.366455 46.000000
 L66.000000 46.253410
 L67.000000 46.735058
 L67.470810 47.000000
 L68.000000 47.313892
 L69.000000 48.000000
 L70.000000 48.822475
 L70.194023 49.000000
 L71.000000 49.805977
 L71.177528 50.000000
 L72.000000 51.000000
 L72.686111 52.000000
 L73.000000 52.529190
 L73.264946 53.000000
 L73.746590 54.000000
 L74.000000 54.633545
 L74.141678 55.000000
 L74.456223 56.000000
 L74.696640 57.000000
 L74.865997 58.000000
 L74.966621 59.000000
 L75.000000 60.000000
 L74.966621 61.000000
 L74.865997 62.000000
 L74.696640 63.000000
 L74.456223 64.000000
 L74.141678 65.000000
 L74.000000 65.366455
 L73.746590 66.000000
 L73.264946 67.000000
 L73.000000 67.470810
 L72.686111 68.000000
 L72.000000 69.000000
 L71.177528 70.000000
 L71.000000 70.194023
 L70.194023 71.000000
 L70.000000 71.177528
 L69.000000 72.000000
 L68.000000 72.686111
 L67.470810 73.000000
 L67.000000 73.264946
 L66.000000 73.746590
 L65.366455 74.000000
 L65.000000 74.141678
 L64.000000 74.456223
 L63.000000 74.696640
 L62.000000 74.865997
 L61.000000 74.966621
 L60.000000 75.000000
 L59.000000 74.966621
 L58.000000 74.865997
 L57.000000 74.696640
 L56.000000 74.456223
 L55.000000 74.141678
 L54.633545 74.000000
 L54.000000 73.746590
 L53.000000 73.264946
 L52.529190 73.000000
 L52.000000 72.686111
 L51.000000 72.000000
 L50.000000 71.177528
 L49.805977 71.000000
 L49.000000 70.194023
 L48.822475 70.000000
 L48.000000 69.000000
 L47.313892 68.000000
 L47.000000 67.470810
 L46.735058 67.000000
 L46.253410 66.000000
 L46.000000 65.366455
 L45.858322 65.000000
 L45.543774 64.000000
 L45.303356 63.000000
 L45.134003 62.000000
 L45.033375 61.000000
 L45.000000 60.000000
 L44.966625 61.000000
 L44.865997 62.000000
 L44.696644 63.000000
 L44.456226 64.000000
 L44.141678 65.000000
 L44.000000 65.366455
 L43.746590 66.000000
 L43.264942 67.000000
 L43.000000 67.470810
 L42.686108 68.000000
 L42.000000 69.000000
 L41.177525 70.000000
 L41.000000 70.194023
 L40.194023 71.000000
 L40.000000 71.177528
 L39.000000 72.000000
 L38.000000 72.686111
 L37.470810 73.000000
 L37.000000 73.264946
 L36.000000 73.746590
 L35.366455 74.000000
 L35.000000 74.141678
 L34.000000 74.456223
 L33.000000 74.696640
 L32.000000 74.865997
 L31.000000 74.966621
 L30.000000 75.000000
 L29.000000 74.966621
 L28.000000 74.865997
 L27.000000 74.696640
 L26.000000 74.456223
 L25.000000 74.141678
 L24.633545 74.000000
 L24.000000 73.746590
 L23.000000 73.264946
 L22.529188 73.000000
 L22.000000 72.686111
 L21.000000 72.000000
 L20.000000 71.177528
 L19.805975 71.000000
 L19.000000 70.194023
 L18.822474 70.000000
 L18.000000 69.000000
 L17.313890 68.000000
 L17.000000 67.470810
 L16.735058 67.000000
 L16.253408 66.000000
 L16.000000 65.366455
 L15.858322 65.000000
 L15.543776 64.000000
 L15.303357 63.000000
 L15.134004 62.000000
 L15.033376 61.000000
 L15.000000 60.000000
 L15.033376 59.000000
 L15.134004 58.000000
 L15.303357 57.000000
 L15.543776 56.000000
 L15.858322 55.000000
 L16.000000 54.633545
 L16.253408 54.000000
 L16.735058 53.000000
 L17.000000 52.529190
 L17.313890 52.000000
 L18.000000 51.000000
 L18.822474 50.000000
 L19.000000 49.805977
 L19.805975 49.000000
 L20.000000 48.822475
 L21.000000 48.000000
 L22.000000 47.313892
 L22.529188 47.000000
 L23.000000 46.735058
 L24.000000 46.253410
 L24.633545 46.000000
 L25.000000 45.858322
 L26.000000 45.543774
 L27.000000 45.303356
 L28.000000 45.134003
 L29.000000 45.033375
 L30.000000 45.000000
 L29.000000 44.966625
 L28.000000 44.865997
 L27.000000 44.696644
 L26.000000 44.456226
 L25.000000 44.141678
 L24.633545 44.000000
 L24.000000 43.746590
 L23.000000 43.264942
 L22.529188 43.000000
 L22.000000 42.686108
 L21.000000 42.000000
 L20.000000 41.177525
 L19.805975 41.000000
 L19.000000 40.194023
 L18.822474 40.000000
 L18.000000 39.000000
 L17.313890 38.000000
 L17.000000 37.470810
 L16.735058 37.000000
 L16.253408 36.000000
 L16.000000 35.366455
 L15.858322 35.000000
 L15.543776 34.000000
 L15.303357 33.000000
 L15.134004 32.000000
 L15.033376 31.000000
 L15.000000 30.000000
 L15.033376 29.000000
 L15.134004 28.000000
 L15.303357 27.000000
 L15.543776 26.000000
 L15.858322 25.000000
 L16.000000 24.633545
 L16.253408 24.000000
 L16.735058 23.000000
 L17.000000 22.529188
 L17.313890 22.000000
 L18.000000 21.000000
 L18.822474 20.000000
 L19.000000 19.805975
 L19.805975 19.000000
 L20.000000 18.822474
 L21.000000 18.000000
 L22.000000 17.313890
 L22.529188 17.000000
 L23.000000 16.735058
 L24.000000 16.253408
 Z"
 style="fill:black; stroke:none; stroke-width:0"></path>
</svg>
