<svg xmlns="http://www.w3.org/2000/svg" viewbox="0 0 88 88">
  <path d="M24.000000 10.921379
 L24.000000 10.921379
 L25.000000 10.635452
 L26.000000 10.404331
 L27.000000 10.226383
 L28.000000 10.100274
 L29.000000 10.025017
 L30.000000 10.000000
 L31.000000 10.025017
 L32.000000 10.100274
 L33.000000 10.226383
 L34.000000 10.404331
 L35.000000 10.635452
 L36.000000 10.921379
 L36.232208 11.000000
 L37.000000 11.265658
 L38.000000 11.670647
 L38.708099 12.000000
 L39.000000 12.140134
 L40.000000 12.681037
 L40.527084 13.000000
 L41.000000 13.298637
 L42.000000 14.000000
 L43.000000 14.803463
 L43.225113 15.000000
 L44.000000 15.720546
 L44.279453 16.000000
 L45.000000 16.774889
 L45.720547 16.000000
 L46.000000 15.720546
 L46.774887 15.000000
 L47.000000 14.803463
 L48.000000 14.000000
 L49.000000 13.298637
 L49.472916 13.000000
 L50.000000 12.681037
 L51.000000 12.140134
 L51.291901 12.000000
 L52.000000 11.670647
 L53.000000 11.265658
 L53.767792 11.000000
 L54.000000 10.921379
 L55.000000 10.635452
 L56.000000 10.404331
 L57.000000 10.226383
 L58.000000 10.100274
 L59.000000 10.025017
 L60.000000 10.000000
 L61.000000 10.025017
 L62.000000 10.100274
 L63.000000 10.226383
 L64.000000 10.404331
 L65.000000 10.635452
 L66.000000 10.921379
 L66.232208 11.000000
 L67.000000 11.265658
 L68.000000 11.670647
 L68.708099 12.000000
 L69.000000 12.140134
 L70.000000 12.681037
 L70.527084 13.000000
 L71.000000 13.298637
 L72.000000 14.000000
 L73.000000 14.803463
 L73.225113 15.000000
 L74.000000 15.720546
 L74.279457 16.000000
 L75.000000 16.774889
 L75.196541 17.000000
 L76.000000 18.000000
 L76.701363 19.000000
 L77.000000 19.472916
 L77.318962 20.000000
 L77.859863 21.000000
 L78.000000 21.291901
 L78.329353 22.000000
 L78.734344 23.000000
 L79.000000 23.767794
 L79.078621 24.000000
 L79.364548 25.000000
 L79.595673 26.000000
 L79.773621 27.000000
 L79.899727 28.000000
 L79.974983 29.000000
 L80.000000 30.000000
 L79.974983 31.000000
 L79.899727 32.000000
 L79.773621 33.000000
 L79.595673 34.000000
 L79.364548 35.000000
 L79.078621 36.000000
 L79.000000 36.232208
 L78.734344 37.000000
 L78.329353 38.000000
 L78.000000 38.708099
 L77.859863 39.000000
 L77.318962 40.000000
 L77.000000 40.527084
 L76.701363 41.000000
 L76.000000 42.000000
 L75.196541 43.000000
 L75.000000 43.225113
 L74.279457 44.000000
 L74.000000 44.279453
 L73.225113 45.000000
 L73.000000 45.196537
 L72.000000 46.000000
 L71.000000 46.701363
 L70.527084 47.000000
 L70.000000 47.318962
 L69.000000 47.859867
 L68.708099 48.000000
 L68.000000 48.329353
 L67.000000 48.734341
 L66.232208 49.000000
 L66.000000 49.078621
 L65.000000 49.364548
 L64.000000 49.595669
 L63.000000 49.773617
 L62.000000 49.899727
 L61.000000 49.974983
 L60.000000 50.000000
 L59.000000 49.974983
 L58.000000 49.899727
 L57.000000 49.773617
 L56.000000 49.595669
 L55.000000 49.364548
 L54.000000 49.078621
 L53.767792 49.000000
 L53.000000 48.734341
 L52.000000 48.329353
 L51.291901 48.000000
 L51.000000 47.859867
 L50.000000 47.318962
 L49.472916 47.000000
 L49.000000 46.701363
 L48.000000 46.000000
 L47.000000 45.196537
 L46.774887 45.000000
 L46.000000 44.279453
 L45.720547 44.000000
 L45.000000 43.225113
 L44.279453 44.000000
 L44.000000 44.279453
 L43.225113 45.000000
 L43.000000 45.196537
 L42.000000 46.000000
 L41.000000 46.701363
 L40.527084 47.000000
 L40.000000 47.318962
 L39.000000 47.859867
 L38.708099 48.000000
 L38.000000 48.329353
 L37.000000 48.734341
 L36.232208 49.000000
 L36.000000 49.078621
 L35.000000 49.364548
 L34.000000 49.595669
 L33.000000 49.773617
 L32.000000 49.899727
 L31.000000 49.974983
 L30.000000 50.000000
 L29.000000 49.974983
 L28.000000 49.899727
 L27.000000 49.773617
 L26.000000 49.595669
 L25.000000 49.364548
 L24.000000 49.078621
 L23.767794 49.000000
 L23.000000 48.734341
 L22.000000 48.329353
 L21.291901 48.000000
 L21.000000 47.859867
 L20.000000 47.318962
 L19.472916 47.000000
 L19.000000 46.701363
 L18.000000 46.000000
 L17.000000 45.196537
 L16.774889 45.000000
 L16.000000 44.279453
 L15.720546 44.000000
 L15.000000 43.225113
 L14.803463 43.000000
 L14.000000 42.000000
 L13.298637 41.000000
 L13.000000 40.527084
 L12.681037 40.000000
 L12.140134 39.000000
 L12.000000 38.708099
 L11.670647 38.000000
 L11.265658 37.000000
 L11.000000 36.232208
 L10.921379 36.000000
 L10.635452 35.000000
 L10.404331 34.000000
 L10.226383 33.000000
 L10.100274 32.000000
 L10.025017 31.000000
 L10.000000 30.000000
 L10.025017 29.000000
 L10.100274 28.000000
 L10.226383 27.000000
 L10.404331 26.000000
 L10.635452 25.000000
 L10.921379 24.000000
 L11.000000 23.767794
 L11.265658 23.000000
 L11.670647 22.000000
 L12.000000 21.291901
 L12.140134 21.000000
 L12.681037 20.000000
 L13.000000 19.472916
 L13.298637 19.000000
 L14.000000 18.000000
 L14.803463 17.000000
 L15.000000 16.774889
 L15.720546 16.000000
 L16.000000 15.720546
 L16.774889 15.000000
 L17.000000 14.803463
 L18.000000 14.000000
 L19.000000 13.298637
 L19.472916 13.000000
 L20.000000 12.681037
 L21.000000 12.140134
 L21.291901 12.000000
 L22.000000 11.670647
 L23.000000 11.265658
  Z" style="fill:black; stroke:none; stroke-width:0"></path>\n</svg>