<svg xmlns="http://www.w3.org/2000/svg" viewBox="0.000000 0.000000 88.000000 88.000000">
<path fill-rule="evenodd" d="
 M15.000000 11.667977
 L15.000000 11.667977
 L16.000000 11.427510
 L17.000000 11.345531
 L18.000000 11.396639
 L19.000000 11.565652
 L20.000000 11.840607
 L20.437298 12.000000
 L21.000000 12.231791
 L22.000000 12.731980
 L22.459883 13.000000
 L23.000000 13.352171
 L23.882601 14.000000
 L24.000000 14.095869
 L25.000000 15.000000
 L25.904131 16.000000
 L26.000000 16.117399
 L26.647829 17.000000
 L27.000000 17.540117
 L27.268021 18.000000
 L27.768209 19.000000
 L28.000000 19.562702
 L28.159393 20.000000
 L28.434349 21.000000
 L28.603361 22.000000
 L28.654469 23.000000
 L28.572489 24.000000
 L28.332022 25.000000
 L28.000000 25.757523
 L27.885695 26.000000
 L27.134153 27.000000
 L27.000000 27.134153
 L26.000000 27.885695
 L25.757523 28.000000
 L25.000000 28.332022
 L24.000000 28.572489
 L23.000000 28.654469
 L22.000000 28.603361
 L21.000000 28.434349
 L20.000000 28.159393
 L19.562702 28.000000
 L19.000000 27.768209
 L18.000000 27.268021
 L17.540117 27.000000
 L17.000000 26.647829
 L16.117399 26.000000
 L16.000000 25.904131
 L15.000000 25.000000
 L14.095869 24.000000
 L14.000000 23.882601
 L13.352171 23.000000
 L13.000000 22.459883
 L12.731980 22.000000
 L12.231791 21.000000
 L12.000000 20.437298
 L11.840607 20.000000
 L11.565652 19.000000
 L11.396639 18.000000
 L11.345531 17.000000
 L11.427510 16.000000
 L11.667977 15.000000
 L12.000000 14.242476
 L12.114305 14.000000
 L12.865847 13.000000
 L13.000000 12.865847
 L14.000000 12.114305
 Z
 " style="fill:black; stroke:none; stroke-width:0"></path>
</svg>
