<svg xmlns="http://www.w3.org/2000/svg" viewbox="0 0 88 88">
<path fill-rule="evenodd" d="
 M38.000000 13.912248
 L38.000000 13.912248
 L39.000000 13.741114
 L40.000000 13.601955
 L41.000000 13.494192
 L42.000000 13.417446
 L43.000000 13.371482
 L44.000000 13.356174
 L45.000000 13.371480
 L46.000000 13.417443
 L47.000000 13.494188
 L48.000000 13.601948
 L49.000000 13.741106
 L50.000000 13.912237
 L50.428436 14.000000
 L51.000000 14.120310
 L52.000000 14.365909
 L53.000000 14.647091
 L54.000000 14.965830
 L54.094398 15.000000
 L55.000000 15.334193
 L56.000000 15.746638
 L56.548489 16.000000
 L57.000000 16.212168
 L58.000000 16.737659
 L58.446213 17.000000
 L59.000000 17.331720
 L59.993847 18.000000
 L60.000000 18.004230
 L61.000000 18.780365
 L61.250946 19.000000
 L62.000000 19.683710
 L62.306213 20.000000
 L63.000000 20.764433
 L63.189274 21.000000
 L63.918991 22.000000
 L64.000000 22.125145
 L64.504623 23.000000
 L64.975151 24.000000
 L65.000000 24.066889
 L65.320862 25.000000
 L65.557976 26.000000
 L65.687271 27.000000
 L65.710007 28.000000
 L65.626526 29.000000
 L65.435738 30.000000
 L65.136909 31.000000
 L65.000000 31.347340
 L64.720215 32.000000
 L64.185921 33.000000
 L64.000000 33.300247
 L63.514645 34.000000
 L63.000000 34.663139
 L62.703476 35.000000
 L62.000000 35.745186
 L61.726467 36.000000
 L61.000000 36.647591
 L60.552189 37.000000
 L60.000000 37.421837
 L59.148209 38.000000
 L59.000000 38.098370
 L58.000000 38.690666
 L57.415863 39.000000
 L57.000000 39.216465
 L56.000000 39.681515
 L55.235691 40.000000
 L55.000000 40.096458
 L54.000000 40.459415
 L53.000000 40.782379
 L52.235920 41.000000
 L52.000000 41.065666
 L51.000000 41.306496
 L50.000000 41.513233
 L49.000000 41.686962
 L48.000000 41.828423
 L47.000000 41.938080
 L46.207157 42.000000
 L46.000000 42.015621
 L45.000000 42.060638
 L44.000000 42.075626
 L43.000000 42.060638
 L42.000000 42.015617
 L41.792885 42.000000
 L41.000000 41.938076
 L40.000000 41.828415
 L39.000000 41.686958
 L38.000000 41.513222
 L37.000000 41.306484
 L36.000000 41.065655
 L35.764133 41.000000
 L35.000000 40.782360
 L34.000000 40.459396
 L33.000000 40.096439
 L32.764362 40.000000
 L32.000000 39.681492
 L31.000000 39.216434
 L30.584192 39.000000
 L30.000000 38.690636
 L29.000000 38.098331
 L28.851845 38.000000
 L28.000000 37.421799
 L27.447866 37.000000
 L27.000000 36.647545
 L26.273586 36.000000
 L26.000000 35.745136
 L25.296576 35.000000
 L25.000000 34.663074
 L24.485411 34.000000
 L24.000000 33.300159
 L23.814135 33.000000
 L23.279839 32.000000
 L23.000000 31.347208
 L22.863146 31.000000
 L22.564314 30.000000
 L22.373529 29.000000
 L22.290051 28.000000
 L22.312782 27.000000
 L22.442081 26.000000
 L22.679192 25.000000
 L23.000000 24.067038
 L23.024900 24.000000
 L23.495436 23.000000
 L24.000000 22.125238
 L24.081068 22.000000
 L24.810778 21.000000
 L25.000000 20.764492
 L25.693834 20.000000
 L26.000000 19.683762
 L26.749107 19.000000
 L27.000000 18.780409
 L28.000000 18.004269
 L28.006208 18.000000
 L29.000000 17.331755
 L29.553841 17.000000
 L30.000000 16.737690
 L31.000000 16.212194
 L31.451565 16.000000
 L32.000000 15.746662
 L33.000000 15.334214
 L33.905647 15.000000
 L34.000000 14.965848
 L35.000000 14.647107
 L36.000000 14.365923
 L37.000000 14.120323
 Z
 " style="fill:black; stroke:none; stroke-width:0"></path>
</svg>
