<svg xmlns="http://www.w3.org/2000/svg" viewBox="0.000000 0.000000 88.000000 88.000000">
<path fill-rule="evenodd" d="
 M52.000000 2.983806
 L52.000000 2.983806
 L53.000000 2.773069
 L54.000000 2.582359
 L55.000000 2.413042
 L56.000000 2.266290
 L57.000000 2.144477
 L58.000000 2.058406
 L59.000000 2.010719
 L60.000000 2.001189
 L61.000000 2.029775
 L62.000000 2.096615
 L63.000000 2.202008
 L64.000000 2.346440
 L65.000000 2.530539
 L66.000000 2.755089
 L66.921722 3.000000
 L67.000000 3.021062
 L68.000000 3.330551
 L69.000000 3.684280
 L69.792900 4.000000
 L70.000000 4.084131
 L71.000000 4.533853
 L71.934105 5.000000
 L72.000000 5.033753
 L73.000000 5.590777
 L73.672729 6.000000
 L74.000000 6.205661
 L75.000000 6.884875
 L75.158318 7.000000
 L76.000000 7.636554
 L76.448959 8.000000
 L77.000000 8.466302
 L77.592979 9.000000
 L78.000000 9.385033
 L78.614975 10.000000
 L79.000000 10.407015
 L79.533707 11.000000
 L80.000000 11.551023
 L80.363464 12.000000
 L81.000000 12.841657
 L81.115150 13.000000
 L81.794373 14.000000
 L82.000000 14.327210
 L82.409264 15.000000
 L82.966286 16.000000
 L83.000000 16.065813
 L83.466194 17.000000
 L83.915916 18.000000
 L84.000000 18.206972
 L84.315773 19.000000
 L84.669502 20.000000
 L84.978989 21.000000
 L85.000000 21.078083
 L85.244965 22.000000
 L85.469521 23.000000
 L85.653625 24.000000
 L85.798058 25.000000
 L85.903458 26.000000
 L85.970299 27.000000
 L85.998886 28.000000
 L85.989365 29.000000
 L85.941681 30.000000
 L85.855614 31.000000
 L85.730766 32.000000
 L85.566589 33.000000
 L85.362366 34.000000
 L85.117256 35.000000
 L85.000000 35.411053
 L84.829712 36.000000
 L84.498268 37.000000
 L84.121918 38.000000
 L84.000000 38.291393
 L83.697205 39.000000
 L83.222763 40.000000
 L83.000000 40.428375
 L82.694588 41.000000
 L82.110199 42.000000
 L82.000000 42.174892
 L81.462357 43.000000
 L81.000000 43.656357
 L80.748474 44.000000
 L80.000000 44.952606
 L79.961113 45.000000
 L79.088264 46.000000
 L79.000000 46.095417
 L78.119858 47.000000
 L78.000000 47.116783
 L77.041115 48.000000
 L77.000000 48.036102
 L76.000000 48.864521
 L75.825226 49.000000
 L75.000000 49.614079
 L74.441338 50.000000
 L74.000000 50.294132
 L73.000000 50.910152
 L72.842087 51.000000
 L72.000000 51.465294
 L71.000000 51.967033
 L70.928032 52.000000
 L70.000000 52.415409
 L69.000000 52.815922
 L68.483932 53.000000
 L68.000000 53.169674
 L67.000000 53.478645
 L66.000000 53.744953
 L65.000000 53.969685
 L64.836357 54.000000
 L64.000000 54.153667
 L63.000000 54.298031
 L62.000000 54.403419
 L61.000000 54.470268
 L60.000000 54.498863
 L59.000000 54.489334
 L58.000000 54.441631
 L57.000000 54.355556
 L56.000000 54.233738
 L55.000000 54.087433
 L54.473801 54.000000
 L54.000000 53.920429
 L53.000000 53.747803
 L52.000000 53.569618
 L51.000000 53.388889
 L50.000000 53.208595
 L49.000000 53.032215
 L48.799438 53.000000
 L48.000000 52.868423
 L47.000000 52.717945
 L46.000000 52.584938
 L45.000000 52.475399
 L44.000000 52.396149
 L43.000000 52.354927
 L42.000000 52.360580
 L41.000000 52.423279
 L40.000000 52.554897
 L39.000000 52.769596
 L38.251347 53.000000
 L38.000000 53.090309
 L37.000000 53.562740
 L36.303104 54.000000
 L36.000000 54.234398
 L35.209370 55.000000
 L35.000000 55.264999
 L34.514278 56.000000
 L34.051476 57.000000
 L34.000000 57.148758
 L33.743790 58.000000
 L33.532711 59.000000
 L33.381062 60.000000
 L33.262325 61.000000
 L33.156521 62.000000
 L33.048161 63.000000
 L33.000000 63.375099
 L32.927143 64.000000
 L32.783470 65.000000
 L32.606766 66.000000
 L32.388454 67.000000
 L32.119980 68.000000
 L32.000000 68.362244
 L31.798805 69.000000
 L31.413250 70.000000
 L31.000000 70.889267
 L30.949345 71.000000
 L30.401098 72.000000
 L30.000000 72.616837
 L29.744255 73.000000
 L29.000000 73.947662
 L28.956404 74.000000
 L28.000000 74.994522
 L27.994194 75.000000
 L27.000000 75.832863
 L26.770441 76.000000
 L26.000000 76.511337
 L25.110994 77.000000
 L25.000000 77.057014
 L24.000000 77.478210
 L23.000000 77.791122
 L22.000000 77.998566
 L21.986853 78.000000
 L21.000000 78.106438
 L20.000000 78.118362
 L19.000000 78.034622
 L18.806648 78.000000
 L18.000000 77.852600
 L17.000000 77.566574
 L16.000000 77.168983
 L15.664885 77.000000
 L15.000000 76.641579
 L14.043945 76.000000
 L14.000000 75.967545
 L13.000000 75.096252
 L12.903745 75.000000
 L12.032229 74.000000
 L12.000000 73.956520
 L11.350487 73.000000
 L11.000000 72.369118
 L10.805910 72.000000
 L10.378784 71.000000
 L10.051052 70.000000
 L10.000000 69.787682
 L9.811390 69.000000
 L9.651308 68.000000
 L9.564712 67.000000
 L9.546428 66.000000
 L9.592075 65.000000
 L9.697604 64.000000
 L9.858639 63.000000
 L10.000000 62.320274
 L10.071083 62.000000
 L10.332194 61.000000
 L10.631537 60.000000
 L10.957403 59.000000
 L11.000000 58.867748
 L11.310516 58.000000
 L11.663228 57.000000
 L11.992150 56.000000
 L12.000000 55.970924
 L12.295551 55.000000
 L12.526036 54.000000
 L12.658893 53.000000
 L12.673217 52.000000
 L12.552850 51.000000
 L12.287620 50.000000
 L12.000000 49.302807
 L11.884161 49.000000
 L11.370944 48.000000
 L11.000000 47.417744
 L10.754894 47.000000
 L10.067984 46.000000
 L10.000000 45.912857
 L9.347649 45.000000
 L9.000000 44.553955
 L8.603371 44.000000
 L8.000000 43.202011
 L7.859740 43.000000
 L7.146048 42.000000
 L7.000000 41.797428
 L6.469015 41.000000
 L6.000000 40.282787
 L5.827596 40.000000
 L5.230732 39.000000
 L5.000000 38.597069
 L4.677444 38.000000
 L4.168080 37.000000
 L4.000000 36.647945
 L3.704310 36.000000
 L3.285499 35.000000
 L3.000000 34.216599
 L2.923015 34.000000
 L2.624989 33.000000
 L2.386995 32.000000
 L2.207047 31.000000
 L2.083541 30.000000
 L2.015312 29.000000
 L2.001701 28.000000
 L2.042573 27.000000
 L2.138329 26.000000
 L2.289885 25.000000
 L2.498633 24.000000
 L2.766376 23.000000
 L3.000000 22.286316
 L3.095899 22.000000
 L3.491907 21.000000
 L3.956424 20.000000
 L4.000000 19.916916
 L4.500041 19.000000
 L5.000000 18.193245
 L5.125663 18.000000
 L5.848103 17.000000
 L6.000000 16.808554
 L6.682567 16.000000
 L7.000000 15.655115
 L7.648635 15.000000
 L8.000000 14.670581
 L8.778625 14.000000
 L9.000000 13.820992
 L10.000000 13.082062
 L10.121792 13.000000
 L11.000000 12.430130
 L11.735960 12.000000
 L12.000000 11.849916
 L13.000000 11.335218
 L13.730201 11.000000
 L14.000000 10.877965
 L15.000000 10.472967
 L16.000000 10.115365
 L16.366524 10.000000
 L17.000000 9.800617
 L18.000000 9.524967
 L19.000000 9.285223
 L20.000000 9.077938
 L20.439579 9.000000
 L21.000000 8.899434
 L22.000000 8.746651
 L23.000000 8.616460
 L24.000000 8.505383
 L25.000000 8.409807
 L26.000000 8.325968
 L27.000000 8.249936
 L28.000000 8.177629
 L29.000000 8.104846
 L30.000000 8.027348
 L30.320450 8.000000
 L31.000000 7.941840
 L32.000000 7.844334
 L33.000000 7.730902
 L34.000000 7.598495
 L35.000000 7.444706
 L36.000000 7.267933
 L37.000000 7.067478
 L37.301537 7.000000
 L38.000000 6.847000
 L39.000000 6.606336
 L40.000000 6.345981
 L41.000000 6.068630
 L41.233917 6.000000
 L42.000000 5.781718
 L43.000000 5.485914
 L44.000000 5.183715
 L44.599190 5.000000
 L45.000000 4.880719
 L46.000000 4.581117
 L47.000000 4.285781
 L47.993347 4.000000
 L48.000000 3.998136
 L49.000000 3.723196
 L50.000000 3.460907
 L51.000000 3.213724
 Z
 " style="fill:black; stroke:none; stroke-width:0"></path>
</svg>
