<svg xmlns="http://www.w3.org/2000/svg" viewbox="0 0 88 88">
   <line x1="24.461220" y1="11.000000" x2="25.000000" y2="10.635452" style="fill:none; stroke:black; stroke-width:1" />
         <line x1="25.000000" y1="10.635452" x2="26.000000" y2="10.404331" style="fill:none; stroke:black; stroke-width:1" />
         <line x1="26.000000" y1="10.404331" x2="27.000000" y2="10.226383" style="fill:none; stroke:black; stroke-width:1" />
         <line x1="27.000000" y1="10.226383" x2="28.000000" y2="10.100274" style="fill:none; stroke:black; stroke-width:1" />
         <line x1="28.000000" y1="10.100274" x2="29.000000" y2="10.025017" style="fill:none; stroke:black; stroke-width:1" />
         <line x1="29.000000" y1="10.025017" x2="30.000000" y2="10.000000" style="fill:none; stroke:black; stroke-width:1" />
         <line x1="30.000000" y1="10.000000" x2="31.000000" y2="10.025017" style="fill:none; stroke:black; stroke-width:1" />
         <line x1="31.000000" y1="10.025017" x2="32.000000" y2="10.100274" style="fill:none; stroke:black; stroke-width:1" />
         <line x1="32.000000" y1="10.100274" x2="33.000000" y2="10.226383" style="fill:none; stroke:black; stroke-width:1" />
         <line x1="33.000000" y1="10.226383" x2="34.000000" y2="10.404331" style="fill:none; stroke:black; stroke-width:1" />
         <line x1="34.000000" y1="10.404331" x2="35.000000" y2="10.635452" style="fill:none; stroke:black; stroke-width:1" />
         <line x1="35.000000" y1="10.635452" x2="36.000000" y2="10.921379" style="fill:none; stroke:black; stroke-width:1" />
         <line x1="36.000000" y1="10.921379" x2="36.232208" y2="11.000000" style="fill:none; stroke:black; stroke-width:1" />
         <line x1="24.538208" y1="12.000000" x2="24.461220" y2="11.000000" style="fill:none; stroke:black; stroke-width:1" />
         <line x1="36.232208" y1="11.000000" x2="37.000000" y2="11.265658" style="fill:none; stroke:black; stroke-width:1" />
         <line x1="37.000000" y1="11.265658" x2="38.000000" y2="11.670647" style="fill:none; stroke:black; stroke-width:1" />
         <line x1="38.000000" y1="11.670647" x2="38.708099" y2="12.000000" style="fill:none; stroke:black; stroke-width:1" />
         <line x1="24.797609" y1="13.000000" x2="24.538208" y2="12.000000" style="fill:none; stroke:black; stroke-width:1" />
         <line x1="38.708099" y1="12.000000" x2="39.000000" y2="12.140134" style="fill:none; stroke:black; stroke-width:1" />
         <line x1="39.000000" y1="12.140134" x2="40.000000" y2="12.681037" style="fill:none; stroke:black; stroke-width:1" />
         <line x1="40.000000" y1="12.681037" x2="40.527084" y2="13.000000" style="fill:none; stroke:black; stroke-width:1" />
         <line x1="24.949848" y1="14.000000" x2="24.797609" y2="13.000000" style="fill:none; stroke:black; stroke-width:1" />
         <line x1="40.527084" y1="13.000000" x2="41.000000" y2="13.298637" style="fill:none; stroke:black; stroke-width:1" />
         <line x1="41.000000" y1="13.298637" x2="42.000000" y2="14.000000" style="fill:none; stroke:black; stroke-width:1" />
         <line x1="25.000000" y1="15.000000" x2="24.949848" y2="14.000000" style="fill:none; stroke:black; stroke-width:1" />
         <line x1="42.000000" y1="14.000000" x2="43.000000" y2="14.803463" style="fill:none; stroke:black; stroke-width:1" />
         <line x1="43.000000" y1="14.803463" x2="43.225113" y2="15.000000" style="fill:none; stroke:black; stroke-width:1" />
         <line x1="24.949848" y1="16.000000" x2="25.000000" y2="15.000000" style="fill:none; stroke:black; stroke-width:1" />
         <line x1="43.225113" y1="15.000000" x2="44.000000" y2="15.720546" style="fill:none; stroke:black; stroke-width:1" />
         <line x1="44.000000" y1="15.720546" x2="44.279453" y2="16.000000" style="fill:none; stroke:black; stroke-width:1" />
         <line x1="24.797609" y1="17.000000" x2="24.949848" y2="16.000000" style="fill:none; stroke:black; stroke-width:1" />
         <line x1="44.279453" y1="16.000000" x2="45.000000" y2="16.774889" style="fill:none; stroke:black; stroke-width:1" />
         <line x1="45.000000" y1="16.774889" x2="45.196537" y2="17.000000" style="fill:none; stroke:black; stroke-width:1" />
         <line x1="24.538208" y1="18.000000" x2="24.797609" y2="17.000000" style="fill:none; stroke:black; stroke-width:1" />
         <line x1="45.196537" y1="17.000000" x2="46.000000" y2="18.000000" style="fill:none; stroke:black; stroke-width:1" />
         <line x1="24.164022" y1="19.000000" x2="24.538208" y2="18.000000" style="fill:none; stroke:black; stroke-width:1" />
         <line x1="46.000000" y1="18.000000" x2="46.701363" y2="19.000000" style="fill:none; stroke:black; stroke-width:1" />
         <line x1="23.656902" y1="20.000000" x2="24.000000" y2="19.338297" style="fill:none; stroke:black; stroke-width:1" />
         <line x1="24.000000" y1="19.338297" x2="24.164022" y2="19.000000" style="fill:none; stroke:black; stroke-width:1" />
         <line x1="46.701363" y1="19.000000" x2="47.000000" y2="19.472916" style="fill:none; stroke:black; stroke-width:1" />
         <line x1="47.000000" y1="19.472916" x2="47.318962" y2="20.000000" style="fill:none; stroke:black; stroke-width:1" />
         <line x1="23.000000" y1="21.000000" x2="23.656902" y2="20.000000" style="fill:none; stroke:black; stroke-width:1" />
         <line x1="47.318962" y1="20.000000" x2="47.859867" y2="21.000000" style="fill:none; stroke:black; stroke-width:1" />
         <line x1="22.137556" y1="22.000000" x2="23.000000" y2="21.000000" style="fill:none; stroke:black; stroke-width:1" />
         <line x1="47.859867" y1="21.000000" x2="48.000000" y2="21.291901" style="fill:none; stroke:black; stroke-width:1" />
         <line x1="48.000000" y1="21.291901" x2="48.329353" y2="22.000000" style="fill:none; stroke:black; stroke-width:1" />
         <line x1="21.000000" y1="23.000000" x2="22.000000" y2="22.137556" style="fill:none; stroke:black; stroke-width:1" />
         <line x1="22.000000" y1="22.137556" x2="22.137556" y2="22.000000" style="fill:none; stroke:black; stroke-width:1" />
         <line x1="48.329353" y1="22.000000" x2="48.734341" y2="23.000000" style="fill:none; stroke:black; stroke-width:1" />
         <line x1="19.338297" y1="24.000000" x2="20.000000" y2="23.656902" style="fill:none; stroke:black; stroke-width:1" />
         <line x1="20.000000" y1="23.656902" x2="21.000000" y2="23.000000" style="fill:none; stroke:black; stroke-width:1" />
         <line x1="48.734341" y1="23.000000" x2="49.000000" y2="23.767794" style="fill:none; stroke:black; stroke-width:1" />
         <line x1="49.000000" y1="23.767794" x2="49.078621" y2="24.000000" style="fill:none; stroke:black; stroke-width:1" />
         <line x1="10.635452" y1="25.000000" x2="11.000000" y2="24.461220" style="fill:none; stroke:black; stroke-width:1" />
         <line x1="11.000000" y1="24.461220" x2="12.000000" y2="24.538208" style="fill:none; stroke:black; stroke-width:1" />
         <line x1="12.000000" y1="24.538208" x2="13.000000" y2="24.797609" style="fill:none; stroke:black; stroke-width:1" />
         <line x1="13.000000" y1="24.797609" x2="14.000000" y2="24.949848" style="fill:none; stroke:black; stroke-width:1" />
         <line x1="14.000000" y1="24.949848" x2="15.000000" y2="25.000000" style="fill:none; stroke:black; stroke-width:1" />
         <line x1="15.000000" y1="25.000000" x2="16.000000" y2="24.949848" style="fill:none; stroke:black; stroke-width:1" />
         <line x1="16.000000" y1="24.949848" x2="17.000000" y2="24.797609" style="fill:none; stroke:black; stroke-width:1" />
         <line x1="17.000000" y1="24.797609" x2="18.000000" y2="24.538208" style="fill:none; stroke:black; stroke-width:1" />
         <line x1="18.000000" y1="24.538208" x2="19.000000" y2="24.164022" style="fill:none; stroke:black; stroke-width:1" />
         <line x1="19.000000" y1="24.164022" x2="19.338297" y2="24.000000" style="fill:none; stroke:black; stroke-width:1" />
         <line x1="49.078621" y1="24.000000" x2="49.364548" y2="25.000000" style="fill:none; stroke:black; stroke-width:1" />
         <line x1="10.404331" y1="26.000000" x2="10.635452" y2="25.000000" style="fill:none; stroke:black; stroke-width:1" />
         <line x1="49.364548" y1="25.000000" x2="49.595669" y2="26.000000" style="fill:none; stroke:black; stroke-width:1" />
         <line x1="10.226383" y1="27.000000" x2="10.404331" y2="26.000000" style="fill:none; stroke:black; stroke-width:1" />
         <line x1="49.595669" y1="26.000000" x2="49.773617" y2="27.000000" style="fill:none; stroke:black; stroke-width:1" />
         <line x1="10.100274" y1="28.000000" x2="10.226383" y2="27.000000" style="fill:none; stroke:black; stroke-width:1" />
         <line x1="49.773617" y1="27.000000" x2="49.899727" y2="28.000000" style="fill:none; stroke:black; stroke-width:1" />
         <line x1="10.025017" y1="29.000000" x2="10.100274" y2="28.000000" style="fill:none; stroke:black; stroke-width:1" />
         <line x1="49.899727" y1="28.000000" x2="49.974983" y2="29.000000" style="fill:none; stroke:black; stroke-width:1" />
         <line x1="10.000000" y1="30.000000" x2="10.025017" y2="29.000000" style="fill:none; stroke:black; stroke-width:1" />
         <line x1="49.974983" y1="29.000000" x2="50.000000" y2="30.000000" style="fill:none; stroke:black; stroke-width:1" />
         <line x1="10.025017" y1="31.000000" x2="10.000000" y2="30.000000" style="fill:none; stroke:black; stroke-width:1" />
         <line x1="50.000000" y1="30.000000" x2="49.974983" y2="31.000000" style="fill:none; stroke:black; stroke-width:1" />
         <line x1="10.100274" y1="32.000000" x2="10.025017" y2="31.000000" style="fill:none; stroke:black; stroke-width:1" />
         <line x1="49.974983" y1="31.000000" x2="49.899727" y2="32.000000" style="fill:none; stroke:black; stroke-width:1" />
         <line x1="10.226383" y1="33.000000" x2="10.100274" y2="32.000000" style="fill:none; stroke:black; stroke-width:1" />
         <line x1="49.899727" y1="32.000000" x2="49.773617" y2="33.000000" style="fill:none; stroke:black; stroke-width:1" />
         <line x1="10.404331" y1="34.000000" x2="10.226383" y2="33.000000" style="fill:none; stroke:black; stroke-width:1" />
         <line x1="49.773617" y1="33.000000" x2="49.595669" y2="34.000000" style="fill:none; stroke:black; stroke-width:1" />
         <line x1="10.635452" y1="35.000000" x2="10.404331" y2="34.000000" style="fill:none; stroke:black; stroke-width:1" />
         <line x1="49.595669" y1="34.000000" x2="49.364548" y2="35.000000" style="fill:none; stroke:black; stroke-width:1" />
         <line x1="10.921379" y1="36.000000" x2="10.635452" y2="35.000000" style="fill:none; stroke:black; stroke-width:1" />
         <line x1="49.364548" y1="35.000000" x2="49.078621" y2="36.000000" style="fill:none; stroke:black; stroke-width:1" />
         <line x1="11.000000" y1="36.232208" x2="10.921379" y2="36.000000" style="fill:none; stroke:black; stroke-width:1" />
         <line x1="11.265658" y1="37.000000" x2="11.000000" y2="36.232208" style="fill:none; stroke:black; stroke-width:1" />
         <line x1="49.000000" y1="36.232208" x2="48.734341" y2="37.000000" style="fill:none; stroke:black; stroke-width:1" />
         <line x1="49.078621" y1="36.000000" x2="49.000000" y2="36.232208" style="fill:none; stroke:black; stroke-width:1" />
         <line x1="11.670647" y1="38.000000" x2="11.265658" y2="37.000000" style="fill:none; stroke:black; stroke-width:1" />
         <line x1="48.734341" y1="37.000000" x2="48.329353" y2="38.000000" style="fill:none; stroke:black; stroke-width:1" />
         <line x1="12.000000" y1="38.708099" x2="11.670647" y2="38.000000" style="fill:none; stroke:black; stroke-width:1" />
         <line x1="12.140134" y1="39.000000" x2="12.000000" y2="38.708099" style="fill:none; stroke:black; stroke-width:1" />
         <line x1="48.000000" y1="38.708099" x2="47.859867" y2="39.000000" style="fill:none; stroke:black; stroke-width:1" />
         <line x1="48.329353" y1="38.000000" x2="48.000000" y2="38.708099" style="fill:none; stroke:black; stroke-width:1" />
         <line x1="12.681037" y1="40.000000" x2="12.140134" y2="39.000000" style="fill:none; stroke:black; stroke-width:1" />
         <line x1="47.859867" y1="39.000000" x2="47.318962" y2="40.000000" style="fill:none; stroke:black; stroke-width:1" />
         <line x1="13.000000" y1="40.527084" x2="12.681037" y2="40.000000" style="fill:none; stroke:black; stroke-width:1" />
         <line x1="13.298637" y1="41.000000" x2="13.000000" y2="40.527084" style="fill:none; stroke:black; stroke-width:1" />
         <line x1="47.000000" y1="40.527084" x2="46.701363" y2="41.000000" style="fill:none; stroke:black; stroke-width:1" />
         <line x1="47.318962" y1="40.000000" x2="47.000000" y2="40.527084" style="fill:none; stroke:black; stroke-width:1" />
         <line x1="14.000000" y1="42.000000" x2="13.298637" y2="41.000000" style="fill:none; stroke:black; stroke-width:1" />
         <line x1="46.701363" y1="41.000000" x2="46.000000" y2="42.000000" style="fill:none; stroke:black; stroke-width:1" />
         <line x1="14.803463" y1="43.000000" x2="14.000000" y2="42.000000" style="fill:none; stroke:black; stroke-width:1" />
         <line x1="46.000000" y1="42.000000" x2="45.196537" y2="43.000000" style="fill:none; stroke:black; stroke-width:1" />
         <line x1="15.000000" y1="43.225113" x2="14.803463" y2="43.000000" style="fill:none; stroke:black; stroke-width:1" />
         <line x1="15.720546" y1="44.000000" x2="15.000000" y2="43.225113" style="fill:none; stroke:black; stroke-width:1" />
         <line x1="45.000000" y1="43.225113" x2="44.279453" y2="44.000000" style="fill:none; stroke:black; stroke-width:1" />
         <line x1="45.196537" y1="43.000000" x2="45.000000" y2="43.225113" style="fill:none; stroke:black; stroke-width:1" />
         <line x1="16.000000" y1="44.279453" x2="15.720546" y2="44.000000" style="fill:none; stroke:black; stroke-width:1" />
         <line x1="16.774889" y1="45.000000" x2="16.000000" y2="44.279453" style="fill:none; stroke:black; stroke-width:1" />
         <line x1="44.000000" y1="44.279453" x2="43.225113" y2="45.000000" style="fill:none; stroke:black; stroke-width:1" />
         <line x1="44.279453" y1="44.000000" x2="44.000000" y2="44.279453" style="fill:none; stroke:black; stroke-width:1" />
         <line x1="17.000000" y1="45.196537" x2="16.774889" y2="45.000000" style="fill:none; stroke:black; stroke-width:1" />
         <line x1="18.000000" y1="46.000000" x2="17.000000" y2="45.196537" style="fill:none; stroke:black; stroke-width:1" />
         <line x1="43.000000" y1="45.196537" x2="42.000000" y2="46.000000" style="fill:none; stroke:black; stroke-width:1" />
         <line x1="43.225113" y1="45.000000" x2="43.000000" y2="45.196537" style="fill:none; stroke:black; stroke-width:1" />
         <line x1="19.000000" y1="46.701363" x2="18.000000" y2="46.000000" style="fill:none; stroke:black; stroke-width:1" />
         <line x1="19.472916" y1="47.000000" x2="19.000000" y2="46.701363" style="fill:none; stroke:black; stroke-width:1" />
         <line x1="41.000000" y1="46.701363" x2="40.527084" y2="47.000000" style="fill:none; stroke:black; stroke-width:1" />
         <line x1="42.000000" y1="46.000000" x2="41.000000" y2="46.701363" style="fill:none; stroke:black; stroke-width:1" />
         <line x1="20.000000" y1="47.318962" x2="19.472916" y2="47.000000" style="fill:none; stroke:black; stroke-width:1" />
         <line x1="21.000000" y1="47.859867" x2="20.000000" y2="47.318962" style="fill:none; stroke:black; stroke-width:1" />
         <line x1="21.291901" y1="48.000000" x2="21.000000" y2="47.859867" style="fill:none; stroke:black; stroke-width:1" />
         <line x1="39.000000" y1="47.859867" x2="38.708099" y2="48.000000" style="fill:none; stroke:black; stroke-width:1" />
         <line x1="40.000000" y1="47.318962" x2="39.000000" y2="47.859867" style="fill:none; stroke:black; stroke-width:1" />
         <line x1="40.527084" y1="47.000000" x2="40.000000" y2="47.318962" style="fill:none; stroke:black; stroke-width:1" />
         <line x1="22.000000" y1="48.329353" x2="21.291901" y2="48.000000" style="fill:none; stroke:black; stroke-width:1" />
         <line x1="23.000000" y1="48.734341" x2="22.000000" y2="48.329353" style="fill:none; stroke:black; stroke-width:1" />
         <line x1="23.767794" y1="49.000000" x2="23.000000" y2="48.734341" style="fill:none; stroke:black; stroke-width:1" />
         <line x1="37.000000" y1="48.734341" x2="36.232208" y2="49.000000" style="fill:none; stroke:black; stroke-width:1" />
         <line x1="38.000000" y1="48.329353" x2="37.000000" y2="48.734341" style="fill:none; stroke:black; stroke-width:1" />
         <line x1="38.708099" y1="48.000000" x2="38.000000" y2="48.329353" style="fill:none; stroke:black; stroke-width:1" />
         <line x1="24.000000" y1="49.078621" x2="23.767794" y2="49.000000" style="fill:none; stroke:black; stroke-width:1" />
         <line x1="25.000000" y1="49.364548" x2="24.000000" y2="49.078621" style="fill:none; stroke:black; stroke-width:1" />
         <line x1="26.000000" y1="49.595669" x2="25.000000" y2="49.364548" style="fill:none; stroke:black; stroke-width:1" />
         <line x1="27.000000" y1="49.773617" x2="26.000000" y2="49.595669" style="fill:none; stroke:black; stroke-width:1" />
         <line x1="28.000000" y1="49.899727" x2="27.000000" y2="49.773617" style="fill:none; stroke:black; stroke-width:1" />
         <line x1="29.000000" y1="49.974983" x2="28.000000" y2="49.899727" style="fill:none; stroke:black; stroke-width:1" />
         <line x1="30.000000" y1="50.000000" x2="29.000000" y2="49.974983" style="fill:none; stroke:black; stroke-width:1" />
         <line x1="31.000000" y1="49.974983" x2="30.000000" y2="50.000000" style="fill:none; stroke:black; stroke-width:1" />
         <line x1="32.000000" y1="49.899727" x2="31.000000" y2="49.974983" style="fill:none; stroke:black; stroke-width:1" />
         <line x1="33.000000" y1="49.773617" x2="32.000000" y2="49.899727" style="fill:none; stroke:black; stroke-width:1" />
         <line x1="34.000000" y1="49.595669" x2="33.000000" y2="49.773617" style="fill:none; stroke:black; stroke-width:1" />
         <line x1="35.000000" y1="49.364548" x2="34.000000" y2="49.595669" style="fill:none; stroke:black; stroke-width:1" />
         <line x1="36.000000" y1="49.078621" x2="35.000000" y2="49.364548" style="fill:none; stroke:black; stroke-width:1" />
         <line x1="36.232208" y1="49.000000" x2="36.000000" y2="49.078621" style="fill:none; stroke:black; stroke-width:1" />
        </svg>