<svg xmlns="http://www.w3.org/2000/svg" viewbox="0 0 88 88">
<path fill-rule="evenodd" d="
 M30.000000 10.000000
 L30.000000 10.000000
 L31.000000 10.025017
 L32.000000 10.100274
 L33.000000 10.226383
 L34.000000 10.404331
 L35.000000 10.635452
 L36.000000 10.921379
 L36.232208 11.000000
 L37.000000 11.265658
 L38.000000 11.670647
 L38.708099 12.000000
 L39.000000 12.140134
 L40.000000 12.681037
 L40.527084 13.000000
 L41.000000 13.298637
 L42.000000 14.000000
 L43.000000 14.803463
 L43.225113 15.000000
 L44.000000 15.720546
 L44.279453 16.000000
 L45.000000 16.774889
 L45.196537 17.000000
 L46.000000 18.000000
 L46.701363 19.000000
 L47.000000 19.472916
 L47.318962 20.000000
 L47.859867 21.000000
 L48.000000 21.291901
 L48.329353 22.000000
 L48.734341 23.000000
 L49.000000 23.767794
 L49.078621 24.000000
 L49.364548 25.000000
 L49.595669 26.000000
 L49.773617 27.000000
 L49.899727 28.000000
 L49.974983 29.000000
 L50.000000 30.000000
 L49.974983 31.000000
 L49.899727 32.000000
 L49.773617 33.000000
 L49.595669 34.000000
 L49.364548 35.000000
 L49.078621 36.000000
 L49.000000 36.232208
 L48.734341 37.000000
 L48.329353 38.000000
 L48.000000 38.708099
 L47.859867 39.000000
 L47.318962 40.000000
 L47.000000 40.527084
 L46.701363 41.000000
 L46.000000 42.000000
 L45.196537 43.000000
 L45.000000 43.225113
 L44.279453 44.000000
 L44.000000 44.279453
 L43.225113 45.000000
 L43.000000 45.196537
 L42.000000 46.000000
 L41.000000 46.701363
 L40.527084 47.000000
 L40.000000 47.318962
 L39.000000 47.859867
 L38.708099 48.000000
 L38.000000 48.329353
 L37.000000 48.734341
 L36.232208 49.000000
 L36.000000 49.078621
 L35.000000 49.364548
 L34.000000 49.595669
 L33.000000 49.773617
 L32.000000 49.899727
 L31.000000 49.974983
 L30.000000 50.000000
 L29.000000 49.974983
 L28.000000 49.899727
 L27.000000 49.773617
 L26.000000 49.595669
 L25.000000 49.364548
 L24.000000 49.078621
 L23.767794 49.000000
 L23.000000 48.734341
 L22.000000 48.329353
 L21.291901 48.000000
 L21.000000 47.859867
 L20.000000 47.318962
 L19.472916 47.000000
 L19.000000 46.701363
 L18.000000 46.000000
 L17.000000 45.196537
 L16.774889 45.000000
 L16.000000 44.279453
 L15.720546 44.000000
 L15.000000 43.225113
 L14.803463 43.000000
 L14.000000 42.000000
 L13.298637 41.000000
 L13.000000 40.527084
 L12.681037 40.000000
 L12.140134 39.000000
 L12.000000 38.708099
 L11.670647 38.000000
 L11.265658 37.000000
 L11.000000 36.232208
 L10.921379 36.000000
 L10.635452 35.000000
 L10.404331 34.000000
 L10.226383 33.000000
 L10.100274 32.000000
 L10.025017 31.000000
 L10.000000 30.000000
 L10.025017 29.000000
 L10.100274 28.000000
 L10.226383 27.000000
 L10.404331 26.000000
 L10.635452 25.000000
 L11.000000 24.461220
 L12.000000 24.538208
 L13.000000 24.797609
 L14.000000 24.949848
 L15.000000 25.000000
 L16.000000 24.949848
 L17.000000 24.797609
 L18.000000 24.538208
 L19.000000 24.164022
 L19.338297 24.000000
 L20.000000 23.656902
 L21.000000 23.000000
 L22.000000 22.137556
 L22.137556 22.000000
 L23.000000 21.000000
 L23.656902 20.000000
 L24.000000 19.338297
 L24.164022 19.000000
 L24.538208 18.000000
 L24.797609 17.000000
 L24.949848 16.000000
 L25.000000 15.000000
 L24.949848 14.000000
 L24.797609 13.000000
 L24.538208 12.000000
 L24.461220 11.000000
 L25.000000 10.635452
 L26.000000 10.404331
 L27.000000 10.226383
 L28.000000 10.100274
 Z
 " style="fill:black; stroke:none; stroke-width:0"></path>
</svg>
