<svg xmlns="http://www.w3.org/2000/svg" viewbox="0 0 88 88">
<path fill-rule="evenodd" d="
 M29.000000 10.025017
 L29.000000 10.025017
 L30.000000 10.000000
 L31.000000 10.025017
 L32.000000 10.100274
 L33.000000 10.226383
 L34.000000 10.404331
 L35.000000 10.635452
 L36.000000 10.921379
 L36.232208 11.000000
 L37.000000 11.265658
 L38.000000 11.670647
 L38.708099 12.000000
 L39.000000 12.140134
 L40.000000 12.681037
 L40.527084 13.000000
 L41.000000 13.298637
 L42.000000 14.000000
 L43.000000 14.803463
 L43.225113 15.000000
 L44.000000 15.720546
 L44.279453 16.000000
 L45.000000 16.774889
 L45.196537 17.000000
 L46.000000 18.000000
 L46.701363 19.000000
 L47.000000 19.472916
 L47.318962 20.000000
 L47.859867 21.000000
 L48.000000 21.291901
 L48.708099 22.000000
 L49.000000 22.140135
 L50.000000 22.681038
 L50.527084 23.000000
 L51.000000 23.298637
 L52.000000 24.000000
 L53.000000 24.803463
 L53.225113 25.000000
 L54.000000 25.720545
 L54.279453 26.000000
 L55.000000 26.774889
 L55.196537 27.000000
 L56.000000 28.000000
 L56.701363 29.000000
 L57.000000 29.472916
 L57.318962 30.000000
 L57.859867 31.000000
 L58.000000 31.291901
 L58.329353 32.000000
 L58.734341 33.000000
 L59.000000 33.767792
 L59.078621 34.000000
 L59.364548 35.000000
 L59.595669 36.000000
 L59.773617 37.000000
 L59.899727 38.000000
 L59.974983 39.000000
 L60.000000 40.000000
 L59.974983 41.000000
 L59.899727 42.000000
 L59.773617 43.000000
 L59.595669 44.000000
 L59.364548 45.000000
 L59.078621 46.000000
 L59.000000 46.232208
 L58.734341 47.000000
 L58.329353 48.000000
 L58.000000 48.708099
 L57.859867 49.000000
 L57.318962 50.000000
 L57.000000 50.527084
 L56.701363 51.000000
 L56.000000 52.000000
 L55.196537 53.000000
 L55.000000 53.225113
 L54.279453 54.000000
 L54.000000 54.279453
 L53.225113 55.000000
 L53.000000 55.196537
 L52.000000 56.000000
 L51.000000 56.701363
 L50.527084 57.000000
 L50.000000 57.318962
 L49.000000 57.859867
 L48.708099 58.000000
 L48.000000 58.329353
 L47.000000 58.734341
 L46.232208 59.000000
 L46.000000 59.078621
 L45.000000 59.364548
 L44.000000 59.595669
 L43.000000 59.773617
 L42.000000 59.899727
 L41.000000 59.974983
 L40.000000 60.000000
 L39.000000 59.974983
 L38.000000 59.899727
 L37.000000 59.773617
 L36.000000 59.595669
 L35.000000 59.364548
 L34.000000 59.078621
 L33.767792 59.000000
 L33.000000 58.734341
 L32.000000 58.329353
 L31.291901 58.000000
 L31.000000 57.859867
 L30.000000 57.318962
 L29.472916 57.000000
 L29.000000 56.701363
 L28.000000 56.000000
 L27.000000 55.196537
 L26.774889 55.000000
 L26.000000 54.279453
 L25.720545 54.000000
 L25.000000 53.225113
 L24.803463 53.000000
 L24.000000 52.000000
 L23.298637 51.000000
 L23.000000 50.527084
 L22.681038 50.000000
 L22.140135 49.000000
 L22.000000 48.708099
 L21.291901 48.000000
 L21.000000 47.859867
 L20.000000 47.318962
 L19.472916 47.000000
 L19.000000 46.701363
 L18.000000 46.000000
 L17.000000 45.196537
 L16.774889 45.000000
 L16.000000 44.279453
 L15.720546 44.000000
 L15.000000 43.225113
 L14.803463 43.000000
 L14.000000 42.000000
 L13.298637 41.000000
 L13.000000 40.527084
 L12.681037 40.000000
 L12.140134 39.000000
 L12.000000 38.708099
 L11.670647 38.000000
 L11.265658 37.000000
 L11.000000 36.232208
 L10.921379 36.000000
 L10.635452 35.000000
 L10.404331 34.000000
 L10.226383 33.000000
 L10.100274 32.000000
 L10.025017 31.000000
 L10.000000 30.000000
 L10.025017 29.000000
 L10.100274 28.000000
 L10.226383 27.000000
 L10.404331 26.000000
 L10.635452 25.000000
 L10.921379 24.000000
 L11.000000 23.767794
 L11.265658 23.000000
 L11.670647 22.000000
 L12.000000 21.291901
 L12.140134 21.000000
 L12.681037 20.000000
 L13.000000 19.472916
 L13.298637 19.000000
 L14.000000 18.000000
 L14.803463 17.000000
 L15.000000 16.774889
 L15.720546 16.000000
 L16.000000 15.720546
 L16.774889 15.000000
 L17.000000 14.803463
 L18.000000 14.000000
 L19.000000 13.298637
 L19.472916 13.000000
 L20.000000 12.681037
 L21.000000 12.140134
 L21.291901 12.000000
 L22.000000 11.670647
 L23.000000 11.265658
 L23.767794 11.000000
 L24.000000 10.921379
 L25.000000 10.635452
 L26.000000 10.404331
 L27.000000 10.226383
 Z
 " style="fill:black; stroke:none; stroke-width:0"></path>
</svg>
