<svg xmlns="http://www.w3.org/2000/svg" viewBox="0.000000 0.000000 88.000000 88.000000">
<line x1="23.767794" y1="11.000000" x2="24.000000" y2="10.921379" style="fill:none; stroke:black; stroke-width:1" />
<line x1="24.000000" y1="10.921379" x2="25.000000" y2="10.635452" style="fill:none; stroke:black; stroke-width:1" />
<line x1="25.000000" y1="10.635452" x2="26.000000" y2="10.404331" style="fill:none; stroke:black; stroke-width:1" />
<line x1="26.000000" y1="10.404331" x2="27.000000" y2="10.226383" style="fill:none; stroke:black; stroke-width:1" />
<line x1="27.000000" y1="10.226383" x2="28.000000" y2="10.100274" style="fill:none; stroke:black; stroke-width:1" />
<line x1="28.000000" y1="10.100274" x2="29.000000" y2="10.025017" style="fill:none; stroke:black; stroke-width:1" />
<line x1="29.000000" y1="10.025017" x2="30.000000" y2="10.000000" style="fill:none; stroke:black; stroke-width:1" />
<line x1="30.000000" y1="10.000000" x2="31.000000" y2="10.025017" style="fill:none; stroke:black; stroke-width:1" />
<line x1="31.000000" y1="10.025017" x2="32.000000" y2="10.100274" style="fill:none; stroke:black; stroke-width:1" />
<line x1="32.000000" y1="10.100274" x2="33.000000" y2="10.226383" style="fill:none; stroke:black; stroke-width:1" />
<line x1="33.000000" y1="10.226383" x2="34.000000" y2="10.404331" style="fill:none; stroke:black; stroke-width:1" />
<line x1="34.000000" y1="10.404331" x2="35.000000" y2="10.635452" style="fill:none; stroke:black; stroke-width:1" />
<line x1="35.000000" y1="10.635452" x2="36.000000" y2="10.921379" style="fill:none; stroke:black; stroke-width:1" />
<line x1="36.000000" y1="10.921379" x2="36.232208" y2="11.000000" style="fill:none; stroke:black; stroke-width:1" />
<line x1="21.291901" y1="12.000000" x2="22.000000" y2="11.670647" style="fill:none; stroke:black; stroke-width:1" />
<line x1="22.000000" y1="11.670647" x2="23.000000" y2="11.265658" style="fill:none; stroke:black; stroke-width:1" />
<line x1="23.000000" y1="11.265658" x2="23.767794" y2="11.000000" style="fill:none; stroke:black; stroke-width:1" />
<line x1="36.232208" y1="11.000000" x2="37.000000" y2="11.265658" style="fill:none; stroke:black; stroke-width:1" />
<line x1="37.000000" y1="11.265658" x2="38.000000" y2="11.670647" style="fill:none; stroke:black; stroke-width:1" />
<line x1="38.000000" y1="11.670647" x2="38.708099" y2="12.000000" style="fill:none; stroke:black; stroke-width:1" />
<line x1="19.472916" y1="13.000000" x2="20.000000" y2="12.681037" style="fill:none; stroke:black; stroke-width:1" />
<line x1="20.000000" y1="12.681037" x2="21.000000" y2="12.140134" style="fill:none; stroke:black; stroke-width:1" />
<line x1="21.000000" y1="12.140134" x2="21.291901" y2="12.000000" style="fill:none; stroke:black; stroke-width:1" />
<line x1="38.708099" y1="12.000000" x2="39.000000" y2="12.140134" style="fill:none; stroke:black; stroke-width:1" />
<line x1="39.000000" y1="12.140134" x2="40.000000" y2="12.681037" style="fill:none; stroke:black; stroke-width:1" />
<line x1="40.000000" y1="12.681037" x2="40.527084" y2="13.000000" style="fill:none; stroke:black; stroke-width:1" />
<line x1="18.000000" y1="14.000000" x2="19.000000" y2="13.298637" style="fill:none; stroke:black; stroke-width:1" />
<line x1="19.000000" y1="13.298637" x2="19.472916" y2="13.000000" style="fill:none; stroke:black; stroke-width:1" />
<line x1="40.527084" y1="13.000000" x2="41.000000" y2="13.298637" style="fill:none; stroke:black; stroke-width:1" />
<line x1="41.000000" y1="13.298637" x2="42.000000" y2="14.000000" style="fill:none; stroke:black; stroke-width:1" />
<line x1="16.774889" y1="15.000000" x2="17.000000" y2="14.803463" style="fill:none; stroke:black; stroke-width:1" />
<line x1="17.000000" y1="14.803463" x2="18.000000" y2="14.000000" style="fill:none; stroke:black; stroke-width:1" />
<line x1="42.000000" y1="14.000000" x2="43.000000" y2="14.803463" style="fill:none; stroke:black; stroke-width:1" />
<line x1="43.000000" y1="14.803463" x2="43.225113" y2="15.000000" style="fill:none; stroke:black; stroke-width:1" />
<line x1="15.720546" y1="16.000000" x2="16.000000" y2="15.720546" style="fill:none; stroke:black; stroke-width:1" />
<line x1="16.000000" y1="15.720546" x2="16.774889" y2="15.000000" style="fill:none; stroke:black; stroke-width:1" />
<line x1="43.225113" y1="15.000000" x2="44.000000" y2="15.720546" style="fill:none; stroke:black; stroke-width:1" />
<line x1="44.000000" y1="15.720546" x2="44.279453" y2="16.000000" style="fill:none; stroke:black; stroke-width:1" />
<line x1="14.803463" y1="17.000000" x2="15.000000" y2="16.774889" style="fill:none; stroke:black; stroke-width:1" />
<line x1="15.000000" y1="16.774889" x2="15.720546" y2="16.000000" style="fill:none; stroke:black; stroke-width:1" />
<line x1="44.279453" y1="16.000000" x2="45.000000" y2="16.774889" style="fill:none; stroke:black; stroke-width:1" />
<line x1="45.000000" y1="16.774889" x2="45.196537" y2="17.000000" style="fill:none; stroke:black; stroke-width:1" />
<line x1="14.000000" y1="18.000000" x2="14.803463" y2="17.000000" style="fill:none; stroke:black; stroke-width:1" />
<line x1="45.196537" y1="17.000000" x2="46.000000" y2="18.000000" style="fill:none; stroke:black; stroke-width:1" />
<line x1="13.298637" y1="19.000000" x2="14.000000" y2="18.000000" style="fill:none; stroke:black; stroke-width:1" />
<line x1="46.000000" y1="18.000000" x2="46.701363" y2="19.000000" style="fill:none; stroke:black; stroke-width:1" />
<line x1="12.681037" y1="20.000000" x2="13.000000" y2="19.472916" style="fill:none; stroke:black; stroke-width:1" />
<line x1="13.000000" y1="19.472916" x2="13.298637" y2="19.000000" style="fill:none; stroke:black; stroke-width:1" />
<line x1="46.701363" y1="19.000000" x2="47.000000" y2="19.472916" style="fill:none; stroke:black; stroke-width:1" />
<line x1="47.000000" y1="19.472916" x2="47.318962" y2="20.000000" style="fill:none; stroke:black; stroke-width:1" />
<line x1="12.140134" y1="21.000000" x2="12.681037" y2="20.000000" style="fill:none; stroke:black; stroke-width:1" />
<line x1="47.318962" y1="20.000000" x2="47.859867" y2="21.000000" style="fill:none; stroke:black; stroke-width:1" />
<line x1="11.670647" y1="22.000000" x2="12.000000" y2="21.291901" style="fill:none; stroke:black; stroke-width:1" />
<line x1="12.000000" y1="21.291901" x2="12.140134" y2="21.000000" style="fill:none; stroke:black; stroke-width:1" />
<line x1="47.859867" y1="21.000000" x2="48.000000" y2="21.291901" style="fill:none; stroke:black; stroke-width:1" />
<line x1="48.000000" y1="21.291901" x2="48.708099" y2="22.000000" style="fill:none; stroke:black; stroke-width:1" />
<line x1="11.265658" y1="23.000000" x2="11.670647" y2="22.000000" style="fill:none; stroke:black; stroke-width:1" />
<line x1="48.708099" y1="22.000000" x2="49.000000" y2="22.140135" style="fill:none; stroke:black; stroke-width:1" />
<line x1="49.000000" y1="22.140135" x2="50.000000" y2="22.681038" style="fill:none; stroke:black; stroke-width:1" />
<line x1="50.000000" y1="22.681038" x2="50.527084" y2="23.000000" style="fill:none; stroke:black; stroke-width:1" />
<line x1="10.921379" y1="24.000000" x2="11.000000" y2="23.767794" style="fill:none; stroke:black; stroke-width:1" />
<line x1="11.000000" y1="23.767794" x2="11.265658" y2="23.000000" style="fill:none; stroke:black; stroke-width:1" />
<line x1="50.527084" y1="23.000000" x2="51.000000" y2="23.298637" style="fill:none; stroke:black; stroke-width:1" />
<line x1="51.000000" y1="23.298637" x2="52.000000" y2="24.000000" style="fill:none; stroke:black; stroke-width:1" />
<line x1="10.635452" y1="25.000000" x2="10.921379" y2="24.000000" style="fill:none; stroke:black; stroke-width:1" />
<line x1="52.000000" y1="24.000000" x2="53.000000" y2="24.803463" style="fill:none; stroke:black; stroke-width:1" />
<line x1="53.000000" y1="24.803463" x2="53.225113" y2="25.000000" style="fill:none; stroke:black; stroke-width:1" />
<line x1="10.404331" y1="26.000000" x2="10.635452" y2="25.000000" style="fill:none; stroke:black; stroke-width:1" />
<line x1="53.225113" y1="25.000000" x2="54.000000" y2="25.720545" style="fill:none; stroke:black; stroke-width:1" />
<line x1="54.000000" y1="25.720545" x2="54.279453" y2="26.000000" style="fill:none; stroke:black; stroke-width:1" />
<line x1="10.226383" y1="27.000000" x2="10.404331" y2="26.000000" style="fill:none; stroke:black; stroke-width:1" />
<line x1="54.279453" y1="26.000000" x2="55.000000" y2="26.774889" style="fill:none; stroke:black; stroke-width:1" />
<line x1="55.000000" y1="26.774889" x2="55.196537" y2="27.000000" style="fill:none; stroke:black; stroke-width:1" />
<line x1="10.100274" y1="28.000000" x2="10.226383" y2="27.000000" style="fill:none; stroke:black; stroke-width:1" />
<line x1="55.196537" y1="27.000000" x2="56.000000" y2="28.000000" style="fill:none; stroke:black; stroke-width:1" />
<line x1="10.025017" y1="29.000000" x2="10.100274" y2="28.000000" style="fill:none; stroke:black; stroke-width:1" />
<line x1="56.000000" y1="28.000000" x2="56.701363" y2="29.000000" style="fill:none; stroke:black; stroke-width:1" />
<line x1="10.000000" y1="30.000000" x2="10.025017" y2="29.000000" style="fill:none; stroke:black; stroke-width:1" />
<line x1="56.701363" y1="29.000000" x2="57.000000" y2="29.472916" style="fill:none; stroke:black; stroke-width:1" />
<line x1="57.000000" y1="29.472916" x2="57.318962" y2="30.000000" style="fill:none; stroke:black; stroke-width:1" />
<line x1="10.025017" y1="31.000000" x2="10.000000" y2="30.000000" style="fill:none; stroke:black; stroke-width:1" />
<line x1="57.318962" y1="30.000000" x2="57.859867" y2="31.000000" style="fill:none; stroke:black; stroke-width:1" />
<line x1="10.100274" y1="32.000000" x2="10.025017" y2="31.000000" style="fill:none; stroke:black; stroke-width:1" />
<line x1="57.859867" y1="31.000000" x2="58.000000" y2="31.291901" style="fill:none; stroke:black; stroke-width:1" />
<line x1="58.000000" y1="31.291901" x2="58.329353" y2="32.000000" style="fill:none; stroke:black; stroke-width:1" />
<line x1="10.226383" y1="33.000000" x2="10.100274" y2="32.000000" style="fill:none; stroke:black; stroke-width:1" />
<line x1="58.329353" y1="32.000000" x2="58.734341" y2="33.000000" style="fill:none; stroke:black; stroke-width:1" />
<line x1="10.404331" y1="34.000000" x2="10.226383" y2="33.000000" style="fill:none; stroke:black; stroke-width:1" />
<line x1="58.734341" y1="33.000000" x2="59.000000" y2="33.767792" style="fill:none; stroke:black; stroke-width:1" />
<line x1="59.000000" y1="33.767792" x2="59.078621" y2="34.000000" style="fill:none; stroke:black; stroke-width:1" />
<line x1="10.635452" y1="35.000000" x2="10.404331" y2="34.000000" style="fill:none; stroke:black; stroke-width:1" />
<line x1="59.078621" y1="34.000000" x2="59.364548" y2="35.000000" style="fill:none; stroke:black; stroke-width:1" />
<line x1="10.921379" y1="36.000000" x2="10.635452" y2="35.000000" style="fill:none; stroke:black; stroke-width:1" />
<line x1="59.364548" y1="35.000000" x2="59.595669" y2="36.000000" style="fill:none; stroke:black; stroke-width:1" />
<line x1="11.000000" y1="36.232208" x2="10.921379" y2="36.000000" style="fill:none; stroke:black; stroke-width:1" />
<line x1="11.265658" y1="37.000000" x2="11.000000" y2="36.232208" style="fill:none; stroke:black; stroke-width:1" />
<line x1="59.595669" y1="36.000000" x2="59.773617" y2="37.000000" style="fill:none; stroke:black; stroke-width:1" />
<line x1="11.670647" y1="38.000000" x2="11.265658" y2="37.000000" style="fill:none; stroke:black; stroke-width:1" />
<line x1="59.773617" y1="37.000000" x2="59.899727" y2="38.000000" style="fill:none; stroke:black; stroke-width:1" />
<line x1="12.000000" y1="38.708099" x2="11.670647" y2="38.000000" style="fill:none; stroke:black; stroke-width:1" />
<line x1="12.140134" y1="39.000000" x2="12.000000" y2="38.708099" style="fill:none; stroke:black; stroke-width:1" />
<line x1="59.899727" y1="38.000000" x2="59.974983" y2="39.000000" style="fill:none; stroke:black; stroke-width:1" />
<line x1="12.681037" y1="40.000000" x2="12.140134" y2="39.000000" style="fill:none; stroke:black; stroke-width:1" />
<line x1="59.974983" y1="39.000000" x2="60.000000" y2="40.000000" style="fill:none; stroke:black; stroke-width:1" />
<line x1="13.000000" y1="40.527084" x2="12.681037" y2="40.000000" style="fill:none; stroke:black; stroke-width:1" />
<line x1="13.298637" y1="41.000000" x2="13.000000" y2="40.527084" style="fill:none; stroke:black; stroke-width:1" />
<line x1="60.000000" y1="40.000000" x2="59.974983" y2="41.000000" style="fill:none; stroke:black; stroke-width:1" />
<line x1="14.000000" y1="42.000000" x2="13.298637" y2="41.000000" style="fill:none; stroke:black; stroke-width:1" />
<line x1="59.974983" y1="41.000000" x2="59.899727" y2="42.000000" style="fill:none; stroke:black; stroke-width:1" />
<line x1="14.803463" y1="43.000000" x2="14.000000" y2="42.000000" style="fill:none; stroke:black; stroke-width:1" />
<line x1="59.899727" y1="42.000000" x2="59.773617" y2="43.000000" style="fill:none; stroke:black; stroke-width:1" />
<line x1="15.000000" y1="43.225113" x2="14.803463" y2="43.000000" style="fill:none; stroke:black; stroke-width:1" />
<line x1="15.720546" y1="44.000000" x2="15.000000" y2="43.225113" style="fill:none; stroke:black; stroke-width:1" />
<line x1="59.773617" y1="43.000000" x2="59.595669" y2="44.000000" style="fill:none; stroke:black; stroke-width:1" />
<line x1="16.000000" y1="44.279453" x2="15.720546" y2="44.000000" style="fill:none; stroke:black; stroke-width:1" />
<line x1="16.774889" y1="45.000000" x2="16.000000" y2="44.279453" style="fill:none; stroke:black; stroke-width:1" />
<line x1="59.595669" y1="44.000000" x2="59.364548" y2="45.000000" style="fill:none; stroke:black; stroke-width:1" />
<line x1="17.000000" y1="45.196537" x2="16.774889" y2="45.000000" style="fill:none; stroke:black; stroke-width:1" />
<line x1="18.000000" y1="46.000000" x2="17.000000" y2="45.196537" style="fill:none; stroke:black; stroke-width:1" />
<line x1="59.364548" y1="45.000000" x2="59.078621" y2="46.000000" style="fill:none; stroke:black; stroke-width:1" />
<line x1="19.000000" y1="46.701363" x2="18.000000" y2="46.000000" style="fill:none; stroke:black; stroke-width:1" />
<line x1="19.472916" y1="47.000000" x2="19.000000" y2="46.701363" style="fill:none; stroke:black; stroke-width:1" />
<line x1="59.000000" y1="46.232208" x2="58.734341" y2="47.000000" style="fill:none; stroke:black; stroke-width:1" />
<line x1="59.078621" y1="46.000000" x2="59.000000" y2="46.232208" style="fill:none; stroke:black; stroke-width:1" />
<line x1="20.000000" y1="47.318962" x2="19.472916" y2="47.000000" style="fill:none; stroke:black; stroke-width:1" />
<line x1="21.000000" y1="47.859867" x2="20.000000" y2="47.318962" style="fill:none; stroke:black; stroke-width:1" />
<line x1="21.291901" y1="48.000000" x2="21.000000" y2="47.859867" style="fill:none; stroke:black; stroke-width:1" />
<line x1="58.734341" y1="47.000000" x2="58.329353" y2="48.000000" style="fill:none; stroke:black; stroke-width:1" />
<line x1="22.000000" y1="48.708099" x2="21.291901" y2="48.000000" style="fill:none; stroke:black; stroke-width:1" />
<line x1="22.140135" y1="49.000000" x2="22.000000" y2="48.708099" style="fill:none; stroke:black; stroke-width:1" />
<line x1="58.000000" y1="48.708099" x2="57.859867" y2="49.000000" style="fill:none; stroke:black; stroke-width:1" />
<line x1="58.329353" y1="48.000000" x2="58.000000" y2="48.708099" style="fill:none; stroke:black; stroke-width:1" />
<line x1="22.681038" y1="50.000000" x2="22.140135" y2="49.000000" style="fill:none; stroke:black; stroke-width:1" />
<line x1="57.859867" y1="49.000000" x2="57.318962" y2="50.000000" style="fill:none; stroke:black; stroke-width:1" />
<line x1="23.000000" y1="50.527084" x2="22.681038" y2="50.000000" style="fill:none; stroke:black; stroke-width:1" />
<line x1="23.298637" y1="51.000000" x2="23.000000" y2="50.527084" style="fill:none; stroke:black; stroke-width:1" />
<line x1="57.000000" y1="50.527084" x2="56.701363" y2="51.000000" style="fill:none; stroke:black; stroke-width:1" />
<line x1="57.318962" y1="50.000000" x2="57.000000" y2="50.527084" style="fill:none; stroke:black; stroke-width:1" />
<line x1="24.000000" y1="52.000000" x2="23.298637" y2="51.000000" style="fill:none; stroke:black; stroke-width:1" />
<line x1="56.701363" y1="51.000000" x2="56.000000" y2="52.000000" style="fill:none; stroke:black; stroke-width:1" />
<line x1="24.803463" y1="53.000000" x2="24.000000" y2="52.000000" style="fill:none; stroke:black; stroke-width:1" />
<line x1="56.000000" y1="52.000000" x2="55.196537" y2="53.000000" style="fill:none; stroke:black; stroke-width:1" />
<line x1="25.000000" y1="53.225113" x2="24.803463" y2="53.000000" style="fill:none; stroke:black; stroke-width:1" />
<line x1="25.720545" y1="54.000000" x2="25.000000" y2="53.225113" style="fill:none; stroke:black; stroke-width:1" />
<line x1="55.000000" y1="53.225113" x2="54.279453" y2="54.000000" style="fill:none; stroke:black; stroke-width:1" />
<line x1="55.196537" y1="53.000000" x2="55.000000" y2="53.225113" style="fill:none; stroke:black; stroke-width:1" />
<line x1="26.000000" y1="54.279453" x2="25.720545" y2="54.000000" style="fill:none; stroke:black; stroke-width:1" />
<line x1="26.774889" y1="55.000000" x2="26.000000" y2="54.279453" style="fill:none; stroke:black; stroke-width:1" />
<line x1="54.000000" y1="54.279453" x2="53.225113" y2="55.000000" style="fill:none; stroke:black; stroke-width:1" />
<line x1="54.279453" y1="54.000000" x2="54.000000" y2="54.279453" style="fill:none; stroke:black; stroke-width:1" />
<line x1="27.000000" y1="55.196537" x2="26.774889" y2="55.000000" style="fill:none; stroke:black; stroke-width:1" />
<line x1="28.000000" y1="56.000000" x2="27.000000" y2="55.196537" style="fill:none; stroke:black; stroke-width:1" />
<line x1="53.000000" y1="55.196537" x2="52.000000" y2="56.000000" style="fill:none; stroke:black; stroke-width:1" />
<line x1="53.225113" y1="55.000000" x2="53.000000" y2="55.196537" style="fill:none; stroke:black; stroke-width:1" />
<line x1="29.000000" y1="56.701363" x2="28.000000" y2="56.000000" style="fill:none; stroke:black; stroke-width:1" />
<line x1="29.472916" y1="57.000000" x2="29.000000" y2="56.701363" style="fill:none; stroke:black; stroke-width:1" />
<line x1="51.000000" y1="56.701363" x2="50.527084" y2="57.000000" style="fill:none; stroke:black; stroke-width:1" />
<line x1="52.000000" y1="56.000000" x2="51.000000" y2="56.701363" style="fill:none; stroke:black; stroke-width:1" />
<line x1="30.000000" y1="57.318962" x2="29.472916" y2="57.000000" style="fill:none; stroke:black; stroke-width:1" />
<line x1="31.000000" y1="57.859867" x2="30.000000" y2="57.318962" style="fill:none; stroke:black; stroke-width:1" />
<line x1="31.291901" y1="58.000000" x2="31.000000" y2="57.859867" style="fill:none; stroke:black; stroke-width:1" />
<line x1="49.000000" y1="57.859867" x2="48.708099" y2="58.000000" style="fill:none; stroke:black; stroke-width:1" />
<line x1="50.000000" y1="57.318962" x2="49.000000" y2="57.859867" style="fill:none; stroke:black; stroke-width:1" />
<line x1="50.527084" y1="57.000000" x2="50.000000" y2="57.318962" style="fill:none; stroke:black; stroke-width:1" />
<line x1="32.000000" y1="58.329353" x2="31.291901" y2="58.000000" style="fill:none; stroke:black; stroke-width:1" />
<line x1="33.000000" y1="58.734341" x2="32.000000" y2="58.329353" style="fill:none; stroke:black; stroke-width:1" />
<line x1="33.767792" y1="59.000000" x2="33.000000" y2="58.734341" style="fill:none; stroke:black; stroke-width:1" />
<line x1="47.000000" y1="58.734341" x2="46.232208" y2="59.000000" style="fill:none; stroke:black; stroke-width:1" />
<line x1="48.000000" y1="58.329353" x2="47.000000" y2="58.734341" style="fill:none; stroke:black; stroke-width:1" />
<line x1="48.708099" y1="58.000000" x2="48.000000" y2="58.329353" style="fill:none; stroke:black; stroke-width:1" />
<line x1="34.000000" y1="59.078621" x2="33.767792" y2="59.000000" style="fill:none; stroke:black; stroke-width:1" />
<line x1="35.000000" y1="59.364548" x2="34.000000" y2="59.078621" style="fill:none; stroke:black; stroke-width:1" />
<line x1="36.000000" y1="59.595669" x2="35.000000" y2="59.364548" style="fill:none; stroke:black; stroke-width:1" />
<line x1="37.000000" y1="59.773617" x2="36.000000" y2="59.595669" style="fill:none; stroke:black; stroke-width:1" />
<line x1="38.000000" y1="59.899727" x2="37.000000" y2="59.773617" style="fill:none; stroke:black; stroke-width:1" />
<line x1="39.000000" y1="59.974983" x2="38.000000" y2="59.899727" style="fill:none; stroke:black; stroke-width:1" />
<line x1="40.000000" y1="60.000000" x2="39.000000" y2="59.974983" style="fill:none; stroke:black; stroke-width:1" />
<line x1="41.000000" y1="59.974983" x2="40.000000" y2="60.000000" style="fill:none; stroke:black; stroke-width:1" />
<line x1="42.000000" y1="59.899727" x2="41.000000" y2="59.974983" style="fill:none; stroke:black; stroke-width:1" />
<line x1="43.000000" y1="59.773617" x2="42.000000" y2="59.899727" style="fill:none; stroke:black; stroke-width:1" />
<line x1="44.000000" y1="59.595669" x2="43.000000" y2="59.773617" style="fill:none; stroke:black; stroke-width:1" />
<line x1="45.000000" y1="59.364548" x2="44.000000" y2="59.595669" style="fill:none; stroke:black; stroke-width:1" />
<line x1="46.000000" y1="59.078621" x2="45.000000" y2="59.364548" style="fill:none; stroke:black; stroke-width:1" />
<line x1="46.232208" y1="59.000000" x2="46.000000" y2="59.078621" style="fill:none; stroke:black; stroke-width:1" />
</svg>
