<svg xmlns="http://www.w3.org/2000/svg" viewbox="0 0 88 88">
  <path d="M24.000000 10.921379 L24.000000 10.921379L25.000000 10.635452L26.000000 10.404331L27.000000 10.226383L28.000000 10.100274L29.000000 10.025017L30.000000 10.000000L31.000000 10.025017L32.000000 10.100274L33.000000 10.226383L34.000000 10.404331L35.000000 10.635452L36.000000 10.921379L36.232208 11.000000L37.000000 11.265658L38.000000 11.670647L38.708099 12.000000L39.000000 12.140134L40.000000 12.681037L40.527084 13.000000L41.000000 13.298637L42.000000 14.000000L43.000000 14.803463L43.225113 15.000000L44.000000 15.720546L44.279453 16.000000L45.000000 16.774889L45.196537 17.000000L46.000000 18.000000L46.701363 19.000000L47.000000 19.472916L47.318962 20.000000L47.859867 21.000000L48.000000 21.291901L48.708099 22.000000L49.000000 22.140135L50.000000 22.681038L50.527084 23.000000L51.000000 23.298637L52.000000 24.000000L53.000000 24.803463L53.225113 25.000000L54.000000 25.720545L54.279453 26.000000L55.000000 26.774889L55.196537 27.000000L56.000000 28.000000L56.701363 29.000000L57.000000 29.472916L57.318962 30.000000L57.859867 31.000000L58.000000 31.291901L58.329353 32.000000L58.734341 33.000000L59.000000 33.767792L59.078621 34.000000L59.364548 35.000000L59.595669 36.000000L59.773617 37.000000L59.899727 38.000000L59.974983 39.000000L60.000000 40.000000L59.974983 41.000000L59.899727 42.000000L59.773617 43.000000L59.595669 44.000000L59.364548 45.000000L59.078621 46.000000L59.000000 46.232208L58.734341 47.000000L58.329353 48.000000L58.000000 48.708099L57.859867 49.000000L57.318962 50.000000L57.000000 50.527084L56.701363 51.000000L56.000000 52.000000L55.196537 53.000000L55.000000 53.225113L54.279453 54.000000L54.000000 54.279453L53.225113 55.000000L53.000000 55.196537L52.000000 56.000000L51.000000 56.701363L50.527084 57.000000L50.000000 57.318962L49.000000 57.859867L48.708099 58.000000L48.000000 58.329353L47.000000 58.734341L46.232208 59.000000L46.000000 59.078621L45.000000 59.364548L44.000000 59.595669L43.000000 59.773617L42.000000 59.899727L41.000000 59.974983L40.000000 60.000000L39.000000 59.974983L38.000000 59.899727L37.000000 59.773617L36.000000 59.595669L35.000000 59.364548L34.000000 59.078621L33.767792 59.000000L33.000000 58.734341L32.000000 58.329353L31.291901 58.000000L31.000000 57.859867L30.000000 57.318962L29.472916 57.000000L29.000000 56.701363L28.000000 56.000000L27.000000 55.196537L26.774889 55.000000L26.000000 54.279453L25.720545 54.000000L25.000000 53.225113L24.803463 53.000000L24.000000 52.000000L23.298637 51.000000L23.000000 50.527084L22.681038 50.000000L22.140135 49.000000L22.000000 48.708099L21.291901 48.000000L21.000000 47.859867L20.000000 47.318962L19.472916 47.000000L19.000000 46.701363L18.000000 46.000000L17.000000 45.196537L16.774889 45.000000L16.000000 44.279453L15.720546 44.000000L15.000000 43.225113L14.803463 43.000000L14.000000 42.000000L13.298637 41.000000L13.000000 40.527084L12.681037 40.000000L12.140134 39.000000L12.000000 38.708099L11.670647 38.000000L11.265658 37.000000L11.000000 36.232208L10.921379 36.000000L10.635452 35.000000L10.404331 34.000000L10.226383 33.000000L10.100274 32.000000L10.025017 31.000000L10.000000 30.000000L10.025017 29.000000L10.100274 28.000000L10.226383 27.000000L10.404331 26.000000L10.635452 25.000000L10.921379 24.000000L11.000000 23.767794L11.265658 23.000000L11.670647 22.000000L12.000000 21.291901L12.140134 21.000000L12.681037 20.000000L13.000000 19.472916L13.298637 19.000000L14.000000 18.000000L14.803463 17.000000L15.000000 16.774889L15.720546 16.000000L16.000000 15.720546L16.774889 15.000000L17.000000 14.803463L18.000000 14.000000L19.000000 13.298637L19.472916 13.000000L20.000000 12.681037L21.000000 12.140134L21.291901 12.000000L22.000000 11.670647L23.000000 11.265658 Z" style="fill:black; stroke:none; stroke-width:0"></path>\n</svg>